<svg width="350" height="568" viewBox="0 0 350 568" fill="none" xmlns="http://www.w3.org/2000/svg">
<path d="M199.873 566.758C198.378 566.634 196.907 566.093 195.601 565.313C174.513 552.454 153.931 539.498 134.086 525.467C132.499 524.328 129.78 523.306 130.507 521.097C131.214 518.789 134.102 519.056 136.204 519.061C140.61 519.033 145.012 519.522 149.144 520.788C163.175 524.886 177.167 528.786 191.135 533.104C194.601 534.188 196.264 533.555 197.709 530.174C205.35 511.636 213.213 493.158 221.057 474.581C230.841 451.389 240.727 428.178 250.733 405.046C251.908 402.441 251.762 400.608 250.064 398.354C237.618 381.854 232.084 363.083 232.507 342.535C232.979 321.15 234.843 299.909 237.576 278.809C238.162 274.251 238.849 269.673 239.603 264.359C236.639 265.864 234.745 267.472 232.789 269.299C220.945 280.797 207.924 290.56 191.396 294.698C176.67 298.383 164.326 293.233 153.147 284.343C134.642 269.64 125.327 248.708 114.427 228.807C107.585 216.284 101.86 203.028 93.7795 191.159C91.4252 187.688 89.6703 187.305 86.2728 189.825C82.0417 192.921 77.2703 195.397 72.7788 198.233C70.1571 199.879 68.4647 199.277 66.9304 196.784C52.0551 171.556 31.8886 150.456 10.3584 130.448C8.19283 128.491 6.69266 126.715 9.70905 123.856C27.2387 107.016 46.0854 92.0917 68.309 81.5766C74.3769 78.745 79.6078 79.1769 84.619 83.8892C99.093 97.3079 110.493 113.287 122.422 128.75C126.759 134.317 131.014 140.003 135.269 145.689C137.406 148.582 137.547 150.932 134.251 153.432C130.222 156.488 126.531 160.202 122.522 163.358C120.609 164.866 120.58 165.802 121.714 167.856C128.797 180.538 135.963 193.101 145.099 204.455C148.838 209.104 153.636 212.721 158.805 215.542C162.326 217.443 166.418 216.339 170.211 214.776C183.721 209.156 192.788 198.507 201.595 187.598C210.73 176.212 219.604 164.567 229.583 153.741C243.97 138.028 260.832 125.867 281.543 119.469C284.522 118.581 285.625 117.23 285.209 114.003C284.924 111.991 284.668 111.214 282.383 111.347C266.957 111.964 261.568 104.224 263.421 88.8768C261.276 89.1898 259.131 89.5028 257.068 89.6965C253.365 90.105 251.701 88.5674 253.209 84.9673C255.067 80.472 257.128 75.9375 259.107 71.5222C259.911 69.7123 260.567 68.7582 257.828 67.636C250.518 64.6102 248.423 59.2285 251.803 51.7504C253.431 48.2302 255.097 44.9093 255.496 41.0076C255.649 39.634 256.169 37.9827 258.661 37.2923C258.568 43.3055 254.869 50.2252 262.088 54.4057C264.34 55.7257 266.586 55.3931 269.14 54.4838C265.691 49.1583 263.07 43.7752 262.903 37.5025C262.893 36.3675 262.483 34.7934 264.02 34.5983C265.558 34.4032 265.463 36.0755 265.776 37.1516C267.49 42.1938 268.881 47.1954 271.872 51.783C277.517 60.3001 287.833 59.3315 295.293 54.4726C290.197 52.5676 285.568 50.3652 281.271 47.168C277.697 44.4507 275.912 40.6627 273.577 37.2915C273.138 36.6531 272.419 35.6557 273.354 35.0608C274.187 34.4855 275.441 34.4489 275.895 35.7046C277.536 39.8307 280.018 38.0052 282.736 36.8575C289.836 33.929 296.858 30.6022 304.716 31.0409C314.594 31.6043 322.078 35.5267 322.31 45.9213C322.413 50.2425 322.517 54.5637 321.304 59.1403C323.391 58.5285 324.991 58.1145 326.572 57.6009C328.925 56.7309 331.152 56.2987 333.134 58.3946C334.996 60.4106 334.693 62.64 334.005 65.0475C332.667 70.0619 329.218 73.9357 325.112 76.5931C319.338 80.4011 318.386 85.2373 318.698 91.1719C318.888 94.8561 319.28 98.501 319.166 102.244C319.061 104.952 320.132 105.054 322.18 104.243C328.267 101.511 334.828 100.135 341.287 98.7776C346.734 97.617 352.297 97.0541 358.029 97.9054C363.54 98.6964 369.31 97.5765 374.801 98.2679C383.402 99.286 391.647 101.717 399.825 104.884C412.313 109.696 424.411 115.203 435.238 122.818C447.651 131.572 458.026 142.272 465.568 155.692C470.383 164.267 472.687 173.433 475.618 182.58C480.181 196.889 478.882 211.302 478.754 225.797C478.686 233.563 479.244 241.31 479.701 249.077C480.537 262.042 481.556 274.868 486.359 287.166C488.888 293.704 492.699 299.269 497.749 304.181C499.051 305.478 500.961 306.658 500.427 309.863C492.244 305.042 486.682 298.576 483.015 290.502C479.265 282.548 477.785 273.842 476.778 264.322C465.8 271.621 453.96 273.402 441.754 273.29C439.753 273.265 439.281 274.08 439.143 276.071C438.838 283.159 438.311 290.186 437.885 297.194C437.842 297.513 437.674 298.269 437.775 298.249C438.44 298.43 438.464 298.012 438.368 297.514C440.604 296.047 441.755 293.859 443.128 291.732C443.845 290.559 444.645 289.267 446.279 289.57C447.895 289.773 448.387 291.228 448.74 292.504C449.541 295.552 450.546 298.562 451.752 301.532C453.871 306.495 458.313 309.354 461.246 313.643C452.124 312.106 449.078 304.531 445.117 297.651C443.464 299.419 441.812 301.187 440.077 303.074C438.506 304.723 436.492 306.251 434.259 305.03C432.147 303.89 432.835 301.482 433.075 299.472C433.794 291.27 435.28 283.229 435.353 274.946C435.411 256.846 433.021 239.118 428.384 221.723C426.8 215.725 425.216 209.728 422.436 204.065C415.685 190.388 398.258 181.78 382.992 184.847C381.372 185.161 380.278 185.477 381.171 187.371C384.067 193.631 388.018 199.376 389.453 206.229C389.685 207.424 391.228 208.882 392.625 206.337C393.877 204.13 395.25 202.003 396.864 200.036C399.398 196.857 402.69 194.874 406.967 195.801C410.375 196.587 411.905 199.597 410.321 202.799C408.303 207.015 404.602 209.594 400.384 211.136C398.418 211.828 397.556 213.339 395.608 214.13C401.95 219.205 408.436 221.77 416.23 220.258C417.546 220.002 419.31 219.35 419.822 220.904C420.314 222.359 418.449 223.031 417.191 223.585C410.617 226.515 404.508 224.807 397.468 221.005C400.34 227.683 402.473 233.264 405.012 238.766C410.171 249.652 415.715 260.359 420.956 271.125C422.862 274.993 420.01 277.614 417.624 279.937C414.526 282.916 412.227 284.603 415.455 289.868C422.509 301.316 421.224 314.176 417.981 326.692C414.526 340.283 409.48 353.252 401.937 365.259C401.446 365.975 400.588 366.968 401.311 367.448C402.377 368.068 403.872 368.191 405.125 368.155C413.132 367.738 421.105 366.604 429.045 366.923C441.936 367.315 454.517 363.943 467.389 364.236C470.662 364.324 473.93 362.759 477.358 363.644C480.241 364.428 481.544 365.726 481.637 368.912C481.718 377.992 482.123 387.113 482.306 396.174C482.341 399.061 482.882 399.68 486.203 398.932C495.154 396.884 504.129 394.419 513.293 393.467C517.096 393.039 518.22 393.958 518.752 397.782C522.216 422.124 525.579 446.485 527.283 470.961C527.502 473.71 528.579 477.635 525.537 478.742C521.807 480.086 520.571 475.882 519.075 473.588C511.881 461.961 504.789 450.313 498.549 438.191C496.682 434.522 494.772 433.342 490.13 434.863C461.832 444.387 433.244 452.416 403.347 455.325C380.671 457.555 357.926 458.352 335.497 453.196C332.754 452.591 331.091 453.224 329.275 455.231C308.99 477.359 288.103 499.089 266.555 520.119C264.006 522.681 261.721 522.814 258.948 520.975C254.969 518.337 251.01 515.797 247.012 513.059C245.667 512.08 244.76 511.739 243.836 513.469C234.569 530.668 222.67 546.208 211.011 561.908C210.847 562.147 208.539 564.869 208.539 564.869C207.441 565.702 206.082 566.276 204.785 566.631L204.279 566.73C202.982 567.085 201.526 567.16 200.254 567.097L199.873 566.758ZM248.238 142.161L248.32 142.042C247.23 141.84 246.58 142.277 246.388 143.451C237.969 149.323 231.257 156.414 224.859 164.581C215.763 176.166 206.826 188.03 196.626 198.796C191.403 204.357 185.181 208.562 179.799 213.845C171.42 222.086 160.043 221.917 150.807 214.924C143.901 209.649 138.561 203.243 133.833 196.202C131.759 193.09 130.264 192.967 128.198 195.849C123.206 200.435 116.761 202.41 110.616 204.843C107.107 206.247 107.031 208.019 108.787 210.573C116.072 221.046 119.52 233.4 126.742 244.092C132.647 252.869 137.82 262.201 143.927 270.938C149.596 279.037 155.315 281.442 163.6 279.213C174.803 276.316 185.469 272.281 195.146 265.855C199.517 262.94 204.428 260.643 208.278 257.208C219.564 247.162 230.15 236.218 240.012 224.795C243.014 221.318 247.023 218.162 247.835 213.147C249.479 203.215 251.528 193.204 252.848 183.232C255.048 167.507 259.529 152.167 262.052 136.483C262.225 135.209 263.39 133.639 261.963 132.779C260.656 131.999 259.331 133.29 258.314 134.004C255.264 136.146 252.373 138.568 249.462 140.89C248.893 141.207 247.924 141.085 248.238 142.161ZM404.017 110.789L404.137 110.869C403.847 109.375 402.686 110.427 401.92 110.266C398.987 108.148 395.824 107.004 392.338 105.821C370.492 98.7942 348.49 100.17 326.375 105.29C323.661 105.92 322.336 107.211 321.686 109.817C317.067 127.149 313.518 144.582 314.308 162.724C314.913 176.664 315.903 190.426 323.676 202.871C330.074 213.103 337.911 220.471 350.638 221.102C362.537 221.79 373.579 218.613 384.236 213.444C387.889 211.701 388.004 210.128 386.435 206.918C381.552 196.91 376.871 186.862 372.189 176.814C371.436 175.099 370.177 173.483 370.885 171.175C374.573 172.32 374.503 175.745 375.897 178.058C377.649 181.129 378.927 182.845 383.521 182.16C395.683 180.42 407.596 181.725 416.75 191.008C424.342 198.734 428.845 208.403 431.42 218.963C433.565 227.849 435.589 236.656 436.5 245.678C436.815 248.925 438.469 249.327 441.26 249.096C450.824 248.583 459.548 244.823 468.267 241.58C470.488 239.495 475.209 240.543 475.413 235.645C475.83 220.473 476.145 205.321 473.872 190.361C469.413 161.975 453.715 140.628 430.191 124.418C422.678 119.261 415 114.342 406.235 111.392C405.757 110.555 405.178 109.737 404.017 110.789ZM200.411 563.036C202.113 564.772 203.449 564.617 204.841 562.589C206.97 559.489 208.998 556.408 211.629 553.726C213.995 551.303 212.264 550.502 210.595 549.482C205.716 548.155 203.452 543.53 199.575 540.871C198.23 539.892 197.236 538.018 195.269 538.71C192.898 539.48 195.121 541.736 194.119 543.067C192.973 544.737 196.074 548.27 192.637 548.42C190.333 548.454 191.396 544.733 190.605 542.819C189.557 540.128 190.828 535.851 185.467 536.374C185.444 538.963 185.441 541.651 185.437 544.339C185.409 545.275 185.26 546.131 184.228 546.227C183.298 546.305 182.719 545.487 182.545 544.59C182.158 542.598 181.126 540.524 181.506 538.694C182.477 533.957 178.986 533.291 176.103 532.507C168.22 530.316 160.645 527.548 152.906 525.019C148.654 523.674 143.402 520.972 137.841 523.705C139.427 524.844 140.652 525.744 141.877 526.643C153.75 534.778 165.334 543.589 178.108 550.413C185.814 554.396 192.373 560.048 200.411 563.036ZM496.286 403.797C497.587 412.123 496.501 420.603 498.284 429.249C500.805 427.623 500.384 424.914 501.974 423.365C502.769 422.591 503.444 421.736 504.471 422.157C505.821 422.618 505.325 423.852 504.974 424.747C504.391 426.617 503.789 428.388 502.199 429.937C500.426 431.624 499.174 433.831 502.448 436.09C503.089 434.519 503.507 432.887 504.408 431.575C505.391 430.144 505.784 426.76 508.359 428.121C510.37 429.281 508.448 431.825 507.846 433.595C507.514 434.59 506.295 435.343 505.539 436.317C504.373 437.887 503.954 439.519 504.968 441.493C510.353 451.921 515.353 462.527 523.635 472.186C523.001 447.812 518.274 424.543 514.801 401.237C514.246 400.001 515.522 397.376 512.548 397.746C507.53 398.41 502.43 399.193 497.412 399.857C494.274 400.466 495.229 402.141 496.286 403.797ZM244.646 226.479C237.568 233.848 230.731 241.377 223.272 248.406C204.889 265.721 184.856 279.946 158.796 283.143C166.924 292.006 183.653 294.857 196.618 289.136C211.227 282.683 223.4 272.878 235.292 262.715C237.268 260.987 240.208 259.9 240.66 256.815C242.082 246.823 243.484 236.731 244.805 226.759C245.292 226.561 245.537 226.203 244.954 225.903C244.973 226.002 244.809 226.241 244.646 226.479ZM297.412 107.603C299.578 109.56 297.322 110.928 296.643 112.301C295.449 114.806 297.471 119.272 293.972 119.641C290.978 119.912 291.486 114.955 289.258 113.217C288.617 112.618 288.091 112.617 288.082 113.652C288.924 119.07 285.955 121.094 281.072 122.455C276.797 123.698 272.917 125.898 268.739 127.639C266.994 128.392 265.452 129.104 265.289 131.513C264.835 139.457 262.746 147.098 261.323 154.919C261.049 156.213 259.883 157.783 261.108 158.682C262.454 159.661 263.861 158.251 265.341 157.757C270.209 155.779 275.019 153.502 280.162 152.4C288.93 150.491 288.626 150.55 288.443 141.49C288.281 134.7 290.38 128.194 291.33 121.187C293.341 122.347 293.371 123.582 293.28 124.737C292.902 130.908 292.544 137.18 292.065 143.371C291.874 146.716 291.34 149.92 296.536 147.465C298.078 146.752 299.818 146.518 301.539 146.184C310.712 144.197 310.934 144.257 312.289 135.001C313.538 126.283 317.106 118.148 318.557 109.391C315.693 108.706 313.8 110.314 311.848 111.623C309.347 113.349 307.304 115.813 304.345 116.801C303.149 117.136 301.482 118.287 300.584 116.911C299.528 115.255 301.432 114.782 302.53 113.949C304.198 112.798 305.764 111.667 307.711 110.876C316.575 107.295 316.946 106.5 315.128 97.1361C314.78 95.3431 314.312 93.4702 313.964 91.6772C314.094 90.7218 314.406 89.6274 314.232 88.7309C313.154 82.635 315.013 78.1398 320.521 74.5899C323.977 72.3688 327.316 69.5501 329.17 65.5725C329.767 64.3196 331.275 62.8899 329.833 61.4126C328.531 60.115 326.945 61.1462 325.606 61.8197C322.275 63.6031 318.984 65.5857 315.513 67.1895C310.988 69.3082 308.312 67.9671 306.005 63.6601C304.533 60.9482 305.308 57.9037 304.526 54.9547C294.006 62.9915 283.063 63.9785 272.488 57.6586C270.115 56.2586 269.817 57.9702 269.282 59.0042C264.881 67.7142 260.58 76.4045 255.952 85.5718C257.813 85.4174 259.187 85.4608 260.401 85.225C268.321 83.2744 268.562 83.4344 266.556 90.9558C264.111 100.009 269.586 107.112 279.025 107.038C287.838 106.981 294.951 102.499 302.103 98.2171C305.414 96.3342 307.471 92.3173 312.055 92.6678C309.065 99.45 302.669 102.759 297.036 106.746C293.488 107.951 290.042 109.137 286.475 110.243C291.865 110.954 293.326 110.36 297.412 107.603ZM414.775 298.269C413.872 295.24 413.374 292.132 411.56 289.28C410.363 287.445 409.722 286.846 407.751 288.056C401.592 292.042 395.114 295.47 388.28 298.14C385.744 299.149 385.432 300.243 386.522 302.616C389.297 308.795 391.383 315.213 393.368 321.649C394.725 325.934 393.511 328.34 389.414 329.962C377.143 334.928 365.248 340.751 352.759 345.139C328.351 353.597 303.343 358.968 277.325 357.506C273.709 357.278 273.068 358.849 272.158 361.196C267.117 373.648 261.956 386.02 257.156 398.631C255.5 403.087 252.556 406.863 250.88 411.219C248.107 418.579 245.817 426.259 242.701 433.479C235.295 450.525 226.882 467.249 220.947 484.835C220.489 486.268 219.67 487.46 221.498 488.759C226.861 492.577 231.958 496.652 237.138 500.608C243.321 505.403 250.24 509.125 255.831 514.655C259.737 518.548 261.998 518.833 265.549 514.939C265.978 514.443 266.648 514.106 267.077 513.609C276.656 504.515 287.099 496.079 295.554 486.066C302.824 477.523 310.756 469.678 317.925 461.155C330.403 446.432 344.507 433.049 356.465 417.807C358.324 415.483 361.12 414.733 362.7 412.049C364.896 408.212 367.676 404.675 370.335 401.058C379.233 388.995 389.655 378.289 397.188 365.147C404.515 352.562 410.389 339.535 413.545 325.485C415.724 316.69 417.2 307.514 414.775 298.269ZM301.946 150.446C289.269 153.32 276.014 157.546 262.918 162.052C260.951 162.744 259.93 163.976 259.589 166.006C258.666 172.077 257.319 178.126 256.517 184.277C255.888 189.154 253.201 193.707 253.16 198.366C253.109 204.061 251.767 209.593 251.153 215.087C248.532 237.302 243.226 259.211 241.067 281.646C239.188 302.27 237.087 322.834 236.702 343.581C236.597 346.289 237.74 347.307 240.002 347.592C245.797 348.224 251.072 350.508 256.886 351.24C281.676 354.491 306.257 353.958 330.667 347.67C350.174 342.643 369.049 335.982 387.075 327.109C389.957 325.722 390.375 324.091 389.468 321.579C387.377 315.68 385.489 309.741 383.115 304C373.596 280.937 360.709 259.458 349.465 237.247C346.088 230.667 342.695 223.47 334.681 220.064C327.815 217.159 323.747 210.816 320.307 204.455C312.292 189.68 309.927 173.704 310.579 157.039C310.854 148.717 310.753 148.737 301.946 150.446ZM390.261 451.766C406.078 450.453 421.543 450.036 436.717 445.954C449.885 442.364 463.194 438.954 476.145 434.787C478.232 434.175 480.416 434.061 479.436 430.634C478.513 427.505 478.362 424.02 478.351 420.715C478.097 403.709 477.76 386.823 477.809 369.759C477.861 366.234 476.612 365.753 473.657 366.223C453.358 369.336 432.793 370.537 412.338 370.682C409.509 370.715 408.694 371.39 408.994 374.019C410.916 389.874 408.779 405.38 405.166 420.862C402.501 432.026 398.466 442.628 390.261 451.766ZM73.3816 83.8996C71.3958 84.4918 70.181 84.7276 69.1255 85.2425C67.8676 85.7968 66.7495 86.5306 65.5109 87.1845C47.896 97.632 31.2605 109.337 16.0431 122.937C10.7667 127.682 10.6268 127.502 16.9392 131.342C17.5227 131.642 18.0436 132.161 18.5452 132.58C29.995 142.865 39.2667 154.916 49.719 166.015C57.1084 173.78 63.274 182.816 68.9334 191.95C70.4484 194.344 71.8416 194.487 73.7741 193.078C83.6581 186.095 94.1403 180.029 104.063 173.245C108.232 170.369 109.383 168.182 107.057 163.775C105.667 160.944 105.217 157 108.87 155.257C112.036 153.713 114.01 156.844 115.891 158.96C116.311 159.498 116.812 159.918 117.15 160.576C118.265 162.53 119.417 162.513 121.127 161.044C124.529 158.006 128.192 155.228 131.574 152.091C132.818 150.92 133.521 149.129 131.958 147.572C124.323 140.165 120.451 129.96 112.676 122.373C106.083 116.004 101.427 107.708 95.7104 100.445C91.2531 94.7984 86.1645 89.6876 80.2184 85.5702C77.9903 83.8321 75.4107 82.989 73.3816 83.8996ZM416.989 271.792C413.833 265.272 410.493 258.892 407.439 252.353C402.062 240.889 396.99 229.367 391.715 217.884C390.586 215.312 390.016 213.459 385.992 215.997C375.057 222.977 363.074 227.267 349.57 225.34C346.22 224.853 346.008 225.928 347.562 228.521C353.516 238.632 359.47 248.743 365.24 258.992C370.992 269.143 375.322 280.086 380.22 290.712C381.33 293.184 382.75 297.249 385.815 295.724C396.331 290.375 406.708 284.847 415.029 276.307C416.272 275.135 417.819 273.905 416.989 271.792ZM243.038 509.902C242.276 509.223 241.756 508.704 241.254 508.285C234.912 503.211 228.488 498.256 222.31 492.943C219.522 490.487 218.428 490.802 217.186 494.144C213.113 504.548 209.262 515.011 204.605 525.114C199 537.365 198.657 537.225 209.951 544.542C210.675 545.022 211.398 545.502 211.938 546.121C214.321 548.656 215.984 548.023 217.766 545.3C225.566 534.07 233.587 522.9 241.506 511.75C241.897 511.054 242.528 510.518 243.038 509.902ZM271.163 357.151C259.25 355.846 248.195 353.547 237.154 349.695C238.045 367.817 243.708 383.463 253.159 398.063C259.14 384.499 264.976 371.273 271.163 357.151ZM102.803 178.658C99.2028 181.217 99.1015 181.237 100.67 184.447C101.384 185.962 102.764 187.658 100.793 188.868C98.6191 190.116 98.0539 187.745 97.1758 186.469C96.5776 185.551 97.309 182.825 94.7066 184.571C92.4705 186.038 94.4427 186.999 95.0796 188.116C97.8058 192.962 101.853 197.034 103.909 202.217C104.541 203.851 105.366 204.311 107.009 203.579C111.149 201.638 115.666 200.555 119.29 197.578C122.547 194.878 128.356 193.958 129.077 190.097C129.818 186.335 125.381 182.958 123.311 179.329C119.668 173.007 116.574 166.269 111.635 160.302C109.682 168.64 116.96 175.29 115.252 183.27C113.554 181.016 112.545 178.524 111.151 176.211C110.533 175.194 110.821 172.347 108.465 173.735C107.144 174.508 105.212 175.917 106.302 178.289C106.978 179.605 107.875 180.981 108.247 182.356C108.58 183.532 109.637 185.187 107.892 185.939C106.066 186.811 105.009 185.155 104.536 183.8C103.6 182.224 103.252 180.431 102.803 178.658ZM280.477 40.9136C287.167 47.7808 294.039 52.3387 303.925 49.6964C307.227 48.8488 308.814 49.9879 309.027 53.254C309.207 55.8033 309.69 58.2935 310.154 60.6842C310.541 62.6764 311.52 63.9334 314.008 63.7607C316.394 63.6076 317.213 62.4151 317.655 60.3653C318.94 54.5344 319.274 48.6812 318.133 42.8042C317.307 38.0032 314.061 34.8088 309.09 34.6365C299.251 34.2723 289.798 35.9002 280.477 40.9136ZM452.315 269.793C457.126 269.686 461.757 267.03 466.582 265.37C467.474 265.094 469.393 265.238 468.582 263.225C466.902 258.9 467.468 254.242 466.82 249.82C466.689 248.605 466.891 246.395 464.172 247.543C458.249 250.036 451.76 250.159 445.605 251.457C443.074 251.948 439.969 251.104 438.118 252.393C435.333 254.277 439.576 256.658 438.787 259.085C438.705 259.204 438.744 259.404 438.782 259.603C438.914 272.188 438.914 272.188 452.315 269.793ZM492.641 404.504C492.009 402.869 492.499 399.984 489.901 401.211C487.506 402.4 482.621 399.42 482.672 405.095C482.719 411.288 482.683 417.6 482.73 423.793C482.715 432.375 482.676 432.175 491.025 429.728C493.902 428.86 495.044 427.708 494.85 424.541C494.586 417.77 492.138 411.113 492.641 404.504ZM475.662 241.798C470.129 243.596 468.202 246.657 470.157 251.859C471.045 254.271 471.163 257.039 471.665 259.629C471.897 260.824 471.315 262.695 473.46 262.382C474.897 262.206 476.357 261.613 476.255 259.462C475.982 253.727 475.892 247.852 475.662 241.798ZM267.002 58.6199C261.183 58.4056 257.094 56.8219 254.306 52.195C252.829 59.2002 254.692 63.3865 259.49 64.8328C264.914 66.2607 264.01 61.0613 267.002 58.6199ZM393.745 209.944C399.091 208.803 402.831 206.423 405.673 202.668C406.43 201.694 407.755 200.403 406.25 199.145C405.088 198.027 403.405 198.56 402.548 199.553C399.71 202.791 396.25 205.53 393.745 209.944Z" fill="black"/>
<path d="M298.783 215.87C302.922 220.959 301.984 226.412 303.115 231.154C303.757 233.924 304.153 234.881 307.171 234.192C308.973 233.738 310.911 233.982 312.71 234.047C315.66 234.094 317.975 235.195 318.593 238.383C322.198 255.875 324.328 273.344 322.491 291.479C321.561 300.755 318.315 308.931 313.802 316.525C309.453 323.881 301.167 326.11 292.744 325.47C276.748 324.234 268.109 313.817 262.264 300.481C255.391 284.553 253.498 267.762 253.427 250.618C253.444 246.377 256.046 244.631 259.531 243.645C268.853 240.802 278.291 238.556 287.903 237.208C291.89 236.641 292.916 234.891 292.683 231.525C292.591 230.51 291.655 228.934 293.636 228.86C295.092 228.784 295.362 230.178 295.594 231.374C295.981 233.366 295.852 236.492 298.321 236.219C302.124 235.791 300.112 232.461 299.928 230.429C299.766 225.809 298.188 221.464 298.783 215.87ZM269.324 304.382C269.642 304.94 270.062 305.479 270.381 306.037C276.162 317.422 287.286 323.325 299.636 320.928C309.961 318.924 314.556 311.211 317.083 302.038C320.778 288.607 320.111 274.886 318.634 261.322C317.868 254.132 317.407 246.882 315.205 239.868C313.612 234.905 310.291 237.824 307.664 237.817C304.613 237.789 304.879 239.701 305.323 241.992C306.193 246.475 306.538 250.956 307.104 255.497C307.274 256.911 307.501 258.624 304.281 259.353C303.102 253.277 301.821 247.22 300.844 241.104C300.574 239.71 300.708 238.237 298.683 238.63C287.992 240.911 277.068 241.998 266.667 245.774C258.515 246.529 258.554 246.728 258.428 254.195C258.272 260.427 258.863 266.721 259.739 272.856C261.258 283.931 263.669 294.73 269.647 304.423C269.363 304.581 269.324 304.382 269.324 304.382Z" fill="black"/>
<path d="M297.725 161.707C287.951 167.635 277.176 167.866 267.103 171.165C268.108 167.145 292.184 159.681 297.725 161.707Z" fill="black"/>
<path d="M280.863 98.1037C279.668 98.4391 278.453 98.6749 278.019 97.5189C277.782 96.8412 278.336 95.9068 279.228 95.6304C284.01 94.2889 287.315 90.7532 291.098 88.055C291.932 87.4798 292.866 86.8848 293.788 87.843C294.709 88.8012 293.832 89.695 293.36 90.5101C290.509 95.3015 285.225 96.2235 280.863 98.1037Z" fill="black"/>
<path d="M293.314 79.4592C295.623 78.9077 302.399 85.1379 301.914 87.5062C301.596 89.1182 300.28 89.3736 299.258 88.4351C296.649 86.3574 295.201 83.2275 292.389 81.1891C291.464 80.7486 292.442 79.8352 293.314 79.4592Z" fill="black"/>
<path d="M285.218 71.8313C285.682 74.222 284.236 75.4328 282.192 75.7262C280.148 76.0195 279.068 74.7821 278.782 72.7703C278.477 70.6588 279.639 69.6065 281.562 69.2332C283.707 68.9202 284.831 69.8391 285.218 71.8313Z" fill="black"/>
</svg>
