<svg id="Guide" height="512" viewBox="0 0 512 512" width="512" xmlns="http://www.w3.org/2000/svg">
<path d="m412.165 368.9v-19.445a21.026 21.026 0 0 0 -11.879-34.833 21.038 21.038 0 0 0 -18.826-30.516h-6.695a20.661 20.661 0 0 0 -19.223-28.176h-10.472c-1.916 0-7.923-.715-10.31-3.813-1.318-1.712-1.52-4.367-.6-7.893a6 6 0 0 0 -5.8-7.517h-15.338v-156.443a15.039 15.039 0 0 0 -15.022-15.022h-26.96v-38.742a16.495 16.495 0 0 0 -21.235-15.8l-176.695 54.62a15.044 15.044 0 0 0 -13.486 14.944v377.841a15.04 15.04 0 0 0 15.022 15.023h192.53a82.273 82.273 0 0 0 129.992-6.228l27.068-11.079a45.291 45.291 0 0 0 -12.071-86.921zm-6.542-33.55a9.092 9.092 0 0 1 -9.081 9.081h-133.58a9.082 9.082 0 1 1 0-18.163h133.58a9.092 9.092 0 0 1 9.081 9.083zm-15.081-30.164a9.092 9.092 0 0 1 -9.082 9.082h-105.572a9.082 9.082 0 1 1 0-18.163h85.191.04.06 20.281a9.092 9.092 0 0 1 9.082 9.082zm-65.235-45.679c6.446 8.282 18.485 8.417 19.78 8.422h10.455a8.629 8.629 0 0 1 4.193 16.176h-47.642c-9.248 0-16.77-7.94-16.77-17.7a17.573 17.573 0 0 1 12.524-17.1 5.848 5.848 0 0 0 1.177-.286 15.947 15.947 0 0 1 3.069-.31h9.516a17.983 17.983 0 0 0 3.698 10.799zm-72.033-237.317a4.5 4.5 0 0 1 5.766 4.31v38.742h-145.04zm-178.628 438.938a3.025 3.025 0 0 1 -3.022-3.023v-377.841a3 3 0 0 1 1.009-2.237h.01l2.531-.782h222.826a3.025 3.025 0 0 1 3.022 3.022v158.733a29.765 29.765 0 0 0 -17.7 27.409 30.177 30.177 0 0 0 5.683 17.7h-13.117a21.062 21.062 0 0 0 -18.61 30.963 21.021 21.021 0 0 0 -9.94 34.386v70.132a81.877 81.877 0 0 0 11.28 41.541zm255.106 28.872a70.493 70.493 0 0 1 -70.414-70.413v-36.706h19.333a6 6 0 0 0 0-12h-19.333v-14.781a21.107 21.107 0 0 0 3.624.334h133.58a21.014 21.014 0 0 0 3.623-.334v14.8l-93.406-.017a6 6 0 0 0 0 12l93.408.017v36.689a70.493 70.493 0 0 1 -70.415 70.411zm89.939-45.283-13.456 5.508a81.942 81.942 0 0 0 5.93-30.638v-38.587a33.293 33.293 0 0 1 7.526 63.716z"/><path d="m233.765 381.383h-108.271a6 6 0 1 0 0 12h108.271a6 6 0 0 0 0-12z"/><path d="m233.765 408.451h-68.572a6 6 0 1 0 0 12h68.572a6 6 0 0 0 0-12z"/><path d="m144.354 408.451h-18.86a6 6 0 0 0 0 12h18.86a6 6 0 1 0 0-12z"/><path d="m233.765 327.248h-108.271a6 6 0 1 0 0 12h108.271a6 6 0 0 0 0-12z"/><path d="m233.765 354.315h-68.572a6 6 0 0 0 0 12h68.572a6 6 0 0 0 0-12z"/><path d="m125.494 366.315h18.86a6 6 0 0 0 0-12h-18.86a6 6 0 1 0 0 12z"/><path d="m261.6 255.5a6 6 0 0 0 -6-6h-156.595a6 6 0 0 0 0 12h156.595a6 6 0 0 0 6-6z"/><path d="m152.421 187.593a41.872 41.872 0 0 0 -21.3 18.562 6 6 0 1 0 10.521 5.771 29.848 29.848 0 0 1 15.217-13.184 6 6 0 0 0 -4.441-11.149z"/><path d="m260.258 236.266a6 6 0 0 0 0-12h-7.682c-3.03-34.618-32.987-62.222-70.259-64.515a11 11 0 1 0 -10.033 0c-37.272 2.293-67.229 29.9-70.259 64.515h-7.681a6 6 0 0 0 0 12zm-82.958-87.293a1 1 0 1 1 -1 1 1 1 0 0 1 1-1zm0 22.606c32.921 0 60.072 23.152 63.237 52.687h-126.474c3.165-29.535 30.316-52.687 63.237-52.687z"/>
</svg>