<svg width="172" height="252" viewBox="0 0 172 252" fill="none" xmlns="http://www.w3.org/2000/svg">
<g clip-path="url(#clip0)">
<path d="M51.3227 251.318C50.6201 251.119 49.9677 250.72 49.4157 250.221C40.5332 242.048 31.9017 233.874 23.7218 225.251C23.0695 224.553 21.8651 223.806 22.4171 222.809C22.9691 221.762 24.324 222.161 25.3277 222.36C27.4354 222.759 29.4929 223.407 31.3497 224.404C37.6728 227.693 43.9959 230.883 50.2688 234.272C51.8245 235.12 52.6776 234.97 53.6813 233.475C59.0509 225.251 64.5209 217.077 69.9909 208.853C76.8158 198.586 83.6909 188.319 90.6162 178.101C91.4191 176.955 91.5195 176.058 90.9173 174.812C86.5012 165.691 85.5979 156.121 87.7056 146.253C89.9136 135.986 92.7741 125.918 96.036 115.999C96.7386 113.856 97.4913 111.713 98.3444 109.221C96.7888 109.669 95.7349 110.268 94.6309 110.965C87.9063 115.401 80.7803 118.89 72.5 119.339C65.1231 119.737 59.7033 116.099 55.1868 110.766C47.7095 101.944 45.2003 90.979 41.838 80.3628C39.7303 73.6841 38.2248 66.7562 35.4647 60.2769C34.6618 58.3829 33.8589 58.034 32.0021 58.9312C29.6937 60.0277 27.1845 60.7753 24.7757 61.7223C23.3706 62.2705 22.6178 61.8219 22.116 60.4762C17.3486 46.9194 9.6705 34.8579 1.23971 23.1951C0.38659 22.0487 -0.165426 21.0519 1.54081 19.9554C11.4771 13.476 21.8651 8.04335 33.4574 5.05288C36.6189 4.25543 39.0779 4.9532 41.0351 7.69447C46.7058 15.5195 50.6703 24.2916 54.9359 32.8642C56.4915 35.9544 57.997 39.0944 59.5025 42.2344C60.2553 43.8293 60.1047 44.9756 58.2981 45.8728C56.0901 46.9693 53.9824 48.4147 51.7743 49.561C50.7205 50.1093 50.6201 50.5578 50.9714 51.6544C53.1794 58.4328 55.4377 65.1613 58.7498 71.4911C60.1047 74.0829 62.0619 76.2759 64.27 78.12C65.7755 79.366 67.833 79.2165 69.7901 78.8178C76.7656 77.3724 82.085 73.086 87.3041 68.6502C92.7239 64.0149 98.0433 59.2302 103.814 54.9439C112.145 48.7137 121.328 44.4274 131.817 43.281C133.322 43.1315 133.975 42.5833 134.075 40.9883C134.125 39.9915 134.075 39.5928 132.971 39.4433C125.544 38.2969 123.687 34.0604 125.995 26.8335C124.942 26.7836 123.888 26.7338 122.884 26.6341C121.077 26.4846 120.425 25.5874 121.479 23.9925C122.784 21.9989 124.189 20.0052 125.544 18.0614C126.096 17.264 126.497 16.8652 125.293 16.0678C122.081 13.9246 121.579 11.1335 123.888 7.84399C124.992 6.29891 126.096 4.85352 126.648 3.0094C126.849 2.36146 127.25 1.61385 128.505 1.51416C127.902 4.40495 125.494 7.39542 128.555 10.0868C129.508 10.9341 130.612 10.984 131.917 10.7846C130.763 7.89383 130.01 5.05288 130.512 2.01257C130.612 1.46432 130.562 0.666864 131.315 0.716705C132.068 0.766546 131.867 1.564 131.917 2.11226C132.268 4.704 132.469 7.24589 133.473 9.73795C135.38 14.3732 140.398 14.8716 144.413 13.2268C142.154 11.8313 140.147 10.336 138.391 8.39224C136.935 6.74748 136.434 4.75384 135.631 2.90972C135.48 2.56083 135.229 2.01257 135.731 1.81321C136.183 1.61385 136.785 1.71353 136.885 2.36146C137.287 4.50463 138.642 3.8567 140.047 3.55765C143.71 2.81003 147.374 1.86305 151.087 2.81003C155.754 4.00622 158.966 6.59796 158.113 11.6319C157.761 13.7252 157.41 15.8186 156.407 17.9119C157.46 17.8122 158.263 17.7624 159.066 17.6627C160.271 17.4633 161.375 17.4633 162.127 18.6595C162.83 19.8059 162.479 20.8525 161.927 21.949C160.823 24.2417 158.815 25.7868 156.607 26.6839C153.496 27.9798 152.593 30.2227 152.191 33.1134C151.94 34.9077 151.79 36.702 151.388 38.4963C151.087 39.7922 151.589 39.9417 152.643 39.7423C155.804 38.9947 159.066 38.9449 162.278 38.895C164.988 38.8452 167.698 39.0944 170.357 40.0414C172.917 40.9385 175.777 40.9385 178.337 41.7858C182.351 43.0817 186.065 45.0255 189.678 47.3182C195.198 50.8071 200.467 54.595 204.934 59.28C210.052 64.6629 214.017 70.7934 216.376 77.9705C217.881 82.5559 218.132 87.1911 218.684 91.8762C219.537 99.2028 217.58 106.031 216.175 113.009C215.422 116.747 214.97 120.535 214.469 124.323C213.666 130.653 212.963 136.933 214.117 143.312C214.72 146.701 216.024 149.742 217.981 152.583C218.483 153.33 219.286 154.078 218.734 155.573C215.272 152.483 213.214 148.845 212.21 144.608C211.157 140.421 211.257 136.085 211.658 131.4C205.737 133.892 199.915 133.643 194.094 132.447C193.141 132.247 192.84 132.596 192.589 133.543C191.786 136.933 190.882 140.272 190.029 143.611C189.979 143.761 189.829 144.11 189.879 144.11C190.18 144.259 190.23 144.06 190.23 143.811C191.434 143.312 192.187 142.365 193.04 141.468C193.492 140.97 193.994 140.421 194.747 140.72C195.499 140.97 195.6 141.717 195.65 142.365C195.75 143.91 195.951 145.455 196.252 147C196.804 149.592 198.661 151.386 199.665 153.729C195.449 152.134 194.696 148.197 193.442 144.508C192.488 145.206 191.535 145.904 190.531 146.652C189.628 147.299 188.524 147.848 187.57 147.05C186.667 146.303 187.219 145.206 187.52 144.259C188.624 140.372 190.08 136.633 190.882 132.646C192.589 123.924 193.091 115.152 192.488 106.33C192.288 103.29 192.087 100.249 191.284 97.259C189.327 90.032 181.799 84.2505 174.222 84.3003C173.419 84.3003 172.867 84.3501 173.118 85.347C173.921 88.6365 175.275 91.7765 175.326 95.2155C175.326 95.8136 175.928 96.6609 176.831 95.5644C177.634 94.6174 178.487 93.7203 179.441 92.9228C180.946 91.6269 182.703 90.979 184.66 91.8263C186.215 92.5241 186.667 94.119 185.613 95.5146C184.258 97.3587 182.251 98.2558 180.093 98.6047C179.089 98.7542 178.537 99.4022 177.534 99.6015C180.093 102.642 182.954 104.486 186.818 104.486C187.47 104.486 188.373 104.336 188.474 105.134C188.574 105.882 187.621 106.031 186.968 106.181C183.556 106.978 180.796 105.582 177.785 103.09C178.537 106.579 179.039 109.47 179.742 112.361C181.197 118.093 182.853 123.774 184.359 129.456C184.911 131.5 183.305 132.497 181.95 133.394C180.193 134.54 178.939 135.138 179.993 137.979C182.301 144.16 180.495 150.24 177.785 155.972C174.874 162.202 171.261 167.984 166.544 173.067C166.242 173.366 165.741 173.765 166.042 174.064C166.493 174.463 167.196 174.662 167.798 174.762C171.662 175.31 175.577 175.51 179.34 176.407C185.463 177.802 191.786 177.354 197.908 178.699C199.464 179.048 201.17 178.6 202.726 179.347C204.031 179.995 204.532 180.743 204.281 182.288C203.478 186.674 202.826 191.11 202.073 195.496C201.822 196.891 202.023 197.24 203.679 197.19C208.146 197.041 212.662 196.692 217.128 197.091C218.985 197.24 219.437 197.789 219.336 199.683C218.734 211.744 218.082 223.806 216.627 235.768C216.476 237.113 216.627 239.107 215.071 239.356C213.164 239.655 212.963 237.512 212.461 236.266C210.103 229.986 207.794 223.706 205.937 217.276C205.385 215.333 204.583 214.585 202.224 214.884C187.821 216.828 173.419 218.024 158.866 216.629C147.825 215.582 136.885 213.837 126.648 209.252C125.393 208.704 124.54 208.853 123.486 209.651C111.743 218.423 99.7496 226.946 87.5048 235.07C86.0495 236.067 84.9455 235.917 83.7913 234.771C82.1352 233.126 80.4792 231.531 78.8231 229.836C78.2711 229.238 77.8696 228.989 77.2674 229.737C71.2454 237.163 64.1194 243.543 57.0937 250.022C56.9934 250.122 55.6384 251.218 55.6384 251.218C55.0362 251.517 54.3337 251.667 53.6813 251.717H53.4304C52.778 251.767 52.0754 251.667 51.4732 251.517L51.3227 251.318ZM113.801 51.1061L113.851 51.0563C113.349 50.8569 112.998 51.0064 112.797 51.5547C108.231 53.5982 104.366 56.3893 100.552 59.7286C95.1327 64.4635 89.7631 69.348 83.8916 73.5844C80.8806 75.7775 77.5184 77.2229 74.4572 79.2663C69.6898 82.4562 64.27 81.3098 60.5062 77.0733C57.6959 73.8835 55.7388 70.2949 54.1329 66.4572C53.4304 64.7626 52.7278 64.5632 51.4732 65.7594C48.6629 67.5038 45.401 67.8527 42.2395 68.4508C40.4329 68.7997 40.2321 69.647 40.8343 71.0425C43.3435 76.7743 43.8453 83.0543 46.3043 88.8857C48.3117 93.6704 49.9175 98.6545 52.0252 103.439C53.9824 107.875 56.4915 109.57 60.6568 109.271C66.2773 108.922 71.7473 107.975 76.9663 105.782C79.325 104.785 81.8843 104.137 84.0422 102.841C90.3653 99.0533 96.4375 94.7669 102.209 90.1816C103.965 88.786 106.173 87.6397 107.026 85.2971C108.732 80.6619 110.639 76.0267 112.195 71.3416C114.704 63.9651 118.267 56.9874 120.927 49.6607C121.128 49.0626 121.83 48.4147 121.228 47.8664C120.676 47.368 119.923 47.8664 119.371 48.1156C117.715 48.8632 116.109 49.7604 114.503 50.6077C114.202 50.7074 113.751 50.5578 113.801 51.1061ZM191.133 50.5578L191.184 50.6077C191.184 49.8601 190.531 50.2588 190.18 50.1093C188.976 48.8134 187.57 47.9661 186.015 47.069C176.229 41.6363 165.59 40.2407 154.55 40.6395C153.195 40.6893 152.442 41.1877 151.89 42.3839C148.076 50.3086 144.764 58.3829 143.459 67.2048C142.456 73.9832 141.653 80.7117 144.212 87.4403C146.32 92.9727 149.381 97.259 155.403 98.7542C161.023 100.2 166.594 99.7012 172.164 98.206C174.071 97.7076 174.272 96.9599 173.82 95.2654C172.415 89.9822 171.11 84.699 169.805 79.4159C169.605 78.5187 169.153 77.6216 169.705 76.5749C171.361 77.4721 171.01 79.1168 171.462 80.3628C172.014 82.0076 172.465 82.9546 174.723 83.0543C180.695 83.3533 186.266 85.0978 189.778 90.4308C192.689 94.8666 193.944 99.9504 194.195 105.283C194.395 109.769 194.546 114.205 194.144 118.641C193.994 120.236 194.747 120.585 196.102 120.734C200.718 121.382 205.235 120.385 209.701 119.638C210.956 118.84 213.114 119.787 213.666 117.445C215.272 110.168 216.827 102.891 217.128 95.4647C217.63 81.3597 212.11 69.5972 202.374 59.5791C199.263 56.3893 196.051 53.2991 192.137 51.0563C191.986 50.6077 191.786 50.1591 191.133 50.5578ZM51.9249 249.574C52.5772 250.57 53.2296 250.62 54.0827 249.773C55.3875 248.477 56.6421 247.181 58.1476 246.134C59.5025 245.188 58.7498 244.639 58.0472 243.991C55.8392 242.895 55.1868 240.453 53.5809 238.808C53.0289 238.21 52.7278 237.213 51.7241 237.362C50.5197 237.512 51.3728 238.808 50.7706 239.356C50.0681 240.054 51.2223 242.048 49.5662 241.798C48.4622 241.599 49.3153 239.904 49.1146 238.908C48.8637 237.512 49.8673 235.568 47.2578 235.319C47.0069 236.565 46.756 237.861 46.5051 239.157C46.4047 239.605 46.2541 240.004 45.7523 239.954C45.3007 239.904 45.0999 239.456 45.0999 239.007C45.0999 238.01 44.7988 236.914 45.1501 236.067C46.0534 233.874 44.4475 233.226 43.1428 232.578C39.5798 230.783 36.2175 228.74 32.7548 226.796C30.8479 225.749 28.5896 223.955 25.679 224.753C26.3314 225.45 26.8332 225.999 27.335 226.547C32.253 231.581 36.9702 236.914 42.4402 241.4C45.7523 244.041 48.3618 247.381 51.9249 249.574ZM208.045 200.48C207.895 204.617 206.59 208.604 206.64 212.94C207.995 212.392 208.045 211.046 208.948 210.448C209.4 210.149 209.802 209.8 210.253 210.099C210.855 210.448 210.504 210.996 210.253 211.395C209.802 212.243 209.35 213.04 208.447 213.638C207.443 214.286 206.64 215.233 207.995 216.629C208.447 215.931 208.798 215.183 209.35 214.635C209.952 214.037 210.454 212.442 211.558 213.339C212.411 214.087 211.257 215.133 210.805 215.931C210.554 216.379 209.902 216.629 209.45 217.027C208.748 217.675 208.396 218.423 208.698 219.469C210.303 225.002 211.709 230.584 214.77 236.017C216.727 224.204 216.627 212.542 217.128 200.978C216.978 200.33 217.831 199.184 216.376 199.084C213.917 198.935 211.407 198.835 208.948 198.686C207.393 198.686 207.694 199.583 208.045 200.48ZM104.266 91.4276C100.201 94.3184 96.2367 97.3088 92.0213 100C81.6334 106.629 70.7436 111.613 57.997 110.716C61.0582 115.75 68.7865 118.691 75.511 117.146C83.0887 115.401 89.8133 111.813 96.4375 108.025C97.5415 107.377 99.047 107.128 99.5488 105.682C101.155 100.997 102.761 96.2622 104.316 91.5771C104.567 91.5273 104.718 91.3777 104.467 91.1784C104.467 91.2282 104.366 91.3279 104.266 91.4276ZM140.498 39.0445C141.352 40.1909 140.147 40.6395 139.695 41.2376C138.893 42.3341 139.445 44.6766 137.738 44.5271C136.283 44.3775 136.986 42.035 136.082 40.9883C135.831 40.6395 135.58 40.5896 135.48 41.088C135.38 43.7795 133.774 44.4772 131.315 44.6766C129.157 44.876 127.099 45.5737 124.942 46.0223C124.038 46.2217 123.235 46.421 122.934 47.5674C121.981 51.3553 120.275 54.8442 118.869 58.4826C118.618 59.0807 117.916 59.7286 118.418 60.2769C118.97 60.875 119.773 60.3267 120.525 60.227C123.035 59.7286 125.544 59.0807 128.103 59.0308C132.469 58.9312 132.319 58.9312 133.071 54.5451C133.623 51.2556 135.229 48.315 136.333 45.0255C137.186 45.7731 137.086 46.3712 136.935 46.9194C136.183 49.8601 135.43 52.8505 134.627 55.7912C134.225 57.3861 133.673 58.8813 136.383 58.1835C137.186 57.9842 138.039 58.034 138.893 58.034C143.459 57.9343 143.56 57.9842 145.065 53.648C146.47 49.561 148.929 45.9725 150.435 41.8855C149.13 41.2874 148.076 41.8855 147.022 42.3341C145.667 42.9322 144.463 43.929 142.957 44.1283C142.355 44.1782 141.452 44.5769 141.151 43.8293C140.8 42.9322 141.753 42.8823 142.355 42.5833C143.258 42.1845 144.112 41.7858 145.115 41.5864C149.682 40.6893 149.933 40.3404 149.933 35.6553C149.933 34.7582 149.883 33.8112 149.883 32.9141C150.033 32.4655 150.284 31.9671 150.284 31.5185C150.334 28.4782 151.639 26.4846 154.6 25.2884C156.457 24.5408 158.313 23.4941 159.568 21.7497C159.97 21.2014 160.823 20.6532 160.271 19.8059C159.769 19.0582 158.916 19.4071 158.213 19.6065C156.457 20.1548 154.7 20.8027 152.894 21.2513C150.535 21.8493 149.381 20.9522 148.678 18.6595C148.227 17.2141 148.879 15.8186 148.779 14.3233C143.008 17.2141 137.688 16.6659 133.222 12.6287C132.218 11.7316 131.917 12.5291 131.566 12.9776C128.655 16.7656 125.795 20.5535 122.734 24.5408C123.637 24.6405 124.289 24.79 124.891 24.79C128.856 24.5906 128.956 24.6903 127.3 28.1293C125.293 32.2661 127.25 36.2036 131.767 37.0509C135.982 37.8484 139.796 36.3531 143.61 34.9576C145.366 34.3595 146.721 32.615 148.879 33.2131C146.822 36.2036 143.459 37.2004 140.398 38.596C138.591 38.8452 136.835 39.0944 135.028 39.2938C137.538 40.141 138.29 39.9915 140.498 39.0445ZM178.889 141.967C178.738 140.421 178.788 138.876 178.186 137.331C177.785 136.334 177.534 135.986 176.48 136.384C173.168 137.73 169.755 138.777 166.242 139.425C164.938 139.674 164.687 140.172 164.988 141.418C165.741 144.658 166.142 147.947 166.493 151.237C166.744 153.43 165.941 154.477 163.834 154.875C157.511 156.121 151.288 157.816 144.915 158.763C132.469 160.557 120.024 160.806 107.729 157.666C106.022 157.218 105.571 157.916 104.918 158.962C101.355 164.495 97.7422 169.977 94.2796 175.609C93.0752 177.603 91.3188 179.148 90.1144 181.092C88.107 184.381 86.3004 187.87 84.1426 191.06C79.0239 198.586 73.4535 205.863 68.9872 213.788C68.6359 214.436 68.1341 214.934 68.8868 215.731C71.0949 218.074 73.1524 220.516 75.2601 222.909C77.7693 225.799 80.7301 228.242 82.888 231.431C84.3935 233.674 85.4473 234.023 87.5048 232.478C87.7558 232.279 88.107 232.179 88.3579 231.98C93.7777 228.491 99.5488 225.401 104.517 221.363C108.783 217.924 113.299 214.884 117.514 211.445C124.841 205.514 132.82 200.38 139.946 194.15C141.05 193.203 142.456 193.104 143.459 191.957C144.864 190.312 146.52 188.867 148.126 187.372C153.496 182.388 159.468 178.201 164.285 172.569C168.952 167.186 172.967 161.454 175.777 154.975C177.634 150.938 179.19 146.652 178.889 141.967ZM138.692 60.1273C132.369 60.3267 125.644 61.1242 118.97 62.0712C117.966 62.2207 117.364 62.7191 117.013 63.6661C116.009 66.507 114.805 69.2981 113.851 72.1889C113.098 74.4816 111.392 76.4254 110.94 78.6683C110.388 81.4095 109.234 83.9514 108.431 86.5432C105.119 97.0098 100.552 107.078 97.4411 117.694C94.6309 127.463 91.7202 137.182 89.6125 147.15C89.3114 148.446 89.7631 149.044 90.8169 149.393C93.5268 150.24 95.8353 151.835 98.5452 152.732C110.087 156.62 121.88 158.663 134.125 157.916C143.911 157.318 153.546 155.872 162.981 153.28C164.486 152.882 164.837 152.134 164.637 150.838C164.185 147.798 163.834 144.758 163.231 141.767C160.823 129.755 156.657 118.192 153.345 106.43C152.342 102.941 151.388 99.153 147.875 96.7606C144.864 94.7171 143.509 91.2781 142.456 87.8889C139.997 80.014 140.348 72.0892 142.205 64.1146C143.108 60.1273 143.058 60.1273 138.692 60.1273ZM152.944 213.688C160.622 214.535 168.049 215.781 175.677 215.233C182.301 214.735 188.975 214.336 195.55 213.538C196.603 213.439 197.657 213.588 197.507 211.844C197.356 210.249 197.607 208.554 197.908 206.959C199.363 198.736 200.769 190.562 202.374 182.338C202.726 180.643 202.174 180.294 200.718 180.244C190.732 179.846 180.796 178.5 171.01 176.656C169.655 176.407 169.203 176.656 169.103 177.952C168.551 185.777 166.092 193.054 162.93 200.181C160.622 205.315 157.711 210.049 152.944 213.688ZM35.6655 6.6478C34.6618 6.74748 34.0596 6.74748 33.5076 6.89701C32.8552 7.04653 32.253 7.29574 31.6006 7.4951C22.2163 10.8843 13.1833 14.9713 4.65217 20.1049C1.69136 21.8992 1.64117 21.7995 4.30089 24.2417C4.55181 24.4411 4.75254 24.7401 4.95327 24.9893C9.46977 31.0201 12.7819 37.6988 16.7464 44.0287C19.5566 48.4645 21.6643 53.3988 23.5211 58.3331C24.0229 59.6289 24.6753 59.8283 25.7292 59.3299C31.0988 56.8877 36.6691 54.9439 42.0387 52.6013C44.297 51.6045 45.0497 50.6575 44.3472 48.315C43.9457 46.8198 44.0963 44.876 46.0032 44.3775C47.6593 43.929 48.3117 45.6236 49.0142 46.8198C49.1648 47.1188 49.3655 47.368 49.4659 47.7169C49.8172 48.7636 50.3692 48.8632 51.3227 48.315C53.2296 47.1687 55.237 46.1718 57.1439 44.9756C57.8465 44.5271 58.3483 43.7296 57.7461 42.8325C54.7853 38.5461 53.882 33.263 50.871 28.8769C48.3117 25.1887 46.8563 20.7528 44.7988 16.7157C43.193 13.5757 41.2358 10.6351 38.7768 8.09319C37.8735 7.04653 36.7193 6.3986 35.6655 6.6478ZM182.401 129.407C181.498 125.967 180.495 122.578 179.641 119.139C178.136 113.108 176.781 107.078 175.326 101.047C175.025 99.7012 174.924 98.7542 172.766 99.6015C166.895 101.944 160.772 102.891 154.5 100.698C152.944 100.15 152.743 100.648 153.245 102.044C155.152 107.476 157.059 112.909 158.866 118.392C160.672 123.824 161.726 129.506 163.081 135.088C163.382 136.384 163.683 138.478 165.289 138.029C170.809 136.434 176.279 134.74 181.047 131.4C181.749 130.952 182.602 130.503 182.401 129.407ZM77.2173 227.942C76.9162 227.544 76.7154 227.245 76.5147 226.995C73.9553 223.955 71.3458 220.965 68.8868 217.825C67.7828 216.379 67.2308 216.429 66.3275 217.924C63.4168 222.56 60.6066 227.245 57.445 231.681C53.6311 237.063 53.4805 236.964 58.1978 241.549C58.4989 241.848 58.8 242.147 59.0007 242.496C59.904 243.941 60.7571 243.792 61.8612 242.646C66.6286 237.961 71.4964 233.325 76.314 228.69C76.5649 228.391 76.9162 228.192 77.2173 227.942ZM104.818 156.919C99.2477 155.174 94.1792 153.031 89.2613 150.14C88.0067 158.962 89.2613 167.037 92.4228 174.961C96.5378 168.98 100.552 163.149 104.818 156.919ZM40.9347 55.0934C38.9776 55.9905 38.9274 55.9905 39.379 57.6851C39.5798 58.4826 40.0816 59.4296 39.0277 59.8283C37.8735 60.227 37.8233 59.0308 37.5222 58.3331C37.3215 57.8347 37.9237 56.5886 36.5186 57.1867C35.3142 57.6851 36.1673 58.3331 36.368 58.9312C37.2211 61.5229 38.7768 63.8654 39.2787 66.5568C39.4292 67.4042 39.7805 67.7032 40.6336 67.5038C42.7915 66.9556 45.0497 66.8559 47.0571 65.7594C48.8637 64.7626 51.7241 64.8623 52.4267 63.068C53.1293 61.3235 51.3227 59.28 50.6703 57.3362C49.5161 53.947 48.6629 50.4083 46.8563 47.069C45.1501 50.9067 48.0106 54.7943 46.4549 58.4826C45.8527 57.2366 45.6018 55.9407 45.1501 54.6947C44.9494 54.1464 45.3508 52.8007 44.0963 53.2493C43.3937 53.4985 42.3398 53.9969 42.6409 55.2429C42.8417 55.9407 43.1428 56.6883 43.193 57.3861C43.2431 57.9842 43.5944 58.8813 42.6911 59.0807C41.7376 59.3299 41.3864 58.4327 41.286 57.735C40.9849 56.8877 40.9849 55.9905 40.9347 55.0934ZM138.591 5.30209C141.151 9.23954 144.011 12.0805 148.979 11.7316C150.635 11.6319 151.288 12.3297 151.087 13.9246C150.937 15.1706 150.937 16.4167 150.937 17.6129C150.937 18.6097 151.288 19.3075 152.492 19.457C153.646 19.6065 154.148 19.1081 154.55 18.1611C155.704 15.4697 156.407 12.6786 156.407 9.73795C156.457 7.34558 155.202 5.50145 152.844 4.9532C148.176 3.8567 143.509 3.75701 138.591 5.30209ZM199.464 131.749C201.772 132.148 204.231 131.3 206.69 130.952C207.142 130.902 208.045 131.151 207.844 130.104C207.443 127.861 208.146 125.668 208.246 123.475C208.296 122.877 208.597 121.831 207.192 122.13C204.131 122.778 201.02 122.229 197.958 122.279C196.704 122.279 195.299 121.581 194.295 122.03C192.789 122.678 194.596 124.223 193.994 125.32C193.944 125.369 193.944 125.469 193.944 125.569C192.84 131.649 192.84 131.649 199.464 131.749ZM206.239 200.48C206.088 199.633 206.59 198.287 205.235 198.636C203.98 198.985 201.923 197.091 201.421 199.832C200.869 202.823 200.267 205.863 199.715 208.853C198.912 212.99 198.912 212.89 203.127 212.492C204.583 212.342 205.235 211.894 205.436 210.349C205.937 207.059 205.385 203.62 206.239 200.48ZM213.214 120.435C210.404 120.784 209.199 122.08 209.651 124.771C209.852 126.017 209.651 127.363 209.651 128.659C209.651 129.257 209.199 130.104 210.253 130.154C210.956 130.204 211.709 130.054 211.859 129.008C212.261 126.217 212.762 123.376 213.214 120.435ZM130.512 12.5789C127.752 11.931 125.945 10.7846 125.042 8.29256C123.687 11.5322 124.189 13.7252 126.347 14.8716C128.806 16.0678 128.856 13.476 130.512 12.5789ZM177.032 97.4085C179.692 97.3587 181.699 96.5612 183.405 95.0161C183.857 94.6174 184.61 94.119 184.007 93.3714C183.556 92.7234 182.703 92.8231 182.201 93.2219C180.545 94.5177 178.638 95.5146 177.032 97.4085Z" fill="white"/>
<path d="M131.114 91.3792C132.619 94.2201 131.666 96.762 131.766 99.1544C131.816 100.55 131.917 101.048 133.422 100.998C134.326 100.949 135.229 101.248 136.082 101.447C137.487 101.746 138.491 102.494 138.491 104.089C138.591 112.861 137.989 121.483 135.43 130.056C134.125 134.442 131.816 138.08 128.956 141.32C126.196 144.46 122.031 144.759 118.066 143.663C110.539 141.569 107.377 135.738 105.821 128.76C104.015 120.437 104.667 112.163 106.223 103.889C106.624 101.846 108.03 101.248 109.786 101.098C114.503 100.6 119.22 100.4 123.938 100.65C125.895 100.749 126.547 100.002 126.748 98.3569C126.798 97.8585 126.497 97.0112 127.45 97.1607C128.153 97.2604 128.153 97.9582 128.153 98.5563C128.153 99.5531 127.802 101.048 129.006 101.148C130.863 101.298 130.211 99.5033 130.311 98.5064C130.662 96.2636 130.311 94.0207 131.114 91.3792ZM108.832 131.302C108.933 131.601 109.083 131.9 109.184 132.199C110.89 138.23 115.657 142.117 121.78 142.117C126.898 142.117 129.809 138.828 131.867 134.641C134.878 128.511 135.831 121.832 136.383 115.153C136.684 111.615 137.136 108.076 136.734 104.487C136.433 101.945 134.577 103.042 133.322 102.793C131.867 102.494 131.816 103.441 131.816 104.587C131.816 106.83 131.566 109.023 131.415 111.266C131.365 111.964 131.315 112.811 129.709 112.861C129.709 109.82 129.659 106.78 129.759 103.74C129.759 103.042 129.96 102.344 128.956 102.344C123.637 102.444 118.317 101.945 112.998 102.793C109.033 102.394 109.033 102.494 108.28 106.082C107.628 109.073 107.327 112.163 107.176 115.203C106.875 120.686 107.026 126.118 108.983 131.352C108.832 131.402 108.832 131.302 108.832 131.302Z" fill="white"/>
<path d="M135.631 65.1627C130.411 67.1064 125.243 66.2093 120.124 66.8572C120.977 65.0131 133.172 63.6674 135.631 65.1627Z" fill="white"/>
<path d="M133.473 32.9155C132.871 32.9654 132.269 32.9654 132.168 32.3673C132.118 32.0184 132.469 31.6197 132.921 31.5698C135.33 31.3705 137.237 29.9749 139.294 29.0279C139.746 28.8286 140.248 28.6292 140.599 29.1774C140.95 29.7257 140.448 30.0746 140.147 30.4235C138.341 32.467 135.731 32.4171 133.473 32.9155Z" fill="white"/>
<path d="M141.15 25.0904C142.304 25.0405 144.964 28.6789 144.513 29.7754C144.211 30.523 143.559 30.523 143.158 29.9748C142.104 28.7288 141.702 27.084 140.548 25.838C140.147 25.5389 140.699 25.19 141.15 25.0904Z" fill="white"/>
<path d="M137.989 20.6546C137.989 21.8508 137.186 22.2994 136.183 22.2495C135.179 22.1997 134.778 21.5019 134.828 20.5051C134.878 19.4584 135.53 19.0597 136.484 19.0597C137.538 19.1095 137.989 19.6578 137.989 20.6546Z" fill="white"/>
</g>
<defs>
<clipPath id="clip0">
<rect width="219" height="251" fill="white" transform="translate(0.436523 0.668213)"/>
</clipPath>
</defs>
</svg>
