<?xml version="1.0" standalone="no"?>
<!DOCTYPE svg PUBLIC "-//W3C//DTD SVG 1.1//EN" "http://www.w3.org/Graphics/SVG/1.1/DTD/svg11.dtd" >
<svg xmlns="http://www.w3.org/2000/svg" xmlns:xlink="http://www.w3.org/1999/xlink" version="1.1">
<metadata>
Created by FontForge 20170731 at Mon Sep 17 15:03:30 2018
 By Aleksey,,,
Copyright 2018 Production Systems SAS - Design Yoann Minet. Original art direction with Emmanuel Labard - All rights reserved - End-User License Agreement:  http://www.productiontype.com/license
</metadata>
<defs>
<font id="Stratos-SemiBold" horiz-adv-x="550" >
  <font-face 
    font-family="Stratos SemiBold"
    font-weight="600"
    font-stretch="normal"
    units-per-em="1000"
    panose-1="2 11 0 0 0 0 0 0 0 0"
    ascent="740"
    descent="-260"
    x-height="500"
    cap-height="750"
    bbox="-255 -367 1235 1170"
    underline-thickness="92"
    underline-position="-329"
    unicode-range="U+000D-FB04"
  />
<missing-glyph horiz-adv-x="510" 
d="M10 0v750h490v-750h-490zM90 697l165 -273l165 273h-330zM61 102l165 273l-165 272v-545zM450 102v545l-165 -272zM90 55h330l-165 271z" />
    <glyph glyph-name="uniFB00" unicode="ff" horiz-adv-x="690" 
d="M235 566v-66h165v70q0 92 55.5 141t144.5 49q43 0 75 -9v-122q-29 9 -56 9q-74 0 -74 -72v-66h123v-118h-123v-382h-145v382h-165v-382h-145v382h-72v118h72v70q0 92 55.5 141t144.5 49q42 0 68 -8v-122q-22 8 -49 8q-74 0 -74 -72z" />
    <glyph glyph-name="uniFB01" unicode="fi" horiz-adv-x="605" 
d="M545 0h-145v382h-165v-382h-145v382h-72v118h72v70q0 92 51 141t134 49q46 0 65 -6v-121q-18 5 -48 5q-57 0 -57 -72v-66h310v-500zM471 587q-37 0 -61 24.5t-24 59.5t24 59t61 24t61 -23.5t24 -59.5t-24 -60t-61 -24z" />
    <glyph glyph-name="uniFB02" unicode="fl" horiz-adv-x="605" 
d="M235 566v-66h113v-118h-113v-382h-145v382h-72v118h72v70q0 92 55.5 141t144.5 49q42 0 68 -8v-122q-28 8 -49 8q-74 0 -74 -72zM545 0h-145v750h145v-750z" />
    <glyph glyph-name="uniFB03" unicode="ffi" horiz-adv-x="915" 
d="M235 566v-66h165v70q0 92 51 141t134 49q46 0 65 -6v-121q-18 5 -48 5q-57 0 -57 -72v-66h310v-500h-145v382h-165v-382h-145v382h-165v-382h-145v382h-72v118h72v70q0 92 55.5 141t144.5 49q42 0 68 -8v-122q-22 8 -49 8q-74 0 -74 -72zM781 587q-37 0 -61 24.5
t-24 59.5t24 59t61 24t61 -23.5t24 -59.5t-24 -60t-61 -24z" />
    <glyph glyph-name="uniFB04" unicode="ffl" horiz-adv-x="915" 
d="M235 566v-66h165v70q0 92 55.5 141t144.5 49q42 0 68 -8v-122q-22 8 -49 8q-74 0 -74 -72v-66h113v-118h-113v-382h-145v382h-165v-382h-145v382h-72v118h72v70q0 92 55.5 141t144.5 49q42 0 68 -8v-122q-22 8 -49 8q-74 0 -74 -72zM855 0h-145v750h145v-750z" />
    <glyph glyph-name="uni00660062" unicode="fb" horiz-adv-x="955" 
d="M235 566v-66h113v-118h-113v-382h-145v382h-72v118h72v70q0 92 55.5 141t144.5 49q42 0 68 -8v-122q-22 8 -49 8q-74 0 -74 -72zM692 510q103 0 168 -72t65 -188t-65 -188t-168 -72q-92 0 -150 74v-64h-142v750h145v-310q59 70 147 70zM664 381q-52 0 -85.5 -36.5
t-33.5 -94.5t33.5 -94.5t85.5 -36.5q51 0 84.5 36.5t33.5 94.5t-33.5 94.5t-84.5 36.5z" />
    <glyph glyph-name="uni006600660062" unicode="ffb" horiz-adv-x="1265" 
d="M235 566v-66h165v70q0 92 55.5 141t144.5 49q42 0 68 -8v-122q-22 8 -49 8q-74 0 -74 -72v-66h113v-118h-113v-382h-145v382h-165v-382h-145v382h-72v118h72v70q0 92 55.5 141t144.5 49q42 0 68 -8v-122q-22 8 -49 8q-74 0 -74 -72zM1002 510q103 0 168 -72t65 -188
t-65 -188t-168 -72q-92 0 -150 74v-64h-142v750h145v-310q59 70 147 70zM974 381q-52 0 -85.5 -36.5t-33.5 -94.5t33.5 -94.5t85.5 -36.5q51 0 84.5 36.5t33.5 94.5t-33.5 94.5t-84.5 36.5z" />
    <glyph glyph-name="uni00660068" unicode="fh" horiz-adv-x="925" 
d="M235 566v-66h113v-118h-113v-382h-145v382h-72v118h72v70q0 92 55.5 141t144.5 49q42 0 68 -8v-122q-22 8 -49 8q-74 0 -74 -72zM725 276q0 56 -23.5 85t-66.5 29t-66.5 -29t-23.5 -85v-276h-145v750h145v-317q47 77 143 77q81 0 131.5 -52t50.5 -149v-309h-145v276z" />
    <glyph glyph-name="uni006600660068" unicode="ffh" horiz-adv-x="1235" 
d="M235 566v-66h165v70q0 92 55.5 141t144.5 49q42 0 68 -8v-122q-22 8 -49 8q-74 0 -74 -72v-66h113v-118h-113v-382h-145v382h-165v-382h-145v382h-72v118h72v70q0 92 55.5 141t144.5 49q42 0 68 -8v-122q-22 8 -49 8q-74 0 -74 -72zM1035 276q0 56 -23.5 85t-66.5 29
t-66.5 -29t-23.5 -85v-276h-145v750h145v-317q47 77 143 77q81 0 131.5 -52t50.5 -149v-309h-145v276z" />
    <glyph glyph-name="uni0066006A" unicode="fj" horiz-adv-x="605" 
d="M400 -66v448h-165v-382h-145v382h-72v118h72v70q0 92 55.5 141t144.5 49q39 0 65 -8v-122q-22 8 -48 8q-34 0 -53 -18.5t-19 -53.5v-66h310v-570q0 -182 -184 -182q-43 0 -63 5v121q16 -4 37 -4q33 0 49 14t16 50zM471 587q-37 0 -61 24.5t-24 59.5t24 59t61 24t61 -23.5
t24 -59.5t-24 -60t-61 -24z" />
    <glyph glyph-name="uni00660066006A" unicode="ffj" horiz-adv-x="915" 
d="M235 566v-66h165v70q0 92 51 141t134 49q46 0 65 -6v-121q-18 5 -48 5q-57 0 -57 -72v-66h310v-570q0 -182 -184 -182q-43 0 -63 5v121q16 -4 37 -4q33 0 49 14t16 50v448h-165v-382h-145v382h-165v-382h-145v382h-72v118h72v70q0 92 55.5 141t144.5 49q42 0 68 -8v-122
q-22 8 -49 8q-74 0 -74 -72zM781 587q-37 0 -61 24.5t-24 59.5t24 59t61 24t61 -23.5t24 -59.5t-24 -60t-61 -24z" />
    <glyph glyph-name="uni0066006B" unicode="fk" horiz-adv-x="905" 
d="M235 566v-66h113v-118h-113v-382h-145v382h-72v118h72v70q0 92 55.5 141t144.5 49q42 0 68 -8v-122q-28 8 -49 8q-74 0 -74 -72zM545 750v-466l165 216h176l-192 -226l204 -274h-172l-181 262v-262h-145v750h145z" />
    <glyph glyph-name="uni00660066006B" unicode="ffk" horiz-adv-x="1215" 
d="M235 566v-66h165v70q0 92 55.5 141t144.5 49q42 0 68 -8v-122q-22 8 -49 8q-74 0 -74 -72v-66h113v-118h-113v-382h-145v382h-165v-382h-145v382h-72v118h72v70q0 92 55.5 141t144.5 49q42 0 68 -8v-122q-22 8 -49 8q-74 0 -74 -72zM855 750v-466l165 216h176l-192 -226
l204 -274h-172l-181 262v-262h-145v750h145z" />
    <glyph glyph-name="uni00660074" unicode="ft" horiz-adv-x="700" 
d="M545 178q0 -66 67 -66q26 0 56 10v-120q-40 -12 -84 -12q-87 0 -135.5 41t-48.5 139v212h-165v-382h-145v382h-72v118h72v70q0 92 55.5 141t144.5 49q39 0 65 -8v-122q-22 8 -48 8q-34 0 -53 -18.5t-19 -53.5v-66h165v140h145v-140h123v-118h-123v-204z" />
    <glyph glyph-name="uni006600660074" unicode="fft" horiz-adv-x="1010" 
d="M235 566v-66h165v70q0 92 55.5 141t144.5 49q39 0 65 -8v-122q-22 8 -48 8q-34 0 -53 -18.5t-19 -53.5v-66h165v140h145v-140h123v-118h-123v-204q0 -66 67 -66q26 0 56 10v-120q-40 -12 -84 -12q-87 0 -135.5 41t-48.5 139v212h-165v-382h-145v382h-165v-382h-145v382
h-72v118h72v70q0 92 55.5 141t144.5 49q42 0 68 -8v-122q-22 8 -49 8q-74 0 -74 -72z" />
    <glyph glyph-name=".notdef" horiz-adv-x="510" 
d="M10 0v750h490v-750h-490zM90 697l165 -273l165 273h-330zM61 102l165 273l-165 272v-545zM450 102v545l-165 -272zM90 55h330l-165 271z" />
    <glyph glyph-name="uni0000" horiz-adv-x="0" 
 />
    <glyph glyph-name="uni0000" horiz-adv-x="0" 
 />
    <glyph glyph-name="uni000D" unicode="&#xd;" horiz-adv-x="250" 
 />
    <glyph glyph-name="uni0020" unicode=" " horiz-adv-x="230" 
 />
    <glyph glyph-name="uni0021" unicode="!" horiz-adv-x="272" 
d="M200 250h-128l-12 500h152zM136 -10q-32 0 -55 23t-23 55t23 54.5t55 22.5q33 0 55.5 -22.5t22.5 -54.5t-22.5 -55t-55.5 -23z" />
    <glyph glyph-name="uni0022" unicode="&#x22;" horiz-adv-x="450" 
d="M75 500l-15 250h130l-15 -250h-100zM275 500l-15 250h130l-15 -250h-100z" />
    <glyph glyph-name="uni0023" unicode="#" 
d="M19 0l47 191h-66v95h90l43 175h-77v95h101l48 194h105l-48 -194h116l48 194h105l-48 -194h67v-95h-91l-43 -175h78v-95h-102l-47 -191h-105l47 191h-116l-47 -191h-105zM195 286h116l43 175h-116z" />
    <glyph glyph-name="uni0024" unicode="$" 
d="M313 -125h-70v115q-84 9 -137.5 60.5t-53.5 137.5v62h136v-56q0 -69 55 -85v211l-65 46q-57 39 -87.5 87t-30.5 118q0 84 50.5 132.5t132.5 57.5v114h70v-116q79 -10 128 -63t49 -141v-53h-135v50q0 67 -42 86v-197l68 -47q119 -82 119 -202q0 -88 -51.5 -140t-135.5 -62
v-115zM196 574q0 -46 47 -83v150q-47 -15 -47 -67zM363 179q0 49 -50 91v-160q50 16 50 69z" />
    <glyph glyph-name="uni0025" unicode="%" horiz-adv-x="806" 
d="M179 355q-72 0 -115 50.5t-43 149.5t43.5 150t114.5 51t114 -51t43 -150q0 -100 -42.5 -150t-114.5 -50zM103 0l520 750h80l-520 -750h-80zM179 448q52 0 52 107q0 112 -52 112q-53 0 -53 -112q0 -107 53 -107zM627 -6q-72 0 -115 50.5t-43 149.5t43.5 150t114.5 51
t114 -51t43 -150q0 -100 -42.5 -150t-114.5 -50zM627 87q52 0 52 107q0 112 -52 112q-53 0 -53 -112q0 -107 53 -107z" />
    <glyph glyph-name="uni0026" unicode="&#x26;" horiz-adv-x="580" 
d="M494 0h-116v66q-40 -78 -142 -78q-93 0 -143.5 53.5t-50.5 158.5v38q0 113 107 160q-85 47 -85 144v33q0 89 57.5 138t149.5 49q95 0 154 -51t59 -145v-42h-145v37q0 74 -68 74q-67 0 -67 -74v-25q0 -84 70 -84h298v-120h-78v-332zM272 115q42 0 62 19.5t20 63.5v134h-81
q-85 0 -85 -92v-34q0 -50 20 -70.5t64 -20.5z" />
    <glyph glyph-name="uni0027" unicode="'" horiz-adv-x="250" 
d="M75 500l-15 250h130l-15 -250h-100z" />
    <glyph glyph-name="uni0028" unicode="(" horiz-adv-x="340" 
d="M78 285q0 260 150 465h112q-140 -193 -140 -465t140 -465h-112q-150 205 -150 465z" />
    <glyph glyph-name="uni0029" unicode=")" horiz-adv-x="340" 
d="M262 285q0 -260 -150 -465h-112q140 193 140 465t-140 465h112q150 -205 150 -465z" />
    <glyph glyph-name="uni002A" unicode="*" horiz-adv-x="389" 
d="M237 440l-45 102l-42 -102l-93 66l78 76l-106 6l35 108l90 -54l-19 108h114l-18 -108l92 54l37 -108l-110 -6l79 -76z" />
    <glyph glyph-name="uni002B" unicode="+" 
d="M228 96v162h-153v90h153v162h94v-162h153v-90h-153v-162h-94z" />
    <glyph glyph-name="uni002C" unicode="," horiz-adv-x="233" 
d="M200 62q0 -82 -85 -202h-74q50 77 67 130q-33 3 -53.5 26t-20.5 55q0 34 23 57.5t59 23.5t60 -25t24 -65z" />
    <glyph glyph-name="uni002D" unicode="-" horiz-adv-x="350" 
d="M305 215h-260v123h260v-123z" />
    <glyph glyph-name="uni002E" unicode="." horiz-adv-x="233" 
d="M116 -10q-34 0 -57.5 23.5t-23.5 57.5q0 35 23 58t58 23q36 0 59 -23t23 -58q0 -34 -23 -57.5t-59 -23.5z" />
    <glyph glyph-name="uni002F" unicode="/" horiz-adv-x="416" 
d="M135 0h-104l250 750h104z" />
    <glyph glyph-name="uni0030" unicode="0" 
d="M275 -12q-106 0 -164.5 63t-58.5 187v274q0 124 58.5 187t164.5 63t164.5 -63t58.5 -187v-274q0 -124 -58.5 -187t-164.5 -63zM275 118q40 0 60 27t20 90v280q0 63 -20 90t-60 27q-80 0 -80 -117v-280q0 -63 20 -90t60 -27z" />
    <glyph glyph-name="uni0031" unicode="1" 
d="M238 711v39h142v-750h-144v489h-134v113h29q56 0 81.5 25.5t25.5 83.5z" />
    <glyph glyph-name="uni0032" unicode="2" 
d="M478 548q0 -55 -22.5 -105.5t-57.5 -90t-70.5 -75.5t-66.5 -75t-42 -74h266v-128h-423v64q0 64 28.5 122.5t69 102.5t81 84t69 84.5t28.5 87.5q0 90 -66 90t-66 -98v-55h-140v62q0 104 57.5 161t148.5 57q90 0 148 -56t58 -158z" />
    <glyph glyph-name="uni0033" unicode="3" 
d="M280 319h-55v129h55q71 0 71 83v31q0 73 -66 73t-66 -71v-33h-140v41q0 91 58 140.5t148 49.5q89 0 147.5 -48.5t58.5 -135.5v-38q0 -95 -79 -143q96 -50 96 -157v-50q0 -95 -63.5 -148.5t-159.5 -53.5t-159.5 53.5t-63.5 148.5v55h140v-40q0 -90 83 -90t83 91v24
q0 89 -88 89z" />
    <glyph glyph-name="uni0034" unicode="4" 
d="M41 250l168 500h217v-512h80v-128h-80v-110h-142v110h-243v140zM156 238h128v390z" />
    <glyph glyph-name="uni0035" unicode="5" 
d="M208 622v-156q38 44 100 44q87 0 132 -55.5t45 -162.5v-80q0 -107 -59 -165.5t-150 -58.5q-92 0 -151.5 55.5t-59.5 156.5v35h137v-17q0 -103 74 -103q33 0 52.5 24t19.5 73v74q0 104 -72 104q-55 0 -68 -50h-133v410h387v-128h-254z" />
    <glyph glyph-name="uni0036" unicode="6" 
d="M195 518v-110q42 62 122 62q77 0 129 -58t52 -163v-31q0 -109 -62.5 -169.5t-160.5 -60.5q-99 0 -161 62.5t-62 177.5v294q0 115 62 177.5t161 62.5q93 0 154 -55.5t61 -155.5v-26h-142v16q0 94 -73 94q-80 0 -80 -117zM195 238v-18q0 -105 81 -105q82 0 82 105v18
q0 104 -82 104q-81 0 -81 -104z" />
    <glyph glyph-name="uni0037" unicode="7" 
d="M324 55v-55h-144v34q0 76 10 146.5t21 117t37.5 110.5t40 91.5t49.5 95.5q9 18 14 27h-272v128h390v-175q-6 -12 -29.5 -59.5t-29 -60t-23.5 -52.5t-23 -59t-16 -58t-14.5 -69.5t-7 -73t-3.5 -88.5z" />
    <glyph glyph-name="uni0038" unicode="8" 
d="M52 238q0 110 98 160q-78 48 -78 142v38q0 87 57.5 135.5t145.5 48.5t145.5 -48.5t57.5 -135.5v-38q0 -94 -78 -142q98 -50 98 -160v-46q0 -96 -63.5 -150t-159.5 -54t-159.5 54t-63.5 150v46zM209 561v-25q0 -81 66 -81t66 81v25q0 71 -66 71t-66 -71zM192 240v-32
q0 -90 83 -90t83 90v32q0 90 -83 90t-83 -90z" />
    <glyph glyph-name="uni0039" unicode="9" 
d="M355 232v110q-42 -62 -122 -62q-77 0 -129 58t-52 163v31q0 109 62.5 169.5t160.5 60.5q99 0 161 -62.5t62 -177.5v-294q0 -115 -62 -177.5t-161 -62.5q-93 0 -154 55.5t-61 155.5v26h142v-16q0 -94 73 -94q80 0 80 117zM355 512v18q0 105 -81 105q-82 0 -82 -105v-18
q0 -104 82 -104q81 0 81 104z" />
    <glyph glyph-name="uni003A" unicode=":" horiz-adv-x="233" 
d="M116 348q-34 0 -57.5 23.5t-23.5 57.5q0 35 23 58t58 23q36 0 59 -23t23 -58q0 -34 -23 -57.5t-59 -23.5zM116 -10q-34 0 -57.5 23.5t-23.5 57.5q0 35 23 58t58 23q36 0 59 -23t23 -58q0 -34 -23 -57.5t-59 -23.5z" />
    <glyph glyph-name="uni003B" unicode=";" horiz-adv-x="233" 
d="M116 348q-34 0 -57.5 23.5t-23.5 57.5q0 35 23 58t58 23q36 0 59 -23t23 -58q0 -34 -23 -57.5t-59 -23.5zM200 62q0 -82 -85 -202h-74q50 77 67 130q-33 3 -53.5 26t-20.5 55q0 34 23 57.5t59 23.5t60 -25t24 -65z" />
    <glyph glyph-name="uni003C" unicode="&#x3c;" 
d="M75 258v90l400 194v-103l-285 -136l285 -136v-103z" />
    <glyph glyph-name="uni003D" unicode="=" 
d="M75 358v90h400v-90h-400zM75 158v90h400v-90h-400z" />
    <glyph glyph-name="uni003E" unicode="&#x3e;" 
d="M475 348v-90l-400 -194v103l285 136l-285 136v103z" />
    <glyph glyph-name="uni003F" unicode="?" horiz-adv-x="497" 
d="M475 562q0 -40 -16 -74t-39 -57.5t-46.5 -46t-40 -51t-17.5 -61.5l-1 -22h-128v30q0 40 15 75.5t37 60.5t44 47t37 47t15 50q0 35 -22 53.5t-62 18.5q-41 0 -65.5 -24.5t-24.5 -77.5v-31h-141v43q0 104 66.5 161t164.5 57q100 0 162 -52.5t62 -145.5zM251 -10
q-32 0 -55 23t-23 55t23 54.5t55 22.5q33 0 55.5 -22.5t22.5 -54.5t-22.5 -55t-55.5 -23z" />
    <glyph glyph-name="uni0040" unicode="@" horiz-adv-x="861" 
d="M605 -116q-83 -44 -180 -44q-163 0 -274 111.5t-111 273.5q0 163 111 274t274 111q167 0 281.5 -110t114.5 -267q0 -121 -45.5 -182t-122.5 -61q-97 0 -137 72q-50 -72 -151 -72q-63 0 -109 34t-46 96q0 51 29.5 81t71.5 39.5t84 15t71.5 17.5t29.5 36t-20 38t-51 14
q-34 0 -53.5 -17t-19.5 -49h-128q0 83 58.5 123.5t144.5 40.5q85 0 142.5 -40t57.5 -122v-172q0 -70 51 -70q36 0 58 46t22 132q0 134 -96 226.5t-237 92.5q-137 0 -230 -94t-93 -233t93 -233t230 -94q84 0 156 39zM338 132q0 -41 60 -41q42 0 70.5 23t28.5 64v24
q-22 -9 -66 -16.5t-68.5 -18.5t-24.5 -35z" />
    <glyph glyph-name="uni0041" unicode="A" horiz-adv-x="510" 
d="M144 750h222l136 -750h-142l-25 152h-160l-25 -152h-142zM196 278h118l-59 362z" />
    <glyph glyph-name="uni0042" unicode="B" 
d="M60 0v750h224q97 0 154.5 -48.5t57.5 -137.5v-10q0 -103 -90 -147q52 -22 82 -66t30 -107v-20q0 -102 -58 -158t-154 -56h-246zM272 625h-70v-170h70q84 0 84 85v10q0 75 -84 75zM288 330h-86v-205h86q84 0 84 102v10q0 49 -21 71t-63 22z" />
    <glyph glyph-name="uni0043" unicode="C" horiz-adv-x="570" 
d="M375 305h145v-57q0 -128 -61.5 -194t-173.5 -66t-173.5 66t-61.5 194v254q0 128 61.5 194t173.5 66t173.5 -66t61.5 -194v-47h-145v50q0 70 -23 100t-67 30t-67 -30t-23 -100v-260q0 -71 22.5 -100.5t67.5 -29.5q44 0 67 30t23 100v60z" />
    <glyph glyph-name="uni0044" unicode="D" horiz-adv-x="570" 
d="M285 750q111 0 173 -64t62 -188v-246q0 -124 -62 -188t-173 -64h-225v750h225zM285 128q44 0 67 28t23 94v250q0 66 -23 94t-67 28h-80v-494h80z" />
    <glyph glyph-name="uni0045" unicode="E" horiz-adv-x="454" 
d="M419 128v-128h-359v750h359v-128h-215v-174h195v-128h-195v-192h215z" />
    <glyph glyph-name="uni0046" unicode="F" horiz-adv-x="434" 
d="M204 0h-144v750h354v-128h-210v-194h182v-128h-182v-300z" />
    <glyph glyph-name="uni0047" unicode="G" horiz-adv-x="575" 
d="M254 -12q-96 0 -150 66t-54 194v254q0 128 61.5 194t173.5 66t173.5 -66t61.5 -194v-33h-145v36q0 70 -23 100t-67 30t-67 -30t-23 -100v-260q0 -71 22.5 -100.5t67.5 -29.5q90 0 90 123v40h-103v122h248v-400h-116v78q-45 -90 -150 -90z" />
    <glyph glyph-name="uni0048" unicode="H" horiz-adv-x="590" 
d="M205 0h-145v750h145v-301h180v301h145v-750h-145v321h-180v-321z" />
    <glyph glyph-name="uni0049" unicode="I" horiz-adv-x="265" 
d="M205 0h-145v750h145v-750z" />
    <glyph glyph-name="uni004A" unicode="J" horiz-adv-x="522" 
d="M326 750h145v-542q0 -107 -60 -163.5t-158 -56.5t-158 56.5t-60 163.5v79h145v-75q0 -97 73 -97q36 0 54.5 22t18.5 75v538z" />
    <glyph glyph-name="uni004B" unicode="K" horiz-adv-x="523" 
d="M204 750v-360l156 360h154l-172 -354l181 -396h-165l-154 362v-362h-144v750h144z" />
    <glyph glyph-name="uni004C" unicode="L" horiz-adv-x="434" 
d="M424 128v-128h-364v750h145v-622h219z" />
    <glyph glyph-name="uni004D" unicode="M" horiz-adv-x="780" 
d="M466 0h-159l-119 656v-656h-128v750h234l96 -572l93 572h237v-750h-135v656z" />
    <glyph glyph-name="uni004E" unicode="N" horiz-adv-x="590" 
d="M282 750l124 -641v641h124v-750h-222l-124 650v-650h-124v750h222z" />
    <glyph glyph-name="uni004F" unicode="O" horiz-adv-x="570" 
d="M285 -12q-112 0 -173.5 65.5t-61.5 194.5v254q0 128 61.5 194t173.5 66t173.5 -66t61.5 -194v-254q0 -129 -61.5 -194.5t-173.5 -65.5zM285 115q44 0 67 30t23 100v260q0 70 -23 100t-67 30t-67 -30t-23 -100v-260q0 -71 22.5 -100.5t67.5 -29.5z" />
    <glyph glyph-name="uni0050" unicode="P" horiz-adv-x="530" 
d="M202 0h-142v750h226q100 0 159.5 -55t59.5 -157v-46q0 -105 -59.5 -162.5t-159.5 -57.5h-84v-272zM278 625h-76v-227h76q88 0 88 104v26q0 97 -88 97z" />
    <glyph glyph-name="uni0051" unicode="Q" horiz-adv-x="570" 
d="M260 -12q-96 0 -153 66.5t-57 193.5v254q0 128 61.5 194t173.5 66t173.5 -66t61.5 -194v-244q0 -106 -53 -152l68 -106h-125l-35 52q-25 -64 -115 -64zM285 115q17 0 35 5l-97 142h123l28 -43q1 8 1 26v260q0 70 -23 100t-67 30t-67 -30t-23 -100v-260q0 -71 22.5 -100.5
t67.5 -29.5z" />
    <glyph glyph-name="uni0052" unicode="R" 
d="M204 0h-144v750h238q97 0 156.5 -51t59.5 -144v-29q0 -75 -39 -122t-106 -64l166 -340h-165l-166 368v-368zM282 625h-78v-201h78q88 0 88 99v13q0 89 -88 89z" />
    <glyph glyph-name="uni0053" unicode="S" horiz-adv-x="485" 
d="M41 567q0 99 56 147t147 48q90 0 147 -51t57 -149v-52h-139v50q0 80 -65 80q-28 0 -45.5 -17.5t-17.5 -48.5q0 -34 18 -57t58 -53l85 -63q116 -86 116 -205q0 -100 -60 -154t-153 -54q-92 0 -152.5 53t-60.5 147v62h140v-56q0 -39 20 -61.5t53 -22.5t52.5 18.5t19.5 50.5
q0 37 -19.5 63t-60.5 56l-83 62q-113 83 -113 207z" />
    <glyph glyph-name="uni0054" unicode="T" horiz-adv-x="434" 
d="M290 0h-146v622h-134v128h414v-128h-134v-622z" />
    <glyph glyph-name="uni0055" unicode="U" horiz-adv-x="570" 
d="M55 750h145v-518q0 -117 85 -117t85 117v518h145v-515q0 -122 -60.5 -184.5t-169.5 -62.5t-169.5 62.5t-60.5 184.5v515z" />
    <glyph glyph-name="uni0056" unicode="V" horiz-adv-x="510" 
d="M144 0l-136 750h142l105 -640l105 640h142l-136 -750h-222z" />
    <glyph glyph-name="uni0057" unicode="W" horiz-adv-x="750" 
d="M305 0h-206l-91 750h137l62 -620l71 620h192l73 -617l62 617h137l-91 -750h-205l-71 626z" />
    <glyph glyph-name="uni0058" unicode="X" horiz-adv-x="490" 
d="M339 0l-94 285l-94 -285h-151l154 385l-145 365h150l86 -269l86 269h150l-145 -365l154 -385h-151z" />
    <glyph glyph-name="uni0059" unicode="Y" horiz-adv-x="480" 
d="M312 0h-144v272l-168 478h141l99 -310l99 310h141l-168 -478v-272z" />
    <glyph glyph-name="uni005A" unicode="Z" horiz-adv-x="440" 
d="M25 158l253 464h-248v128h385v-158l-253 -464h263v-128h-400v158z" />
    <glyph glyph-name="uni005B" unicode="[" horiz-adv-x="340" 
d="M338 -78v-102h-256v930h256v-102h-130v-726h130z" />
    <glyph glyph-name="uni005C" unicode="\" horiz-adv-x="416" 
d="M281 0l-250 750h104l250 -750h-104z" />
    <glyph glyph-name="uni005D" unicode="]" horiz-adv-x="340" 
d="M2 -180v102h130v726h-130v102h256v-930h-256z" />
    <glyph glyph-name="uni005E" unicode="^" 
d="M230 750h90l194 -400h-103l-136 284l-136 -284h-103z" />
    <glyph glyph-name="uni005F" unicode="_" horiz-adv-x="500" 
d="M455 -191h-410v92h410v-92z" />
    <glyph glyph-name="uni0060" unicode="`" horiz-adv-x="500" 
d="M198 600l-93 150h150l57 -150h-114z" />
    <glyph glyph-name="uni0061" unicode="a" 
d="M200 -10q-68 0 -116 36.5t-48 106.5q0 50 23.5 82.5t59 45.5t76.5 22t76.5 13t59 16.5t23.5 35.5q0 26 -22 41t-57 15q-38 0 -59.5 -19.5t-21.5 -56.5h-143q0 92 66 137t162 45q95 0 157.5 -41t62.5 -125v-344h-140v76q-45 -86 -159 -86zM181 145q0 -23 17.5 -35.5
t45.5 -12.5q48 0 80 27t32 75v26q-24 -11 -73 -20.5t-75.5 -21.5t-26.5 -38z" />
    <glyph glyph-name="uni0062" unicode="b" horiz-adv-x="615" 
d="M352 510q103 0 168 -72t65 -188t-65 -188t-168 -72q-92 0 -150 74v-64h-142v750h145v-310q59 70 147 70zM324 381q-52 0 -85.5 -36t-33.5 -95t33.5 -95t85.5 -36t85 36t33 95t-33 95t-85 36z" />
    <glyph glyph-name="uni0063" unicode="c" horiz-adv-x="572" 
d="M393 296q-5 41 -34.5 63t-72.5 22q-50 0 -82 -36.5t-32 -94.5q0 -59 31.5 -95t82.5 -36q43 0 73 25t37 71h146q-5 -101 -76 -163t-180 -62q-111 0 -183.5 73t-72.5 187t72.5 187t183.5 73q105 0 175 -59t80 -155h-148z" />
    <glyph glyph-name="uni0064" unicode="d" horiz-adv-x="615" 
d="M262 510q89 0 148 -70v310h145v-750h-143v63q-59 -73 -150 -73q-102 0 -167 72t-65 188t65 188t167 72zM291 381q-52 0 -85.5 -36t-33.5 -95t33.5 -95t85.5 -36t85.5 36t33.5 95t-33.5 95t-85.5 36z" />
    <glyph glyph-name="uni0065" unicode="e" horiz-adv-x="566" 
d="M534 210h-365q17 -102 118 -102q69 0 90 50h147q-23 -82 -85.5 -125t-155.5 -43q-111 0 -182 73t-71 187t71 187t182 73t182 -73t71 -187q0 -14 -2 -40zM283 391q-95 0 -113 -96h226q-18 96 -113 96z" />
    <glyph glyph-name="uni0066" unicode="f" horiz-adv-x="380" 
d="M235 566v-66h123v-118h-123v-382h-145v382h-72v118h72v70q0 92 55.5 141t144.5 49q43 0 75 -9v-122q-29 9 -56 9q-74 0 -74 -72z" />
    <glyph glyph-name="uni0067" unicode="g" horiz-adv-x="615" 
d="M262 -10q-102 0 -167 72t-65 188t65 188t167 72q91 0 150 -73v63h143v-505q0 -113 -74 -184t-183 -71q-104 0 -174 60t-84 160h141q7 -45 38 -72.5t76 -27.5q54 0 84.5 36.5t30.5 96.5v67q-59 -70 -148 -70zM291 119q52 0 85.5 36t33.5 95t-33.5 95t-85.5 36t-85.5 -36
t-33.5 -95t33.5 -95t85.5 -36z" />
    <glyph glyph-name="uni0068" unicode="h" horiz-adv-x="585" 
d="M385 276q0 56 -23.5 85t-66.5 29t-66.5 -29t-23.5 -85v-276h-145v750h145v-317q47 77 143 77q81 0 131.5 -52t50.5 -149v-309h-145v276z" />
    <glyph glyph-name="uni0069" unicode="i" horiz-adv-x="265" 
d="M132 587q-37 0 -61.5 24.5t-24.5 59.5t24.5 59t61.5 24q38 0 62.5 -23.5t24.5 -59.5t-24.5 -60t-62.5 -24zM205 0h-145v500h145v-500z" />
    <glyph glyph-name="uni006A" unicode="j" horiz-adv-x="265" 
d="M132 587q-37 0 -61.5 24.5t-24.5 59.5t24.5 59t61.5 24q38 0 62.5 -23.5t24.5 -59.5t-24.5 -60t-62.5 -24zM60 -66v566h145v-570q0 -182 -184 -182q-43 0 -63 5v121q16 -4 37 -4q33 0 49 14t16 50z" />
    <glyph glyph-name="uni006B" unicode="k" horiz-adv-x="565" 
d="M205 750v-466l165 216h176l-192 -226l204 -274h-172l-181 262v-262h-145v750h145z" />
    <glyph glyph-name="uni006C" unicode="l" horiz-adv-x="265" 
d="M205 0h-145v750h145v-750z" />
    <glyph glyph-name="uni006D" unicode="m" horiz-adv-x="875" 
d="M368 284q0 106 -82 106q-39 0 -60 -27t-21 -79v-284h-145v500h142v-67q45 77 137 77q111 0 153 -92q22 44 62 68t92 24q78 0 126 -50t48 -144v-316h-145v284q0 52 -21 79t-60 27q-82 0 -82 -106v-284h-144v284z" />
    <glyph glyph-name="uni006E" unicode="n" horiz-adv-x="585" 
d="M385 276q0 56 -23.5 85t-66.5 29t-66.5 -29t-23.5 -85v-276h-145v500h142v-73q47 83 146 83q81 0 131.5 -52t50.5 -149v-309h-145v276z" />
    <glyph glyph-name="uni006F" unicode="o" horiz-adv-x="580" 
d="M290 -10q-113 0 -186.5 72.5t-73.5 187.5t73.5 187.5t186.5 72.5t186.5 -72.5t73.5 -187.5t-73.5 -187.5t-186.5 -72.5zM290 119q52 0 85.5 36.5t33.5 94.5t-33.5 94.5t-85.5 36.5t-85.5 -36.5t-33.5 -94.5t33.5 -94.5t85.5 -36.5z" />
    <glyph glyph-name="uni0070" unicode="p" horiz-adv-x="615" 
d="M205 -250h-145v750h142v-64q58 74 150 74q103 0 168 -72t65 -188t-65 -188t-168 -72q-88 0 -147 70v-310zM324 119q52 0 85 36t33 95t-33 95t-85 36t-85.5 -36t-33.5 -95t33.5 -95t85.5 -36z" />
    <glyph glyph-name="uni0071" unicode="q" horiz-adv-x="615" 
d="M262 -10q-102 0 -167 72t-65 188t65 188t167 72q91 0 150 -73v63h143v-750h-145v310q-59 -70 -148 -70zM291 119q52 0 85.5 36t33.5 95t-33.5 95t-85.5 36t-85.5 -36t-33.5 -95t33.5 -95t85.5 -36z" />
    <glyph glyph-name="uni0072" unicode="r" horiz-adv-x="403" 
d="M200 500v-87q52 97 160 97q20 0 26 -2v-148q-28 8 -52 8q-62 0 -95.5 -30t-33.5 -86v-252h-145v500h140z" />
    <glyph glyph-name="uni0073" unicode="s" horiz-adv-x="504" 
d="M472 148q0 -73 -59.5 -115.5t-152.5 -42.5q-100 0 -164 47t-64 128h140q0 -35 24 -54t63 -19q71 0 71 48q0 23 -21.5 36t-53.5 17.5t-69 14t-69 22.5t-53.5 45.5t-21.5 80.5q0 70 57.5 112t145.5 42q93 0 155 -48.5t62 -120.5h-140q0 29 -21.5 48t-54.5 19q-30 0 -48 -12
t-18 -34q0 -20 21.5 -32t54 -16.5t70.5 -14t70.5 -23.5t54 -46.5t21.5 -81.5z" />
    <glyph glyph-name="uni0074" unicode="t" horiz-adv-x="390" 
d="M235 178q0 -66 67 -66q26 0 56 10v-120q-40 -12 -84 -12q-87 0 -135.5 41t-48.5 139v212h-72v118h72v148h145v-148h123v-118h-123v-204z" />
    <glyph glyph-name="uni0075" unicode="u" horiz-adv-x="580" 
d="M200 224q0 -56 23 -85t65 -29t64.5 29t22.5 85v276h145v-500h-142v71q-47 -81 -143 -81q-80 0 -130 52t-50 149v309h145v-276z" />
    <glyph glyph-name="uni0076" unicode="v" horiz-adv-x="500" 
d="M357 0h-214l-135 500h145l97 -401l97 401h145z" />
    <glyph glyph-name="uni0077" unicode="w" horiz-adv-x="765" 
d="M306 0h-182l-112 500h132l76 -390l76 390h173l76 -390l76 390h132l-112 -500h-182l-76 392z" />
    <glyph glyph-name="uni0078" unicode="x" horiz-adv-x="520" 
d="M162 0h-162l165 258l-156 242h160l94 -160l88 160h160l-157 -243l166 -257h-162l-102 172z" />
    <glyph glyph-name="uni0079" unicode="y" horiz-adv-x="501" 
d="M335 -22q-34 -118 -89.5 -178t-153.5 -60q-49 0 -85 12v116q39 -11 70 -11q71 0 109 62l-182 581h142l103 -391l106 391h142z" />
    <glyph glyph-name="uni007A" unicode="z" horiz-adv-x="470" 
d="M450 0h-420v148l258 234h-253v118h395v-148l-258 -234h278v-118z" />
    <glyph glyph-name="uni007B" unicode="{" horiz-adv-x="340" 
d="M128 164q0 29 -15 44.5t-33 15.5h-46v122h46q18 0 33 15.5t15 44.5v192q0 69 42 110.5t108 41.5h60v-102h-30q-25 0 -39.5 -18t-14.5 -52v-189q0 -63 -57 -104q57 -41 57 -104v-189q0 -34 14.5 -52t39.5 -18h30v-102h-60q-66 0 -108 41.5t-42 110.5v192z" />
    <glyph glyph-name="uni007C" unicode="|" horiz-adv-x="275" 
d="M186 -250h-97v1000h97v-1000z" />
    <glyph glyph-name="uni007D" unicode="}" horiz-adv-x="340" 
d="M212 164v-192q0 -69 -42 -110.5t-108 -41.5h-60v102h30q25 0 39.5 18t14.5 52v189q0 64 57 104q-57 40 -57 104v189q0 34 -14.5 52t-39.5 18h-30v102h60q66 0 108 -41.5t42 -110.5v-192q0 -29 15 -44.5t33 -15.5h46v-122h-46q-18 0 -33 -15.5t-15 -44.5z" />
    <glyph glyph-name="uni007E" unicode="~" 
d="M201 286q-16 0 -27.5 -11t-11.5 -31v-16h-92v30q0 60 30.5 93t79.5 33q45 0 101 -32t75 -32q14 0 23 11t9 31v16h92v-30q0 -60 -30 -93t-78 -33q-36 0 -90.5 32t-80.5 32z" />
    <glyph glyph-name="uni00A0" unicode="&#xa0;" horiz-adv-x="230" 
 />
    <glyph glyph-name="uni00A1" unicode="&#xa1;" horiz-adv-x="272" 
d="M136 510q33 0 55.5 -23t22.5 -55q0 -31 -22.5 -54t-55.5 -23q-32 0 -55 23t-23 54q0 32 23 55t55 23zM72 250h128l12 -500h-152z" />
    <glyph glyph-name="uni00A2" unicode="&#xa2;" 
d="M312 0h-70v117q-100 11 -164.5 82.5t-64.5 175.5t64.5 175.5t164.5 82.5v117h70v-117q90 -10 149.5 -67t73.5 -146h-143q-14 68 -80 86v-262q70 19 83 96h141q-11 -92 -71.5 -152.5t-152.5 -70.5v-117zM152 375q0 -52 23.5 -87t66.5 -45v264q-43 -10 -66.5 -45.5
t-23.5 -86.5z" />
    <glyph glyph-name="uni00A3" unicode="&#xa3;" 
d="M54 64q67 78 88.5 124t21.5 114q0 8 -2 22h-98v76h61q-2 3 -9.5 15t-10.5 16t-9.5 15t-9.5 17t-8 17t-7 19t-5 19t-4 22t-1 22q0 97 60 148.5t154 51.5q93 0 153 -56.5t60 -159.5v-24h-140v16q0 52 -19 74.5t-55 22.5q-73 0 -73 -75q0 -25 10.5 -50.5t30.5 -58t29 -51.5
h166v-76h-145q1 -5 1 -15q0 -106 -57 -181h256v-128h-438v64z" />
    <glyph glyph-name="uni00A4" unicode="&#xa4;" 
d="M275 174q-29 0 -54 11l-55 -55l-64 64l53 53q-13 23 -13 55t13 55l-59 59l66 66l62 -62q21 10 51 10q26 0 53 -10l56 56l64 -64l-54 -54q12 -25 12 -56q0 -28 -11 -53l59 -59l-66 -66l-60 60q-27 -10 -53 -10zM275 252q21 0 35 14t14 36t-14 36t-35 14t-35.5 -14
t-14.5 -36t14.5 -36t35.5 -14z" />
    <glyph glyph-name="uni00A5" unicode="&#xa5;" 
d="M348 0h-146v245h-116v77h116v109h-116v76h81l-136 243h139l105 -200l105 200h139l-136 -243h78v-76h-113v-109h113v-77h-113v-245z" />
    <glyph glyph-name="uni00A6" unicode="&#xa6;" horiz-adv-x="275" 
d="M186 350h-97v400h97v-400zM186 -250h-97v400h97v-400z" />
    <glyph glyph-name="uni00A7" unicode="&#xa7;" horiz-adv-x="498" 
d="M251 -262q-90 0 -147 48t-57 139v38h139v-35q0 -72 65 -72q28 0 45.5 14.5t17.5 40.5q0 16 -4.5 28t-18 24.5t-22 18.5t-31.5 22l-80 52q-59 41 -90 83.5t-31 102.5q0 111 111 162q-53 44 -77.5 83t-24.5 93q0 93 56 137.5t147 44.5q90 0 146.5 -48t56.5 -140v-37h-138
v35q0 72 -65 72q-28 0 -45.5 -15t-17.5 -41q0 -20 11 -37t24 -27t41 -29l85 -56q55 -36 85 -78.5t30 -102.5q0 -109 -108 -161q52 -39 76 -80t24 -97q0 -93 -56.5 -137.5t-146.5 -44.5zM249 180q33 0 54 19.5t21 50.5t-21 50.5t-54 19.5t-54 -19.5t-21 -50.5t21 -50.5
t54 -19.5z" />
    <glyph glyph-name="uni00A8" unicode="&#xa8;" horiz-adv-x="500" 
d="M148 605q-28 0 -49 20.5t-21 49.5t20.5 49.5t49.5 20.5t49.5 -20.5t20.5 -49.5t-20.5 -49.5t-49.5 -20.5zM352 605q-29 0 -49.5 20.5t-20.5 49.5t21 49.5t49 20.5q30 0 50 -20.5t20 -49.5t-20 -49.5t-50 -20.5z" />
    <glyph glyph-name="uni00A9" unicode="&#xa9;" horiz-adv-x="830" 
d="M415 -10q-163 0 -271.5 112.5t-108.5 272.5q0 161 108.5 273t271.5 112t271.5 -112t108.5 -273q0 -160 -108.5 -272.5t-271.5 -112.5zM415 702q-136 0 -226.5 -95t-90.5 -232t90 -232t227 -95t227 95t90 232t-90.5 232t-226.5 95zM506 412q-7 31 -32 49.5t-58 18.5
q-43 0 -70.5 -29t-27.5 -76q0 -48 27 -76.5t71 -28.5q35 0 60.5 21t30.5 56h118q-7 -81 -65 -131.5t-145 -50.5q-91 0 -151 59t-60 151t60 151t151 59q84 0 142 -48t67 -125h-118z" />
    <glyph glyph-name="uni00AA" unicode="&#xaa;" horiz-adv-x="379" 
d="M126 268q-42 0 -73 24.5t-31 68.5q0 37 21 59.5t50.5 29.5t59.5 11t51 12t21 25q0 15 -12 24t-31 9q-47 0 -47 -45h-103q0 61 44.5 90.5t109.5 29.5q64 0 106 -27t42 -84v-221h-104v51q-28 -57 -104 -57zM129 370q0 -13 10.5 -21t26.5 -8q26 0 43.5 15.5t17.5 43.5v19
q-14 -7 -41 -12.5t-42 -13t-15 -23.5zM334 86h-289v96h289v-96z" />
    <glyph glyph-name="uni00AB" unicode="&#xab;" horiz-adv-x="572" 
d="M42 188v134l226 146v-128l-146 -85l146 -85v-128zM305 188v134l225 146v-128l-145 -85l145 -85v-128z" />
    <glyph glyph-name="uni00AC" unicode="&#xac;" 
d="M475 96h-94v162h-306v90h400v-252z" />
    <glyph glyph-name="uni00AD" unicode="&#xad;" horiz-adv-x="0" 
d="M130 215h-260v123h260v-123z" />
    <glyph glyph-name="uni00AE" unicode="&#xae;" horiz-adv-x="498" 
d="M249 298q-98 0 -163 67.5t-65 163.5q0 97 65 164t163 67t163 -67t65 -164q0 -96 -65 -163.5t-163 -67.5zM249 719q-79 0 -131.5 -55t-52.5 -135t52.5 -135t131.5 -55t131.5 55t52.5 135t-52.5 135t-131.5 55zM360 409h-78l-52 91h-9v-91h-65v240h104q86 0 86 -74
q0 -48 -46 -67zM256 594h-35v-44h35q26 0 26 22t-26 22z" />
    <glyph glyph-name="uni00AF" unicode="&#xaf;" horiz-adv-x="500" 
d="M396 700v-92h-285v92h285z" />
    <glyph glyph-name="uni00B0" unicode="&#xb0;" horiz-adv-x="359" 
d="M180 500q-56 0 -93 35.5t-37 89.5t37 89.5t93 35.5t92.5 -35.5t36.5 -89.5t-36.5 -89.5t-92.5 -35.5zM180 575q21 0 35 14t14 36t-14 36t-35 14t-35.5 -14t-14.5 -36t14.5 -36t35.5 -14z" />
    <glyph glyph-name="uni00B1" unicode="&#xb1;" 
d="M228 111v155h-153v90h153v154h94v-154h153v-90h-153v-155h-94zM75 0v90h400v-90h-400z" />
    <glyph glyph-name="uni00B2" unicode="&#xb2;" horiz-adv-x="316" 
d="M300 537q0 -41 -31.5 -76.5t-72 -65.5t-50.5 -47h156v-85h-285v34q0 35 19 66.5t45.5 53.5t53.5 41t46 38.5t19 36.5t-11 27.5t-29 10.5q-43 0 -43 -46v-13h-99v21q0 59 40 91.5t102 32.5q60 0 100 -31.5t40 -88.5z" />
    <glyph glyph-name="uni00B3" unicode="&#xb3;" horiz-adv-x="345" 
d="M118 388q0 -23 15.5 -36t40.5 -13q22 0 36 11.5t14 29.5q0 42 -53 42h-38v78h38q43 0 43 36q0 16 -12.5 25.5t-32.5 9.5q-21 0 -33 -11t-12 -32h-100q0 61 39 95t109 34q66 0 106 -31t40 -81q0 -53 -47 -80q57 -30 57 -91q0 -56 -41 -87t-109 -31q-73 0 -117.5 35.5
t-44.5 96.5h102z" />
    <glyph glyph-name="uni00B4" unicode="&#xb4;" horiz-adv-x="500" 
d="M302 600h-114l57 150h150z" />
    <glyph glyph-name="uni00B5" unicode="&#xb5;" horiz-adv-x="630" 
d="M60 -250v750h145v-276q0 -56 23 -85t65 -29t64.5 29t22.5 85v276h145v-324q0 -64 48 -64q23 0 39 6v-121q-22 -7 -75 -7q-116 0 -146 98q-40 -91 -139 -96q-21 -1 -47 4v-246h-145z" />
    <glyph glyph-name="uni00B6" unicode="&#xb6;" horiz-adv-x="640" 
d="M380 -250h-90v522h-4q-100 0 -163 58t-63 162v46q0 101 62.5 156.5t163.5 55.5h94v-1000zM570 -250h-90v1000h90v-1000z" />
    <glyph glyph-name="uni00B7" unicode="&#xb7;" horiz-adv-x="263" 
d="M132 179q-36 0 -59 23.5t-23 57.5q0 35 23 58t59 23q35 0 58 -23t23 -58q0 -34 -23 -57.5t-58 -23.5z" />
    <glyph glyph-name="uni00B8" unicode="&#xb8;" horiz-adv-x="500" 
d="M133 -164h79q4 -23 38 -23q17 0 28.5 11.5t11.5 27.5q0 17 -11.5 28.5t-28.5 11.5q-27 0 -34 -16h-78l78 124h75l-30 -45q46 0 76 -30t30 -73t-32.5 -72.5t-84.5 -29.5q-51 0 -84 25t-33 61z" />
    <glyph glyph-name="uni00B9" unicode="&#xb9;" horiz-adv-x="224" 
d="M85 645v6h106v-388h-109v241h-72v82h18q30 0 43.5 14t13.5 45z" />
    <glyph glyph-name="uni00BA" unicode="&#xba;" horiz-adv-x="379" 
d="M190 268q-74 0 -123 47t-49 122t49 122t123 47t122.5 -47t48.5 -122t-48.5 -122t-122.5 -47zM190 364q29 0 48 20t19 53t-18.5 53.5t-48.5 20.5t-49 -20.5t-19 -53.5t19 -53t49 -20zM334 86h-289v96h289v-96z" />
    <glyph glyph-name="uni00BB" unicode="&#xbb;" horiz-adv-x="572" 
d="M530 188l-225 -146v128l145 85l-145 85v128l225 -146v-134zM268 188l-226 -146v128l146 85l-146 85v128l226 -146v-134z" />
    <glyph glyph-name="uni00BC" unicode="&#xbc;" horiz-adv-x="806" 
d="M165 744v6h106v-388h-109v241h-72v82h18q30 0 43.5 14t13.5 45zM103 0l520 750h80l-520 -750h-80zM438 147l116 242h156v-239h59v-83h-59v-66h-101v66h-171v80zM530 150h79v169z" />
    <glyph glyph-name="uni00BD" unicode="&#xbd;" horiz-adv-x="806" 
d="M165 744v6h106v-388h-109v241h-72v82h18q30 0 43.5 14t13.5 45zM103 0l520 750h80l-520 -750h-80zM748 275q0 -41 -31.5 -76.5t-72 -65.5t-50.5 -47h156v-85h-285v34q0 35 19 66.5t45.5 53.5t53.5 41t46 38.5t19 36.5t-11 27.5t-29 10.5q-43 0 -43 -46v-13h-99v21
q0 59 40 91.5t102 32.5q60 0 100 -31.5t40 -88.5z" />
    <glyph glyph-name="uni00BE" unicode="&#xbe;" horiz-adv-x="806" 
d="M118 487q0 -23 15.5 -36t40.5 -13q22 0 36 11.5t14 29.5q0 42 -53 42h-38v78h38q43 0 43 36q0 16 -12.5 25.5t-32.5 9.5q-21 0 -33 -11t-12 -32h-100q0 61 39 95t109 34q66 0 106 -31t40 -81q0 -53 -47 -80q57 -30 57 -91q0 -55 -41 -86.5t-109 -31.5q-73 0 -117.5 35.5
t-44.5 96.5h102zM103 0l520 750h80l-520 -750h-80zM438 147l116 242h156v-239h59v-83h-59v-66h-101v66h-171v80zM530 150h79v169z" />
    <glyph glyph-name="uni00BF" unicode="&#xbf;" horiz-adv-x="497" 
d="M244 510q33 0 55.5 -23t22.5 -55t-22.5 -54.5t-55.5 -22.5q-32 0 -54.5 22.5t-22.5 54.5t22.5 55t54.5 23zM20 -62q0 40 16 74t39 57.5t46.5 46t40.5 51t18 61.5l1 22h127v-30q0 -40 -15 -75.5t-37 -60.5t-44 -47t-37 -47t-15 -50q0 -34 22 -53t62 -19q41 0 65.5 24.5
t24.5 77.5v31h141v-43q0 -104 -66.5 -161t-164.5 -57q-100 0 -162 52.5t-62 145.5z" />
    <glyph glyph-name="uni00C0" unicode="&#xc0;" horiz-adv-x="510" 
d="M202 820l-93 150h150l57 -150h-114zM144 750h222l136 -750h-142l-25 152h-160l-25 -152h-142zM196 278h118l-59 362z" />
    <glyph glyph-name="uni00C1" unicode="&#xc1;" horiz-adv-x="510" 
d="M307 820h-114l57 150h150zM144 750h222l136 -750h-142l-25 152h-160l-25 -152h-142zM196 278h118l-59 362z" />
    <glyph glyph-name="uni00C2" unicode="&#xc2;" horiz-adv-x="510" 
d="M192 820h-113l97 150h156l97 -150h-113l-62 73zM144 750h222l136 -750h-142l-25 152h-160l-25 -152h-142zM196 278h118l-59 362z" />
    <glyph glyph-name="uni00C3" unicode="&#xc3;" horiz-adv-x="510" 
d="M83 820v48q0 102 88 102q34 0 80.5 -25.5t61.5 -25.5q30 0 30 34v17h84v-48q0 -102 -88 -102q-34 0 -80.5 25.5t-61.5 25.5q-30 0 -30 -34v-17h-84zM144 750h222l136 -750h-142l-25 152h-160l-25 -152h-142zM196 278h118l-59 362z" />
    <glyph glyph-name="uni00C4" unicode="&#xc4;" horiz-adv-x="510" 
d="M153 825q-29 0 -49.5 20.5t-20.5 49.5t20.5 49.5t49.5 20.5t49.5 -20.5t20.5 -49.5t-20.5 -49.5t-49.5 -20.5zM357 825q-29 0 -49.5 20.5t-20.5 49.5t20.5 49.5t49.5 20.5q30 0 50 -20.5t20 -49.5t-20 -49.5t-50 -20.5zM144 750h222l136 -750h-142l-25 152h-160l-25 -152
h-142zM196 278h118l-59 362z" />
    <glyph glyph-name="uni00C5" unicode="&#xc5;" horiz-adv-x="510" 
d="M255 790q-49 0 -80 27t-31 68q0 40 31 67.5t80 27.5t80.5 -27.5t31.5 -67.5q0 -41 -31 -68t-81 -27zM255 852q15 0 24.5 9.5t9.5 23.5t-9.5 23.5t-24.5 9.5q-14 0 -24 -9.5t-10 -23.5t10 -23.5t24 -9.5zM144 750h222l136 -750h-142l-25 152h-160l-25 -152h-142zM196 278
h118l-59 362z" />
    <glyph glyph-name="uni00C6" unicode="&#xc6;" horiz-adv-x="778" 
d="M742 128v-128h-356v160h-181l-58 -160h-147l286 750h456v-128h-212v-174h192v-128h-192v-192h212zM251 285h135v372z" />
    <glyph glyph-name="uni00C7" unicode="&#xc7;" horiz-adv-x="570" 
d="M168 -164h78q7 -23 39 -23q17 0 28 11t11 28t-11 28.5t-28 11.5q-27 0 -34 -16h-78l72 114q-93 11 -144 76.5t-51 181.5v254q0 128 61.5 194t173.5 66t173.5 -66t61.5 -194v-47h-145v50q0 70 -23 100t-67 30t-67 -30t-23 -100v-260q0 -71 22.5 -100.5t67.5 -29.5
q44 0 67 30t23 100v60h145v-57q0 -118 -52.5 -183.5t-148.5 -74.5l-24 -35q47 0 77 -30t30 -73t-32.5 -72.5t-84.5 -29.5q-51 0 -84 25t-33 61z" />
    <glyph glyph-name="uni00C8" unicode="&#xc8;" horiz-adv-x="454" 
d="M190 820l-93 150h150l57 -150h-114zM419 128v-128h-359v750h359v-128h-215v-174h195v-128h-195v-192h215z" />
    <glyph glyph-name="uni00C9" unicode="&#xc9;" horiz-adv-x="454" 
d="M295 820h-114l57 150h150zM419 128v-128h-359v750h359v-128h-215v-174h195v-128h-195v-192h215z" />
    <glyph glyph-name="uni00CA" unicode="&#xca;" horiz-adv-x="454" 
d="M180 820h-113l97 150h156l97 -150h-113l-62 73zM419 128v-128h-359v750h359v-128h-215v-174h195v-128h-195v-192h215z" />
    <glyph glyph-name="uni00CB" unicode="&#xcb;" horiz-adv-x="454" 
d="M141 825q-29 0 -49.5 20.5t-20.5 49.5t20.5 49.5t49.5 20.5t49.5 -20.5t20.5 -49.5t-20.5 -49.5t-49.5 -20.5zM345 825q-29 0 -49.5 20.5t-20.5 49.5t20.5 49.5t49.5 20.5q30 0 50 -20.5t20 -49.5t-20 -49.5t-50 -20.5zM419 128v-128h-359v750h359v-128h-215v-174h195
v-128h-195v-192h215z" />
    <glyph glyph-name="uni00CC" unicode="&#xcc;" horiz-adv-x="265" 
d="M80 820l-93 150h150l57 -150h-114zM205 0h-145v750h145v-750z" />
    <glyph glyph-name="uni00CD" unicode="&#xcd;" horiz-adv-x="265" 
d="M184 820h-114l57 150h150zM205 0h-145v750h145v-750z" />
    <glyph glyph-name="uni00CE" unicode="&#xce;" horiz-adv-x="265" 
d="M70 820h-113l97 150h156l97 -150h-113l-62 73zM205 0h-145v750h145v-750z" />
    <glyph glyph-name="uni00CF" unicode="&#xcf;" horiz-adv-x="265" 
d="M30 825q-28 0 -49 20.5t-21 49.5t20.5 49.5t49.5 20.5t49.5 -20.5t20.5 -49.5t-20.5 -49.5t-49.5 -20.5zM234 825q-29 0 -49.5 20.5t-20.5 49.5t21 49.5t49 20.5q30 0 50 -20.5t20 -49.5t-20 -49.5t-50 -20.5zM205 0h-145v750h145v-750z" />
    <glyph glyph-name="uni00D0" unicode="&#xd0;" horiz-adv-x="570" 
d="M285 750q111 0 173 -64t62 -188v-246q0 -124 -62 -188t-173 -64h-225v338h-60v92h60v320h225zM285 128q44 0 67 28t23 94v250q0 66 -23 94t-67 28h-80v-192h86v-92h-86v-210h80z" />
    <glyph glyph-name="uni00D1" unicode="&#xd1;" horiz-adv-x="590" 
d="M123 820v48q0 102 88 102q34 0 80.5 -25.5t61.5 -25.5q30 0 30 34v17h84v-48q0 -102 -88 -102q-34 0 -80.5 25.5t-61.5 25.5q-30 0 -30 -34v-17h-84zM282 750l124 -641v641h124v-750h-222l-124 650v-650h-124v750h222z" />
    <glyph glyph-name="uni00D2" unicode="&#xd2;" horiz-adv-x="570" 
d="M232 820l-93 150h150l57 -150h-114zM285 -12q-112 0 -173.5 65.5t-61.5 194.5v254q0 128 61.5 194t173.5 66t173.5 -66t61.5 -194v-254q0 -129 -61.5 -194.5t-173.5 -65.5zM285 115q44 0 67 30t23 100v260q0 70 -23 100t-67 30t-67 -30t-23 -100v-260q0 -71 22.5 -100.5
t67.5 -29.5z" />
    <glyph glyph-name="uni00D3" unicode="&#xd3;" horiz-adv-x="570" 
d="M337 820h-114l57 150h150zM285 -12q-112 0 -173.5 65.5t-61.5 194.5v254q0 128 61.5 194t173.5 66t173.5 -66t61.5 -194v-254q0 -129 -61.5 -194.5t-173.5 -65.5zM285 115q44 0 67 30t23 100v260q0 70 -23 100t-67 30t-67 -30t-23 -100v-260q0 -71 22.5 -100.5
t67.5 -29.5z" />
    <glyph glyph-name="uni00D4" unicode="&#xd4;" horiz-adv-x="570" 
d="M222 820h-113l97 150h156l97 -150h-113l-62 73zM285 -12q-112 0 -173.5 65.5t-61.5 194.5v254q0 128 61.5 194t173.5 66t173.5 -66t61.5 -194v-254q0 -129 -61.5 -194.5t-173.5 -65.5zM285 115q44 0 67 30t23 100v260q0 70 -23 100t-67 30t-67 -30t-23 -100v-260
q0 -71 22.5 -100.5t67.5 -29.5z" />
    <glyph glyph-name="uni00D5" unicode="&#xd5;" horiz-adv-x="570" 
d="M113 820v48q0 102 88 102q34 0 80.5 -25.5t61.5 -25.5q30 0 30 34v17h84v-48q0 -102 -88 -102q-34 0 -80.5 25.5t-61.5 25.5q-30 0 -30 -34v-17h-84zM285 -12q-112 0 -173.5 65.5t-61.5 194.5v254q0 128 61.5 194t173.5 66t173.5 -66t61.5 -194v-254q0 -129 -61.5 -194.5
t-173.5 -65.5zM285 115q44 0 67 30t23 100v260q0 70 -23 100t-67 30t-67 -30t-23 -100v-260q0 -71 22.5 -100.5t67.5 -29.5z" />
    <glyph glyph-name="uni00D6" unicode="&#xd6;" horiz-adv-x="570" 
d="M183 825q-29 0 -49.5 20.5t-20.5 49.5t20.5 49.5t49.5 20.5t49.5 -20.5t20.5 -49.5t-20.5 -49.5t-49.5 -20.5zM387 825q-29 0 -49.5 20.5t-20.5 49.5t20.5 49.5t49.5 20.5q30 0 50 -20.5t20 -49.5t-20 -49.5t-50 -20.5zM285 -12q-112 0 -173.5 65.5t-61.5 194.5v254
q0 128 61.5 194t173.5 66t173.5 -66t61.5 -194v-254q0 -129 -61.5 -194.5t-173.5 -65.5zM285 115q44 0 67 30t23 100v260q0 70 -23 100t-67 30t-67 -30t-23 -100v-260q0 -71 22.5 -100.5t67.5 -29.5z" />
    <glyph glyph-name="uni00D7" unicode="&#xd7;" 
d="M166 130l-64 64l108 108l-114 114l66 66l114 -114l108 108l64 -64l-108 -108l114 -114l-66 -66l-114 114z" />
    <glyph glyph-name="uni00D8" unicode="&#xd8;" horiz-adv-x="570" 
d="M152 0h-102l46 94q-46 52 -46 164v244q0 127 59.5 193.5t158.5 66.5q94 0 135 -42l15 30h102l-46 -94q46 -52 46 -164v-244q0 -127 -59.5 -193.5t-158.5 -66.5q-94 0 -135 42zM285 635q-45 0 -67.5 -29.5t-22.5 -100.5v-209l154 313q-21 26 -64 26zM375 245v209
l-154 -313q21 -26 64 -26q45 0 67.5 29.5t22.5 100.5z" />
    <glyph glyph-name="uni00D9" unicode="&#xd9;" horiz-adv-x="570" 
d="M232 820l-93 150h150l57 -150h-114zM55 750h145v-518q0 -117 85 -117t85 117v518h145v-515q0 -122 -60.5 -184.5t-169.5 -62.5t-169.5 62.5t-60.5 184.5v515z" />
    <glyph glyph-name="uni00DA" unicode="&#xda;" horiz-adv-x="570" 
d="M337 820h-114l57 150h150zM55 750h145v-518q0 -117 85 -117t85 117v518h145v-515q0 -122 -60.5 -184.5t-169.5 -62.5t-169.5 62.5t-60.5 184.5v515z" />
    <glyph glyph-name="uni00DB" unicode="&#xdb;" horiz-adv-x="570" 
d="M222 820h-113l97 150h156l97 -150h-113l-62 73zM55 750h145v-518q0 -117 85 -117t85 117v518h145v-515q0 -122 -60.5 -184.5t-169.5 -62.5t-169.5 62.5t-60.5 184.5v515z" />
    <glyph glyph-name="uni00DC" unicode="&#xdc;" horiz-adv-x="570" 
d="M183 825q-29 0 -49.5 20.5t-20.5 49.5t20.5 49.5t49.5 20.5t49.5 -20.5t20.5 -49.5t-20.5 -49.5t-49.5 -20.5zM387 825q-29 0 -49.5 20.5t-20.5 49.5t20.5 49.5t49.5 20.5q30 0 50 -20.5t20 -49.5t-20 -49.5t-50 -20.5zM55 750h145v-518q0 -117 85 -117t85 117v518h145
v-515q0 -122 -60.5 -184.5t-169.5 -62.5t-169.5 62.5t-60.5 184.5v515z" />
    <glyph glyph-name="uni00DD" unicode="&#xdd;" horiz-adv-x="480" 
d="M292 820h-114l57 150h150zM312 0h-144v272l-168 478h141l99 -310l99 310h141l-168 -478v-272z" />
    <glyph glyph-name="uni00DE" unicode="&#xde;" horiz-adv-x="530" 
d="M202 0h-142v750h142v-108h84q101 0 160 -55t59 -157v-45q0 -105 -59.5 -162.5t-159.5 -57.5h-84v-165zM278 518h-76v-228h76q88 0 88 105v25q0 98 -88 98z" />
    <glyph glyph-name="uni00DF" unicode="&#xdf;" horiz-adv-x="624" 
d="M235 564v-564h-145v382h-72v118h72v67q0 91 59.5 142t160.5 51q99 0 161.5 -50t62.5 -136q0 -75 -63 -120q57 -31 90 -86t33 -126q0 -106 -71.5 -174t-180.5 -68h-36v118h17q57 0 93 36.5t36 95.5t-36 95.5t-93 36.5h-17v118h5q36 0 55.5 17t19.5 49q0 34 -20 53t-56 19
q-35 0 -55 -19t-20 -55z" />
    <glyph glyph-name="uni00E0" unicode="&#xe0;" 
d="M227 600l-93 150h150l57 -150h-114zM200 -10q-68 0 -116 36.5t-48 106.5q0 50 23.5 82.5t59 45.5t76.5 22t76.5 13t59 16.5t23.5 35.5q0 26 -22 41t-57 15q-38 0 -59.5 -19.5t-21.5 -56.5h-143q0 92 66 137t162 45q95 0 157.5 -41t62.5 -125v-344h-140v76
q-45 -86 -159 -86zM181 145q0 -23 17.5 -35.5t45.5 -12.5q48 0 80 27t32 75v26q-24 -11 -73 -20.5t-75.5 -21.5t-26.5 -38z" />
    <glyph glyph-name="uni00E1" unicode="&#xe1;" 
d="M331 600h-114l57 150h150zM200 -10q-68 0 -116 36.5t-48 106.5q0 50 23.5 82.5t59 45.5t76.5 22t76.5 13t59 16.5t23.5 35.5q0 26 -22 41t-57 15q-38 0 -59.5 -19.5t-21.5 -56.5h-143q0 92 66 137t162 45q95 0 157.5 -41t62.5 -125v-344h-140v76q-45 -86 -159 -86z
M181 145q0 -23 17.5 -35.5t45.5 -12.5q48 0 80 27t32 75v26q-24 -11 -73 -20.5t-75.5 -21.5t-26.5 -38z" />
    <glyph glyph-name="uni00E2" unicode="&#xe2;" 
d="M217 600h-113l97 150h156l97 -150h-113l-62 73zM200 -10q-68 0 -116 36.5t-48 106.5q0 50 23.5 82.5t59 45.5t76.5 22t76.5 13t59 16.5t23.5 35.5q0 26 -22 41t-57 15q-38 0 -59.5 -19.5t-21.5 -56.5h-143q0 92 66 137t162 45q95 0 157.5 -41t62.5 -125v-344h-140v76
q-45 -86 -159 -86zM181 145q0 -23 17.5 -35.5t45.5 -12.5q48 0 80 27t32 75v26q-24 -11 -73 -20.5t-75.5 -21.5t-26.5 -38z" />
    <glyph glyph-name="uni00E3" unicode="&#xe3;" 
d="M107 600v48q0 102 88 102q34 0 80.5 -25.5t61.5 -25.5q30 0 30 34v17h84v-48q0 -102 -88 -102q-34 0 -80.5 25.5t-61.5 25.5q-30 0 -30 -34v-17h-84zM200 -10q-68 0 -116 36.5t-48 106.5q0 50 23.5 82.5t59 45.5t76.5 22t76.5 13t59 16.5t23.5 35.5q0 26 -22 41t-57 15
q-38 0 -59.5 -19.5t-21.5 -56.5h-143q0 92 66 137t162 45q95 0 157.5 -41t62.5 -125v-344h-140v76q-45 -86 -159 -86zM181 145q0 -23 17.5 -35.5t45.5 -12.5q48 0 80 27t32 75v26q-24 -11 -73 -20.5t-75.5 -21.5t-26.5 -38z" />
    <glyph glyph-name="uni00E4" unicode="&#xe4;" 
d="M177 605q-29 0 -49.5 20.5t-20.5 49.5t20.5 49.5t49.5 20.5t49.5 -20.5t20.5 -49.5t-20.5 -49.5t-49.5 -20.5zM381 605q-29 0 -49.5 20.5t-20.5 49.5t20.5 49.5t49.5 20.5q30 0 50 -20.5t20 -49.5t-20 -49.5t-50 -20.5zM200 -10q-68 0 -116 36.5t-48 106.5
q0 50 23.5 82.5t59 45.5t76.5 22t76.5 13t59 16.5t23.5 35.5q0 26 -22 41t-57 15q-38 0 -59.5 -19.5t-21.5 -56.5h-143q0 92 66 137t162 45q95 0 157.5 -41t62.5 -125v-344h-140v76q-45 -86 -159 -86zM181 145q0 -23 17.5 -35.5t45.5 -12.5q48 0 80 27t32 75v26
q-24 -11 -73 -20.5t-75.5 -21.5t-26.5 -38z" />
    <glyph glyph-name="uni00E5" unicode="&#xe5;" 
d="M279 570q-49 0 -80 27t-31 68q0 40 31 67.5t80 27.5t80.5 -27.5t31.5 -67.5q0 -41 -31 -68t-81 -27zM279 632q15 0 24.5 9.5t9.5 23.5t-9.5 23.5t-24.5 9.5q-14 0 -24 -9.5t-10 -23.5t10 -23.5t24 -9.5zM200 -10q-68 0 -116 36.5t-48 106.5q0 50 23.5 82.5t59 45.5
t76.5 22t76.5 13t59 16.5t23.5 35.5q0 26 -22 41t-57 15q-38 0 -59.5 -19.5t-21.5 -56.5h-143q0 92 66 137t162 45q95 0 157.5 -41t62.5 -125v-344h-140v76q-45 -86 -159 -86zM181 145q0 -23 17.5 -35.5t45.5 -12.5q48 0 80 27t32 75v26q-24 -11 -73 -20.5t-75.5 -21.5
t-26.5 -38z" />
    <glyph glyph-name="uni00E6" unicode="&#xe6;" horiz-adv-x="899" 
d="M221 -10q-76 0 -130.5 36.5t-54.5 106.5q0 50 23.5 82.5t59 45.5t76.5 22t76.5 13t59 16.5t23.5 35.5q0 26 -22 41t-57 15q-38 0 -59.5 -19.5t-21.5 -56.5h-143q0 92 63.5 137t157.5 45q119 0 172 -66q68 66 172 66q111 0 182 -73t71 -187q0 -14 -2 -40h-365
q17 -102 118 -102q69 0 90 50h147q-23 -82 -85.5 -125t-155.5 -43q-133 0 -204 103q-48 -103 -191 -103zM616 391q-95 0 -113 -96h226q-18 96 -113 96zM181 145q0 -23 17.5 -35.5t45.5 -12.5q48 0 80 27t32 75v26q-24 -11 -73 -20.5t-75.5 -21.5t-26.5 -38z" />
    <glyph glyph-name="uni00E7" unicode="&#xe7;" horiz-adv-x="572" 
d="M169 -164h79q3 -23 38 -23q17 0 28.5 11.5t11.5 27.5q0 17 -11.5 28.5t-28.5 11.5q-27 0 -34 -16h-78l73 117q-96 13 -156.5 83.5t-60.5 173.5q0 114 72.5 187t183.5 73q105 0 175 -59t80 -155h-148q-5 41 -34.5 63t-72.5 22q-50 0 -82 -36.5t-32 -94.5q0 -59 31.5 -95
t82.5 -36q44 0 74 25t36 71h146q-4 -92 -64.5 -152.5t-156.5 -70.5l-24 -37q46 0 76 -30t30 -73t-32.5 -72.5t-84.5 -29.5q-51 0 -84 25t-33 61z" />
    <glyph glyph-name="uni00E8" unicode="&#xe8;" horiz-adv-x="566" 
d="M231 600l-93 150h150l57 -150h-114zM534 210h-365q17 -102 118 -102q69 0 90 50h147q-23 -82 -85.5 -125t-155.5 -43q-111 0 -182 73t-71 187t71 187t182 73t182 -73t71 -187q0 -14 -2 -40zM283 391q-95 0 -113 -96h226q-18 96 -113 96z" />
    <glyph glyph-name="uni00E9" unicode="&#xe9;" horiz-adv-x="566" 
d="M335 600h-114l57 150h150zM534 210h-365q17 -102 118 -102q69 0 90 50h147q-23 -82 -85.5 -125t-155.5 -43q-111 0 -182 73t-71 187t71 187t182 73t182 -73t71 -187q0 -14 -2 -40zM283 391q-95 0 -113 -96h226q-18 96 -113 96z" />
    <glyph glyph-name="uni00EA" unicode="&#xea;" horiz-adv-x="566" 
d="M221 600h-113l97 150h156l97 -150h-113l-62 73zM534 210h-365q17 -102 118 -102q69 0 90 50h147q-23 -82 -85.5 -125t-155.5 -43q-111 0 -182 73t-71 187t71 187t182 73t182 -73t71 -187q0 -14 -2 -40zM283 391q-95 0 -113 -96h226q-18 96 -113 96z" />
    <glyph glyph-name="uni00EB" unicode="&#xeb;" horiz-adv-x="566" 
d="M181 605q-29 0 -49.5 20.5t-20.5 49.5t20.5 49.5t49.5 20.5t49.5 -20.5t20.5 -49.5t-20.5 -49.5t-49.5 -20.5zM385 605q-29 0 -49.5 20.5t-20.5 49.5t20.5 49.5t49.5 20.5q30 0 50 -20.5t20 -49.5t-20 -49.5t-50 -20.5zM534 210h-365q17 -102 118 -102q69 0 90 50h147
q-23 -82 -85.5 -125t-155.5 -43q-111 0 -182 73t-71 187t71 187t182 73t182 -73t71 -187q0 -14 -2 -40zM283 391q-95 0 -113 -96h226q-18 96 -113 96z" />
    <glyph glyph-name="uni00EC" unicode="&#xec;" horiz-adv-x="265" 
d="M80 600l-93 150h150l57 -150h-114zM205 0h-145v500h145v-500z" />
    <glyph glyph-name="uni00ED" unicode="&#xed;" horiz-adv-x="265" 
d="M184 600h-114l57 150h150zM205 0h-145v500h145v-500z" />
    <glyph glyph-name="uni00EE" unicode="&#xee;" horiz-adv-x="265" 
d="M70 600h-113l97 150h156l97 -150h-113l-62 73zM205 0h-145v500h145v-500z" />
    <glyph glyph-name="uni00EF" unicode="&#xef;" horiz-adv-x="265" 
d="M30 605q-28 0 -49 20.5t-21 49.5t20.5 49.5t49.5 20.5t49.5 -20.5t20.5 -49.5t-20.5 -49.5t-49.5 -20.5zM234 605q-29 0 -49.5 20.5t-20.5 49.5t21 49.5t49 20.5q30 0 50 -20.5t20 -49.5t-20 -49.5t-50 -20.5zM205 0h-145v500h145v-500z" />
    <glyph glyph-name="uni00F0" unicode="&#xf0;" horiz-adv-x="575" 
d="M540 332q0 -178 -72 -260t-190 -82q-108 0 -178 67.5t-70 172.5q0 106 65 173t171 67q73 0 122 -44q-10 88 -49 138l-61 -55h-123l117 105q-35 14 -84 14q-27 0 -60 -6v124q38 6 76 6q97 0 171 -44l47 42h123l-106 -95q101 -110 101 -323zM278 115q48 0 79 32t31 83
t-31 83t-79 32t-79 -32t-31 -83t31 -83t79 -32z" />
    <glyph glyph-name="uni00F1" unicode="&#xf1;" horiz-adv-x="585" 
d="M123 600v48q0 102 88 102q34 0 80.5 -25.5t61.5 -25.5q30 0 30 34v17h84v-48q0 -102 -88 -102q-34 0 -80.5 25.5t-61.5 25.5q-30 0 -30 -34v-17h-84zM385 276q0 56 -23.5 85t-66.5 29t-66.5 -29t-23.5 -85v-276h-145v500h142v-73q47 83 146 83q81 0 131.5 -52t50.5 -149
v-309h-145v276z" />
    <glyph glyph-name="uni00F2" unicode="&#xf2;" horiz-adv-x="580" 
d="M238 600l-93 150h150l57 -150h-114zM290 -10q-113 0 -186.5 72.5t-73.5 187.5t73.5 187.5t186.5 72.5t186.5 -72.5t73.5 -187.5t-73.5 -187.5t-186.5 -72.5zM290 119q52 0 85.5 36.5t33.5 94.5t-33.5 94.5t-85.5 36.5t-85.5 -36.5t-33.5 -94.5t33.5 -94.5t85.5 -36.5z
" />
    <glyph glyph-name="uni00F3" unicode="&#xf3;" horiz-adv-x="580" 
d="M342 600h-114l57 150h150zM290 -10q-113 0 -186.5 72.5t-73.5 187.5t73.5 187.5t186.5 72.5t186.5 -72.5t73.5 -187.5t-73.5 -187.5t-186.5 -72.5zM290 119q52 0 85.5 36.5t33.5 94.5t-33.5 94.5t-85.5 36.5t-85.5 -36.5t-33.5 -94.5t33.5 -94.5t85.5 -36.5z" />
    <glyph glyph-name="uni00F4" unicode="&#xf4;" horiz-adv-x="580" 
d="M228 600h-113l97 150h156l97 -150h-113l-62 73zM290 -10q-113 0 -186.5 72.5t-73.5 187.5t73.5 187.5t186.5 72.5t186.5 -72.5t73.5 -187.5t-73.5 -187.5t-186.5 -72.5zM290 119q52 0 85.5 36.5t33.5 94.5t-33.5 94.5t-85.5 36.5t-85.5 -36.5t-33.5 -94.5t33.5 -94.5
t85.5 -36.5z" />
    <glyph glyph-name="uni00F5" unicode="&#xf5;" horiz-adv-x="580" 
d="M118 600v48q0 102 88 102q34 0 80.5 -25.5t61.5 -25.5q30 0 30 34v17h84v-48q0 -102 -88 -102q-34 0 -80.5 25.5t-61.5 25.5q-30 0 -30 -34v-17h-84zM290 -10q-113 0 -186.5 72.5t-73.5 187.5t73.5 187.5t186.5 72.5t186.5 -72.5t73.5 -187.5t-73.5 -187.5t-186.5 -72.5z
M290 119q52 0 85.5 36.5t33.5 94.5t-33.5 94.5t-85.5 36.5t-85.5 -36.5t-33.5 -94.5t33.5 -94.5t85.5 -36.5z" />
    <glyph glyph-name="uni00F6" unicode="&#xf6;" horiz-adv-x="580" 
d="M188 605q-28 0 -49 20.5t-21 49.5t20.5 49.5t49.5 20.5t49.5 -20.5t20.5 -49.5t-20.5 -49.5t-49.5 -20.5zM392 605q-29 0 -49.5 20.5t-20.5 49.5t21 49.5t49 20.5q30 0 50 -20.5t20 -49.5t-20 -49.5t-50 -20.5zM290 -10q-113 0 -186.5 72.5t-73.5 187.5t73.5 187.5
t186.5 72.5t186.5 -72.5t73.5 -187.5t-73.5 -187.5t-186.5 -72.5zM290 119q52 0 85.5 36.5t33.5 94.5t-33.5 94.5t-85.5 36.5t-85.5 -36.5t-33.5 -94.5t33.5 -94.5t85.5 -36.5z" />
    <glyph glyph-name="uni00F7" unicode="&#xf7;" 
d="M213 462q0 26 18.5 45t43.5 19q27 0 45 -18.5t18 -45.5q0 -26 -18 -43t-45 -17q-25 0 -43.5 17.5t-18.5 42.5zM75 258v90h400v-90h-400zM213 142q0 25 18.5 43.5t43.5 18.5q27 0 45 -18t18 -44t-18 -44t-45 -18q-25 0 -43.5 18t-18.5 44z" />
    <glyph glyph-name="uni00F8" unicode="&#xf8;" horiz-adv-x="580" 
d="M148 0h-118l61 76q-61 72 -61 174q0 115 73.5 187.5t186.5 72.5q71 0 126 -29l16 19h118l-61 -76q61 -72 61 -174q0 -115 -73.5 -187.5t-186.5 -72.5q-71 0 -126 29zM166 250q0 -34 13 -65l155 193q-21 8 -44 8q-54 0 -89 -37.5t-35 -98.5zM290 114q54 0 89 37.5t35 98.5
q0 34 -13 65l-155 -193q21 -8 44 -8z" />
    <glyph glyph-name="uni00F9" unicode="&#xf9;" horiz-adv-x="580" 
d="M234 600l-93 150h150l57 -150h-114zM200 224q0 -56 23 -85t65 -29t64.5 29t22.5 85v276h145v-500h-142v71q-47 -81 -143 -81q-80 0 -130 52t-50 149v309h145v-276z" />
    <glyph glyph-name="uni00FA" unicode="&#xfa;" horiz-adv-x="580" 
d="M338 600h-114l57 150h150zM200 224q0 -56 23 -85t65 -29t64.5 29t22.5 85v276h145v-500h-142v71q-47 -81 -143 -81q-80 0 -130 52t-50 149v309h145v-276z" />
    <glyph glyph-name="uni00FB" unicode="&#xfb;" horiz-adv-x="580" 
d="M224 600h-113l97 150h156l97 -150h-113l-62 73zM200 224q0 -56 23 -85t65 -29t64.5 29t22.5 85v276h145v-500h-142v71q-47 -81 -143 -81q-80 0 -130 52t-50 149v309h145v-276z" />
    <glyph glyph-name="uni00FC" unicode="&#xfc;" horiz-adv-x="580" 
d="M184 605q-28 0 -49 20.5t-21 49.5t20.5 49.5t49.5 20.5t49.5 -20.5t20.5 -49.5t-20.5 -49.5t-49.5 -20.5zM388 605q-29 0 -49.5 20.5t-20.5 49.5t21 49.5t49 20.5q30 0 50 -20.5t20 -49.5t-20 -49.5t-50 -20.5zM200 224q0 -56 23 -85t65 -29t64.5 29t22.5 85v276h145
v-500h-142v71q-47 -81 -143 -81q-80 0 -130 52t-50 149v309h145v-276z" />
    <glyph glyph-name="uni00FD" unicode="&#xfd;" horiz-adv-x="501" 
d="M310 600h-114l57 150h150zM335 -22q-34 -118 -89.5 -178t-153.5 -60q-49 0 -85 12v116q39 -11 70 -11q71 0 109 62l-182 581h142l103 -391l106 391h142z" />
    <glyph glyph-name="uni00FE" unicode="&#xfe;" horiz-adv-x="615" 
d="M205 -250h-145v1000h145v-310q59 70 147 70q103 0 168 -72t65 -188t-65 -188t-168 -72q-88 0 -147 70v-310zM324 119q51 0 84.5 36.5t33.5 94.5t-33.5 94.5t-84.5 36.5q-52 0 -85.5 -36.5t-33.5 -94.5t33.5 -94.5t85.5 -36.5z" />
    <glyph glyph-name="uni00FF" unicode="&#xff;" horiz-adv-x="501" 
d="M156 605q-28 0 -49 20.5t-21 49.5t20.5 49.5t49.5 20.5t49.5 -20.5t20.5 -49.5t-20.5 -49.5t-49.5 -20.5zM360 605q-29 0 -49.5 20.5t-20.5 49.5t21 49.5t49 20.5q30 0 50 -20.5t20 -49.5t-20 -49.5t-50 -20.5zM335 -22q-34 -118 -89.5 -178t-153.5 -60q-49 0 -85 12v116
q39 -11 70 -11q71 0 109 62l-182 581h142l103 -391l106 391h142z" />
    <glyph glyph-name="uni0100" unicode="&#x100;" horiz-adv-x="510" 
d="M401 920v-92h-285v92h285zM144 750h222l136 -750h-142l-25 152h-160l-25 -152h-142zM196 278h118l-59 362z" />
    <glyph glyph-name="uni0101" unicode="&#x101;" 
d="M425 700v-92h-285v92h285zM200 -10q-68 0 -116 36.5t-48 106.5q0 50 23.5 82.5t59 45.5t76.5 22t76.5 13t59 16.5t23.5 35.5q0 26 -22 41t-57 15q-38 0 -59.5 -19.5t-21.5 -56.5h-143q0 92 66 137t162 45q95 0 157.5 -41t62.5 -125v-344h-140v76q-45 -86 -159 -86z
M181 145q0 -23 17.5 -35.5t45.5 -12.5q48 0 80 27t32 75v26q-24 -11 -73 -20.5t-75.5 -21.5t-26.5 -38z" />
    <glyph glyph-name="uni0102" unicode="&#x102;" horiz-adv-x="510" 
d="M312 970h103q0 -71 -43 -111.5t-117 -40.5q-73 0 -115.5 40t-42.5 112h102q0 -30 16 -45t40 -15q57 0 57 60zM144 750h222l136 -750h-142l-25 152h-160l-25 -152h-142zM196 278h118l-59 362z" />
    <glyph glyph-name="uni0103" unicode="&#x103;" 
d="M336 750h103q0 -71 -43 -111.5t-117 -40.5q-73 0 -115.5 40t-42.5 112h102q0 -30 16 -45t40 -15q57 0 57 60zM200 -10q-68 0 -116 36.5t-48 106.5q0 50 23.5 82.5t59 45.5t76.5 22t76.5 13t59 16.5t23.5 35.5q0 26 -22 41t-57 15q-38 0 -59.5 -19.5t-21.5 -56.5h-143
q0 92 66 137t162 45q95 0 157.5 -41t62.5 -125v-344h-140v76q-45 -86 -159 -86zM181 145q0 -23 17.5 -35.5t45.5 -12.5q48 0 80 27t32 75v26q-24 -11 -73 -20.5t-75.5 -21.5t-26.5 -38z" />
    <glyph glyph-name="uni0104" unicode="&#x104;" horiz-adv-x="510" 
d="M402 -254q-54 0 -87 25t-33 67q0 16 4 31t16 34.5t18 28.5t26.5 35.5t25.5 32.5h-12l-25 152h-160l-25 -152h-142l136 750h222l136 -750h-54q-76 -105 -76 -150q0 -33 33 -33q30 0 35 32h91q0 -46 -35.5 -74.5t-93.5 -28.5zM196 278h118l-59 362z" />
    <glyph glyph-name="uni0105" unicode="&#x105;" 
d="M200 -10q-68 0 -116 36.5t-48 106.5q0 50 23.5 82.5t59 45.5t76.5 22t76.5 13t59 16.5t23.5 35.5q0 26 -22 41t-57 15q-38 0 -59.5 -19.5t-21.5 -56.5h-143q0 92 66 137t162 45q95 0 157.5 -41t62.5 -125v-344h-58q-76 -107 -76 -150q0 -33 33 -33q30 0 35 32h91
q0 -46 -35 -74.5t-93 -28.5q-55 0 -88 25t-33 67q0 16 4.5 31.5t16 34t18.5 29t26.5 35t25.5 32.5h-7v76q-45 -86 -159 -86zM181 145q0 -23 17.5 -35.5t45.5 -12.5q48 0 80 27t32 75v26q-24 -11 -73 -20.5t-75.5 -21.5t-26.5 -38z" />
    <glyph glyph-name="uni0106" unicode="&#x106;" horiz-adv-x="570" 
d="M337 820h-114l57 150h150zM375 305h145v-57q0 -128 -61.5 -194t-173.5 -66t-173.5 66t-61.5 194v254q0 128 61.5 194t173.5 66t173.5 -66t61.5 -194v-47h-145v50q0 70 -23 100t-67 30t-67 -30t-23 -100v-260q0 -71 22.5 -100.5t67.5 -29.5q44 0 67 30t23 100v60z" />
    <glyph glyph-name="uni0107" unicode="&#x107;" horiz-adv-x="572" 
d="M338 600h-114l57 150h150zM393 296q-5 41 -34.5 63t-72.5 22q-50 0 -82 -36.5t-32 -94.5q0 -59 31.5 -95t82.5 -36q43 0 73 25t37 71h146q-5 -101 -76 -163t-180 -62q-111 0 -183.5 73t-72.5 187t72.5 187t183.5 73q105 0 175 -59t80 -155h-148z" />
    <glyph glyph-name="uni0108" unicode="&#x108;" horiz-adv-x="570" 
d="M222 820h-113l97 150h156l97 -150h-113l-62 73zM375 305h145v-57q0 -128 -61.5 -194t-173.5 -66t-173.5 66t-61.5 194v254q0 128 61.5 194t173.5 66t173.5 -66t61.5 -194v-47h-145v50q0 70 -23 100t-67 30t-67 -30t-23 -100v-260q0 -71 22.5 -100.5t67.5 -29.5
q44 0 67 30t23 100v60z" />
    <glyph glyph-name="uni0109" unicode="&#x109;" horiz-adv-x="572" 
d="M224 600h-113l97 150h156l97 -150h-113l-62 73zM393 296q-5 41 -34.5 63t-72.5 22q-50 0 -82 -36.5t-32 -94.5q0 -59 31.5 -95t82.5 -36q43 0 73 25t37 71h146q-5 -101 -76 -163t-180 -62q-111 0 -183.5 73t-72.5 187t72.5 187t183.5 73q105 0 175 -59t80 -155h-148z" />
    <glyph glyph-name="uni010A" unicode="&#x10a;" horiz-adv-x="570" 
d="M285 818q-33 0 -55 22.5t-22 54.5q0 34 22 55.5t55 21.5q34 0 56 -21.5t22 -55.5q0 -33 -22.5 -55t-55.5 -22zM375 305h145v-57q0 -128 -61.5 -194t-173.5 -66t-173.5 66t-61.5 194v254q0 128 61.5 194t173.5 66t173.5 -66t61.5 -194v-47h-145v50q0 70 -23 100t-67 30
t-67 -30t-23 -100v-260q0 -71 22.5 -100.5t67.5 -29.5q44 0 67 30t23 100v60z" />
    <glyph glyph-name="uni010B" unicode="&#x10b;" horiz-adv-x="572" 
d="M286 598q-33 0 -55 22.5t-22 54.5q0 34 22 55.5t55 21.5q34 0 56 -21.5t22 -55.5q0 -33 -22 -55t-56 -22zM393 296q-5 41 -34.5 63t-72.5 22q-50 0 -82 -36.5t-32 -94.5q0 -59 31.5 -95t82.5 -36q43 0 73 25t37 71h146q-5 -101 -76 -163t-180 -62q-111 0 -183.5 73
t-72.5 187t72.5 187t183.5 73q105 0 175 -59t80 -155h-148z" />
    <glyph glyph-name="uni010C" unicode="&#x10c;" horiz-adv-x="570" 
d="M222 970l62 -73l62 73h113l-97 -150h-156l-97 150h113zM375 305h145v-57q0 -128 -61.5 -194t-173.5 -66t-173.5 66t-61.5 194v254q0 128 61.5 194t173.5 66t173.5 -66t61.5 -194v-47h-145v50q0 70 -23 100t-67 30t-67 -30t-23 -100v-260q0 -71 22.5 -100.5t67.5 -29.5
q44 0 67 30t23 100v60z" />
    <glyph glyph-name="uni010D" unicode="&#x10d;" horiz-adv-x="572" 
d="M224 750l62 -73l62 73h113l-97 -150h-156l-97 150h113zM393 296q-5 41 -34.5 63t-72.5 22q-50 0 -82 -36.5t-32 -94.5q0 -59 31.5 -95t82.5 -36q43 0 73 25t37 71h146q-5 -101 -76 -163t-180 -62q-111 0 -183.5 73t-72.5 187t72.5 187t183.5 73q105 0 175 -59t80 -155
h-148z" />
    <glyph glyph-name="uni010E" unicode="&#x10e;" horiz-adv-x="570" 
d="M214 970l62 -73l62 73h113l-97 -150h-156l-97 150h113zM285 750q111 0 173 -64t62 -188v-246q0 -124 -62 -188t-173 -64h-225v750h225zM285 128q44 0 67 28t23 94v250q0 66 -23 94t-67 28h-80v-494h80z" />
    <glyph glyph-name="uni010F" unicode="&#x10f;" horiz-adv-x="615" 
d="M262 510q89 0 148 -70v310h145v-750h-143v63q-59 -73 -150 -73q-102 0 -167 72t-65 188t65 188t167 72zM624 750h127l-48 -190h-79v190zM291 381q-52 0 -85.5 -36t-33.5 -95t33.5 -95t85.5 -36t85.5 36t33.5 95t-33.5 95t-85.5 36z" />
    <glyph glyph-name="uni0110" unicode="&#x110;" horiz-adv-x="570" 
d="M285 750q111 0 173 -64t62 -188v-246q0 -124 -62 -188t-173 -64h-225v338h-60v92h60v320h225zM285 128q44 0 67 28t23 94v250q0 66 -23 94t-67 28h-80v-192h86v-92h-86v-210h80z" />
    <glyph glyph-name="uni0111" unicode="&#x111;" horiz-adv-x="615" 
d="M262 510q89 0 148 -70v151h-124v80h124v79h145v-79h60v-80h-60v-591h-143v63q-59 -73 -150 -73q-102 0 -167 72t-65 188t65 188t167 72zM291 381q-52 0 -85.5 -36.5t-33.5 -94.5t33.5 -94.5t85.5 -36.5t85.5 36.5t33.5 94.5t-33.5 94.5t-85.5 36.5z" />
    <glyph glyph-name="uni0112" unicode="&#x112;" horiz-adv-x="454" 
d="M389 920v-92h-285v92h285zM419 128v-128h-359v750h359v-128h-215v-174h195v-128h-195v-192h215z" />
    <glyph glyph-name="uni0113" unicode="&#x113;" horiz-adv-x="566" 
d="M429 700v-92h-285v92h285zM534 210h-365q17 -102 118 -102q69 0 90 50h147q-23 -82 -85.5 -125t-155.5 -43q-111 0 -182 73t-71 187t71 187t182 73t182 -73t71 -187q0 -14 -2 -40zM283 391q-95 0 -113 -96h226q-18 96 -113 96z" />
    <glyph glyph-name="uni0114" unicode="&#x114;" horiz-adv-x="454" 
d="M300 970h103q0 -71 -43 -111.5t-117 -40.5q-73 0 -115.5 40t-42.5 112h102q0 -30 16 -45t40 -15q57 0 57 60zM419 128v-128h-359v750h359v-128h-215v-174h195v-128h-195v-192h215z" />
    <glyph glyph-name="uni0115" unicode="&#x115;" horiz-adv-x="566" 
d="M340 750h103q0 -71 -43 -111.5t-117 -40.5q-73 0 -115.5 40t-42.5 112h102q0 -30 16 -45t40 -15q57 0 57 60zM534 210h-365q17 -102 118 -102q69 0 90 50h147q-23 -82 -85.5 -125t-155.5 -43q-111 0 -182 73t-71 187t71 187t182 73t182 -73t71 -187q0 -14 -2 -40z
M283 391q-95 0 -113 -96h226q-18 96 -113 96z" />
    <glyph glyph-name="uni0116" unicode="&#x116;" horiz-adv-x="454" 
d="M243 818q-33 0 -55 22.5t-22 54.5q0 34 22 55.5t55 21.5q34 0 56 -21.5t22 -55.5q0 -33 -22.5 -55t-55.5 -22zM419 128v-128h-359v750h359v-128h-215v-174h195v-128h-195v-192h215z" />
    <glyph glyph-name="uni0117" unicode="&#x117;" horiz-adv-x="566" 
d="M283 598q-33 0 -55 22.5t-22 54.5q0 34 22 55.5t55 21.5q34 0 56 -21.5t22 -55.5q0 -33 -22.5 -55t-55.5 -22zM534 210h-365q17 -102 118 -102q69 0 90 50h147q-23 -82 -85.5 -125t-155.5 -43q-111 0 -182 73t-71 187t71 187t182 73t182 -73t71 -187q0 -14 -2 -40z
M283 391q-95 0 -113 -96h226q-18 96 -113 96z" />
    <glyph glyph-name="uni0118" unicode="&#x118;" horiz-adv-x="454" 
d="M291 -254q-55 0 -88 25t-33 67q0 13 4 27.5t9 25.5t16.5 28t17.5 25t22 28.5t22 27.5h-201v750h359v-128h-215v-174h195v-128h-195v-192h215v-128h-83q-76 -105 -76 -150q0 -33 33 -33q30 0 35 32h91q0 -46 -35 -74.5t-93 -28.5z" />
    <glyph glyph-name="uni0119" unicode="&#x119;" horiz-adv-x="566" 
d="M30 250q0 114 71 187t182 73t182 -73t71 -187q0 -14 -2 -40h-365q17 -102 118 -102q69 0 90 50h147q-11 -48 -50.5 -110.5t-73 -113.5t-33.5 -80q0 -37 38 -37q30 0 37 32h80q-1 -42 -33.5 -70.5t-83.5 -28.5q-53 0 -85 25.5t-32 67.5q0 15 4 31t8.5 26.5t16 27.5
t16.5 24.5t21 27t20 24.5q-44 -14 -91 -14q-111 0 -182 73t-71 187zM283 391q-95 0 -113 -96h226q-18 96 -113 96z" />
    <glyph glyph-name="uni011A" unicode="&#x11a;" horiz-adv-x="454" 
d="M180 970l62 -73l62 73h113l-97 -150h-156l-97 150h113zM419 128v-128h-359v750h359v-128h-215v-174h195v-128h-195v-192h215z" />
    <glyph glyph-name="uni011B" unicode="&#x11b;" horiz-adv-x="566" 
d="M221 750l62 -73l62 73h113l-97 -150h-156l-97 150h113zM534 210h-365q17 -102 118 -102q69 0 90 50h147q-23 -82 -85.5 -125t-155.5 -43q-111 0 -182 73t-71 187t71 187t182 73t182 -73t71 -187q0 -14 -2 -40zM283 391q-95 0 -113 -96h226q-18 96 -113 96z" />
    <glyph glyph-name="uni011C" unicode="&#x11c;" horiz-adv-x="575" 
d="M222 820h-113l97 150h156l97 -150h-113l-62 73zM254 -12q-96 0 -150 66t-54 194v254q0 128 61.5 194t173.5 66t173.5 -66t61.5 -194v-33h-145v36q0 70 -23 100t-67 30t-67 -30t-23 -100v-260q0 -71 22.5 -100.5t67.5 -29.5q90 0 90 123v40h-103v122h248v-400h-116v78
q-45 -90 -150 -90z" />
    <glyph glyph-name="uni011D" unicode="&#x11d;" horiz-adv-x="615" 
d="M232 600h-113l97 150h156l97 -150h-113l-62 73zM262 -10q-102 0 -167 72t-65 188t65 188t167 72q91 0 150 -73v63h143v-505q0 -113 -74 -184t-183 -71q-104 0 -174 60t-84 160h141q7 -45 38 -72.5t76 -27.5q54 0 84.5 36.5t30.5 96.5v67q-59 -70 -148 -70zM291 119
q52 0 85.5 36t33.5 95t-33.5 95t-85.5 36t-85.5 -36t-33.5 -95t33.5 -95t85.5 -36z" />
    <glyph glyph-name="uni011E" unicode="&#x11e;" horiz-adv-x="575" 
d="M342 970h103q0 -71 -43 -111.5t-117 -40.5q-73 0 -115.5 40t-42.5 112h102q0 -30 16 -45t40 -15q57 0 57 60zM254 -12q-96 0 -150 66t-54 194v254q0 128 61.5 194t173.5 66t173.5 -66t61.5 -194v-33h-145v36q0 70 -23 100t-67 30t-67 -30t-23 -100v-260
q0 -71 22.5 -100.5t67.5 -29.5q90 0 90 123v40h-103v122h248v-400h-116v78q-45 -90 -150 -90z" />
    <glyph glyph-name="uni011F" unicode="&#x11f;" horiz-adv-x="615" 
d="M351 750h103q0 -71 -43 -111.5t-117 -40.5q-73 0 -115.5 40t-42.5 112h102q0 -30 16 -45t40 -15q57 0 57 60zM262 -10q-102 0 -167 72t-65 188t65 188t167 72q91 0 150 -73v63h143v-505q0 -113 -74 -184t-183 -71q-104 0 -174 60t-84 160h141q7 -45 38 -72.5t76 -27.5
q54 0 84.5 36.5t30.5 96.5v67q-59 -70 -148 -70zM291 119q52 0 85.5 36t33.5 95t-33.5 95t-85.5 36t-85.5 -36t-33.5 -95t33.5 -95t85.5 -36z" />
    <glyph glyph-name="uni0120" unicode="&#x120;" horiz-adv-x="575" 
d="M285 818q-33 0 -55 22.5t-22 54.5q0 34 22 55.5t55 21.5q34 0 56 -21.5t22 -55.5q0 -33 -22.5 -55t-55.5 -22zM254 -12q-96 0 -150 66t-54 194v254q0 128 61.5 194t173.5 66t173.5 -66t61.5 -194v-33h-145v36q0 70 -23 100t-67 30t-67 -30t-23 -100v-260
q0 -71 22.5 -100.5t67.5 -29.5q90 0 90 123v40h-103v122h248v-400h-116v78q-45 -90 -150 -90z" />
    <glyph glyph-name="uni0121" unicode="&#x121;" horiz-adv-x="615" 
d="M294 598q-33 0 -55 22.5t-22 54.5q0 34 22 55.5t55 21.5q34 0 56 -21.5t22 -55.5q0 -33 -22 -55t-56 -22zM262 -10q-102 0 -167 72t-65 188t65 188t167 72q91 0 150 -73v63h143v-505q0 -113 -74 -184t-183 -71q-104 0 -174 60t-84 160h141q7 -45 38 -72.5t76 -27.5
q54 0 84.5 36.5t30.5 96.5v67q-59 -70 -148 -70zM291 119q52 0 85.5 36t33.5 95t-33.5 95t-85.5 36t-85.5 -36t-33.5 -95t33.5 -95t85.5 -36z" />
    <glyph glyph-name="uni0122" unicode="&#x122;" horiz-adv-x="575" 
d="M254 -12q-96 0 -150 66t-54 194v254q0 128 61.5 194t173.5 66t173.5 -66t61.5 -194v-33h-145v36q0 70 -23 100t-67 30t-67 -30t-23 -100v-260q0 -71 22.5 -100.5t67.5 -29.5q90 0 90 123v40h-103v122h248v-400h-116v78q-45 -90 -150 -90zM266 -210h-95l25 150h142z" />
    <glyph glyph-name="uni0123" unicode="&#x123;" horiz-adv-x="615" 
d="M303 780h95l-25 -150h-143zM262 -10q-102 0 -167 72t-65 188t65 188t167 72q91 0 150 -73v63h143v-505q0 -113 -74 -184t-183 -71q-104 0 -174 60t-84 160h141q7 -45 38 -72.5t76 -27.5q54 0 84.5 36.5t30.5 96.5v67q-59 -70 -148 -70zM291 119q52 0 85.5 36t33.5 95
t-33.5 95t-85.5 36t-85.5 -36t-33.5 -95t33.5 -95t85.5 -36z" />
    <glyph glyph-name="uni0124" unicode="&#x124;" horiz-adv-x="590" 
d="M232 820h-113l97 150h156l97 -150h-113l-62 73zM205 0h-145v750h145v-301h180v301h145v-750h-145v321h-180v-321z" />
    <glyph glyph-name="uni0125" unicode="&#x125;" horiz-adv-x="585" 
d="M232 820h-113l97 150h156l97 -150h-113l-62 73zM385 276q0 56 -23.5 85t-66.5 29t-66.5 -29t-23.5 -85v-276h-145v750h145v-317q47 77 143 77q81 0 131.5 -52t50.5 -149v-309h-145v276z" />
    <glyph glyph-name="uni0126" unicode="&#x126;" horiz-adv-x="590" 
d="M205 0h-145v554h-60v92h60v104h145v-104h180v104h145v-104h60v-92h-60v-554h-145v321h-180v-321zM205 449h180v105h-180v-105z" />
    <glyph glyph-name="uni0127" unicode="&#x127;" horiz-adv-x="585" 
d="M385 276q0 56 -23.5 85t-66.5 29t-66.5 -29t-23.5 -85v-276h-145v591h-60v80h60v79h145v-79h124v-80h-124v-158q47 77 143 77q81 0 131.5 -52t50.5 -149v-309h-145v276z" />
    <glyph glyph-name="uni0128" unicode="&#x128;" horiz-adv-x="265" 
d="M-40 820v48q0 102 88 102q34 0 80.5 -25.5t61.5 -25.5q30 0 30 34v17h84v-48q0 -102 -88 -102q-34 0 -80.5 25.5t-61.5 25.5q-30 0 -30 -34v-17h-84zM205 0h-145v750h145v-750z" />
    <glyph glyph-name="uni0129" unicode="&#x129;" horiz-adv-x="265" 
d="M-40 600v48q0 102 88 102q34 0 80.5 -25.5t61.5 -25.5q30 0 30 34v17h84v-48q0 -102 -88 -102q-34 0 -80.5 25.5t-61.5 25.5q-30 0 -30 -34v-17h-84zM205 0h-145v500h145v-500z" />
    <glyph glyph-name="uni012A" unicode="&#x12a;" horiz-adv-x="265" 
d="M278 920v-92h-285v92h285zM205 0h-145v750h145v-750z" />
    <glyph glyph-name="uni012B" unicode="&#x12b;" horiz-adv-x="265" 
d="M278 700v-92h-285v92h285zM205 0h-145v500h145v-500z" />
    <glyph glyph-name="uni012C" unicode="&#x12c;" horiz-adv-x="265" 
d="M189 970h103q0 -71 -43 -111.5t-117 -40.5q-73 0 -115.5 40t-42.5 112h102q0 -30 16 -45t40 -15q57 0 57 60zM205 0h-145v750h145v-750z" />
    <glyph glyph-name="uni012D" unicode="&#x12d;" horiz-adv-x="265" 
d="M189 750h103q0 -71 -43 -111.5t-117 -40.5q-73 0 -115.5 40t-42.5 112h102q0 -30 16 -45t40 -15q57 0 57 60zM205 0h-145v500h145v-500z" />
    <glyph glyph-name="uni012E" unicode="&#x12e;" horiz-adv-x="265" 
d="M205 0h-31q-76 -105 -76 -150q0 -33 33 -33q30 0 35 32h91q0 -46 -35 -74.5t-93 -28.5q-55 0 -88 25t-33 67q0 13 4 27.5t9 25.5t16.5 28t17.5 25t22 28.5t22 27.5h-39v750h145v-750z" />
    <glyph glyph-name="uni012F" unicode="&#x12f;" horiz-adv-x="265" 
d="M132 587q-37 0 -61.5 24.5t-24.5 59.5t24.5 59t61.5 24q38 0 62.5 -23.5t24.5 -59.5t-24.5 -60t-62.5 -24zM205 0h-31q-76 -105 -76 -150q0 -33 33 -33q30 0 35 32h91q0 -46 -35 -74.5t-93 -28.5q-55 0 -88 25t-33 67q0 13 4 27.5t9 25.5t16.5 28t17.5 25t22 28.5
t22 27.5h-39v500h145v-500z" />
    <glyph glyph-name="uni0130" unicode="&#x130;" horiz-adv-x="265" 
d="M132 818q-33 0 -55 22.5t-22 54.5q0 34 22 55.5t55 21.5q34 0 56 -21.5t22 -55.5q0 -33 -22 -55t-56 -22zM205 0h-145v750h145v-750z" />
    <glyph glyph-name="uni0131" unicode="&#x131;" horiz-adv-x="265" 
d="M205 0h-145v500h145v-500z" />
    <glyph glyph-name="uni0132" unicode="&#x132;" horiz-adv-x="788" 
d="M205 0h-145v750h145v-750zM591 750h145v-542q0 -107 -60 -163.5t-158 -56.5t-158 56.5t-60 163.5v79h145v-75q0 -97 73 -97q36 0 54.5 22t18.5 75v538z" />
    <glyph glyph-name="uni0133" unicode="&#x133;" horiz-adv-x="530" 
d="M132 587q-37 0 -61.5 24.5t-24.5 59.5t24.5 59t61.5 24q38 0 62.5 -23.5t24.5 -59.5t-24.5 -60t-62.5 -24zM397 587q-37 0 -61.5 24.5t-24.5 59.5t24.5 59t61.5 24q38 0 62.5 -23.5t24.5 -59.5t-24.5 -60t-62.5 -24zM205 0h-145v500h145v-500zM325 -66v566h145v-570
q0 -182 -184 -182q-43 0 -63 5v121q16 -4 37 -4q33 0 49 14t16 50z" />
    <glyph glyph-name="uni0134" unicode="&#x134;" horiz-adv-x="522" 
d="M334 820h-113l97 150h156l97 -150h-113l-62 73zM326 750h145v-542q0 -107 -60 -163.5t-158 -56.5t-158 56.5t-60 163.5v79h145v-75q0 -97 73 -97q36 0 54.5 22t18.5 75v538z" />
    <glyph glyph-name="uni0135" unicode="&#x135;" horiz-adv-x="265" 
d="M70 600h-113l97 150h156l97 -150h-113l-62 73zM60 -66v566h145v-570q0 -182 -184 -182q-43 0 -63 5v121q16 -4 37 -4q33 0 49 14t16 50z" />
    <glyph glyph-name="uni0136" unicode="&#x136;" horiz-adv-x="523" 
d="M204 750v-360l156 360h154l-172 -354l181 -396h-165l-154 362v-362h-144v750h144zM261 -210h-95l25 150h142z" />
    <glyph glyph-name="uni0137" unicode="&#x137;" horiz-adv-x="565" 
d="M205 750v-466l165 216h176l-192 -226l204 -274h-172l-181 262v-262h-145v750h145zM282 -210h-95l25 150h142z" />
    <glyph glyph-name="uni0139" unicode="&#x139;" horiz-adv-x="434" 
d="M182 820h-114l57 150h150zM424 128v-128h-364v750h145v-622h219z" />
    <glyph glyph-name="uni013A" unicode="&#x13a;" horiz-adv-x="265" 
d="M180 820h-114l57 150h150zM205 0h-145v750h145v-750z" />
    <glyph glyph-name="uni013B" unicode="&#x13b;" horiz-adv-x="434" 
d="M424 128v-128h-364v750h145v-622h219zM249 -210h-95l25 150h142z" />
    <glyph glyph-name="uni013C" unicode="&#x13c;" horiz-adv-x="265" 
d="M205 0h-145v750h145v-750zM131 -210h-95l25 150h142z" />
    <glyph glyph-name="uni013D" unicode="&#x13d;" horiz-adv-x="434" 
d="M424 128v-128h-364v750h145v-622h219zM255 750h127l-48 -190h-79v190z" />
    <glyph glyph-name="uni013E" unicode="&#x13e;" horiz-adv-x="265" 
d="M205 0h-145v750h145v-750zM263 750h127l-48 -190h-79v190z" />
    <glyph glyph-name="uni013F" unicode="&#x13f;" horiz-adv-x="434" 
d="M424 128v-128h-364v750h145v-622h219zM350 312q-33 0 -55 22.5t-22 54.5q0 34 22 55.5t55 21.5q34 0 56 -21.5t22 -55.5q0 -33 -22 -55t-56 -22z" />
    <glyph glyph-name="uni0140" unicode="&#x140;" horiz-adv-x="265" 
d="M205 0h-145v750h145v-750zM313 312q-33 0 -55 22.5t-22 54.5q0 34 22 55.5t55 21.5q34 0 56 -21.5t22 -55.5q0 -33 -22.5 -55t-55.5 -22z" />
    <glyph glyph-name="uni0141" unicode="&#x141;" horiz-adv-x="434" 
d="M424 128v-128h-364v265l-62 -37v110l62 37v375h145v-289l95 57v-110l-95 -57v-223h219z" />
    <glyph glyph-name="uni0142" unicode="&#x142;" horiz-adv-x="265" 
d="M205 0h-145v276l-62 -37v110l62 37v364h145v-278l63 38v-110l-63 -38v-362z" />
    <glyph glyph-name="uni0143" unicode="&#x143;" horiz-adv-x="590" 
d="M347 820h-114l57 150h150zM282 750l124 -641v641h124v-750h-222l-124 650v-650h-124v750h222z" />
    <glyph glyph-name="uni0144" unicode="&#x144;" horiz-adv-x="585" 
d="M347 600h-114l57 150h150zM385 276q0 56 -23.5 85t-66.5 29t-66.5 -29t-23.5 -85v-276h-145v500h142v-73q47 83 146 83q81 0 131.5 -52t50.5 -149v-309h-145v276z" />
    <glyph glyph-name="uni0145" unicode="&#x145;" horiz-adv-x="590" 
d="M282 750l124 -641v641h124v-750h-222l-124 650v-650h-124v750h222zM294 -210h-95l25 150h142z" />
    <glyph glyph-name="uni0146" unicode="&#x146;" horiz-adv-x="585" 
d="M385 276q0 56 -23.5 85t-66.5 29t-66.5 -29t-23.5 -85v-276h-145v500h142v-73q47 83 146 83q81 0 131.5 -52t50.5 -149v-309h-145v276zM294 -210h-95l25 150h142z" />
    <glyph glyph-name="uni0147" unicode="&#x147;" horiz-adv-x="590" 
d="M232 970l62 -73l62 73h113l-97 -150h-156l-97 150h113zM282 750l124 -641v641h124v-750h-222l-124 650v-650h-124v750h222z" />
    <glyph glyph-name="uni0148" unicode="&#x148;" horiz-adv-x="585" 
d="M233 750l62 -73l62 73h113l-97 -150h-156l-97 150h113zM385 276q0 56 -23.5 85t-66.5 29t-66.5 -29t-23.5 -85v-276h-145v500h142v-73q47 83 146 83q81 0 131.5 -52t50.5 -149v-309h-145v276z" />
    <glyph glyph-name="uni014A" unicode="&#x14a;" horiz-adv-x="590" 
d="M356 -252q-46 0 -66 5v121q16 -4 38 -4q78 0 78 64v66h-98l-124 637v-637h-124v750h222l124 -628v628h124v-820q0 -182 -174 -182z" />
    <glyph glyph-name="uni014B" unicode="&#x14b;" horiz-adv-x="585" 
d="M385 -66v342q0 56 -23.5 85t-66.5 29t-66.5 -29t-23.5 -85v-276h-145v500h142v-72q46 82 146 82q81 0 131.5 -52t50.5 -149v-379q0 -182 -184 -182q-44 0 -64 5v121q16 -4 38 -4q33 0 49 14t16 50z" />
    <glyph glyph-name="uni014C" unicode="&#x14c;" horiz-adv-x="570" 
d="M431 920v-92h-285v92h285zM285 -12q-112 0 -173.5 65.5t-61.5 194.5v254q0 128 61.5 194t173.5 66t173.5 -66t61.5 -194v-254q0 -129 -61.5 -194.5t-173.5 -65.5zM285 115q44 0 67 30t23 100v260q0 70 -23 100t-67 30t-67 -30t-23 -100v-260q0 -71 22.5 -100.5
t67.5 -29.5z" />
    <glyph glyph-name="uni014D" unicode="&#x14d;" horiz-adv-x="580" 
d="M436 700v-92h-285v92h285zM290 -10q-113 0 -186.5 72.5t-73.5 187.5t73.5 187.5t186.5 72.5t186.5 -72.5t73.5 -187.5t-73.5 -187.5t-186.5 -72.5zM290 119q52 0 85.5 36.5t33.5 94.5t-33.5 94.5t-85.5 36.5t-85.5 -36.5t-33.5 -94.5t33.5 -94.5t85.5 -36.5z" />
    <glyph glyph-name="uni014E" unicode="&#x14e;" horiz-adv-x="570" 
d="M342 970h103q0 -71 -43 -111.5t-117 -40.5q-73 0 -115.5 40t-42.5 112h102q0 -30 16 -45t40 -15q57 0 57 60zM285 -12q-112 0 -173.5 65.5t-61.5 194.5v254q0 128 61.5 194t173.5 66t173.5 -66t61.5 -194v-254q0 -129 -61.5 -194.5t-173.5 -65.5zM285 115q44 0 67 30
t23 100v260q0 70 -23 100t-67 30t-67 -30t-23 -100v-260q0 -71 22.5 -100.5t67.5 -29.5z" />
    <glyph glyph-name="uni014F" unicode="&#x14f;" horiz-adv-x="580" 
d="M347 750h103q0 -71 -43 -111.5t-117 -40.5q-73 0 -115.5 40t-42.5 112h102q0 -30 16 -45t40 -15q57 0 57 60zM290 -10q-113 0 -186.5 72.5t-73.5 187.5t73.5 187.5t186.5 72.5t186.5 -72.5t73.5 -187.5t-73.5 -187.5t-186.5 -72.5zM290 119q52 0 85.5 36.5t33.5 94.5
t-33.5 94.5t-85.5 36.5t-85.5 -36.5t-33.5 -94.5t33.5 -94.5t85.5 -36.5z" />
    <glyph glyph-name="uni0150" unicode="&#x150;" horiz-adv-x="570" 
d="M243 820h-93l25 150h138zM433 820h-93l25 150h138zM285 -12q-112 0 -173.5 65.5t-61.5 194.5v254q0 128 61.5 194t173.5 66t173.5 -66t61.5 -194v-254q0 -129 -61.5 -194.5t-173.5 -65.5zM285 115q44 0 67 30t23 100v260q0 70 -23 100t-67 30t-67 -30t-23 -100v-260
q0 -71 22.5 -100.5t67.5 -29.5z" />
    <glyph glyph-name="uni0151" unicode="&#x151;" horiz-adv-x="580" 
d="M248 600h-93l25 150h138zM438 600h-93l25 150h138zM290 -10q-113 0 -186.5 72.5t-73.5 187.5t73.5 187.5t186.5 72.5t186.5 -72.5t73.5 -187.5t-73.5 -187.5t-186.5 -72.5zM290 119q52 0 85.5 36.5t33.5 94.5t-33.5 94.5t-85.5 36.5t-85.5 -36.5t-33.5 -94.5t33.5 -94.5
t85.5 -36.5z" />
    <glyph glyph-name="uni0152" unicode="&#x152;" horiz-adv-x="759" 
d="M285 0q-105 0 -170 68t-65 192v230q0 124 65 192t170 68h437v-128h-212v-174h192v-128h-192v-192h212v-128h-437zM285 622q-90 0 -90 -137v-220q0 -137 90 -137h80v494h-80z" />
    <glyph glyph-name="uni0153" unicode="&#x153;" horiz-adv-x="946" 
d="M288 -10q-112 0 -185.5 73t-73.5 187t73.5 187t185.5 73q117 0 187 -88q70 88 189 88q109 0 180.5 -73t71.5 -187q0 -14 -2 -40h-367q17 -102 118 -102q69 0 90 50h149q-24 -82 -86 -125t-154 -43q-119 0 -189 88q-70 -88 -187 -88zM661 391q-95 0 -113 -96h226
q-18 96 -113 96zM290 120q52 0 85.5 36t33.5 94t-33.5 94t-85.5 36t-85.5 -36t-33.5 -94t33.5 -94t85.5 -36z" />
    <glyph glyph-name="uni0154" unicode="&#x154;" 
d="M326 820h-114l57 150h150zM204 0h-144v750h238q97 0 156.5 -51t59.5 -144v-29q0 -75 -39 -122t-106 -64l166 -340h-165l-166 368v-368zM282 625h-78v-201h78q88 0 88 99v13q0 89 -88 89z" />
    <glyph glyph-name="uni0155" unicode="&#x155;" horiz-adv-x="403" 
d="M288 600h-114l57 150h150zM200 500v-87q52 97 160 97q20 0 26 -2v-148q-28 8 -52 8q-62 0 -95.5 -30t-33.5 -86v-252h-145v500h140z" />
    <glyph glyph-name="uni0156" unicode="&#x156;" 
d="M204 0h-144v750h238q97 0 156.5 -51t59.5 -144v-29q0 -75 -39 -122t-106 -64l166 -340h-165l-166 368v-368zM282 625h-78v-201h78q88 0 88 99v13q0 89 -88 89zM265 -210h-95l25 150h142z" />
    <glyph glyph-name="uni0157" unicode="&#x157;" horiz-adv-x="403" 
d="M200 500v-87q52 97 160 97q20 0 26 -2v-148q-28 8 -52 8q-62 0 -95.5 -30t-33.5 -86v-252h-145v500h140zM131 -210h-95l25 150h142z" />
    <glyph glyph-name="uni0158" unicode="&#x158;" 
d="M212 970l62 -73l62 73h113l-97 -150h-156l-97 150h113zM204 0h-144v750h238q97 0 156.5 -51t59.5 -144v-29q0 -75 -39 -122t-106 -64l166 -340h-165l-166 368v-368zM282 625h-78v-201h78q88 0 88 99v13q0 89 -88 89z" />
    <glyph glyph-name="uni0159" unicode="&#x159;" horiz-adv-x="403" 
d="M174 750l62 -73l62 73h113l-97 -150h-156l-97 150h113zM200 500v-87q52 97 160 97q20 0 26 -2v-148q-28 8 -52 8q-62 0 -95.5 -30t-33.5 -86v-252h-145v500h140z" />
    <glyph glyph-name="uni015A" unicode="&#x15a;" horiz-adv-x="485" 
d="M296 820h-114l57 150h150zM41 567q0 99 56 147t147 48q90 0 147 -51t57 -149v-52h-139v50q0 80 -65 80q-28 0 -45.5 -17.5t-17.5 -48.5q0 -34 18 -57t58 -53l85 -63q116 -86 116 -205q0 -100 -60 -154t-153 -54q-92 0 -152.5 53t-60.5 147v62h140v-56q0 -39 20 -61.5
t53 -22.5t52.5 18.5t19.5 50.5q0 37 -19.5 63t-60.5 56l-83 62q-113 83 -113 207z" />
    <glyph glyph-name="uni015B" unicode="&#x15b;" horiz-adv-x="504" 
d="M302 600h-114l57 150h150zM472 148q0 -73 -59.5 -115.5t-152.5 -42.5q-100 0 -164 47t-64 128h140q0 -35 24 -54t63 -19q71 0 71 48q0 23 -21.5 36t-53.5 17.5t-69 14t-69 22.5t-53.5 45.5t-21.5 80.5q0 70 57.5 112t145.5 42q93 0 155 -48.5t62 -120.5h-140
q0 29 -21.5 48t-54.5 19q-30 0 -48 -12t-18 -34q0 -20 21.5 -32t54 -16.5t70.5 -14t70.5 -23.5t54 -46.5t21.5 -81.5z" />
    <glyph glyph-name="uni015C" unicode="&#x15c;" horiz-adv-x="485" 
d="M181 820h-113l97 150h156l97 -150h-113l-62 73zM41 567q0 99 56 147t147 48q90 0 147 -51t57 -149v-52h-139v50q0 80 -65 80q-28 0 -45.5 -17.5t-17.5 -48.5q0 -34 18 -57t58 -53l85 -63q116 -86 116 -205q0 -100 -60 -154t-153 -54q-92 0 -152.5 53t-60.5 147v62h140
v-56q0 -39 20 -61.5t53 -22.5t52.5 18.5t19.5 50.5q0 37 -19.5 63t-60.5 56l-83 62q-113 83 -113 207z" />
    <glyph glyph-name="uni015D" unicode="&#x15d;" horiz-adv-x="504" 
d="M188 600h-113l97 150h156l97 -150h-113l-62 73zM472 148q0 -73 -59.5 -115.5t-152.5 -42.5q-100 0 -164 47t-64 128h140q0 -35 24 -54t63 -19q71 0 71 48q0 23 -21.5 36t-53.5 17.5t-69 14t-69 22.5t-53.5 45.5t-21.5 80.5q0 70 57.5 112t145.5 42q93 0 155 -48.5
t62 -120.5h-140q0 29 -21.5 48t-54.5 19q-30 0 -48 -12t-18 -34q0 -20 21.5 -32t54 -16.5t70.5 -14t70.5 -23.5t54 -46.5t21.5 -81.5z" />
    <glyph glyph-name="uni015E" unicode="&#x15e;" horiz-adv-x="485" 
d="M128 -164h78q7 -23 39 -23q17 0 28 11t11 28t-11 28.5t-28 11.5q-27 0 -34 -16h-78l72 115q-77 11 -125 62.5t-48 134.5v62h140v-56q0 -39 20 -61.5t53 -22.5t52.5 18.5t19.5 50.5q0 37 -19.5 63t-60.5 56l-83 62q-113 83 -113 207q0 99 56 147t147 48q90 0 147 -51
t57 -149v-52h-139v50q0 80 -65 80q-28 0 -45.5 -17.5t-17.5 -48.5q0 -34 18 -57t58 -53l85 -63q116 -86 116 -205q0 -90 -49.5 -143.5t-129.5 -62.5l-24 -35q47 0 77 -30t30 -73t-32.5 -72.5t-84.5 -29.5q-51 0 -84 25t-33 61z" />
    <glyph glyph-name="uni015F" unicode="&#x15f;" horiz-adv-x="504" 
d="M143 -164h79q3 -23 38 -23q17 0 28.5 11.5t11.5 27.5q0 17 -11.5 28.5t-28.5 11.5q-27 0 -34 -16h-78l73 116q-85 9 -137 54.5t-52 118.5h140q0 -35 24 -54t63 -19q71 0 71 48q0 23 -21.5 36t-53.5 17.5t-69 14t-69 22.5t-53.5 45.5t-21.5 80.5q0 70 57.5 112t145.5 42
q93 0 155 -48.5t62 -120.5h-140q0 29 -21.5 48t-54.5 19q-30 0 -48 -12t-18 -34q0 -20 21.5 -32t54 -16.5t70.5 -14t70.5 -23.5t54 -46.5t21.5 -81.5q0 -65 -49 -106.5t-128 -49.5l-24 -37q46 0 76 -30t30 -73t-32.5 -72.5t-84.5 -29.5q-51 0 -84 25t-33 61z" />
    <glyph glyph-name="uni0160" unicode="&#x160;" horiz-adv-x="485" 
d="M181 970l62 -73l62 73h113l-97 -150h-156l-97 150h113zM41 567q0 99 56 147t147 48q90 0 147 -51t57 -149v-52h-139v50q0 80 -65 80q-28 0 -45.5 -17.5t-17.5 -48.5q0 -34 18 -57t58 -53l85 -63q116 -86 116 -205q0 -100 -60 -154t-153 -54q-92 0 -152.5 53t-60.5 147v62
h140v-56q0 -39 20 -61.5t53 -22.5t52.5 18.5t19.5 50.5q0 37 -19.5 63t-60.5 56l-83 62q-113 83 -113 207z" />
    <glyph glyph-name="uni0161" unicode="&#x161;" horiz-adv-x="504" 
d="M188 750l62 -73l62 73h113l-97 -150h-156l-97 150h113zM472 148q0 -73 -59.5 -115.5t-152.5 -42.5q-100 0 -164 47t-64 128h140q0 -35 24 -54t63 -19q71 0 71 48q0 23 -21.5 36t-53.5 17.5t-69 14t-69 22.5t-53.5 45.5t-21.5 80.5q0 70 57.5 112t145.5 42q93 0 155 -48.5
t62 -120.5h-140q0 29 -21.5 48t-54.5 19q-30 0 -48 -12t-18 -34q0 -20 21.5 -32t54 -16.5t70.5 -14t70.5 -23.5t54 -46.5t21.5 -81.5z" />
    <glyph glyph-name="uni0162" unicode="&#x162;" horiz-adv-x="434" 
d="M290 0h-146v622h-134v128h414v-128h-134v-622zM216 -210h-95l25 150h142z" />
    <glyph glyph-name="uni0163" unicode="&#x163;" horiz-adv-x="390" 
d="M235 178q0 -66 67 -66q26 0 56 10v-120q-40 -12 -84 -12q-87 0 -135.5 41t-48.5 139v212h-72v118h72v148h145v-148h123v-118h-123v-204zM235 -210h-95l25 150h142z" />
    <glyph glyph-name="uni0164" unicode="&#x164;" horiz-adv-x="434" 
d="M154 970l62 -73l62 73h113l-97 -150h-156l-97 150h113zM290 0h-146v622h-134v128h414v-128h-134v-622z" />
    <glyph glyph-name="uni0165" unicode="&#x165;" horiz-adv-x="390" 
d="M287 750h127l-48 -190h-79v190zM235 178q0 -66 67 -66q26 0 56 10v-120q-40 -12 -84 -12q-87 0 -135.5 41t-48.5 139v212h-72v118h72v148h145v-148h123v-118h-123v-204z" />
    <glyph glyph-name="uni0166" unicode="&#x166;" horiz-adv-x="434" 
d="M290 0h-146v408h-92v92h92v122h-134v128h414v-128h-134v-122h92v-92h-92v-408z" />
    <glyph glyph-name="uni0167" unicode="&#x167;" horiz-adv-x="390" 
d="M235 178q0 -66 67 -66q26 0 56 10v-120q-40 -12 -84 -12q-87 0 -135.5 41t-48.5 139v64h-52v80h52v68h-72v118h72v148h145v-148h123v-118h-123v-68h94v-80h-94v-56z" />
    <glyph glyph-name="uni0168" unicode="&#x168;" horiz-adv-x="570" 
d="M113 820v48q0 102 88 102q34 0 80.5 -25.5t61.5 -25.5q30 0 30 34v17h84v-48q0 -102 -88 -102q-34 0 -80.5 25.5t-61.5 25.5q-30 0 -30 -34v-17h-84zM55 750h145v-518q0 -117 85 -117t85 117v518h145v-515q0 -122 -60.5 -184.5t-169.5 -62.5t-169.5 62.5t-60.5 184.5v515
z" />
    <glyph glyph-name="uni0169" unicode="&#x169;" horiz-adv-x="580" 
d="M114 600v48q0 102 88 102q34 0 80.5 -25.5t61.5 -25.5q30 0 30 34v17h84v-48q0 -102 -88 -102q-34 0 -80.5 25.5t-61.5 25.5q-30 0 -30 -34v-17h-84zM200 224q0 -56 23 -85t65 -29t64.5 29t22.5 85v276h145v-500h-142v71q-47 -81 -143 -81q-80 0 -130 52t-50 149v309h145
v-276z" />
    <glyph glyph-name="uni016A" unicode="&#x16a;" horiz-adv-x="570" 
d="M431 920v-92h-285v92h285zM55 750h145v-518q0 -117 85 -117t85 117v518h145v-515q0 -122 -60.5 -184.5t-169.5 -62.5t-169.5 62.5t-60.5 184.5v515z" />
    <glyph glyph-name="uni016B" unicode="&#x16b;" horiz-adv-x="580" 
d="M432 700v-92h-285v92h285zM200 224q0 -56 23 -85t65 -29t64.5 29t22.5 85v276h145v-500h-142v71q-47 -81 -143 -81q-80 0 -130 52t-50 149v309h145v-276z" />
    <glyph glyph-name="uni016C" unicode="&#x16c;" horiz-adv-x="570" 
d="M342 970h103q0 -71 -43 -111.5t-117 -40.5q-73 0 -115.5 40t-42.5 112h102q0 -30 16 -45t40 -15q57 0 57 60zM55 750h145v-518q0 -117 85 -117t85 117v518h145v-515q0 -122 -60.5 -184.5t-169.5 -62.5t-169.5 62.5t-60.5 184.5v515z" />
    <glyph glyph-name="uni016D" unicode="&#x16d;" horiz-adv-x="580" 
d="M343 750h103q0 -71 -43 -111.5t-117 -40.5q-73 0 -115.5 40t-42.5 112h102q0 -30 16 -45t40 -15q57 0 57 60zM200 224q0 -56 23 -85t65 -29t64.5 29t22.5 85v276h145v-500h-142v71q-47 -81 -143 -81q-80 0 -130 52t-50 149v309h145v-276z" />
    <glyph glyph-name="uni016E" unicode="&#x16e;" horiz-adv-x="570" 
d="M285 790q-49 0 -80 27t-31 68q0 40 31 67.5t80 27.5t80.5 -27.5t31.5 -67.5q0 -41 -31 -68t-81 -27zM285 852q15 0 24.5 9.5t9.5 23.5t-9.5 23.5t-24.5 9.5q-14 0 -24 -9.5t-10 -23.5t10 -23.5t24 -9.5zM55 750h145v-518q0 -117 85 -117t85 117v518h145v-515
q0 -122 -60.5 -184.5t-169.5 -62.5t-169.5 62.5t-60.5 184.5v515z" />
    <glyph glyph-name="uni016F" unicode="&#x16f;" horiz-adv-x="580" 
d="M286 570q-49 0 -80 27t-31 68q0 40 31 67.5t80 27.5t80.5 -27.5t31.5 -67.5q0 -41 -31 -68t-81 -27zM286 632q15 0 24.5 9.5t9.5 23.5t-9.5 23.5t-24.5 9.5q-14 0 -24 -9.5t-10 -23.5t10 -23.5t24 -9.5zM200 224q0 -56 23 -85t65 -29t64.5 29t22.5 85v276h145v-500h-142
v71q-47 -81 -143 -81q-80 0 -130 52t-50 149v309h145v-276z" />
    <glyph glyph-name="uni0170" unicode="&#x170;" horiz-adv-x="570" 
d="M243 820h-93l25 150h138zM433 820h-93l25 150h138zM55 750h145v-518q0 -117 85 -117t85 117v518h145v-515q0 -122 -60.5 -184.5t-169.5 -62.5t-169.5 62.5t-60.5 184.5v515z" />
    <glyph glyph-name="uni0171" unicode="&#x171;" horiz-adv-x="580" 
d="M244 600h-93l25 150h138zM434 600h-93l25 150h138zM200 224q0 -56 23 -85t65 -29t64.5 29t22.5 85v276h145v-500h-142v71q-47 -81 -143 -81q-80 0 -130 52t-50 149v309h145v-276z" />
    <glyph glyph-name="uni0172" unicode="&#x172;" horiz-adv-x="570" 
d="M281 -254q-55 0 -88 25t-33 67q0 10 2.5 20l4.5 18t9 19.5t10 17.5t13 19.5t13.5 18t16 20.5t15.5 19q-91 11 -140 73t-49 172v515h145v-518q0 -117 85 -117t85 117v518h145v-515q0 -113 -51 -174.5t-145 -70.5q-69 -97 -69 -140q0 -33 34 -33q14 0 23 9t11 23h92
q0 -46 -35.5 -74.5t-93.5 -28.5z" />
    <glyph glyph-name="uni0173" unicode="&#x173;" horiz-adv-x="580" 
d="M200 224q0 -56 23 -85t65 -29t64.5 29t22.5 85v276h145v-500h-59q-76 -105 -76 -150q0 -33 33 -33q30 0 35 32h91q0 -46 -35 -74.5t-93 -28.5q-55 0 -88 25t-33 67q0 16 4.5 31.5t16 34t18.5 29t26.5 35t25.5 32.5h-8v72q-46 -82 -143 -82q-80 0 -130 52t-50 149v309h145
v-276z" />
    <glyph glyph-name="uni0174" unicode="&#x174;" horiz-adv-x="750" 
d="M311 820h-113l97 150h156l97 -150h-113l-62 73zM305 0h-206l-91 750h137l62 -620l71 620h192l73 -617l62 617h137l-91 -750h-205l-71 626z" />
    <glyph glyph-name="uni0175" unicode="&#x175;" horiz-adv-x="765" 
d="M318 600h-113l97 150h156l97 -150h-113l-62 73zM306 0h-182l-112 500h132l76 -390l76 390h173l76 -390l76 390h132l-112 -500h-182l-76 392z" />
    <glyph glyph-name="uni0176" unicode="&#x176;" horiz-adv-x="480" 
d="M177 820h-113l97 150h156l97 -150h-113l-62 73zM312 0h-144v272l-168 478h141l99 -310l99 310h141l-168 -478v-272z" />
    <glyph glyph-name="uni0177" unicode="&#x177;" horiz-adv-x="501" 
d="M196 600h-113l97 150h156l97 -150h-113l-62 73zM335 -22q-34 -118 -89.5 -178t-153.5 -60q-49 0 -85 12v116q39 -11 70 -11q71 0 109 62l-182 581h142l103 -391l106 391h142z" />
    <glyph glyph-name="uni0178" unicode="&#x178;" horiz-adv-x="480" 
d="M138 825q-28 0 -49 20.5t-21 49.5t20.5 49.5t49.5 20.5t49.5 -20.5t20.5 -49.5t-20.5 -49.5t-49.5 -20.5zM342 825q-29 0 -49.5 20.5t-20.5 49.5t21 49.5t49 20.5q30 0 50 -20.5t20 -49.5t-20 -49.5t-50 -20.5zM312 0h-144v272l-168 478h141l99 -310l99 310h141
l-168 -478v-272z" />
    <glyph glyph-name="uni0179" unicode="&#x179;" horiz-adv-x="440" 
d="M275 820h-114l57 150h150zM25 158l253 464h-248v128h385v-158l-253 -464h263v-128h-400v158z" />
    <glyph glyph-name="uni017A" unicode="&#x17a;" horiz-adv-x="470" 
d="M284 600h-114l57 150h150zM450 0h-420v148l258 234h-253v118h395v-148l-258 -234h278v-118z" />
    <glyph glyph-name="uni017B" unicode="&#x17b;" horiz-adv-x="440" 
d="M223 818q-33 0 -55 22.5t-22 54.5q0 34 22 55.5t55 21.5q34 0 56 -21.5t22 -55.5q0 -33 -22.5 -55t-55.5 -22zM25 158l253 464h-248v128h385v-158l-253 -464h263v-128h-400v158z" />
    <glyph glyph-name="uni017C" unicode="&#x17c;" horiz-adv-x="470" 
d="M232 598q-33 0 -55 22.5t-22 54.5q0 34 22 55.5t55 21.5q34 0 56 -21.5t22 -55.5q0 -33 -22 -55t-56 -22zM450 0h-420v148l258 234h-253v118h395v-148l-258 -234h278v-118z" />
    <glyph glyph-name="uni017D" unicode="&#x17d;" horiz-adv-x="440" 
d="M160 970l62 -73l62 73h113l-97 -150h-156l-97 150h113zM25 158l253 464h-248v128h385v-158l-253 -464h263v-128h-400v158z" />
    <glyph glyph-name="uni017E" unicode="&#x17e;" horiz-adv-x="470" 
d="M170 750l62 -73l62 73h113l-97 -150h-156l-97 150h113zM450 0h-420v148l258 234h-253v118h395v-148l-258 -234h278v-118z" />
    <glyph glyph-name="uni018F" unicode="&#x18f;" horiz-adv-x="570" 
d="M285 -12q-112 0 -173.5 66t-61.5 194v152h325v105q0 70 -23 100t-67 30t-67 -30t-23 -100v-44h-145v41q0 128 61.5 194t173.5 66t173.5 -66t61.5 -194v-254q0 -128 -61.5 -194t-173.5 -66zM195 245q0 -71 22.5 -100.5t67.5 -29.5q44 0 67 30t23 100v33h-180v-33z" />
    <glyph glyph-name="uni0192" unicode="&#x192;" 
d="M447 400v-76h-149l-122 -574h-145l122 574h-79v76h95l36 170q22 103 79.5 146.5t153.5 43.5q38 0 64 -8v-122q-21 8 -64 8q-74 0 -88 -72l-35 -166h132z" />
    <glyph glyph-name="uni01FA" unicode="&#x1fa;" horiz-adv-x="510" 
d="M297 1020h-114l57 150h150zM255 790q-49 0 -80 27t-31 68q0 40 31 67.5t80 27.5t80.5 -27.5t31.5 -67.5q0 -41 -31 -68t-81 -27zM255 852q15 0 24.5 9.5t9.5 23.5t-9.5 23.5t-24.5 9.5q-14 0 -24 -9.5t-10 -23.5t10 -23.5t24 -9.5zM144 750h222l136 -750h-142l-25 152
h-160l-25 -152h-142zM196 278h118l-59 362z" />
    <glyph glyph-name="uni01FB" unicode="&#x1fb;" 
d="M339 820h-114l57 150h150zM279 570q-49 0 -80 27t-31 68q0 40 31 67.5t80 27.5t80.5 -27.5t31.5 -67.5q0 -41 -31 -68t-81 -27zM279 632q15 0 24.5 9.5t9.5 23.5t-9.5 23.5t-24.5 9.5q-14 0 -24 -9.5t-10 -23.5t10 -23.5t24 -9.5zM200 -10q-68 0 -116 36.5t-48 106.5
q0 50 23.5 82.5t59 45.5t76.5 22t76.5 13t59 16.5t23.5 35.5q0 26 -22 41t-57 15q-38 0 -59.5 -19.5t-21.5 -56.5h-143q0 92 66 137t162 45q95 0 157.5 -41t62.5 -125v-344h-140v76q-45 -86 -159 -86zM181 145q0 -23 17.5 -35.5t45.5 -12.5q48 0 80 27t32 75v26
q-24 -11 -73 -20.5t-75.5 -21.5t-26.5 -38z" />
    <glyph glyph-name="uni01FC" unicode="&#x1fc;" horiz-adv-x="778" 
d="M508 820h-114l57 150h150zM742 128v-128h-356v160h-181l-58 -160h-147l286 750h456v-128h-212v-174h192v-128h-192v-192h212zM251 285h135v372z" />
    <glyph glyph-name="uni01FD" unicode="&#x1fd;" horiz-adv-x="899" 
d="M490 600h-114l57 150h150zM221 -10q-76 0 -130.5 36.5t-54.5 106.5q0 50 23.5 82.5t59 45.5t76.5 22t76.5 13t59 16.5t23.5 35.5q0 26 -22 41t-57 15q-38 0 -59.5 -19.5t-21.5 -56.5h-143q0 92 63.5 137t157.5 45q119 0 172 -66q68 66 172 66q111 0 182 -73t71 -187
q0 -14 -2 -40h-365q17 -102 118 -102q69 0 90 50h147q-23 -82 -85.5 -125t-155.5 -43q-133 0 -204 103q-48 -103 -191 -103zM616 391q-95 0 -113 -96h226q-18 96 -113 96zM181 145q0 -23 17.5 -35.5t45.5 -12.5q48 0 80 27t32 75v26q-24 -11 -73 -20.5t-75.5 -21.5
t-26.5 -38z" />
    <glyph glyph-name="uni01FE" unicode="&#x1fe;" horiz-adv-x="570" 
d="M337 820h-114l57 150h150zM152 0h-102l46 94q-46 52 -46 164v244q0 127 59.5 193.5t158.5 66.5q94 0 135 -42l15 30h102l-46 -94q46 -52 46 -164v-244q0 -127 -59.5 -193.5t-158.5 -66.5q-94 0 -135 42zM285 635q-45 0 -67.5 -29.5t-22.5 -100.5v-209l154 313
q-21 26 -64 26zM375 245v209l-154 -313q21 -26 64 -26q45 0 67.5 29.5t22.5 100.5z" />
    <glyph glyph-name="uni01FF" unicode="&#x1ff;" horiz-adv-x="580" 
d="M342 600h-114l57 150h150zM148 0h-118l61 76q-61 72 -61 174q0 115 73.5 187.5t186.5 72.5q71 0 126 -29l16 19h118l-61 -76q61 -72 61 -174q0 -115 -73.5 -187.5t-186.5 -72.5q-71 0 -126 29zM166 250q0 -34 13 -65l155 193q-21 8 -44 8q-54 0 -89 -37.5t-35 -98.5z
M290 114q54 0 89 37.5t35 98.5q0 34 -13 65l-155 -193q21 -8 44 -8z" />
    <glyph glyph-name="uni0218" unicode="&#x218;" horiz-adv-x="485" 
d="M41 567q0 99 56 147t147 48q90 0 147 -51t57 -149v-52h-139v50q0 80 -65 80q-28 0 -45.5 -17.5t-17.5 -48.5q0 -34 18 -57t58 -53l85 -63q116 -86 116 -205q0 -100 -60 -154t-153 -54q-92 0 -152.5 53t-60.5 147v62h140v-56q0 -39 20 -61.5t53 -22.5t52.5 18.5t19.5 50.5
q0 37 -19.5 63t-60.5 56l-83 62q-113 83 -113 207zM244 -210h-95l25 150h142z" />
    <glyph glyph-name="uni0219" unicode="&#x219;" horiz-adv-x="504" 
d="M472 148q0 -73 -59.5 -115.5t-152.5 -42.5q-100 0 -164 47t-64 128h140q0 -35 24 -54t63 -19q71 0 71 48q0 23 -21.5 36t-53.5 17.5t-69 14t-69 22.5t-53.5 45.5t-21.5 80.5q0 70 57.5 112t145.5 42q93 0 155 -48.5t62 -120.5h-140q0 29 -21.5 48t-54.5 19q-30 0 -48 -12
t-18 -34q0 -20 21.5 -32t54 -16.5t70.5 -14t70.5 -23.5t54 -46.5t21.5 -81.5zM259 -210h-95l25 150h142z" />
    <glyph glyph-name="uni0237" unicode="&#x237;" horiz-adv-x="265" 
d="M60 -66v566h145v-570q0 -182 -184 -182q-43 0 -63 5v121q16 -4 37 -4q33 0 49 14t16 50z" />
    <glyph glyph-name="uni0259" unicode="&#x259;" horiz-adv-x="566" 
d="M32 290h365q-17 102 -118 102q-69 0 -90 -50h-147q23 82 85.5 125t155.5 43q111 0 182 -73t71 -187t-71 -187t-182 -73t-182 73t-71 187q0 14 2 40zM283 109q95 0 113 96h-226q18 -96 113 -96z" />
    <glyph glyph-name="uni02BC" unicode="&#x2bc;" horiz-adv-x="218" 
d="M190 671q0 -80 -83 -196h-73q48 74 66 130q-29 4 -49.5 26.5t-20.5 51.5q0 32 23 54.5t55 22.5q35 0 58.5 -25t23.5 -64z" />
    <glyph glyph-name="uni02C6" unicode="&#x2c6;" horiz-adv-x="500" 
d="M188 600h-113l97 150h156l97 -150h-113l-62 73z" />
    <glyph glyph-name="uni02C7" unicode="&#x2c7;" horiz-adv-x="500" 
d="M188 750l62 -73l62 73h113l-97 -150h-156l-97 150h113z" />
    <glyph glyph-name="uni02D8" unicode="&#x2d8;" horiz-adv-x="500" 
d="M307 750h103q0 -71 -43 -111.5t-117 -40.5q-73 0 -115.5 40t-42.5 112h102q0 -30 16 -45t40 -15q57 0 57 60z" />
    <glyph glyph-name="uni02D9" unicode="&#x2d9;" horiz-adv-x="500" 
d="M250 598q-33 0 -55 22.5t-22 54.5q0 34 22 55.5t55 21.5q34 0 56 -21.5t22 -55.5q0 -33 -22 -55t-56 -22z" />
    <glyph glyph-name="uni02DA" unicode="&#x2da;" horiz-adv-x="500" 
d="M250 570q-49 0 -80 27t-31 68q0 40 31 67.5t80 27.5t80.5 -27.5t31.5 -67.5q0 -41 -31 -68t-81 -27zM250 632q15 0 24.5 9.5t9.5 23.5t-9.5 23.5t-24.5 9.5q-14 0 -24 -9.5t-10 -23.5t10 -23.5t24 -9.5z" />
    <glyph glyph-name="uni02DB" unicode="&#x2db;" horiz-adv-x="500" 
d="M246 -254q-54 0 -87 25t-33 67q0 16 4 31t16 34.5t18 28.5t26.5 35.5t25.5 32.5h75q-75 -105 -75 -150q0 -33 32 -33q29 0 36 32h90q0 -46 -35 -74.5t-93 -28.5z" />
    <glyph glyph-name="uni02DC" unicode="&#x2dc;" horiz-adv-x="500" 
d="M78 600v48q0 102 88 102q34 0 80.5 -25.5t61.5 -25.5q30 0 30 34v17h84v-48q0 -102 -88 -102q-34 0 -80.5 25.5t-61.5 25.5q-30 0 -30 -34v-17h-84z" />
    <glyph glyph-name="uni02DD" unicode="&#x2dd;" horiz-adv-x="500" 
d="M208 600h-93l25 150h138zM398 600h-93l25 150h138z" />
    <glyph glyph-name="uni0374" unicode="&#x374;" horiz-adv-x="288" 
d="M162 500h-102l18 250h150z" />
    <glyph glyph-name="uni0375" unicode="&#x375;" horiz-adv-x="288" 
d="M126 60h102l-18 -250h-150z" />
    <glyph glyph-name="uni0384" unicode="&#x384;" horiz-adv-x="460" 
d="M300 600h-102l17 162h150z" />
    <glyph glyph-name="uni0385" unicode="&#x385;" horiz-adv-x="600" 
d="M234 600l4 162h150l-51 -162h-103zM144 609q-27 0 -46.5 19.5t-19.5 46.5t19.5 46.5t46.5 19.5q28 0 47 -19.5t19 -46.5t-19 -46.5t-47 -19.5zM456 609q-27 0 -46.5 19.5t-19.5 46.5q0 28 18.5 47t47.5 19q28 0 47 -19.5t19 -46.5t-19 -46.5t-47 -19.5z" />
    <glyph glyph-name="uni0386" unicode="&#x386;" horiz-adv-x="510" 
d="M144 750h222l136 -750h-142l-25 152h-160l-25 -152h-142zM29 588h-102l17 162h150zM196 278h118l-59 362z" />
    <glyph glyph-name="uni0387" unicode="&#x387;" horiz-adv-x="263" 
d="M132 339q-36 0 -59 23.5t-23 57.5q0 35 23 58t59 23q35 0 58 -23t23 -58q0 -34 -23 -57.5t-58 -23.5z" />
    <glyph glyph-name="uni0388" unicode="&#x388;" horiz-adv-x="454" 
d="M419 128v-128h-359v750h359v-128h-215v-174h195v-128h-195v-192h215zM-40 588h-102l17 162h150z" />
    <glyph glyph-name="uni0389" unicode="&#x389;" horiz-adv-x="590" 
d="M205 0h-145v750h145v-301h180v301h145v-750h-145v321h-180v-321zM-40 588h-102l17 162h150z" />
    <glyph glyph-name="uni038A" unicode="&#x38a;" horiz-adv-x="265" 
d="M205 0h-145v750h145v-750zM-40 588h-102l17 162h150z" />
    <glyph glyph-name="uni038C" unicode="&#x38c;" horiz-adv-x="570" 
d="M285 -12q-112 0 -173.5 65.5t-61.5 194.5v254q0 128 61.5 194t173.5 66t173.5 -66t61.5 -194v-254q0 -129 -61.5 -194.5t-173.5 -65.5zM7 588h-102l17 162h150zM285 115q44 0 67 30t23 100v260q0 70 -23 100t-67 30t-67 -30t-23 -100v-260q0 -71 22.5 -100.5t67.5 -29.5z
" />
    <glyph glyph-name="uni038E" unicode="&#x38e;" horiz-adv-x="480" 
d="M312 0h-144v272l-168 478h141l99 -310l99 310h141l-168 -478v-272zM-89 588h-102l17 162h150z" />
    <glyph glyph-name="uni038F" unicode="&#x38f;" horiz-adv-x="570" 
d="M50 0v124h72q-72 50 -72 168v210q0 128 61.5 194t173.5 66t173.5 -66t61.5 -194v-210q0 -118 -72 -168h72v-124h-215v136q40 24 55 56.5t15 92.5v220q0 70 -23 100t-67 30t-67 -30t-23 -100v-220q0 -60 15 -92.5t55 -56.5v-136h-215zM7 588h-102l17 162h150z" />
    <glyph glyph-name="uni0390" unicode="&#x390;" horiz-adv-x="338" 
d="M72 600l4 162h150l-51 -162h-103zM-18 609q-27 0 -46.5 19.5t-19.5 46.5t19.5 46.5t46.5 19.5q28 0 47 -19.5t19 -46.5t-19 -46.5t-47 -19.5zM294 609q-27 0 -46.5 19.5t-19.5 46.5q0 28 18.5 47t47.5 19q28 0 47 -19.5t19 -46.5t-19 -46.5t-47 -19.5zM236 -10
q-86 0 -133.5 44t-47.5 154v312h145v-306q0 -45 15.5 -63.5t52.5 -18.5q24 0 52 10v-120q-38 -12 -84 -12z" />
    <glyph glyph-name="uni0391" unicode="&#x391;" horiz-adv-x="510" 
d="M144 750h222l136 -750h-142l-25 152h-160l-25 -152h-142zM196 278h118l-59 362z" />
    <glyph glyph-name="uni0392" unicode="&#x392;" 
d="M60 0v750h224q97 0 154.5 -48.5t57.5 -137.5v-10q0 -103 -90 -147q52 -22 82 -66t30 -107v-20q0 -102 -58 -158t-154 -56h-246zM272 625h-70v-170h70q84 0 84 85v10q0 75 -84 75zM288 330h-86v-205h86q84 0 84 102v10q0 49 -21 71t-63 22z" />
    <glyph glyph-name="uni0393" unicode="&#x393;" horiz-adv-x="434" 
d="M204 0h-144v750h350v-128h-206v-622z" />
    <glyph glyph-name="uni0394" unicode="&#x394;" horiz-adv-x="510" 
d="M144 750h222l126 -688v-62h-474v62zM171 125h169l-85 515z" />
    <glyph glyph-name="uni0395" unicode="&#x395;" horiz-adv-x="454" 
d="M419 128v-128h-359v750h359v-128h-215v-174h195v-128h-195v-192h215z" />
    <glyph glyph-name="uni0396" unicode="&#x396;" horiz-adv-x="440" 
d="M25 158l253 464h-248v128h385v-158l-253 -464h263v-128h-400v158z" />
    <glyph glyph-name="uni0397" unicode="&#x397;" horiz-adv-x="590" 
d="M205 0h-145v750h145v-301h180v301h145v-750h-145v321h-180v-321z" />
    <glyph glyph-name="uni0398" unicode="&#x398;" horiz-adv-x="570" 
d="M285 -12q-113 0 -174 66.5t-61 195.5v250q0 129 61 195.5t174 66.5t174 -66.5t61 -195.5v-250q0 -129 -61 -195.5t-174 -66.5zM285 112q48 0 71.5 31.5t23.5 104.5v254q0 73 -23.5 104.5t-71.5 31.5t-71.5 -31.5t-23.5 -104.5v-254q0 -73 23.5 -104.5t71.5 -31.5z
M212 326v97h146v-97h-146z" />
    <glyph glyph-name="uni0399" unicode="&#x399;" horiz-adv-x="265" 
d="M205 0h-145v750h145v-750z" />
    <glyph glyph-name="uni039A" unicode="&#x39a;" horiz-adv-x="523" 
d="M204 750v-360l156 360h154l-172 -354l181 -396h-165l-154 362v-362h-144v750h144z" />
    <glyph glyph-name="uni039B" unicode="&#x39b;" horiz-adv-x="510" 
d="M8 0l136 750h222l136 -750h-142l-105 640l-105 -640h-142z" />
    <glyph glyph-name="uni039C" unicode="&#x39c;" horiz-adv-x="780" 
d="M466 0h-159l-119 656v-656h-128v750h234l96 -572l93 572h237v-750h-135v656z" />
    <glyph glyph-name="uni039D" unicode="&#x39d;" horiz-adv-x="590" 
d="M282 750l124 -641v641h124v-750h-222l-124 650v-650h-124v750h222z" />
    <glyph glyph-name="uni039E" unicode="&#x39e;" horiz-adv-x="524" 
d="M35 0v128h164v201h-133v110h133v183h-164v128h454v-128h-164v-183h133v-110h-133v-201h164v-128h-454z" />
    <glyph glyph-name="uni039F" unicode="&#x39f;" horiz-adv-x="570" 
d="M285 -12q-112 0 -173.5 65.5t-61.5 194.5v254q0 128 61.5 194t173.5 66t173.5 -66t61.5 -194v-254q0 -129 -61.5 -194.5t-173.5 -65.5zM285 115q44 0 67 30t23 100v260q0 70 -23 100t-67 30t-67 -30t-23 -100v-260q0 -71 22.5 -100.5t67.5 -29.5z" />
    <glyph glyph-name="uni03A0" unicode="&#x3a0;" horiz-adv-x="590" 
d="M60 0v750h470v-750h-145v622h-180v-622h-145z" />
    <glyph glyph-name="uni03A1" unicode="&#x3a1;" horiz-adv-x="530" 
d="M202 0h-142v750h226q100 0 159.5 -55t59.5 -157v-46q0 -105 -59.5 -162.5t-159.5 -57.5h-84v-272zM278 625h-76v-227h76q88 0 88 104v26q0 97 -88 97z" />
    <glyph glyph-name="uni03A3" unicode="&#x3a3;" horiz-adv-x="489" 
d="M54 0v158l124 228l-129 206v158h395v-128h-238l132 -227l-146 -267h262v-128h-400z" />
    <glyph glyph-name="uni03A4" unicode="&#x3a4;" horiz-adv-x="434" 
d="M290 0h-146v622h-134v128h414v-128h-134v-622z" />
    <glyph glyph-name="uni03A5" unicode="&#x3a5;" horiz-adv-x="480" 
d="M312 0h-144v272l-168 478h141l99 -310l99 310h141l-168 -478v-272z" />
    <glyph glyph-name="uni03A6" unicode="&#x3a6;" horiz-adv-x="730" 
d="M434 -10h-138v56h-7q-122 0 -180.5 69.5t-58.5 188.5v138q0 125 62 194t178 69h6v55h138v-55h6q117 0 178.5 -66t61.5 -189v-146q0 -119 -58.5 -188.5t-180.5 -69.5h-7v-56zM442 584h-8v-417h11q49 0 71.5 30.5t22.5 96.5v164q0 72 -25.5 99t-71.5 27zM285 167h11v417h-7
q-47 0 -72 -27t-25 -99v-164q0 -66 22 -96.5t71 -30.5z" />
    <glyph glyph-name="uni03A7" unicode="&#x3a7;" horiz-adv-x="490" 
d="M339 0l-94 285l-94 -285h-151l154 385l-145 365h150l86 -269l86 269h150l-145 -365l154 -385h-151z" />
    <glyph glyph-name="uni03A8" unicode="&#x3a8;" horiz-adv-x="714" 
d="M426 0h-138v201q-118 1 -175.5 71t-57.5 187v291h139v-301q0 -127 94 -127v428h138v-428q94 3 94 127v301h139v-291q0 -118 -58 -188t-175 -70v-201z" />
    <glyph glyph-name="uni03A9" unicode="&#x3a9;" horiz-adv-x="570" 
d="M50 0v124h72q-72 50 -72 168v210q0 128 61.5 194t173.5 66t173.5 -66t61.5 -194v-210q0 -118 -72 -168h72v-124h-215v136q40 24 55 56.5t15 92.5v220q0 70 -23 100t-67 30t-67 -30t-23 -100v-220q0 -60 15 -92.5t55 -56.5v-136h-215z" />
    <glyph glyph-name="uni03AA" unicode="&#x3aa;" horiz-adv-x="265" 
d="M30 825q-28 0 -49 20.5t-21 49.5t20.5 49.5t49.5 20.5t49.5 -20.5t20.5 -49.5t-20.5 -49.5t-49.5 -20.5zM234 825q-29 0 -49.5 20.5t-20.5 49.5t21 49.5t49 20.5q30 0 50 -20.5t20 -49.5t-20 -49.5t-50 -20.5zM205 0h-145v750h145v-750z" />
    <glyph glyph-name="uni03AB" unicode="&#x3ab;" horiz-adv-x="480" 
d="M138 825q-28 0 -49 20.5t-21 49.5t20.5 49.5t49.5 20.5t49.5 -20.5t20.5 -49.5t-20.5 -49.5t-49.5 -20.5zM342 825q-29 0 -49.5 20.5t-20.5 49.5t21 49.5t49 20.5q30 0 50 -20.5t20 -49.5t-20 -49.5t-50 -20.5zM312 0h-144v272l-168 478h141l99 -310l99 310h141
l-168 -478v-272z" />
    <glyph glyph-name="uni03AC" unicode="&#x3ac;" horiz-adv-x="660" 
d="M328 600h-102l17 162h150zM262 -10q-102 0 -167 73t-65 189t65 187t167 71q92 0 150 -72v62h143v-324q0 -64 49 -64q22 0 38 6v-121q-22 -7 -75 -7q-112 0 -143 90q-59 -90 -162 -90zM291 119q52 0 85.5 37.5t33.5 95.5q0 59 -33.5 95t-85.5 36t-85.5 -36t-33.5 -95
q0 -58 34 -95.5t85 -37.5z" />
    <glyph glyph-name="uni03AD" unicode="&#x3ad;" horiz-adv-x="560" 
d="M318 600h-102l17 162h150zM30 139q0 81 83 114q-69 29 -69 103t61.5 114t161.5 40q243 0 250 -179h-137q-6 66 -109 66q-85 0 -85 -51q0 -40 58 -40h104v-102h-106q-33 0 -51.5 -11.5t-18.5 -32.5q0 -27 25.5 -40t64.5 -13q118 0 132 77h136q-27 -194 -273 -194
q-109 0 -168 38.5t-59 110.5z" />
    <glyph glyph-name="uni03AE" unicode="&#x3ae;" horiz-adv-x="633" 
d="M374 600h-102l17 162h150zM428 276q0 56 -23.5 85t-66.5 29t-66.5 -29t-23.5 -85v-276h-145v324q0 64 -47 64q-23 0 -38 -6v121q22 7 73 7q116 0 146 -98q44 98 153 98q82 0 132.5 -52t50.5 -149v-559h-145v526z" />
    <glyph glyph-name="uni03AF" unicode="&#x3af;" horiz-adv-x="338" 
d="M178 600h-102l17 162h150zM236 -10q-86 0 -133.5 44t-47.5 154v312h145v-306q0 -45 15.5 -63.5t52.5 -18.5q24 0 52 10v-120q-38 -12 -84 -12z" />
    <glyph glyph-name="uni03B0" unicode="&#x3b0;" horiz-adv-x="565" 
d="M226 600l4 162h150l-51 -162h-103zM136 609q-27 0 -46.5 19.5t-19.5 46.5t19.5 46.5t46.5 19.5q28 0 47 -19.5t19 -46.5t-19 -46.5t-47 -19.5zM448 609q-27 0 -46.5 19.5t-19.5 46.5q0 28 18.5 47t47.5 19q28 0 47 -19.5t19 -46.5t-19 -46.5t-47 -19.5zM283 -10
q-114 0 -171 56.5t-57 159.5v294h145v-294q0 -96 83 -96q82 0 82 96v294h145v-294q0 -103 -57 -159.5t-170 -56.5z" />
    <glyph glyph-name="uni03B1" unicode="&#x3b1;" horiz-adv-x="660" 
d="M262 -10q-102 0 -167 73t-65 189t65 187t167 71q92 0 150 -72v62h143v-324q0 -64 49 -64q22 0 38 6v-121q-22 -7 -75 -7q-112 0 -143 90q-59 -90 -162 -90zM291 119q52 0 85.5 37.5t33.5 95.5q0 59 -33.5 95t-85.5 36t-85.5 -36t-33.5 -95q0 -58 34 -95.5t85 -37.5z" />
    <glyph glyph-name="uni03B2" unicode="&#x3b2;" horiz-adv-x="615" 
d="M60 -250v764q0 114 63.5 180t178.5 66q113 0 174 -56t61 -141q0 -124 -100 -161q66 -10 107 -60.5t41 -135.5q0 -87 -59.5 -151.5t-167.5 -64.5q-94 0 -153 68v-308h-145zM205 256q0 -72 37.5 -104.5t91.5 -32.5q50 0 80.5 30t30.5 79q0 51 -29.5 81t-87.5 30h-71v111h38
q52 0 76 25.5t24 66.5q0 35 -22 62.5t-69 27.5q-99 0 -99 -125v-251z" />
    <glyph glyph-name="uni03B3" unicode="&#x3b3;" horiz-adv-x="500" 
d="M8 500h145l97 -398h4l93 398h145l-166 -533v-217h-144v213z" />
    <glyph glyph-name="uni03B4" unicode="&#x3b4;" horiz-adv-x="580" 
d="M290 -11q-115 0 -187.5 70.5t-72.5 188.5q0 87 49 157t141 91l-150 128v126h458v-122h-256l152 -132q126 -110 126 -247q0 -109 -72 -184.5t-188 -75.5zM290 115q52 0 85.5 36.5t33.5 94.5q0 59 -33.5 95t-85.5 36t-85.5 -36t-33.5 -95q0 -58 33.5 -94.5t85.5 -36.5z" />
    <glyph glyph-name="uni03B5" unicode="&#x3b5;" horiz-adv-x="560" 
d="M30 139q0 81 83 114q-69 29 -69 103t61.5 114t161.5 40q243 0 250 -179h-137q-6 66 -109 66q-85 0 -85 -51q0 -40 58 -40h104v-102h-106q-33 0 -51.5 -11.5t-18.5 -32.5q0 -27 25.5 -40t64.5 -13q118 0 132 77h136q-27 -194 -273 -194q-109 0 -168 38.5t-59 110.5z" />
    <glyph glyph-name="uni03B6" unicode="&#x3b6;" horiz-adv-x="530" 
d="M378 -200v122q0 41 -13 53.5t-61 15.5q-135 7 -204.5 62t-69.5 150q0 72 37 134.5t143 168.5l123 122h-284v122h462v-108l-183 -184q-99 -98 -127 -141t-28 -87q0 -48 37.5 -77.5t114.5 -33.5q111 -4 150.5 -42.5t39.5 -135.5v-141h-137z" />
    <glyph glyph-name="uni03B7" unicode="&#x3b7;" horiz-adv-x="633" 
d="M428 276q0 56 -23.5 85t-66.5 29t-66.5 -29t-23.5 -85v-276h-145v324q0 64 -47 64q-23 0 -38 -6v121q22 7 73 7q116 0 146 -98q44 98 153 98q82 0 132.5 -52t50.5 -149v-559h-145v526z" />
    <glyph glyph-name="uni03B8" unicode="&#x3b8;" horiz-adv-x="590" 
d="M50 270v210q0 132 63 206t183 74t182 -73.5t62 -206.5v-210q0 -132 -63 -206t-183 -74t-182 73.5t-62 206.5zM191 480v-33h207v33q0 78 -21.5 114.5t-80.5 36.5q-58 0 -81.5 -37t-23.5 -114zM191 270q0 -78 22.5 -114.5t80.5 -36.5q59 0 81.5 36.5t22.5 114.5v54h-207
v-54z" />
    <glyph glyph-name="uni03B9" unicode="&#x3b9;" horiz-adv-x="338" 
d="M236 -10q-86 0 -133.5 44t-47.5 154v312h145v-306q0 -45 15.5 -63.5t52.5 -18.5q24 0 52 10v-120q-38 -12 -84 -12z" />
    <glyph glyph-name="uni03BA" unicode="&#x3ba;" horiz-adv-x="565" 
d="M60 0v500h145v-216l165 216h176l-192 -226l204 -274h-172l-181 262v-262h-145z" />
    <glyph glyph-name="uni03BB" unicode="&#x3bb;" horiz-adv-x="500" 
d="M61 752q23 8 64 8q87 0 128 -48.5t73 -155.5l166 -556h-148l-89 360l-93 -360h-154l190 539q-17 55 -35.5 77t-56.5 22q-21 0 -45 -4v118z" />
    <glyph glyph-name="uni03BC" unicode="&#x3bc;" horiz-adv-x="630" 
d="M60 -250v750h145v-276q0 -56 23 -85t65 -29t64.5 29t22.5 85v276h145v-324q0 -64 48 -64q23 0 39 6v-121q-22 -7 -75 -7q-116 0 -146 98q-40 -91 -139 -96q-21 -1 -47 4v-246h-145z" />
    <glyph glyph-name="uni03BD" unicode="&#x3bd;" horiz-adv-x="500" 
d="M357 0h-214l-135 500h145l97 -401l97 401h145z" />
    <glyph glyph-name="uni03BE" unicode="&#x3be;" horiz-adv-x="530" 
d="M378 -200v126q0 38 -9.5 50t-49.5 14q-155 9 -222 62.5t-67 149.5q0 75 43 123.5t121 59.5q-122 25 -122 130q0 77 66 113h-98v122h468v-122h-159q-132 0 -132 -90q0 -88 132 -88h121v-122h-147q-150 0 -150 -106q0 -50 35.5 -75t127.5 -29q105 -4 142 -41.5t37 -138.5
v-138h-137z" />
    <glyph glyph-name="uni03BF" unicode="&#x3bf;" horiz-adv-x="580" 
d="M290 -10q-113 0 -186.5 72.5t-73.5 187.5t73.5 187.5t186.5 72.5t186.5 -72.5t73.5 -187.5t-73.5 -187.5t-186.5 -72.5zM290 119q52 0 85.5 36.5t33.5 94.5t-33.5 94.5t-85.5 36.5t-85.5 -36.5t-33.5 -94.5t33.5 -94.5t85.5 -36.5z" />
    <glyph glyph-name="uni03C0" unicode="&#x3c0;" horiz-adv-x="658" 
d="M118 0v378h-100v122h622v-122h-107v-202q0 -64 48 -64q19 0 35 6v-121q-24 -7 -70 -7q-158 0 -158 182v206h-125v-378h-145z" />
    <glyph glyph-name="uni03C1" unicode="&#x3c1;" horiz-adv-x="615" 
d="M60 -250v484q0 117 69.5 196.5t194.5 79.5q119 0 190 -72.5t71 -187.5q0 -116 -68 -188t-171 -72q-84 0 -141 60v-300h-145zM206 250q0 -58 33.5 -94.5t85.5 -36.5t85.5 36.5t33.5 94.5t-33.5 94.5t-85.5 36.5t-85.5 -36.5t-33.5 -94.5z" />
    <glyph glyph-name="uni03C2" unicode="&#x3c2;" horiz-adv-x="570" 
d="M515 -57v-143h-136v128q0 37 -15 49t-68 15q-266 13 -266 255q0 117 72.5 190t182.5 73q106 0 176 -59t80 -155h-148q-5 41 -34.5 63t-72.5 22q-49 0 -81.5 -35.5t-32.5 -93.5q0 -65 36 -97t120 -36q111 -6 149 -44t38 -132z" />
    <glyph glyph-name="uni03C3" unicode="&#x3c3;" horiz-adv-x="634" 
d="M288 -10q-112 0 -185 73t-73 182q0 108 72 181.5t183 73.5h331v-122h-105q37 -56 37 -133q0 -109 -72.5 -182t-187.5 -73zM290 119q51 0 85 36t34 93q0 53 -34 88t-85 35t-85 -35t-34 -88q0 -57 34 -93t85 -36z" />
    <glyph glyph-name="uni03C4" unicode="&#x3c4;" horiz-adv-x="492" 
d="M18 378v122h457v-122h-172v-200q0 -66 68 -66q27 0 55 10v-120q-38 -12 -84 -12q-87 0 -135.5 41t-48.5 139v208h-140z" />
    <glyph glyph-name="uni03C5" unicode="&#x3c5;" horiz-adv-x="565" 
d="M283 -10q-114 0 -171 56.5t-57 159.5v294h145v-294q0 -96 83 -96q82 0 82 96v294h145v-294q0 -103 -57 -159.5t-170 -56.5z" />
    <glyph glyph-name="uni03C6" unicode="&#x3c6;" horiz-adv-x="720" 
d="M291 -250v241q-119 6 -190 77t-71 182q0 112 69 182.5t192 76.5v141h138v-141q123 -6 192 -76.5t69 -182.5q0 -111 -71 -182t-190 -77v-241h-138zM550 250q0 120 -122 130v-260q58 6 90 40.5t32 89.5zM170 250q0 -55 32 -89.5t90 -40.5v260q-122 -10 -122 -130z" />
    <glyph glyph-name="uni03C7" unicode="&#x3c7;" horiz-adv-x="525" 
d="M-2 -250l187 381l-177 369h160l93 -240l96 240h160l-188 -376l175 -374h-160l-89 252l-95 -252h-162z" />
    <glyph glyph-name="uni03C8" unicode="&#x3c8;" horiz-adv-x="712" 
d="M287 -250v242q-118 8 -175.5 65.5t-57.5 168.5v274h140v-270q0 -112 93 -119v539h137v-539q94 7 94 119v270h140v-274q0 -219 -234 -234v-242h-137z" />
    <glyph glyph-name="uni03C9" unicode="&#x3c9;" horiz-adv-x="680" 
d="M30 223q0 80 24 155t64 122h130q-80 -122 -80 -292q0 -98 52 -98q26 0 40 25.5t14 69.5v170h132v-170q0 -44 14 -69.5t40 -25.5q52 0 52 98q0 170 -80 292h130q40 -47 64 -122t24 -155q0 -115 -44.5 -174t-120.5 -59q-111 0 -145 126q-33 -126 -145 -126
q-78 0 -121.5 58.5t-43.5 174.5z" />
    <glyph glyph-name="uni03CA" unicode="&#x3ca;" horiz-adv-x="338" 
d="M26 605q-28 0 -49 20.5t-21 49.5t20.5 49.5t49.5 20.5t49.5 -20.5t20.5 -49.5t-20.5 -49.5t-49.5 -20.5zM230 605q-29 0 -49.5 20.5t-20.5 49.5t21 49.5t49 20.5q30 0 50 -20.5t20 -49.5t-20 -49.5t-50 -20.5zM236 -10q-86 0 -133.5 44t-47.5 154v312h145v-306
q0 -45 15.5 -63.5t52.5 -18.5q24 0 52 10v-120q-38 -12 -84 -12z" />
    <glyph glyph-name="uni03CB" unicode="&#x3cb;" horiz-adv-x="565" 
d="M179 605q-29 0 -49.5 20.5t-20.5 49.5t20.5 49.5t49.5 20.5t49.5 -20.5t20.5 -49.5t-20.5 -49.5t-49.5 -20.5zM383 605q-29 0 -49.5 20.5t-20.5 49.5t20.5 49.5t49.5 20.5q30 0 50 -20.5t20 -49.5t-20 -49.5t-50 -20.5zM283 -10q-114 0 -171 56.5t-57 159.5v294h145v-294
q0 -96 83 -96q82 0 82 96v294h145v-294q0 -103 -57 -159.5t-170 -56.5z" />
    <glyph glyph-name="uni03CC" unicode="&#x3cc;" horiz-adv-x="580" 
d="M341 600h-102l17 162h150zM290 -10q-113 0 -186.5 72.5t-73.5 187.5t73.5 187.5t186.5 72.5t186.5 -72.5t73.5 -187.5t-73.5 -187.5t-186.5 -72.5zM290 119q52 0 85.5 36.5t33.5 94.5t-33.5 94.5t-85.5 36.5t-85.5 -36.5t-33.5 -94.5t33.5 -94.5t85.5 -36.5z" />
    <glyph glyph-name="uni03CD" unicode="&#x3cd;" horiz-adv-x="565" 
d="M332 600h-102l17 162h150zM283 -10q-114 0 -171 56.5t-57 159.5v294h145v-294q0 -96 83 -96q82 0 82 96v294h145v-294q0 -103 -57 -159.5t-170 -56.5z" />
    <glyph glyph-name="uni03CE" unicode="&#x3ce;" horiz-adv-x="680" 
d="M388 600h-102l17 162h150zM30 223q0 80 24 155t64 122h130q-80 -122 -80 -292q0 -98 52 -98q26 0 40 25.5t14 69.5v170h132v-170q0 -44 14 -69.5t40 -25.5q52 0 52 98q0 170 -80 292h130q40 -47 64 -122t24 -155q0 -115 -44.5 -174t-120.5 -59q-111 0 -145 126
q-33 -126 -145 -126q-78 0 -121.5 58.5t-43.5 174.5z" />
    <glyph glyph-name="uni0401" unicode="&#x401;" horiz-adv-x="454" 
d="M141 825q-29 0 -49.5 20.5t-20.5 49.5t20.5 49.5t49.5 20.5t49.5 -20.5t20.5 -49.5t-20.5 -49.5t-49.5 -20.5zM345 825q-29 0 -49.5 20.5t-20.5 49.5t20.5 49.5t49.5 20.5q30 0 50 -20.5t20 -49.5t-20 -49.5t-50 -20.5zM419 128v-128h-359v750h359v-128h-215v-174h195
v-128h-195v-192h215z" />
    <glyph glyph-name="uni0402" unicode="&#x402;" horiz-adv-x="618" 
d="M272 0h-145v622h-117v128h412v-128h-150v-174q41 12 89 12q109 0 156 -52.5t47 -166.5v-198q0 -187 -183 -187q-33 0 -55 5v126q24 -3 32 -3q62 0 62 61v191q0 50 -18 72.5t-66 22.5q-41 0 -64 -9v-322z" />
    <glyph glyph-name="uni0403" unicode="&#x403;" horiz-adv-x="434" 
d="M296 820h-114l57 150h150zM204 0h-144v750h350v-128h-206v-622z" />
    <glyph glyph-name="uni0404" unicode="&#x404;" horiz-adv-x="570" 
d="M375 270h145v-22q0 -128 -61.5 -194t-173.5 -66t-173.5 66t-61.5 194v254q0 128 61.5 194t173.5 66t173.5 -66t61.5 -194v-10h-145v13q0 70 -23 100t-67 30t-67 -30t-23 -100v-57h181v-126h-181v-77q0 -71 22.5 -100.5t67.5 -29.5q44 0 67 30t23 100v25z" />
    <glyph glyph-name="uni0405" unicode="&#x405;" horiz-adv-x="485" 
d="M41 567q0 99 56 147t147 48q90 0 147 -51t57 -149v-52h-139v50q0 80 -65 80q-28 0 -45.5 -17.5t-17.5 -48.5q0 -34 18 -57t58 -53l85 -63q116 -86 116 -205q0 -100 -60 -154t-153 -54q-92 0 -152.5 53t-60.5 147v62h140v-56q0 -39 20 -61.5t53 -22.5t52.5 18.5t19.5 50.5
q0 37 -19.5 63t-60.5 56l-83 62q-113 83 -113 207z" />
    <glyph glyph-name="uni0406" unicode="&#x406;" horiz-adv-x="265" 
d="M205 0h-145v750h145v-750z" />
    <glyph glyph-name="uni0407" unicode="&#x407;" horiz-adv-x="265" 
d="M30 825q-28 0 -49 20.5t-21 49.5t20.5 49.5t49.5 20.5t49.5 -20.5t20.5 -49.5t-20.5 -49.5t-49.5 -20.5zM234 825q-29 0 -49.5 20.5t-20.5 49.5t21 49.5t49 20.5q30 0 50 -20.5t20 -49.5t-20 -49.5t-50 -20.5zM205 0h-145v750h145v-750z" />
    <glyph glyph-name="uni0408" unicode="&#x408;" horiz-adv-x="522" 
d="M326 750h145v-542q0 -107 -60 -163.5t-158 -56.5t-158 56.5t-60 163.5v79h145v-75q0 -97 73 -97q36 0 54.5 22t18.5 75v538z" />
    <glyph glyph-name="uni0409" unicode="&#x409;" horiz-adv-x="806" 
d="M98 750h388v-260h67q113 0 174.5 -60.5t61.5 -165.5v-30q0 -105 -62.5 -169.5t-173.5 -64.5h-209v622h-112q0 -345 -14 -458q-11 -92 -49.5 -128t-123.5 -36h-21v126h7q24 0 35.5 14t18.5 42q13 58 13 568zM540 365h-54v-240h54q59 0 84.5 30t25.5 89v10q0 55 -25.5 83
t-84.5 28z" />
    <glyph glyph-name="uni040A" unicode="&#x40a;" horiz-adv-x="825" 
d="M205 0h-145v750h145v-282h157v282h143v-282h67q114 0 175 -56t61 -160v-30q0 -103 -61.5 -162.5t-174.5 -59.5h-210v340h-157v-340zM558 342h-53v-217h53q61 0 86 25t25 82v10q0 53 -25 76.5t-86 23.5z" />
    <glyph glyph-name="uni040B" unicode="&#x40b;" horiz-adv-x="618" 
d="M272 0h-145v622h-117v128h412v-128h-150v-174q41 12 89 12q109 0 156 -52.5t47 -166.5v-241h-144v236q0 50 -18 72.5t-66 22.5q-41 0 -64 -9v-322z" />
    <glyph glyph-name="uni040C" unicode="&#x40c;" horiz-adv-x="523" 
d="M332 820h-114l57 150h150zM204 750v-360l156 360h154l-172 -354l181 -396h-165l-154 362v-362h-144v750h144z" />
    <glyph glyph-name="uni040E" unicode="&#x40e;" horiz-adv-x="490" 
d="M305 970h103q0 -71 -43 -111.5t-117 -40.5q-73 0 -115.5 40t-42.5 112h102q0 -30 16 -45t40 -15q57 0 57 60zM342 209q-28 -112 -71.5 -165.5t-123.5 -53.5q-45 0 -81 12v118q31 -8 60 -8q35 0 57 18l-175 620h145l98 -438l89 438h142z" />
    <glyph glyph-name="uni040F" unicode="&#x40f;" horiz-adv-x="585" 
d="M227 -135v135h-167v750h145v-622h175v622h145v-750h-167v-135h-131z" />
    <glyph glyph-name="uni0410" unicode="&#x410;" horiz-adv-x="510" 
d="M144 750h222l136 -750h-142l-25 152h-160l-25 -152h-142zM196 278h118l-59 362z" />
    <glyph glyph-name="uni0411" unicode="&#x411;" horiz-adv-x="530" 
d="M60 0v750h388v-128h-246v-157h74q103 0 162.5 -54.5t59.5 -162.5v-30q0 -111 -59 -164.5t-163 -53.5h-216zM265 340h-63v-215h64q49 0 71 25.5t22 78.5v9q0 54 -21.5 78t-72.5 24z" />
    <glyph glyph-name="uni0412" unicode="&#x412;" 
d="M60 0v750h224q97 0 154.5 -48.5t57.5 -137.5v-10q0 -103 -90 -147q52 -22 82 -66t30 -107v-20q0 -102 -58 -158t-154 -56h-246zM272 625h-70v-170h70q84 0 84 85v10q0 75 -84 75zM288 330h-86v-205h86q84 0 84 102v10q0 49 -21 71t-63 22z" />
    <glyph glyph-name="uni0413" unicode="&#x413;" horiz-adv-x="434" 
d="M204 0h-144v750h350v-128h-206v-622z" />
    <glyph glyph-name="uni0414" unicode="&#x414;" horiz-adv-x="620" 
d="M14 -135v263h51q27 59 35 180.5t7 441.5h426v-622h68v-263h-131v135h-325v-135h-131zM222 217q-9 -58 -28 -89h194v494h-148q-1 -302 -18 -405z" />
    <glyph glyph-name="uni0415" unicode="&#x415;" horiz-adv-x="454" 
d="M419 128v-128h-359v750h359v-128h-215v-174h195v-128h-195v-192h215z" />
    <glyph glyph-name="uni0416" unicode="&#x416;" horiz-adv-x="740" 
d="M443 750v-361l142 361h151l-161 -358l165 -392h-158l-139 363v-363h-142v363l-139 -363h-162l165 392l-161 358h155l142 -361v361h142z" />
    <glyph glyph-name="uni0417" unicode="&#x417;" horiz-adv-x="528" 
d="M274 322h-76v126h73q63 0 63 92v9q0 86 -69 86q-77 0 -77 -90v-35h-145v38q0 105 63 159.5t158 54.5q93 0 153 -48t60 -146v-13q0 -101 -70 -153q89 -53 89 -172v-25q0 -109 -62.5 -163t-163.5 -54q-102 0 -167 54t-65 161v58h145v-45q0 -52 23.5 -76.5t61.5 -24.5
q83 0 83 103v11q0 48 -17 70.5t-60 22.5z" />
    <glyph glyph-name="uni0418" unicode="&#x418;" horiz-adv-x="590" 
d="M333 750h197v-750h-126v599l-147 -599h-197v750h126v-599z" />
    <glyph glyph-name="uni0419" unicode="&#x419;" horiz-adv-x="590" 
d="M352 970h103q0 -71 -43 -111.5t-117 -40.5q-73 0 -115.5 40t-42.5 112h102q0 -30 16 -45t40 -15q57 0 57 60zM333 750h197v-750h-126v599l-147 -599h-197v750h126v-599z" />
    <glyph glyph-name="uni041A" unicode="&#x41a;" horiz-adv-x="523" 
d="M204 750v-360l156 360h154l-172 -354l181 -396h-165l-154 362v-362h-144v750h144z" />
    <glyph glyph-name="uni041B" unicode="&#x41b;" horiz-adv-x="580" 
d="M520 0h-144v622h-144q0 -345 -14 -458q-11 -92 -49.5 -128t-123.5 -36h-21v126h7q24 0 35.5 14t18.5 42q13 58 13 568h422v-750z" />
    <glyph glyph-name="uni041C" unicode="&#x41c;" horiz-adv-x="780" 
d="M466 0h-159l-119 656v-656h-128v750h234l96 -572l93 572h237v-750h-135v656z" />
    <glyph glyph-name="uni041D" unicode="&#x41d;" horiz-adv-x="590" 
d="M205 0h-145v750h145v-301h180v301h145v-750h-145v321h-180v-321z" />
    <glyph glyph-name="uni041E" unicode="&#x41e;" horiz-adv-x="570" 
d="M285 -12q-112 0 -173.5 65.5t-61.5 194.5v254q0 128 61.5 194t173.5 66t173.5 -66t61.5 -194v-254q0 -129 -61.5 -194.5t-173.5 -65.5zM285 115q44 0 67 30t23 100v260q0 70 -23 100t-67 30t-67 -30t-23 -100v-260q0 -71 22.5 -100.5t67.5 -29.5z" />
    <glyph glyph-name="uni041F" unicode="&#x41f;" horiz-adv-x="585" 
d="M205 0h-145v750h465v-750h-145v622h-175v-622z" />
    <glyph glyph-name="uni0420" unicode="&#x420;" horiz-adv-x="530" 
d="M202 0h-142v750h226q100 0 159.5 -55t59.5 -157v-46q0 -105 -59.5 -162.5t-159.5 -57.5h-84v-272zM278 625h-76v-227h76q88 0 88 104v26q0 97 -88 97z" />
    <glyph glyph-name="uni0421" unicode="&#x421;" horiz-adv-x="570" 
d="M375 305h145v-57q0 -128 -61.5 -194t-173.5 -66t-173.5 66t-61.5 194v254q0 128 61.5 194t173.5 66t173.5 -66t61.5 -194v-47h-145v50q0 70 -23 100t-67 30t-67 -30t-23 -100v-260q0 -71 22.5 -100.5t67.5 -29.5q44 0 67 30t23 100v60z" />
    <glyph glyph-name="uni0422" unicode="&#x422;" horiz-adv-x="434" 
d="M290 0h-146v622h-134v128h414v-128h-134v-622z" />
    <glyph glyph-name="uni0423" unicode="&#x423;" horiz-adv-x="490" 
d="M342 209q-28 -112 -71.5 -165.5t-123.5 -53.5q-45 0 -81 12v118q31 -8 60 -8q35 0 57 18l-175 620h145l98 -438l89 438h142z" />
    <glyph glyph-name="uni0424" unicode="&#x424;" horiz-adv-x="740" 
d="M442 -10h-144v66h-16q-122 0 -181 70t-59 188v126q0 123 62 189t179 66h15v65h144v-65h15q117 0 179 -66t62 -189v-126q0 -118 -59 -188t-181 -70h-16v-66zM455 574h-13v-397h17q49 0 71 30.5t22 96.5v144q0 72 -25.5 99t-71.5 27zM281 177h17v397h-13q-47 0 -72 -27
t-25 -99v-144q0 -66 22 -96.5t71 -30.5z" />
    <glyph glyph-name="uni0425" unicode="&#x425;" horiz-adv-x="490" 
d="M339 0l-94 285l-94 -285h-151l154 385l-145 365h150l86 -269l86 269h150l-145 -365l154 -385h-151z" />
    <glyph glyph-name="uni0426" unicode="&#x426;" horiz-adv-x="614" 
d="M461 -135v135h-401v750h145v-622h175v622h145v-622h67v-263h-131z" />
    <glyph glyph-name="uni0427" unicode="&#x427;" horiz-adv-x="555" 
d="M495 0h-145v290q-40 -9 -92 -9q-114 0 -168.5 53.5t-54.5 174.5v241h145v-236q0 -59 25.5 -81.5t78.5 -22.5q42 0 66 6v334h145v-750z" />
    <glyph glyph-name="uni0428" unicode="&#x428;" horiz-adv-x="880" 
d="M205 750v-622h163v622h144v-622h163v622h145v-750h-760v750h145z" />
    <glyph glyph-name="uni0429" unicode="&#x429;" horiz-adv-x="909" 
d="M756 -135v135h-696v750h145v-622h163v622h144v-622h163v622h145v-622h68v-263h-132z" />
    <glyph glyph-name="uni042A" unicode="&#x42a;" horiz-adv-x="600" 
d="M10 622v128h262v-258h67q113 0 174.5 -60.5t61.5 -166.5v-30q0 -105 -62.5 -170t-173.5 -65h-209v622h-120zM326 368h-54v-243h54q59 0 84.5 30.5t25.5 89.5v10q0 56 -25.5 84.5t-84.5 28.5z" />
    <glyph glyph-name="uni042B" unicode="&#x42b;" horiz-adv-x="778" 
d="M202 750v-258h67q113 0 174.5 -60.5t61.5 -166.5v-30q0 -105 -62.5 -170t-173.5 -65h-209v750h142zM717 0h-145v750h145v-750zM256 368h-54v-243h54q59 0 84.5 30.5t25.5 89.5v10q0 56 -25.5 84.5t-84.5 28.5z" />
    <glyph glyph-name="uni042C" unicode="&#x42c;" horiz-adv-x="522" 
d="M202 750v-258h67q113 0 174.5 -60.5t61.5 -166.5v-30q0 -105 -62.5 -170t-173.5 -65h-209v750h142zM256 368h-54v-243h54q59 0 84.5 30.5t25.5 89.5v10q0 56 -25.5 84.5t-84.5 28.5z" />
    <glyph glyph-name="uni042D" unicode="&#x42d;" horiz-adv-x="572" 
d="M195 270v-25q0 -70 23 -100t67 -30q45 0 67.5 29.5t22.5 100.5v77h-174v126h174v57q0 70 -23 100t-67 30t-67 -30t-23 -100v-13h-145v10q0 128 61.5 194t173.5 66t173.5 -66t61.5 -194v-254q0 -128 -61.5 -194t-173.5 -66t-173.5 66t-61.5 194v22h145z" />
    <glyph glyph-name="uni042E" unicode="&#x42e;" horiz-adv-x="781" 
d="M205 0h-145v750h145v-301h66v53q0 128 60.5 194t169.5 66t169.5 -66t60.5 -194v-254q0 -128 -60.5 -194t-169.5 -66t-169.5 66t-60.5 194v73h-66v-321zM501 115q42 0 63.5 30t21.5 100v260q0 70 -21.5 100t-63.5 30q-85 0 -85 -130v-260q0 -70 21.5 -100t63.5 -30z" />
    <glyph glyph-name="uni042F" unicode="&#x42f;" 
d="M15 0l166 323q-67 17 -106 65.5t-39 124.5v29q0 99 59.5 153.5t156.5 54.5h238v-750h-144v351l-170 -351h-161zM268 406h78v219h-78q-88 0 -88 -99v-12q0 -108 88 -108z" />
    <glyph glyph-name="uni0430" unicode="&#x430;" 
d="M200 -10q-68 0 -116 36.5t-48 106.5q0 50 23.5 82.5t59 45.5t76.5 22t76.5 13t59 16.5t23.5 35.5q0 26 -22 41t-57 15q-38 0 -59.5 -19.5t-21.5 -56.5h-143q0 92 66 137t162 45q95 0 157.5 -41t62.5 -125v-344h-140v76q-45 -86 -159 -86zM181 145q0 -23 17.5 -35.5
t45.5 -12.5q48 0 80 27t32 75v26q-24 -11 -73 -20.5t-75.5 -21.5t-26.5 -38z" />
    <glyph glyph-name="uni0431" unicode="&#x431;" horiz-adv-x="584" 
d="M324 500q96 0 163 -71.5t67 -182.5q0 -113 -74 -184.5t-186 -71.5t-186 71.5t-74 184.5v186q0 74 14.5 124t46.5 80.5t72.5 46.5t102.5 25l102 14q31 4 33 28h137q0 -77 -32.5 -106t-123.5 -42l-103 -15q-68 -10 -92 -38.5t-24 -104.5v-17q49 73 157 73zM294 119
q52 0 85 35.5t33 91.5t-32.5 92t-85.5 36q-52 0 -85.5 -36t-33.5 -92t33 -91.5t86 -35.5z" />
    <glyph glyph-name="uni0432" unicode="&#x432;" horiz-adv-x="558" 
d="M60 0v500h280q70 0 111.5 -33.5t41.5 -97.5q0 -72 -64 -103q81 -30 81 -118q0 -73 -43.5 -110.5t-124.5 -37.5h-282zM292 403h-96v-100h96q66 0 66 49q0 27 -15.5 39t-50.5 12zM304 210h-108v-113h108q64 0 64 57q0 56 -64 56z" />
    <glyph glyph-name="uni0433" unicode="&#x433;" horiz-adv-x="428" 
d="M202 0h-142v500h351v-120h-209v-380z" />
    <glyph glyph-name="uni0434" unicode="&#x434;" horiz-adv-x="610" 
d="M16 120h50q11 24 18 53t13 112t6 215h419v-380h67v-255h-129v135h-315v-135h-129v255zM222 207q-7 -55 -21 -87h176v260h-144q-3 -121 -11 -173z" />
    <glyph glyph-name="uni0435" unicode="&#x435;" horiz-adv-x="566" 
d="M534 210h-365q17 -102 118 -102q69 0 90 50h147q-23 -82 -85.5 -125t-155.5 -43q-111 0 -182 73t-71 187t71 187t182 73t182 -73t71 -187q0 -14 -2 -40zM283 391q-95 0 -113 -96h226q-18 96 -113 96z" />
    <glyph glyph-name="uni0436" unicode="&#x436;" horiz-adv-x="828" 
d="M487 500v-214l149 214h173l-175 -225l187 -275h-167l-167 261v-261h-143v260l-166 -260h-170l189 274l-180 226h178l149 -213v213h143z" />
    <glyph glyph-name="uni0437" unicode="&#x437;" horiz-adv-x="516" 
d="M198 299h80q59 0 59 51q0 54 -77 54q-43 0 -65.5 -21.5t-22.5 -62.5h-136q0 82 59.5 136t166.5 54q101 0 155 -41.5t54 -106.5q0 -75 -64 -109q76 -32 76 -107q0 -73 -58 -114.5t-163 -41.5q-109 0 -170.5 50.5t-61.5 144.5h136q0 -90 96 -90q82 0 82 59q0 55 -68 55h-78
v90z" />
    <glyph glyph-name="uni0438" unicode="&#x438;" horiz-adv-x="605" 
d="M545 0h-136v356l-171 -356h-178v500h136v-357l171 357h178v-500z" />
    <glyph glyph-name="uni0439" unicode="&#x439;" horiz-adv-x="605" 
d="M353 750h103q0 -71 -43 -111.5t-117 -40.5q-73 0 -115.5 40t-42.5 112h102q0 -30 16 -45t40 -15q57 0 57 60zM545 0h-136v356l-171 -356h-178v500h136v-357l171 357h178v-500z" />
    <glyph glyph-name="uni043A" unicode="&#x43a;" horiz-adv-x="565" 
d="M205 500v-216l165 216h176l-192 -226l204 -274h-172l-181 262v-262h-145v500h145z" />
    <glyph glyph-name="uni043B" unicode="&#x43b;" horiz-adv-x="558" 
d="M498 0h-144v380h-129q-3 -145 -13 -213q-15 -96 -52.5 -131.5t-115.5 -35.5h-24v126h8q37 0 49 42q17 56 17 332h404v-500z" />
    <glyph glyph-name="uni043C" unicode="&#x43c;" horiz-adv-x="763" 
d="M456 0h-156l-110 417v-417h-130v500h238l85 -379l84 379h236v-500h-137v420z" />
    <glyph glyph-name="uni043D" unicode="&#x43d;" horiz-adv-x="590" 
d="M205 0h-145v500h145v-190h180v190h145v-500h-145v191h-180v-191z" />
    <glyph glyph-name="uni043E" unicode="&#x43e;" horiz-adv-x="580" 
d="M290 -10q-113 0 -186.5 72.5t-73.5 187.5t73.5 187.5t186.5 72.5t186.5 -72.5t73.5 -187.5t-73.5 -187.5t-186.5 -72.5zM290 119q52 0 85.5 36.5t33.5 94.5t-33.5 94.5t-85.5 36.5t-85.5 -36.5t-33.5 -94.5t33.5 -94.5t85.5 -36.5z" />
    <glyph glyph-name="uni043F" unicode="&#x43f;" horiz-adv-x="578" 
d="M205 0h-145v500h458v-500h-146v380h-167v-380z" />
    <glyph glyph-name="uni0440" unicode="&#x440;" horiz-adv-x="615" 
d="M205 -250h-145v750h142v-64q58 74 150 74q103 0 168 -72t65 -188t-65 -188t-168 -72q-88 0 -147 70v-310zM324 119q52 0 85 36t33 95t-33 95t-85 36t-85.5 -36t-33.5 -95t33.5 -95t85.5 -36z" />
    <glyph glyph-name="uni0441" unicode="&#x441;" horiz-adv-x="572" 
d="M393 296q-5 41 -34.5 63t-72.5 22q-50 0 -82 -36.5t-32 -94.5q0 -59 31.5 -95t82.5 -36q43 0 73 25t37 71h146q-5 -101 -76 -163t-180 -62q-111 0 -183.5 73t-72.5 187t72.5 187t183.5 73q105 0 175 -59t80 -155h-148z" />
    <glyph glyph-name="uni0442" unicode="&#x442;" horiz-adv-x="465" 
d="M305 0h-145v380h-145v120h435v-120h-145v-380z" />
    <glyph glyph-name="uni0443" unicode="&#x443;" horiz-adv-x="501" 
d="M335 -22q-34 -118 -89.5 -178t-153.5 -60q-49 0 -85 12v116q39 -11 70 -11q71 0 109 62l-182 581h142l103 -391l106 391h142z" />
    <glyph glyph-name="uni0444" unicode="&#x444;" horiz-adv-x="722" 
d="M290 114v272q-54 -4 -87.5 -40t-33.5 -96t33.5 -96t87.5 -40zM432 386v-272q54 4 88 40t34 96t-34 96t-88 40zM432 -250h-142v240q-113 5 -186.5 76t-73.5 184t73.5 184t186.5 76v240h142v-240q113 -5 186.5 -76t73.5 -184t-73.5 -184t-186.5 -76v-240z" />
    <glyph glyph-name="uni0445" unicode="&#x445;" horiz-adv-x="520" 
d="M162 0h-162l165 258l-156 242h160l94 -160l88 160h160l-157 -243l166 -257h-162l-102 172z" />
    <glyph glyph-name="uni0446" unicode="&#x446;" horiz-adv-x="606" 
d="M205 500v-380h167v380h146v-380h67v-255h-129v135h-396v500h145z" />
    <glyph glyph-name="uni0447" unicode="&#x447;" horiz-adv-x="555" 
d="M350 292v208h145v-500h-145v174q-39 -9 -94 -9q-117 0 -169 50t-52 163v122h145v-121q0 -51 24 -72.5t74 -21.5q42 0 72 7z" />
    <glyph glyph-name="uni0448" unicode="&#x448;" horiz-adv-x="840" 
d="M212 500v-380h136v380h144v-380h143v380h145v-500h-720v500h152z" />
    <glyph glyph-name="uni0449" unicode="&#x449;" horiz-adv-x="869" 
d="M212 500v-380h136v380h144v-380h143v380h145v-380h68v-255h-129v135h-659v500h152z" />
    <glyph glyph-name="uni044A" unicode="&#x44a;" horiz-adv-x="598" 
d="M15 380v120h265v-157h93q92 0 145.5 -46t53.5 -122q0 -81 -51 -128t-147 -47h-236v380h-123zM350 237h-70v-131h70q80 0 80 67q0 64 -80 64z" />
    <glyph glyph-name="uni044B" unicode="&#x44b;" horiz-adv-x="756" 
d="M494 175q0 -81 -51 -128t-147 -47h-236v500h142v-157h93q92 0 145.5 -46t53.5 -122zM697 0h-145v500h145v-500zM272 237h-70v-131h70q80 0 80 67q0 64 -80 64z" />
    <glyph glyph-name="uni044C" unicode="&#x44c;" horiz-adv-x="521" 
d="M494 175q0 -81 -51 -128t-147 -47h-236v500h142v-157h93q92 0 145.5 -46t53.5 -122zM272 237h-70v-131h70q80 0 80 67q0 64 -80 64z" />
    <glyph glyph-name="uni044D" unicode="&#x44d;" horiz-adv-x="571" 
d="M177 296h-146q9 96 79 155t176 59q110 0 183 -73t73 -187t-73 -187t-183 -73q-109 0 -180.5 62t-75.5 163h144q12 -98 112 -98q90 0 111 88h-171v90h171q-10 43 -39.5 65.5t-71.5 22.5q-100 0 -109 -87z" />
    <glyph glyph-name="uni044E" unicode="&#x44e;" horiz-adv-x="810" 
d="M205 0h-145v500h145v-190h63q19 91 88 145.5t165 54.5q113 0 186 -72.5t73 -187.5t-73 -187.5t-186 -72.5q-96 0 -165.5 55t-87.5 146h-63v-191zM521 119q51 0 84.5 36.5t33.5 94.5t-33.5 94.5t-84.5 36.5t-84 -36.5t-33 -94.5t33 -94.5t84 -36.5z" />
    <glyph glyph-name="uni044F" unicode="&#x44f;" horiz-adv-x="555" 
d="M64 338q0 81 53 121.5t137 40.5h241v-500h-143v216l-162 -216h-161l151 190q-52 14 -84 52.5t-32 95.5zM289 270h63v132h-63q-83 0 -83 -65q0 -67 83 -67z" />
    <glyph glyph-name="uni0451" unicode="&#x451;" horiz-adv-x="566" 
d="M181 605q-29 0 -49.5 20.5t-20.5 49.5t20.5 49.5t49.5 20.5t49.5 -20.5t20.5 -49.5t-20.5 -49.5t-49.5 -20.5zM385 605q-29 0 -49.5 20.5t-20.5 49.5t20.5 49.5t49.5 20.5q30 0 50 -20.5t20 -49.5t-20 -49.5t-50 -20.5zM534 210h-365q17 -102 118 -102q69 0 90 50h147
q-23 -82 -85.5 -125t-155.5 -43q-111 0 -182 73t-71 187t71 187t182 73t182 -73t71 -187q0 -14 -2 -40zM283 391q-95 0 -113 -96h226q-18 96 -113 96z" />
    <glyph glyph-name="uni0452" unicode="&#x452;" horiz-adv-x="585" 
d="M346 -252q-44 0 -64 5v121q16 -4 38 -4q33 0 49 14t16 50v342q0 56 -23.5 85t-66.5 29t-66.5 -29t-23.5 -85v-276h-145v591h-60v80h60v79h145v-79h124v-80h-124v-159q48 78 143 78q81 0 131.5 -52t50.5 -149v-379q0 -182 -184 -182z" />
    <glyph glyph-name="uni0453" unicode="&#x453;" horiz-adv-x="428" 
d="M275 600h-114l57 150h150zM202 0h-142v500h351v-120h-209v-380z" />
    <glyph glyph-name="uni0454" unicode="&#x454;" horiz-adv-x="572" 
d="M395 296q-12 87 -109 87q-91 0 -111 -89h171v-90h-171q21 -87 111 -87q95 0 112 98h144q-5 -101 -76 -163t-180 -62q-111 0 -183.5 73t-72.5 187t72.5 187t183.5 73q105 0 175 -59t80 -155h-146z" />
    <glyph glyph-name="uni0455" unicode="&#x455;" horiz-adv-x="504" 
d="M472 148q0 -73 -59.5 -115.5t-152.5 -42.5q-100 0 -164 47t-64 128h140q0 -35 24 -54t63 -19q71 0 71 48q0 23 -21.5 36t-53.5 17.5t-69 14t-69 22.5t-53.5 45.5t-21.5 80.5q0 70 57.5 112t145.5 42q93 0 155 -48.5t62 -120.5h-140q0 29 -21.5 48t-54.5 19q-30 0 -48 -12
t-18 -34q0 -20 21.5 -32t54 -16.5t70.5 -14t70.5 -23.5t54 -46.5t21.5 -81.5z" />
    <glyph glyph-name="uni0456" unicode="&#x456;" horiz-adv-x="265" 
d="M132 587q-37 0 -61.5 24.5t-24.5 59.5t24.5 59t61.5 24q38 0 62.5 -23.5t24.5 -59.5t-24.5 -60t-62.5 -24zM205 0h-145v500h145v-500z" />
    <glyph glyph-name="uni0457" unicode="&#x457;" horiz-adv-x="265" 
d="M67 586q-30 0 -47.5 24t-17.5 62q0 37 17.5 60t47.5 23t48 -23t18 -60q0 -38 -18 -62t-48 -24zM213 586q-30 0 -48 24t-18 62q0 36 18 59.5t48 23.5t47.5 -23t17.5 -60q0 -38 -17.5 -62t-47.5 -24zM205 0h-145v500h145v-500z" />
    <glyph glyph-name="uni0458" unicode="&#x458;" horiz-adv-x="265" 
d="M132 587q-37 0 -61.5 24.5t-24.5 59.5t24.5 59t61.5 24q38 0 62.5 -23.5t24.5 -59.5t-24.5 -60t-62.5 -24zM60 -66v566h145v-570q0 -182 -184 -182q-43 0 -63 5v121q16 -4 37 -4q33 0 49 14t16 50z" />
    <glyph glyph-name="uni0459" unicode="&#x459;" horiz-adv-x="799" 
d="M94 500h387v-157h93q92 0 145.5 -46t53.5 -122q0 -80 -51.5 -127.5t-146.5 -47.5h-237v380h-113q-3 -147 -13 -214q-14 -96 -52 -131t-116 -35h-24v126h8q37 0 49 42q17 56 17 332zM551 237h-70v-131h70q79 0 79 67q0 64 -79 64z" />
    <glyph glyph-name="uni045A" unicode="&#x45a;" horiz-adv-x="816" 
d="M205 0h-145v500h145v-168h150v168h143v-168h100q91 0 141.5 -44t50.5 -118q0 -78 -49.5 -124t-140.5 -46h-245v213h-150v-213zM576 227h-78v-121h78q71 0 71 62q0 59 -71 59z" />
    <glyph glyph-name="uni045B" unicode="&#x45b;" horiz-adv-x="585" 
d="M385 276q0 56 -23.5 85t-66.5 29t-66.5 -29t-23.5 -85v-276h-145v591h-60v80h60v79h145v-79h124v-80h-124v-158q47 77 143 77q81 0 131.5 -52t50.5 -149v-309h-145v276z" />
    <glyph glyph-name="uni045C" unicode="&#x45c;" horiz-adv-x="565" 
d="M342 600h-114l57 150h150zM205 500v-216l165 216h176l-192 -226l204 -274h-172l-181 262v-262h-145v500h145z" />
    <glyph glyph-name="uni045E" unicode="&#x45e;" horiz-adv-x="501" 
d="M300 750h103q0 -71 -43 -111.5t-117 -40.5q-73 0 -115.5 40t-42.5 112h102q0 -30 16 -45t40 -15q57 0 57 60zM335 -22q-34 -118 -89.5 -178t-153.5 -60q-49 0 -85 12v116q39 -11 70 -11q71 0 109 62l-182 581h142l103 -391l106 391h142z" />
    <glyph glyph-name="uni045F" unicode="&#x45f;" horiz-adv-x="578" 
d="M205 500v-380h167v380h146v-500h-164v-135h-129v135h-165v500h145z" />
    <glyph glyph-name="uni0490" unicode="&#x490;" horiz-adv-x="434" 
d="M204 0h-144v750h219v135h131v-263h-206v-622z" />
    <glyph glyph-name="uni0491" unicode="&#x491;" horiz-adv-x="428" 
d="M202 0h-142v500h222v135h129v-255h-209v-380z" />
    <glyph glyph-name="uni0492" unicode="&#x492;" horiz-adv-x="434" 
d="M204 0h-144v335h-60v93h60v322h350v-128h-206v-194h93v-93h-93v-335z" />
    <glyph glyph-name="uni0493" unicode="&#x493;" horiz-adv-x="428" 
d="M202 0h-142v192h-48v88h48v220h351v-120h-209v-100h116v-88h-116v-192z" />
    <glyph glyph-name="uni0496" unicode="&#x496;" horiz-adv-x="758" 
d="M633 -135v135h-51l-139 363v-363h-142v363l-139 -363h-162l165 392l-161 358h155l142 -361v361h142v-361l142 361h151l-161 -358l111 -264h70v-263h-123z" />
    <glyph glyph-name="uni0497" unicode="&#x497;" horiz-adv-x="828" 
d="M487 500v-214l149 214h173l-175 -225l105 -155h87v-255h-128v135h-44l-167 261v-261h-143v260l-166 -260h-170l189 274l-180 226h178l149 -213v213h143z" />
    <glyph glyph-name="uni049A" unicode="&#x49a;" horiz-adv-x="536" 
d="M403 -135v135h-45l-154 362v-362h-144v750h144v-360l156 360h154l-172 -354l122 -268h70v-263h-131z" />
    <glyph glyph-name="uni049B" unicode="&#x49b;" horiz-adv-x="562" 
d="M205 500v-216l165 216h176l-192 -226l115 -154h92v-255h-129v135h-46l-181 262v-262h-145v500h145z" />
    <glyph glyph-name="uni04A2" unicode="&#x4a2;" horiz-adv-x="619" 
d="M205 0h-145v750h145v-301h180v301h145v-622h68v-263h-132v135h-81v321h-180v-321z" />
    <glyph glyph-name="uni04A3" unicode="&#x4a3;" horiz-adv-x="619" 
d="M205 0h-145v500h145v-190h180v190h145v-380h68v-255h-129v135h-84v191h-180v-191z" />
    <glyph glyph-name="uni04AE" unicode="&#x4ae;" horiz-adv-x="480" 
d="M312 0h-144v272l-168 478h141l99 -310l99 310h141l-168 -478v-272z" />
    <glyph glyph-name="uni04AF" unicode="&#x4af;" horiz-adv-x="500" 
d="M322 0v-250h-144v250l-170 500h145l97 -339l97 339h145z" />
    <glyph glyph-name="uni04B0" unicode="&#x4b0;" horiz-adv-x="480" 
d="M60 192v92h104l-164 466h141l99 -310l99 310h141l-164 -466h104v-92h-108v-192h-144v192h-108z" />
    <glyph glyph-name="uni04B1" unicode="&#x4b1;" horiz-adv-x="500" 
d="M55 0h123l-170 500h145l97 -339l97 339h145l-170 -500h123v-88h-123v-162h-144v162h-123v88z" />
    <glyph glyph-name="uni04B2" unicode="&#x4b2;" horiz-adv-x="511" 
d="M386 -135v135h-47l-94 285l-94 -285h-151l154 385l-145 365h150l86 -269l86 269h150l-145 -365l103 -257h71v-263h-124z" />
    <glyph glyph-name="uni04B3" unicode="&#x4b3;" horiz-adv-x="527" 
d="M162 0h-162l165 258l-156 242h160l94 -160l88 160h160l-157 -243l88 -137h84v-255h-129v135h-39l-102 172z" />
    <glyph glyph-name="uni04BA" unicode="&#x4ba;" horiz-adv-x="570" 
d="M205 334v-334h-145v750h145v-290q40 9 92 9q114 0 168.5 -53.5t54.5 -174.5v-241h-145v236q0 59 -25.5 81.5t-78.5 22.5q-42 0 -66 -6z" />
    <glyph glyph-name="uni04BB" unicode="&#x4bb;" horiz-adv-x="585" 
d="M385 276q0 56 -23.5 85t-66.5 29t-66.5 -29t-23.5 -85v-276h-145v750h145v-317q47 77 143 77q81 0 131.5 -52t50.5 -149v-309h-145v276z" />
    <glyph glyph-name="uni04C0" unicode="&#x4c0;" horiz-adv-x="265" 
d="M205 0h-145v750h145v-750z" />
    <glyph glyph-name="uni04CF" unicode="&#x4cf;" horiz-adv-x="265" 
d="M205 0h-145v750h145v-750z" />
    <glyph glyph-name="uni04D8" unicode="&#x4d8;" horiz-adv-x="570" 
d="M285 -12q-112 0 -173.5 66t-61.5 194v152h325v105q0 70 -23 100t-67 30t-67 -30t-23 -100v-44h-145v41q0 128 61.5 194t173.5 66t173.5 -66t61.5 -194v-254q0 -128 -61.5 -194t-173.5 -66zM195 245q0 -71 22.5 -100.5t67.5 -29.5q44 0 67 30t23 100v33h-180v-33z" />
    <glyph glyph-name="uni04D9" unicode="&#x4d9;" horiz-adv-x="566" 
d="M32 290h365q-17 102 -118 102q-69 0 -90 -50h-147q23 82 85.5 125t155.5 43q111 0 182 -73t71 -187t-71 -187t-182 -73t-182 73t-71 187q0 14 2 40zM283 109q95 0 113 96h-226q18 -96 113 -96z" />
    <glyph glyph-name="uni04E8" unicode="&#x4e8;" horiz-adv-x="570" 
d="M285 -12q-112 0 -173.5 66t-61.5 194v254q0 128 61.5 194t173.5 66t173.5 -66t61.5 -194v-254q0 -128 -61.5 -194t-173.5 -66zM190 510v-68h190v68q0 70 -24 100t-71 30t-71 -30t-24 -100zM285 110q47 0 71 30t24 100v84h-190v-84q0 -71 24 -100.5t71 -29.5z" />
    <glyph glyph-name="uni04E9" unicode="&#x4e9;" horiz-adv-x="580" 
d="M290 -10q-113 0 -186.5 72.5t-73.5 187.5t73.5 187.5t186.5 72.5t186.5 -72.5t73.5 -187.5t-73.5 -187.5t-186.5 -72.5zM290 390q-44 0 -76.5 -26t-44.5 -70h241q-12 44 -44 70t-76 26zM290 110q44 0 76 26t44 70h-241q12 -44 44.5 -70t76.5 -26z" />
    <glyph glyph-name="uni0E3F" unicode="&#xe3f;" 
d="M307 -125h-70v125h-177v750h177v125h70v-126q87 -5 138 -53t51 -132v-10q0 -103 -90 -147q52 -22 82 -66t30 -107v-20q0 -102 -57.5 -158t-153.5 -56v-125zM237 626h-45v-172h45v172zM364 551q0 62 -57 73v-167q57 11 57 82v12zM237 331h-45v-207h45v207zM380 238
q0 87 -73 93v-207q73 6 73 102v12z" />
    <glyph glyph-name="uni1E80" unicode="&#x1e80;" horiz-adv-x="750" 
d="M321 820l-93 150h150l57 -150h-114zM305 0h-206l-91 750h137l62 -620l71 620h192l73 -617l62 617h137l-91 -750h-205l-71 626z" />
    <glyph glyph-name="uni1E81" unicode="&#x1e81;" horiz-adv-x="765" 
d="M328 600l-93 150h150l57 -150h-114zM306 0h-182l-112 500h132l76 -390l76 390h173l76 -390l76 390h132l-112 -500h-182l-76 392z" />
    <glyph glyph-name="uni1E82" unicode="&#x1e82;" horiz-adv-x="750" 
d="M426 820h-114l57 150h150zM305 0h-206l-91 750h137l62 -620l71 620h192l73 -617l62 617h137l-91 -750h-205l-71 626z" />
    <glyph glyph-name="uni1E83" unicode="&#x1e83;" horiz-adv-x="765" 
d="M432 600h-114l57 150h150zM306 0h-182l-112 500h132l76 -390l76 390h173l76 -390l76 390h132l-112 -500h-182l-76 392z" />
    <glyph glyph-name="uni1E84" unicode="&#x1e84;" horiz-adv-x="750" 
d="M272 825q-28 0 -49 20.5t-21 49.5t20.5 49.5t49.5 20.5t49.5 -20.5t20.5 -49.5t-20.5 -49.5t-49.5 -20.5zM476 825q-29 0 -49.5 20.5t-20.5 49.5t21 49.5t49 20.5q30 0 50 -20.5t20 -49.5t-20 -49.5t-50 -20.5zM305 0h-206l-91 750h137l62 -620l71 620h192l73 -617
l62 617h137l-91 -750h-205l-71 626z" />
    <glyph glyph-name="uni1E85" unicode="&#x1e85;" horiz-adv-x="765" 
d="M278 605q-28 0 -49 20.5t-21 49.5t20.5 49.5t49.5 20.5t49.5 -20.5t20.5 -49.5t-20.5 -49.5t-49.5 -20.5zM482 605q-29 0 -49.5 20.5t-20.5 49.5t21 49.5t49 20.5q30 0 50 -20.5t20 -49.5t-20 -49.5t-50 -20.5zM306 0h-182l-112 500h132l76 -390l76 390h173l76 -390
l76 390h132l-112 -500h-182l-76 392z" />
    <glyph glyph-name="uni1EF2" unicode="&#x1ef2;" horiz-adv-x="480" 
d="M187 820l-93 150h150l57 -150h-114zM312 0h-144v272l-168 478h141l99 -310l99 310h141l-168 -478v-272z" />
    <glyph glyph-name="uni1EF3" unicode="&#x1ef3;" horiz-adv-x="501" 
d="M206 600l-93 150h150l57 -150h-114zM335 -22q-34 -118 -89.5 -178t-153.5 -60q-49 0 -85 12v116q39 -11 70 -11q71 0 109 62l-182 581h142l103 -391l106 391h142z" />
    <glyph glyph-name="uni2009" unicode="&#x2009;" horiz-adv-x="125" 
 />
    <glyph glyph-name="uni2010" unicode="&#x2010;" horiz-adv-x="350" 
d="M305 215h-260v123h260v-123z" />
    <glyph glyph-name="uni2013" unicode="&#x2013;" horiz-adv-x="500" 
d="M455 229h-410v92h410v-92z" />
    <glyph glyph-name="uni2014" unicode="&#x2014;" horiz-adv-x="1000" 
d="M955 229h-910v92h910v-92z" />
    <glyph glyph-name="uni2015" unicode="&#x2015;" horiz-adv-x="1000" 
d="M955 229h-910v92h910v-92z" />
    <glyph glyph-name="uni2018" unicode="&#x2018;" horiz-adv-x="218" 
d="M188 542q0 -32 -23 -54.5t-55 -22.5q-35 0 -58.5 25t-23.5 64q0 80 83 196h73q-48 -74 -66 -130q29 -4 49.5 -26.5t20.5 -51.5z" />
    <glyph glyph-name="uni2019" unicode="&#x2019;" horiz-adv-x="218" 
d="M190 671q0 -80 -83 -196h-73q48 74 66 130q-29 4 -49.5 26.5t-20.5 51.5q0 32 23 54.5t55 22.5q35 0 58.5 -25t23.5 -64z" />
    <glyph glyph-name="uni201A" unicode="&#x201a;" horiz-adv-x="218" 
d="M190 56q0 -80 -83 -196h-73q48 74 66 130q-29 4 -49.5 26.5t-20.5 51.5q0 32 23 54.5t55 22.5q35 0 58.5 -25t23.5 -64z" />
    <glyph glyph-name="uni201C" unicode="&#x201c;" horiz-adv-x="418" 
d="M188 542q0 -32 -23 -54.5t-55 -22.5q-35 0 -58.5 25t-23.5 64q0 80 83 196h73q-48 -74 -66 -130q29 -4 49.5 -26.5t20.5 -51.5zM388 542q0 -32 -23 -54.5t-55 -22.5q-35 0 -58.5 25t-23.5 64q0 80 83 196h73q-48 -74 -66 -130q29 -4 49.5 -26.5t20.5 -51.5z" />
    <glyph glyph-name="uni201D" unicode="&#x201d;" horiz-adv-x="418" 
d="M190 671q0 -80 -83 -196h-73q48 74 66 130q-29 4 -49.5 26.5t-20.5 51.5q0 32 23 54.5t55 22.5q35 0 58.5 -25t23.5 -64zM390 671q0 -80 -83 -196h-73q48 74 66 130q-29 4 -49.5 26.5t-20.5 51.5q0 32 23 54.5t55 22.5q35 0 58.5 -25t23.5 -64z" />
    <glyph glyph-name="uni201E" unicode="&#x201e;" horiz-adv-x="418" 
d="M390 56q0 -80 -83 -196h-73q48 74 66 130q-29 4 -49.5 26.5t-20.5 51.5q0 32 23 54.5t55 22.5q35 0 58.5 -25t23.5 -64zM190 56q0 -80 -83 -196h-73q48 74 66 130q-29 4 -49.5 26.5t-20.5 51.5q0 32 23 54.5t55 22.5q35 0 58.5 -25t23.5 -64z" />
    <glyph glyph-name="uni2020" unicode="&#x2020;" horiz-adv-x="330" 
d="M220 0h-110v500h-92v95h92v155h110v-155h92v-95h-92v-500z" />
    <glyph glyph-name="uni2021" unicode="&#x2021;" horiz-adv-x="330" 
d="M220 0h-110v155h-92v95h92v250h-92v95h92v155h110v-155h92v-95h-92v-250h92v-95h-92v-155z" />
    <glyph glyph-name="uni2022" unicode="&#x2022;" horiz-adv-x="338" 
d="M169 181q-52 0 -88 36t-36 87t36 87.5t88 36.5q50 0 86.5 -36.5t36.5 -87.5t-36.5 -87t-86.5 -36z" />
    <glyph glyph-name="uni2026" unicode="&#x2026;" horiz-adv-x="664" 
d="M116 -10q-32 0 -54.5 23t-22.5 55t22.5 54.5t54.5 22.5q33 0 55.5 -22.5t22.5 -54.5t-22.5 -55t-55.5 -23zM332 -10q-32 0 -55 23t-23 55t23 54.5t55 22.5q33 0 55.5 -22.5t22.5 -54.5t-22.5 -55t-55.5 -23zM548 -10q-33 0 -55.5 23t-22.5 55t22.5 54.5t55.5 22.5
q32 0 54.5 -22.5t22.5 -54.5t-22.5 -55t-54.5 -23z" />
    <glyph glyph-name="uni2030" unicode="&#x2030;" horiz-adv-x="1165" 
d="M179 355q-72 0 -115 50.5t-43 149.5t43.5 150t114.5 51t114 -51t43 -150q0 -100 -42.5 -150t-114.5 -50zM103 0l520 750h80l-520 -750h-80zM179 448q52 0 52 107q0 112 -52 112q-53 0 -53 -112q0 -107 53 -107zM627 -6q-72 0 -115 50.5t-43 149.5t43.5 150t114.5 51
t114 -51t43 -150q0 -100 -42.5 -150t-114.5 -50zM986 -6q-72 0 -115 50.5t-43 149.5t43.5 150t114.5 51t114 -51t43 -150q0 -100 -42.5 -150t-114.5 -50zM627 87q52 0 52 107q0 112 -52 112q-53 0 -53 -112q0 -107 53 -107zM986 87q52 0 52 107q0 112 -52 112
q-53 0 -53 -112q0 -107 53 -107z" />
    <glyph glyph-name="uni2039" unicode="&#x2039;" horiz-adv-x="310" 
d="M42 188v134l226 146v-128l-146 -85l146 -85v-128z" />
    <glyph glyph-name="uni203A" unicode="&#x203a;" horiz-adv-x="310" 
d="M268 322v-134l-226 -146v128l146 85l-146 85v128z" />
    <glyph glyph-name="uni2044" unicode="&#x2044;" horiz-adv-x="90" 
d="M-255 0l520 750h80l-520 -750h-80z" />
    <glyph glyph-name="uni2070" unicode="&#x2070;" horiz-adv-x="358" 
d="M179 256q-72 0 -115 50.5t-43 149.5t43.5 150t114.5 51t114 -51t43 -150q0 -100 -42.5 -150t-114.5 -50zM179 349q52 0 52 107q0 112 -52 112q-53 0 -53 -112q0 -107 53 -107z" />
    <glyph glyph-name="uni2071" unicode="&#x2071;" horiz-adv-x="175" 
d="M88 636q-27 0 -45 17.5t-18 42.5t18 42t45 17t44.5 -17t17.5 -42t-17.5 -42.5t-44.5 -17.5zM143 262h-109v326h109v-326z" />
    <glyph glyph-name="uni2074" unicode="&#x2074;" horiz-adv-x="345" 
d="M282 263h-101v66h-171v80l116 242h156v-239h59v-83h-59v-66zM102 412h79v169z" />
    <glyph glyph-name="uni2075" unicode="&#x2075;" horiz-adv-x="341" 
d="M174 452q-18 0 -30.5 -7.5t-14.5 -17.5h-97v224h276v-85h-186v-71q26 32 76 32q56 0 94 -36.5t38 -95.5q0 -62 -42.5 -100.5t-109.5 -38.5q-69 0 -111 36.5t-42 94.5h102q0 -21 13.5 -34t37.5 -13q22 0 36 15.5t14 39.5q0 25 -14 41t-40 16z" />
    <glyph glyph-name="uni2076" unicode="&#x2076;" horiz-adv-x="348" 
d="M331 384q0 -61 -41 -94.5t-105 -33.5q-73 0 -118.5 49.5t-45.5 151.5q0 99 47.5 149.5t116.5 50.5q60 0 101 -35t41 -89h-96q-1 18 -12.5 29.5t-32.5 11.5q-28 0 -45.5 -26.5t-17.5 -78.5q27 43 85 43q50 0 86.5 -32t36.5 -96zM185 336q21 0 34.5 13.5t13.5 34.5
t-14 34.5t-34 13.5t-33.5 -13.5t-13.5 -34.5t13.5 -34.5t33.5 -13.5z" />
    <glyph glyph-name="uni2077" unicode="&#x2077;" horiz-adv-x="277" 
d="M174 286v-23h-108v21q0 85 31.5 149.5t87.5 130.5h-181v87h267v-113q-54 -71 -75.5 -120t-21.5 -132z" />
    <glyph glyph-name="uni2078" unicode="&#x2078;" horiz-adv-x="345" 
d="M172 256q-71 0 -111.5 32.5t-40.5 88.5q0 57 54 91q-42 31 -42 78q0 51 37.5 81t102.5 30q66 0 103.5 -30t37.5 -81q0 -47 -43 -78q54 -34 54 -91q0 -56 -40.5 -88.5t-111.5 -32.5zM172 502q18 0 29 10.5t11 27.5t-11 27t-29 10t-28.5 -10t-10.5 -27t10.5 -27.5
t28.5 -10.5zM172 336q24 0 37.5 13t13.5 34t-13.5 34t-37.5 13q-23 0 -36.5 -13t-13.5 -34t13.5 -34t36.5 -13z" />
    <glyph glyph-name="uni2079" unicode="&#x2079;" horiz-adv-x="348" 
d="M327 455q0 -98 -47.5 -148.5t-116.5 -50.5q-60 0 -101 35t-41 88h96q1 -18 13 -29t32 -11q29 0 46 26.5t17 78.5q-27 -44 -85 -44q-50 0 -86.5 32.5t-36.5 95.5q0 61 41.5 95t104.5 34q73 0 118.5 -49.5t45.5 -152.5zM163 576q-20 0 -34 -13.5t-14 -34.5t13.5 -34
t34.5 -13q20 0 33.5 13t13.5 34t-13.5 34.5t-33.5 13.5z" />
    <glyph glyph-name="uni207A" unicode="&#x207a;" horiz-adv-x="325" 
d="M129 321v103h-96v64h96v103h67v-103h97v-64h-97v-103h-67z" />
    <glyph glyph-name="uni207B" unicode="&#x207b;" horiz-adv-x="325" 
d="M33 424v64h260v-64h-260z" />
    <glyph glyph-name="uni207C" unicode="&#x207c;" horiz-adv-x="325" 
d="M33 489v65h260v-65h-260zM33 359v65h260v-65h-260z" />
    <glyph glyph-name="uni207D" unicode="&#x207d;" horiz-adv-x="221" 
d="M43 447q0 168 97 303h82q-91 -126 -91 -303t91 -302h-82q-97 134 -97 302z" />
    <glyph glyph-name="uni207E" unicode="&#x207e;" horiz-adv-x="221" 
d="M178 447q0 -168 -97 -302h-82q91 125 91 302t-91 303h82q97 -135 97 -303z" />
    <glyph glyph-name="uni207F" unicode="&#x207f;" horiz-adv-x="380" 
d="M241 442q0 65 -49 65t-49 -65v-180h-109v326h106v-46q30 52 94 52q52 0 84 -32.5t32 -92.5v-207h-109v180z" />
    <glyph glyph-name="uni2080" unicode="&#x2080;" horiz-adv-x="358" 
d="M179 -256q-72 0 -115 50.5t-43 149.5t43.5 150t114.5 51t114 -51t43 -150q0 -100 -42.5 -150t-114.5 -50zM179 -163q52 0 52 107q0 112 -52 112q-53 0 -53 -112q0 -107 53 -107z" />
    <glyph glyph-name="uni2081" unicode="&#x2081;" horiz-adv-x="220" 
d="M85 133v6h106v-388h-109v241h-72v82h18q30 0 43.5 14t13.5 45z" />
    <glyph glyph-name="uni2082" unicode="&#x2082;" horiz-adv-x="316" 
d="M300 25q0 -41 -31.5 -76.5t-72 -65.5t-50.5 -47h156v-85h-285v34q0 35 19 66.5t45.5 53.5t53.5 41t46 38.5t19 36.5t-11 27.5t-29 10.5q-43 0 -43 -46v-13h-99v21q0 59 40 91.5t102 32.5q60 0 100 -31.5t40 -88.5z" />
    <glyph glyph-name="uni2083" unicode="&#x2083;" horiz-adv-x="345" 
d="M118 -124q0 -23 15.5 -36t40.5 -13q22 0 36 11.5t14 29.5q0 42 -53 42h-38v78h38q43 0 43 36q0 16 -12.5 25.5t-32.5 9.5q-21 0 -33 -11t-12 -32h-100q0 61 39 95t109 34q66 0 106 -31t40 -81q0 -53 -47 -80q57 -30 57 -91q0 -55 -41 -86.5t-109 -31.5q-73 0 -117.5 35.5
t-44.5 96.5h102z" />
    <glyph glyph-name="uni2084" unicode="&#x2084;" horiz-adv-x="345" 
d="M10 -103l116 242h156v-239h59v-83h-59v-66h-101v66h-171v80zM102 -100h79v169z" />
    <glyph glyph-name="uni2085" unicode="&#x2085;" horiz-adv-x="341" 
d="M122 54v-71q26 32 76 32q56 0 94 -36.5t38 -95.5q0 -62 -42.5 -100.5t-109.5 -38.5q-69 0 -111 36.5t-42 94.5h102q0 -21 13.5 -34t37.5 -13q22 0 36 15.5t14 39.5q0 25 -14 41t-40 16q-18 0 -30.5 -7.5t-14.5 -17.5h-97v224h276v-85h-186z" />
    <glyph glyph-name="uni2086" unicode="&#x2086;" horiz-adv-x="348" 
d="M331 -128q0 -61 -41 -94.5t-105 -33.5q-73 0 -118.5 49.5t-45.5 151.5q0 99 47.5 149.5t116.5 50.5q60 0 101 -35t41 -89h-96q-1 18 -12.5 29.5t-32.5 11.5q-28 0 -45.5 -26.5t-17.5 -78.5q27 43 85 43q50 0 86.5 -32t36.5 -96zM185 -176q21 0 34.5 13.5t13.5 34.5
t-14 34.5t-34 13.5t-33.5 -13.5t-13.5 -34.5t13.5 -34.5t33.5 -13.5z" />
    <glyph glyph-name="uni2087" unicode="&#x2087;" horiz-adv-x="277" 
d="M174 -226v-23h-108v21q0 85 31.5 149.5t87.5 130.5h-181v87h267v-113q-54 -71 -75.5 -120t-21.5 -132z" />
    <glyph glyph-name="uni2088" unicode="&#x2088;" horiz-adv-x="345" 
d="M172 -256q-71 0 -111.5 32.5t-40.5 88.5q0 57 54 91q-42 31 -42 78q0 51 37.5 81t102.5 30q66 0 103.5 -30t37.5 -81q0 -47 -43 -78q54 -34 54 -91q0 -56 -40.5 -88.5t-111.5 -32.5zM172 -10q18 0 29 10.5t11 27.5t-11 27t-29 10t-28.5 -10t-10.5 -27t10.5 -27.5
t28.5 -10.5zM172 -176q24 0 37.5 13t13.5 34t-13.5 34t-37.5 13q-23 0 -36.5 -13t-13.5 -34t13.5 -34t36.5 -13z" />
    <glyph glyph-name="uni2089" unicode="&#x2089;" horiz-adv-x="348" 
d="M327 -57q0 -98 -47.5 -148.5t-116.5 -50.5q-60 0 -101 35t-41 88h96q1 -18 13 -29t32 -11q29 0 46 26.5t17 78.5q-27 -44 -85 -44q-50 0 -86.5 32.5t-36.5 95.5q0 61 41.5 95t104.5 34q73 0 118.5 -49.5t45.5 -152.5zM163 64q-20 0 -34 -13.5t-14 -34.5t13.5 -34
t34.5 -13q20 0 33.5 13t13.5 34t-13.5 34.5t-33.5 13.5z" />
    <glyph glyph-name="uni208D" unicode="&#x208d;" horiz-adv-x="221" 
d="M43 -65q0 168 97 303h82q-91 -126 -91 -303t91 -302h-82q-97 134 -97 302z" />
    <glyph glyph-name="uni208E" unicode="&#x208e;" horiz-adv-x="221" 
d="M178 -65q0 -168 -97 -302h-82q91 125 91 302t-91 303h82q97 -135 97 -303z" />
    <glyph glyph-name="uni20A8" unicode="&#x20a8;" 
d="M122 0h-107v750h121q74 0 119 -44.5t45 -125.5v-34q0 -112 -76 -148l65 -398h-115l-52 381v-381zM126 628h-4v-165h4q66 0 66 73v18q0 74 -66 74zM540 138q0 -69 -35 -108.5t-89 -39.5q-58 0 -92.5 46.5t-24.5 128.5h81q-9 -73 36 -73q32 0 32 36q0 23 -15.5 40.5
t-37 31.5t-43.5 31.5t-37.5 49t-15.5 74.5q0 72 36 113.5t87 41.5q56 0 88.5 -48t22.5 -122h-80q5 30 -4 49t-28 19q-30 0 -30 -40q0 -23 15.5 -40t37.5 -31t43.5 -31.5t37 -50t15.5 -77.5z" />
    <glyph glyph-name="uni20AC" unicode="&#x20ac;" 
d="M345 322v-77h-120v-7q0 -123 83 -123q82 0 82 111v43h140v-48q0 -111 -61.5 -172t-160.5 -61t-161 63.5t-62 180.5v13h-70v77h70v109h-70v76h70v11q0 117 62 180.5t161 63.5t160.5 -61t61.5 -172v-45h-140v40q0 111 -82 111q-83 0 -83 -123v-5h120v-76h-120v-109h120z
" />
    <glyph glyph-name="uni20B4" unicode="&#x20b4;" 
d="M512 492v-76h-474v76h264q38 35 38 82q0 31 -17 48.5t-45 17.5q-65 0 -65 -80v-24h-139v26q0 98 57 149t147 51t146 -47t56 -144q0 -45 -13 -79h45zM512 337v-77h-275q-33 -35 -33 -81q0 -32 19.5 -50.5t53.5 -18.5q33 0 52.5 22.5t19.5 61.5v22h140v-28q0 -94 -60 -147
t-152 -53t-152.5 53t-60.5 150q0 34 11 69h-37v77h474z" />
    <glyph glyph-name="uni20B8" unicode="&#x20b8;" 
d="M482 750v-76h-414v76h414zM347 0h-145v437h-134v127h414v-127h-135v-437z" />
    <glyph glyph-name="uni20B9" unicode="&#x20b9;" 
d="M511 562v-76h-88q-13 -74 -69.5 -113.5t-140.5 -41.5l245 -331h-166l-253 361v63h155q70 0 84 62h-239v76h241q-11 63 -86 63h-155v125h472v-76h-121q35 -46 36 -112h85z" />
    <glyph glyph-name="uni20BA" unicode="&#x20ba;" 
d="M300 351l-104 -62v-161h78q44 0 67 28t23 94v41h145v-39q0 -124 -61.5 -188t-173.5 -64h-223v203l-53 -32v81l53 32v110l-53 -32v81l53 32v275h145v-189l104 62v-81l-104 -62v-110l104 62v-81z" />
    <glyph glyph-name="uni20BD" unicode="&#x20bd;" 
d="M222 0h-142v133h-55v77h55v100h-55v76h55v364h226q102 0 160.5 -51t58.5 -151v-30q0 -102 -59 -155t-160 -53h-84v-100h179v-77h-179v-133zM298 625h-76v-197h76q43 0 65.5 22t22.5 75v10q0 50 -22 70t-66 20z" />
    <glyph glyph-name="uni20BF" unicode="&#x20bf;" 
d="M60 0v750h90v125h70v-125h64h16v125h70v-137q60 -18 93 -62t33 -112v-10q0 -103 -90 -147q52 -22 82 -66t30 -107v-20q0 -83 -39.5 -136.5t-108.5 -70.5v-132h-70v125h-80v-125h-70v125h-90zM272 625h-70v-170h70q84 0 84 85v10q0 75 -84 75zM288 330h-86v-205h86
q84 0 84 102v10q0 93 -84 93z" />
    <glyph glyph-name="uni2113" unicode="&#x2113;" horiz-adv-x="500" 
d="M416 13q-38 -23 -88 -23q-80 0 -134.5 48.5t-81.5 133.5q-29 -4 -66 -4v110q15 0 43 2q-5 48 -5 90q0 190 49.5 290.5t162.5 100.5q172 0 172 -216q0 -120 -62.5 -209.5t-170.5 -132.5q33 -101 100 -101q40 0 69 18zM212 370q0 -17 2 -49q61 35 95.5 96t34.5 141
q0 82 -51 82q-81 0 -81 -270z" />
    <glyph glyph-name="uni2116" unicode="&#x2116;" 
d="M440 508q-48 0 -76.5 31.5t-28.5 93.5q0 60 28.5 91.5t76.5 31.5q47 0 75.5 -31.5t28.5 -91.5q0 -62 -28 -93.5t-76 -31.5zM180 750l48 -590v590h86v-750h-136l-57 629v-629h-88v750h147zM440 576q37 0 37 57q0 56 -37 56q-38 0 -38 -56q0 -57 38 -57zM343 416v69h195
v-69h-195z" />
    <glyph glyph-name="uni2117" unicode="&#x2117;" horiz-adv-x="830" 
d="M415 -10q-163 0 -271.5 112.5t-108.5 272.5q0 161 108.5 273t271.5 112t271.5 -112t108.5 -273q0 -160 -108.5 -272.5t-271.5 -112.5zM415 702q-136 0 -226.5 -95t-90.5 -232t90 -232t227 -95t227 95t90 232t-90.5 232t-226.5 95zM278 175v400h171q65 0 104 -34t39 -109
q0 -65 -41 -105.5t-102 -40.5h-61v-111h-110zM434 481h-46v-102h46q49 0 49 53q0 49 -49 49z" />
    <glyph glyph-name="uni2120" unicode="&#x2120;" horiz-adv-x="926" 
d="M368 468q0 -59 -45 -93.5t-115 -34.5q-76 0 -124.5 38t-48.5 104h101q0 -26 21 -43t50 -17q25 0 42 12.5t17 30.5q0 21 -23 31t-56 15.5t-66 14.5t-56 36t-23 73q0 57 43.5 91t110.5 34q71 0 118.5 -39.5t47.5 -97.5h-102q0 21 -19 37t-44 16q-23 0 -39 -11t-16 -28
q0 -19 23.5 -28.5t56.5 -14.5t66 -14.5t56.5 -37.5t23.5 -74zM706 350h-120l-71 334v-334h-90v400h171l54 -282l51 282h175v-400h-100v329z" />
    <glyph glyph-name="uni2122" unicode="&#x2122;" horiz-adv-x="926" 
d="M706 350h-120l-71 334v-334h-90v400h171l54 -282l51 282h175v-400h-100v329zM244 350h-102v310h-104v90h311v-90h-105v-310z" />
    <glyph glyph-name="uni2126" unicode="&#x2126;" horiz-adv-x="570" 
d="M50 0v124h72q-72 50 -72 168v210q0 128 61.5 194t173.5 66t173.5 -66t61.5 -194v-210q0 -118 -72 -168h72v-124h-215v136q40 24 55 56.5t15 92.5v220q0 70 -23 100t-67 30t-67 -30t-23 -100v-220q0 -60 15 -92.5t55 -56.5v-136h-215z" />
    <glyph glyph-name="uni212E" unicode="&#x212e;" horiz-adv-x="830" 
d="M173 354v-237q39 -42 102 -67.5t140 -25.5q108 0 192 58.5t122 144.5h37q-42 -103 -137 -170t-214 -67q-169 0 -274.5 106t-105.5 279q0 170 109 277.5t271 107.5q165 0 272.5 -112t107.5 -273q0 -4 -0.5 -10.5t-0.5 -10.5h-621zM173 388h491v231q-37 46 -102.5 76
t-146.5 30q-72 0 -138 -28t-104 -70v-239z" />
    <glyph glyph-name="uni2190" unicode="&#x2190;" 
d="M262 521l64 -64l-109 -109h288v-90h-286l107 -108l-64 -64l-217 218z" />
    <glyph glyph-name="uni2191" unicode="&#x2191;" 
d="M492 293l-64 -64l-109 109v-288h-90v286l-108 -107l-64 64l218 217z" />
    <glyph glyph-name="uni2192" unicode="&#x2192;" 
d="M288 521l217 -217l-217 -218l-64 64l107 108h-286v90h288l-109 109z" />
    <glyph glyph-name="uni2193" unicode="&#x2193;" 
d="M492 207l-217 -217l-218 217l64 64l108 -107v286h90v-288l109 109z" />
    <glyph glyph-name="uni2194" unicode="&#x2194;" horiz-adv-x="862" 
d="M262 521l64 -64l-109 -109h429l-110 109l64 64l218 -217l-218 -218l-64 64l108 108h-425l107 -108l-64 -64l-217 218z" />
    <glyph glyph-name="uni2196" unicode="&#x2196;" 
d="M424 500v-88h-151l203 -203l-68 -67l-201 200v-149h-91v307h308z" />
    <glyph glyph-name="uni2197" unicode="&#x2197;" 
d="M126 500h308v-307h-91v149l-201 -200l-68 67l203 203h-151v88z" />
    <glyph glyph-name="uni2198" unicode="&#x2198;" 
d="M126 0v88h151l-203 203l68 67l201 -200v149h91v-307h-308z" />
    <glyph glyph-name="uni2199" unicode="&#x2199;" 
d="M424 0h-308v307h91v-149l201 200l68 -67l-203 -203h151v-88z" />
    <glyph glyph-name="uni21A9" unicode="&#x21a9;" horiz-adv-x="600" 
d="M262 521l64 -64l-109 -109h248v196h90v-286h-336l107 -108l-64 -64l-217 218z" />
    <glyph glyph-name="uni21AA" unicode="&#x21aa;" horiz-adv-x="600" 
d="M338 521l217 -217l-217 -218l-64 64l107 108h-336v286h90v-196h248l-109 109z" />
    <glyph glyph-name="uni2202" unicode="&#x2202;" horiz-adv-x="575" 
d="M540 332q0 -178 -72 -260t-190 -82q-108 0 -178 67.5t-70 172.5q0 106 65 173t171 67q73 0 122 -44q-12 106 -62 154t-138 48q-27 0 -60 -6v124q38 6 76 6q153 0 244.5 -107.5t91.5 -312.5zM278 115q48 0 79 32t31 83t-31 83t-79 32t-79 -32t-31 -83t31 -83t79 -32z" />
    <glyph glyph-name="uni2206" unicode="&#x2206;" horiz-adv-x="510" 
d="M144 750h222l126 -688v-62h-474v62zM171 125h169l-85 515z" />
    <glyph glyph-name="uni220F" unicode="&#x220f;" horiz-adv-x="590" 
d="M205 -250h-145v1000h470v-1000h-145v872h-180v-872z" />
    <glyph glyph-name="uni2211" unicode="&#x2211;" horiz-adv-x="443" 
d="M370 167l-185 -289h234v-128h-384v158l222 339l-222 345v158h385v-128h-236l186 -289v-166z" />
    <glyph glyph-name="uni2212" unicode="&#x2212;" 
d="M75 258v90h400v-90h-400z" />
    <glyph glyph-name="uni221A" unicode="&#x221a;" horiz-adv-x="500" 
d="M357 0h-214l-135 500h145l97 -400l156 650h144z" />
    <glyph glyph-name="uni221E" unicode="&#x221e;" 
d="M170 177q-56 0 -93 35.5t-37 89.5t37 89.5t93 35.5q74 0 105 -62q31 62 106 62q56 0 92.5 -35.5t36.5 -89.5t-36.5 -89.5t-92.5 -35.5q-75 0 -106 62q-31 -62 -105 -62zM170 252q21 0 35 14t14 36t-14 36t-35 14t-35.5 -14t-14.5 -36t14.5 -36t35.5 -14zM381 252
q22 0 35.5 14t13.5 36t-13.5 36t-35.5 14q-21 0 -35.5 -14t-14.5 -36t14.5 -36t35.5 -14z" />
    <glyph glyph-name="uni222B" unicode="&#x222b;" horiz-adv-x="310" 
d="M29 -252q-44 0 -64 5v121q16 -4 37 -4q33 0 49.5 14t16.5 50v636q0 92 55 141t145 49q42 0 74 -9v-122q-29 9 -55 9q-36 0 -55.5 -18.5t-19.5 -53.5v-636q0 -182 -183 -182z" />
    <glyph glyph-name="uni2248" unicode="&#x2248;" 
d="M201 386q-16 0 -27.5 -11t-11.5 -31v-16h-92v30q0 60 30.5 93t79.5 33q45 0 101 -32t75 -32q14 0 23 11t9 31v16h92v-30q0 -60 -30 -93t-78 -33q-36 0 -90.5 32t-80.5 32zM201 186q-16 0 -27.5 -11t-11.5 -31v-16h-92v30q0 60 30.5 93t79.5 33q45 0 101 -32t75 -32
q14 0 23 11t9 31v16h92v-30q0 -60 -30 -93t-78 -33q-36 0 -90.5 32t-80.5 32z" />
    <glyph glyph-name="uni2260" unicode="&#x2260;" 
d="M75 96l42 62h-42v90h104l75 110h-179v90h241l42 62h117l-42 -62h42v-90h-104l-75 -110h179v-90h-241l-42 -62h-117z" />
    <glyph glyph-name="uni2264" unicode="&#x2264;" 
d="M75 284v88l400 170v-100l-277 -114l277 -114v-100zM75 0v90h400v-90h-400z" />
    <glyph glyph-name="uni2265" unicode="&#x2265;" 
d="M475 284l-400 -170v100l277 114l-277 114v100l400 -170v-88zM475 0h-400v90h400v-90z" />
    <glyph glyph-name="uni2295" unicode="&#x2295;" horiz-adv-x="830" 
d="M415 -10q-143 0 -236.5 94t-93.5 236t93.5 236t236.5 94t236.5 -94t93.5 -236t-93.5 -236t-236.5 -94zM415 568q-104 0 -169.5 -66.5t-65.5 -181.5t65.5 -181.5t169.5 -66.5t169.5 66.5t65.5 181.5t-65.5 181.5t-169.5 66.5zM247 279v82h124v130h88v-130h124v-82h-124
v-130h-88v130h-124z" />
    <glyph glyph-name="uni2296" unicode="&#x2296;" horiz-adv-x="830" 
d="M415 -10q-143 0 -236.5 94t-93.5 236t93.5 236t236.5 94t236.5 -94t93.5 -236t-93.5 -236t-236.5 -94zM415 568q-104 0 -169.5 -66.5t-65.5 -181.5t65.5 -181.5t169.5 -66.5t169.5 66.5t65.5 181.5t-65.5 181.5t-169.5 66.5zM247 279v82h336v-82h-336z" />
    <glyph glyph-name="uni2297" unicode="&#x2297;" horiz-adv-x="830" 
d="M415 -10q-143 0 -236.5 94t-93.5 236t93.5 236t236.5 94t236.5 -94t93.5 -236t-93.5 -236t-236.5 -94zM415 568q-104 0 -169.5 -66.5t-65.5 -181.5t65.5 -181.5t169.5 -66.5t169.5 66.5t65.5 181.5t-65.5 181.5t-169.5 66.5zM324 172l-57 58l90 89l-92 92l59 59l92 -92
l90 90l57 -58l-90 -89l92 -92l-59 -59l-92 92z" />
    <glyph glyph-name="uni2298" unicode="&#x2298;" horiz-adv-x="830" 
d="M415 -10q-143 0 -236.5 94t-93.5 236t93.5 236t236.5 94t236.5 -94t93.5 -236t-93.5 -236t-236.5 -94zM180 320q0 -78 33 -138l344 344q-61 42 -142 42q-104 0 -169.5 -66.5t-65.5 -181.5zM415 72q104 0 169.5 66.5t65.5 181.5q0 79 -33 139l-344 -344q60 -43 142 -43z
" />
    <glyph glyph-name="uni2303" unicode="&#x2303;" horiz-adv-x="736" 
d="M18 110v138l349 391l351 -391v-138l-351 388z" />
    <glyph glyph-name="uni2304" unicode="&#x2304;" horiz-adv-x="736" 
d="M367 110l-349 391v138l349 -388l351 388v-138z" />
    <glyph glyph-name="uni2329" unicode="&#x2329;" horiz-adv-x="736" 
d="M89 369l391 371h138l-388 -371l388 -369h-138z" />
    <glyph glyph-name="uni232A" unicode="&#x232a;" horiz-adv-x="736" 
d="M108 0l388 369l-388 371h138l391 -371l-391 -369h-138z" />
    <glyph glyph-name="uni23CF" unicode="&#x23cf;" horiz-adv-x="830" 
d="M416 585l321 -321h-642zM95 175h642v-108h-642v108z" />
    <glyph glyph-name="uni23E9" unicode="&#x23e9;" horiz-adv-x="830" 
d="M749 321l-321 -321v642zM403 321l-321 -321v642z" />
    <glyph glyph-name="uni23EA" unicode="&#x23ea;" horiz-adv-x="830" 
d="M82 321l321 321v-642zM428 321l321 321v-642z" />
    <glyph glyph-name="uni23EB" unicode="&#x23eb;" horiz-adv-x="830" 
d="M416 667l321 -321h-642zM416 321l321 -321h-642z" />
    <glyph glyph-name="uni23EC" unicode="&#x23ec;" horiz-adv-x="830" 
d="M416 326l-321 321h642zM416 -20l-321 321h642z" />
    <glyph glyph-name="uni23ED" unicode="&#x23ed;" horiz-adv-x="830" 
d="M814 0h-109v642h109v-642zM339 321l-321 -321v642zM685 321l-321 -321v642z" />
    <glyph glyph-name="uni23EE" unicode="&#x23ee;" horiz-adv-x="830" 
d="M18 0v642h109v-642h-109zM493 321l321 321v-642zM147 321l321 321v-642z" />
    <glyph glyph-name="uni23EF" unicode="&#x23ef;" horiz-adv-x="830" 
d="M423 321l-321 -321v642zM450 0v642h108v-642h-108zM621 0v642h109v-642h-109z" />
    <glyph glyph-name="uni23F8" unicode="&#x23f8;" horiz-adv-x="830" 
d="M202 0v642h148v-642h-148zM482 0v642h148v-642h-148z" />
    <glyph glyph-name="uni23F9" unicode="&#x23f9;" horiz-adv-x="830" 
d="M737 0h-642v642h642v-642z" />
    <glyph glyph-name="uni23FA" unicode="&#x23fa;" horiz-adv-x="830" 
d="M416 52q-115 0 -191 78.5t-76 190.5q0 113 76 191t191 78t191 -78t76 -191q0 -112 -76 -190.5t-191 -78.5z" />
    <glyph glyph-name="uni24EA" unicode="&#x24ea;" horiz-adv-x="830" 
d="M415 -10q-163 0 -271.5 112.5t-108.5 272.5q0 161 108.5 273t271.5 112t271.5 -112t108.5 -273q0 -160 -108.5 -272.5t-271.5 -112.5zM415 702q-136 0 -226.5 -95t-90.5 -232t90.5 -232t226.5 -95t226.5 95t90.5 232t-90.5 232t-226.5 95zM415 175q-72 0 -115 50.5
t-43 149.5t43.5 150t114.5 51t114 -51t43 -150q0 -100 -42.5 -150t-114.5 -50zM415 268q52 0 52 107q0 111 -52 111q-53 0 -53 -111q0 -107 53 -107z" />
    <glyph glyph-name="uni24FF" unicode="&#x24ff;" horiz-adv-x="830" 
d="M415 -10q-163 0 -271.5 112.5t-108.5 272.5q0 161 108.5 273t271.5 112t271.5 -112t108.5 -273q0 -160 -108.5 -272.5t-271.5 -112.5zM415 175q72 0 114.5 50t42.5 150q0 99 -43 150t-114 51t-114.5 -51t-43.5 -150t43 -149.5t115 -50.5zM415 268q-53 0 -53 107
q0 111 53 111q52 0 52 -111q0 -107 -52 -107z" />
    <glyph glyph-name="uni2500" unicode="&#x2500;" horiz-adv-x="1000" 
d="M1000 204h-1000v92h1000v-92z" />
    <glyph glyph-name="uni2502" unicode="&#x2502;" horiz-adv-x="1000" 
d="M549 -250h-98v1000h98v-1000z" />
    <glyph glyph-name="uni250C" unicode="&#x250c;" horiz-adv-x="1000" 
d="M1000 204h-451v-454h-98v546h549v-92z" />
    <glyph glyph-name="uni2510" unicode="&#x2510;" horiz-adv-x="1000" 
d="M0 296h549v-546h-98v454h-451v92z" />
    <glyph glyph-name="uni2514" unicode="&#x2514;" horiz-adv-x="1000" 
d="M1000 204h-549v546h98v-454h451v-92z" />
    <glyph glyph-name="uni2518" unicode="&#x2518;" horiz-adv-x="1000" 
d="M549 750v-546h-549v92h451v454h98z" />
    <glyph glyph-name="uni251C" unicode="&#x251c;" horiz-adv-x="1000" 
d="M549 -250h-98v1000h98v-454h451v-92h-451v-454z" />
    <glyph glyph-name="uni2524" unicode="&#x2524;" horiz-adv-x="1000" 
d="M0 204v92h451v454h98v-1000h-98v454h-451z" />
    <glyph glyph-name="uni252C" unicode="&#x252c;" horiz-adv-x="1000" 
d="M549 -250h-98v454h-451v92h1000v-92h-451v-454z" />
    <glyph glyph-name="uni2534" unicode="&#x2534;" horiz-adv-x="1000" 
d="M549 750v-454h451v-92h-1000v92h451v454h98z" />
    <glyph glyph-name="uni2571" unicode="&#x2571;" horiz-adv-x="1000" 
d="M1000 684l-1000 -1000v132l1000 1000v-132z" />
    <glyph glyph-name="uni2572" unicode="&#x2572;" horiz-adv-x="1000" 
d="M0 684v132l1000 -1000v-132z" />
    <glyph glyph-name="uni2573" unicode="&#x2573;" horiz-adv-x="1000" 
d="M0 684v132l500 -500l500 500v-132l-434 -434l434 -434v-132l-500 500l-500 -500v132l434 434z" />
    <glyph glyph-name="uni25A0" unicode="&#x25a0;" horiz-adv-x="560" 
d="M122 132v316h316v-316h-316z" />
    <glyph glyph-name="uni25A1" unicode="&#x25a1;" horiz-adv-x="560" 
d="M122 132v316h316v-316h-316zM196 206h168v168h-168v-168z" />
    <glyph glyph-name="uni25B2" unicode="&#x25b2;" horiz-adv-x="736" 
d="M368 640l320 -640h-640z" />
    <glyph glyph-name="uni25B3" unicode="&#x25b3;" horiz-adv-x="736" 
d="M368 640l320 -640h-640zM368 458l-174 -369h348z" />
    <glyph glyph-name="uni25B4" unicode="&#x25b4;" horiz-adv-x="560" 
d="M57 142l223 363l223 -363h-446z" />
    <glyph glyph-name="uni25B5" unicode="&#x25b5;" horiz-adv-x="560" 
d="M57 142l223 363l223 -363h-446zM183 212h194l-97 157z" />
    <glyph glyph-name="uni25B6" unicode="&#x25b6;" horiz-adv-x="736" 
d="M110 0v640l597 -322z" />
    <glyph glyph-name="uni25B7" unicode="&#x25b7;" horiz-adv-x="736" 
d="M707 318l-597 -318v640zM538 318l-340 177v-348z" />
    <glyph glyph-name="uni25B8" unicode="&#x25b8;" horiz-adv-x="560" 
d="M140 77v446l363 -223z" />
    <glyph glyph-name="uni25B9" unicode="&#x25b9;" horiz-adv-x="560" 
d="M140 77v446l363 -223zM215 203l156 97l-156 97v-194z" />
    <glyph glyph-name="uni25BC" unicode="&#x25bc;" horiz-adv-x="736" 
d="M368 0l-320 640h640z" />
    <glyph glyph-name="uni25BD" unicode="&#x25bd;" horiz-adv-x="736" 
d="M368 0l-320 640h640zM368 182l174 369h-348z" />
    <glyph glyph-name="uni25BE" unicode="&#x25be;" horiz-adv-x="560" 
d="M57 495h446l-223 -363z" />
    <glyph glyph-name="uni25BF" unicode="&#x25bf;" horiz-adv-x="560" 
d="M57 495h446l-223 -363zM183 425l97 -156l97 156h-194z" />
    <glyph glyph-name="uni25C0" unicode="&#x25c0;" horiz-adv-x="736" 
d="M29 318l597 322v-640z" />
    <glyph glyph-name="uni25C1" unicode="&#x25c1;" horiz-adv-x="736" 
d="M29 318l597 322v-640zM198 318l340 -171v348z" />
    <glyph glyph-name="uni25C2" unicode="&#x25c2;" horiz-adv-x="560" 
d="M420 77l-363 223l363 223v-446z" />
    <glyph glyph-name="uni25C3" unicode="&#x25c3;" horiz-adv-x="560" 
d="M420 77l-363 223l363 223v-446zM345 203v194l-156 -97z" />
    <glyph glyph-name="uni25C6" unicode="&#x25c6;" horiz-adv-x="560" 
d="M280 67l-223 223l223 223l223 -223z" />
    <glyph glyph-name="uni25C7" unicode="&#x25c7;" horiz-adv-x="560" 
d="M280 67l-223 223l223 223l223 -223zM280 171l119 119l-119 119l-119 -119z" />
    <glyph glyph-name="uni25CA" unicode="&#x25ca;" horiz-adv-x="500" 
d="M206 0l-184 375l184 375h88l184 -375l-184 -375h-88zM250 116l124 259l-124 259l-124 -259z" />
    <glyph glyph-name="uni25CB" unicode="&#x25cb;" horiz-adv-x="560" 
d="M280 122q-71 0 -118 47t-47 118t47 118t118 47t117.5 -47t46.5 -118t-46.5 -118t-117.5 -47zM280 190q40 0 67 27.5t27 69.5t-27 69.5t-67 27.5q-41 0 -68 -27.5t-27 -69.5t27 -69.5t68 -27.5z" />
    <glyph glyph-name="uni25CF" unicode="&#x25cf;" horiz-adv-x="560" 
d="M280 122q-71 0 -118 47t-47 118t47 118t118 47t117.5 -47t46.5 -118t-46.5 -118t-117.5 -47z" />
    <glyph glyph-name="uni25D0" unicode="&#x25d0;" horiz-adv-x="830" 
d="M415 -10q-143 0 -236.5 94t-93.5 236t93.5 236t236.5 94t236.5 -94t93.5 -236t-93.5 -236t-236.5 -94zM415 72q103 0 169 68.5t66 179.5t-66 179.5t-169 68.5v-496z" />
    <glyph glyph-name="uni25D1" unicode="&#x25d1;" horiz-adv-x="830" 
d="M415 650q143 0 236.5 -94t93.5 -236t-93.5 -236t-236.5 -94t-236.5 94t-93.5 236t93.5 236t236.5 94zM415 568q-103 0 -169 -68.5t-66 -179.5t66 -179.5t169 -68.5v496z" />
    <glyph glyph-name="uni25D2" unicode="&#x25d2;" horiz-adv-x="830" 
d="M745 320q0 -142 -93.5 -236t-236.5 -94t-236.5 94t-93.5 236t93.5 236t236.5 94t236.5 -94t93.5 -236zM653 321q-1 112 -67.5 179t-170.5 67t-171 -67t-67 -179h476z" />
    <glyph glyph-name="uni25D3" unicode="&#x25d3;" horiz-adv-x="830" 
d="M745 320q0 -142 -93.5 -236t-236.5 -94t-236.5 94t-93.5 236t93.5 236t236.5 94t236.5 -94t93.5 -236zM653 319h-476q1 -112 67.5 -179t170.5 -67t171 67t67 179z" />
    <glyph glyph-name="uni25D4" unicode="&#x25d4;" horiz-adv-x="830" 
d="M745 320q0 -142 -93.5 -236t-236.5 -94t-236.5 94t-93.5 236t93.5 236t236.5 94t236.5 -94t93.5 -236zM415 567v-247h236q0 109 -67 178t-169 69z" />
    <glyph glyph-name="uni25D5" unicode="&#x25d5;" horiz-adv-x="830" 
d="M85 320q0 142 93.5 236t236.5 94t236.5 -94t93.5 -236t-93.5 -236t-236.5 -94t-236.5 94t-93.5 236zM415 567q-102 0 -169 -69t-67 -178h236v247z" />
    <glyph glyph-name="uni25E7" unicode="&#x25e7;" horiz-adv-x="830" 
d="M94 0v642h642v-642h-642zM415 82h233v478h-233v-478z" />
    <glyph glyph-name="uni25E8" unicode="&#x25e8;" horiz-adv-x="830" 
d="M736 0h-642v642h642v-642zM415 82v478h-233v-478h233z" />
    <glyph glyph-name="uni2610" unicode="&#x2610;" horiz-adv-x="700" 
d="M70 0v560h560v-560h-560zM153 80h394v400h-394v-400z" />
    <glyph glyph-name="uni2611" unicode="&#x2611;" horiz-adv-x="700" 
d="M70 0v560h560v-560h-560zM153 80h394v400h-394v-400zM385 139h-77l-110 206h78l68 -131l85 216h73z" />
    <glyph glyph-name="uni2612" unicode="&#x2612;" horiz-adv-x="700" 
d="M70 0v560h560v-560h-560zM153 80h394v400h-394v-400zM260 424l90 -93l90 93l51 -50l-91 -93l91 -94l-51 -50l-90 93l-90 -93l-50 50l91 94l-91 93z" />
    <glyph glyph-name="uni2661" unicode="&#x2661;" horiz-adv-x="848" 
d="M442 0h-36q-17 51 -58.5 97.5t-87.5 83t-89.5 75.5t-72 91t-28.5 114q0 89 52.5 139t129.5 50q125 0 172 -121q23 62 69 91.5t103 29.5q76 0 129 -50t53 -139q0 -62 -28.5 -114t-72.5 -91t-89.5 -75.5t-87 -83t-58.5 -97.5zM453 416h-58q-39 144 -130 144
q-41 0 -68 -28.5t-27 -83.5q0 -40 18 -72.5t48.5 -57.5t63 -48.5t67.5 -56.5t57 -69q21 36 56.5 69t68 56.5t62.5 48.5t48.5 57.5t18.5 72.5q0 55 -27.5 83.5t-68.5 28.5q-91 0 -129 -144z" />
    <glyph glyph-name="uni2665" unicode="&#x2665;" horiz-adv-x="848" 
d="M442 0h-36q-17 51 -58.5 97.5t-87.5 83t-89.5 75.5t-72 91t-28.5 114q0 89 52.5 139t129.5 50q125 0 172 -121q23 62 69 91.5t103 29.5q76 0 129 -50t53 -139q0 -62 -28.5 -114t-72.5 -91t-89.5 -75.5t-87 -83t-58.5 -97.5z" />
    <glyph glyph-name="uni2690" unicode="&#x2690;" horiz-adv-x="500" 
d="M42 642h84v-39h2q69 0 135 -32t137 -32h73v-324h-74q-68 0 -113.5 15t-81.5 31t-78 18v-279h-84v642zM380 298h10v158h-10q-69 0 -130.5 32t-123.5 32v-158q54 0 118 -32t136 -32z" />
    <glyph glyph-name="uni2691" unicode="&#x2691;" horiz-adv-x="500" 
d="M42 642h84v-39h2q69 0 135 -32t137 -32h73v-324h-84q-66 0 -109.5 16t-77.5 32t-76 16v-279h-84v642z" />
    <glyph glyph-name="uni26AA" unicode="&#x26aa;" horiz-adv-x="830" 
d="M415 -10q-163 0 -271.5 112.5t-108.5 272.5q0 161 108.5 273t271.5 112t271.5 -112t108.5 -273q0 -160 -108.5 -272.5t-271.5 -112.5zM415 691q-133 0 -219 -91.5t-86 -224.5t86 -224.5t219 -91.5t219 91.5t86 224.5t-86 224.5t-219 91.5z" />
    <glyph glyph-name="uni26AB" unicode="&#x26ab;" horiz-adv-x="830" 
d="M415 -10q-163 0 -271.5 112.5t-108.5 272.5q0 161 108.5 273t271.5 112t271.5 -112t108.5 -273q0 -160 -108.5 -272.5t-271.5 -112.5z" />
    <glyph glyph-name="uni2713" unicode="&#x2713;" horiz-adv-x="700" 
d="M387 112h-81l-136 252h82l93 -175l110 276h77z" />
    <glyph glyph-name="uni2717" unicode="&#x2717;" horiz-adv-x="700" 
d="M233 451l116 -117l115 117l52 -51l-116 -118l116 -118l-52 -51l-115 117l-116 -117l-51 51l116 118l-116 118z" />
    <glyph glyph-name="uni2780" unicode="&#x2780;" horiz-adv-x="830" 
d="M415 -10q-163 0 -271.5 112.5t-108.5 272.5q0 161 108.5 273t271.5 112t271.5 -112t108.5 -273q0 -160 -108.5 -272.5t-271.5 -112.5zM415 702q-136 0 -226.5 -95t-90.5 -232t90.5 -232t226.5 -95t226.5 95t90.5 232t-90.5 232t-226.5 95zM375 563v6h106v-389h-109v242
h-72v82h18q30 0 43.5 14t13.5 45z" />
    <glyph glyph-name="uni2781" unicode="&#x2781;" horiz-adv-x="830" 
d="M415 -10q-163 0 -271.5 112.5t-108.5 272.5q0 161 108.5 273t271.5 112t271.5 -112t108.5 -273q0 -160 -108.5 -272.5t-271.5 -112.5zM415 702q-136 0 -226.5 -95t-90.5 -232t90.5 -232t226.5 -95t226.5 95t90.5 232t-90.5 232t-226.5 95zM550 455q0 -41 -31.5 -76.5
t-72 -65.5t-50.5 -47h156v-86h-285v35q0 35 19 66.5t45.5 53.5t53.5 41t46 38.5t19 36.5t-11 27.5t-29 10.5q-43 0 -43 -46v-13h-99v21q0 59 40 91.5t102 32.5q60 0 100 -31.5t40 -88.5z" />
    <glyph glyph-name="uni2782" unicode="&#x2782;" horiz-adv-x="830" 
d="M415 -10q-163 0 -271.5 112.5t-108.5 272.5q0 161 108.5 273t271.5 112t271.5 -112t108.5 -273q0 -160 -108.5 -272.5t-271.5 -112.5zM415 702q-136 0 -226.5 -95t-90.5 -232t90.5 -232t226.5 -95t226.5 95t90.5 232t-90.5 232t-226.5 95zM356 306q0 -23 15.5 -36
t40.5 -13q22 0 36 11.5t14 29.5q0 42 -53 42h-38v78h38q43 0 43 36q0 16 -12.5 25.5t-32.5 9.5q-21 0 -33 -11t-12 -32h-100q0 61 39 95t109 34q66 0 106 -31t40 -81q0 -53 -47 -80q57 -30 57 -91q0 -55 -41 -86.5t-109 -31.5q-73 0 -117.5 35.5t-44.5 96.5h102z" />
    <glyph glyph-name="uni2783" unicode="&#x2783;" horiz-adv-x="830" 
d="M415 -10q-163 0 -271.5 112.5t-108.5 272.5q0 161 108.5 273t271.5 112t271.5 -112t108.5 -273q0 -160 -108.5 -272.5t-271.5 -112.5zM415 702q-136 0 -226.5 -95t-90.5 -232t90.5 -232t226.5 -95t226.5 95t90.5 232t-90.5 232t-226.5 95zM230 327l116 242h156v-239h59
v-83h-59v-67h-101v67h-171v80zM322 330h79v169z" />
    <glyph glyph-name="uni2784" unicode="&#x2784;" horiz-adv-x="830" 
d="M415 -10q-163 0 -271.5 112.5t-108.5 272.5q0 161 108.5 273t271.5 112t271.5 -112t108.5 -273q0 -160 -108.5 -272.5t-271.5 -112.5zM415 702q-136 0 -226.5 -95t-90.5 -232t90.5 -232t226.5 -95t226.5 95t90.5 232t-90.5 232t-226.5 95zM410 370q-18 0 -30.5 -7.5
t-14.5 -17.5h-97v224h276v-85h-186v-71q26 32 76 32q56 0 94 -36.5t38 -95.5q0 -62 -42.5 -100.5t-109.5 -38.5q-69 0 -111 36.5t-42 94.5h102q0 -21 13.5 -34t37.5 -13q22 0 36 15.5t14 39.5q0 25 -14 41t-40 16z" />
    <glyph glyph-name="uni2785" unicode="&#x2785;" horiz-adv-x="830" 
d="M415 -10q-163 0 -271.5 112.5t-108.5 272.5q0 161 108.5 273t271.5 112t271.5 -112t108.5 -273q0 -160 -108.5 -272.5t-271.5 -112.5zM415 702q-136 0 -226.5 -95t-90.5 -232t90.5 -232t226.5 -95t226.5 95t90.5 232t-90.5 232t-226.5 95zM561 302q0 -60 -41.5 -94
t-104.5 -34q-73 0 -118.5 49.5t-45.5 151.5q0 99 47.5 149.5t116.5 50.5q60 0 101 -35t41 -89h-96q-1 18 -12.5 29.5t-32.5 11.5q-28 0 -45.5 -26.5t-17.5 -78.5q27 43 85 43q50 0 86.5 -32t36.5 -96zM415 254q21 0 34.5 13.5t13.5 34.5t-14 34.5t-34 13.5t-33.5 -13.5
t-13.5 -34.5t13.5 -34.5t33.5 -13.5z" />
    <glyph glyph-name="uni2786" unicode="&#x2786;" horiz-adv-x="830" 
d="M415 -10q-163 0 -271.5 112.5t-108.5 272.5q0 161 108.5 273t271.5 112t271.5 -112t108.5 -273q0 -160 -108.5 -272.5t-271.5 -112.5zM415 702q-136 0 -226.5 -95t-90.5 -232t90.5 -232t226.5 -95t226.5 95t90.5 232t-90.5 232t-226.5 95zM458 204v-24h-108v22
q0 85 31.5 149.5t87.5 130.5h-181v87h267v-113q-54 -71 -75.5 -120t-21.5 -132z" />
    <glyph glyph-name="uni2787" unicode="&#x2787;" horiz-adv-x="830" 
d="M415 -10q-163 0 -271.5 112.5t-108.5 272.5q0 161 108.5 273t271.5 112t271.5 -112t108.5 -273q0 -160 -108.5 -272.5t-271.5 -112.5zM415 702q-136 0 -226.5 -95t-90.5 -232t90.5 -232t226.5 -95t226.5 95t90.5 232t-90.5 232t-226.5 95zM415 174q-71 0 -111 32.5
t-40 88.5q0 57 54 91q-43 30 -43 78q0 51 37.5 81t102.5 30q66 0 103.5 -30t37.5 -81q0 -48 -43 -78q55 -34 55 -91q0 -56 -41 -88.5t-112 -32.5zM415 420q18 0 29 10.5t11 27.5t-11 27t-29 10t-28.5 -10t-10.5 -27t10.5 -27.5t28.5 -10.5zM415 254q23 0 37 13t14 34t-14 34
t-37 13t-36.5 -13t-13.5 -34t13.5 -34t36.5 -13z" />
    <glyph glyph-name="uni2788" unicode="&#x2788;" horiz-adv-x="830" 
d="M415 -10q-163 0 -271.5 112.5t-108.5 272.5q0 161 108.5 273t271.5 112t271.5 -112t108.5 -273q0 -160 -108.5 -272.5t-271.5 -112.5zM415 702q-136 0 -226.5 -95t-90.5 -232t90.5 -232t226.5 -95t226.5 95t90.5 232t-90.5 232t-226.5 95zM579 373q0 -98 -47.5 -148.5
t-116.5 -50.5q-60 0 -101 35t-41 88h96q1 -18 13 -29t32 -11q29 0 46 26.5t17 78.5q-27 -44 -85 -44q-50 0 -86.5 32.5t-36.5 95.5q0 61 41.5 95t104.5 34q73 0 118.5 -49.5t45.5 -152.5zM415 494q-20 0 -34 -13.5t-14 -34.5t13.5 -34t34.5 -13q20 0 33.5 13t13.5 34
t-13.5 34.5t-33.5 13.5z" />
    <glyph glyph-name="uni2789" unicode="&#x2789;" horiz-adv-x="830" 
d="M415 -10q-163 0 -271.5 112.5t-108.5 272.5q0 161 108.5 273t271.5 112t271.5 -112t108.5 -273q0 -160 -108.5 -272.5t-271.5 -112.5zM415 702q-136 0 -226.5 -95t-90.5 -232t90.5 -232t226.5 -95t226.5 95t90.5 232t-90.5 232t-226.5 95zM528 175q-72 0 -115 50.5
t-43 149.5t43.5 150t114.5 51t113.5 -51t42.5 -150q0 -100 -42.5 -150t-113.5 -50zM231 563v6h107v-389h-110v242h-72v82h19q30 0 43 13.5t13 45.5zM528 268q52 0 52 107q0 111 -52 111q-54 0 -54 -111q0 -107 54 -107z" />
    <glyph glyph-name="uni278A" unicode="&#x278a;" horiz-adv-x="830" 
d="M415 -10q-163 0 -271.5 112.5t-108.5 272.5q0 161 108.5 273t271.5 112t271.5 -112t108.5 -273q0 -160 -108.5 -272.5t-271.5 -112.5zM375 563q0 -31 -13.5 -45t-43.5 -14h-18v-82h72v-242h109v389h-106v-6z" />
    <glyph glyph-name="uni278B" unicode="&#x278b;" horiz-adv-x="830" 
d="M415 -10q-163 0 -271.5 112.5t-108.5 272.5q0 161 108.5 273t271.5 112t271.5 -112t108.5 -273q0 -160 -108.5 -272.5t-271.5 -112.5zM550 455q0 57 -40 88.5t-100 31.5q-62 0 -102 -32.5t-40 -91.5v-21h99v13q0 46 43 46q18 0 29 -10.5t11 -27.5t-19 -36.5t-46 -38.5
t-53.5 -41t-45.5 -53.5t-19 -66.5v-35h285v86h-156q10 17 50.5 47t72 65.5t31.5 76.5z" />
    <glyph glyph-name="uni278C" unicode="&#x278c;" horiz-adv-x="830" 
d="M415 -10q-163 0 -271.5 112.5t-108.5 272.5q0 161 108.5 273t271.5 112t271.5 -112t108.5 -273q0 -160 -108.5 -272.5t-271.5 -112.5zM416 174q68 0 109 31.5t41 86.5q0 61 -57 91q47 28 47 80q0 50 -40 81t-106 31q-70 0 -109 -34t-39 -95h100q0 21 12 32t33 11
q20 0 32.5 -9.5t12.5 -25.5q0 -36 -43 -36h-38v-78h38q53 0 53 -42q0 -18 -14 -29.5t-36 -11.5q-25 0 -40.5 13t-15.5 36h-102q0 -61 44.5 -96.5t117.5 -35.5z" />
    <glyph glyph-name="uni278D" unicode="&#x278d;" horiz-adv-x="830" 
d="M415 -10q-163 0 -271.5 112.5t-108.5 272.5q0 161 108.5 273t271.5 112t271.5 -112t108.5 -273q0 -160 -108.5 -272.5t-271.5 -112.5zM561 247v83h-59v239h-156l-116 -242v-80h171v-67h101v67h59zM322 330l79 166v-166h-79z" />
    <glyph glyph-name="uni278E" unicode="&#x278e;" horiz-adv-x="830" 
d="M415 -10q-163 0 -271.5 112.5t-108.5 272.5q0 161 108.5 273t271.5 112t271.5 -112t108.5 -273q0 -160 -108.5 -272.5t-271.5 -112.5zM414 174q67 0 109.5 38.5t42.5 100.5q0 59 -38 95.5t-94 36.5q-48 0 -76 -31v70h186v85h-276v-224h97q2 10 14.5 17.5t30.5 7.5
q26 0 40 -16t14 -41q0 -24 -14 -39.5t-36 -15.5q-24 0 -37.5 13t-13.5 34h-102q0 -58 42 -94.5t111 -36.5z" />
    <glyph glyph-name="uni278F" unicode="&#x278f;" horiz-adv-x="830" 
d="M415 -10q-163 0 -271.5 112.5t-108.5 272.5q0 161 108.5 273t271.5 112t271.5 -112t108.5 -273q0 -160 -108.5 -272.5t-271.5 -112.5zM415 174q64 0 105 33.5t41 94.5q0 64 -36.5 96t-86.5 32q-58 0 -85 -44q0 53 17.5 79.5t45.5 26.5q21 0 32.5 -11.5t12.5 -29.5h96
q0 54 -41 89t-101 35q-69 0 -116.5 -50.5t-47.5 -149.5q0 -102 45.5 -151.5t118.5 -49.5zM415 254q-20 0 -33.5 13.5t-13.5 34.5t13.5 34.5t33.5 13.5t34 -13.5t14 -34.5t-13.5 -34.5t-34.5 -13.5z" />
    <glyph glyph-name="uni2790" unicode="&#x2790;" horiz-adv-x="830" 
d="M415 -10q-163 0 -271.5 112.5t-108.5 272.5q0 161 108.5 273t271.5 112t271.5 -112t108.5 -273q0 -160 -108.5 -272.5t-271.5 -112.5zM458 180v24q0 83 21.5 132t75.5 120v113h-267v-87h181q-56 -65 -87.5 -129.5t-31.5 -150.5v-22h108z" />
    <glyph glyph-name="uni2791" unicode="&#x2791;" horiz-adv-x="830" 
d="M415 -10q-163 0 -271.5 112.5t-108.5 272.5q0 161 108.5 273t271.5 112t271.5 -112t108.5 -273q0 -160 -108.5 -272.5t-271.5 -112.5zM415 174q71 0 112 32.5t41 88.5t-55 91q43 30 43 78q0 51 -37.5 81t-103.5 30q-65 0 -102.5 -30t-37.5 -81q0 -48 43 -78
q-54 -33 -54 -91q0 -56 40 -88.5t111 -32.5zM415 420q-18 0 -28.5 10.5t-10.5 27.5t10.5 27t28.5 10t29 -10t11 -27t-11 -27.5t-29 -10.5zM415 254q-23 0 -36.5 13t-13.5 34t13.5 34t36.5 13t37 -13t14 -34t-14 -34t-37 -13z" />
    <glyph glyph-name="uni2792" unicode="&#x2792;" horiz-adv-x="830" 
d="M415 -10q-163 0 -271.5 112.5t-108.5 272.5q0 161 108.5 273t271.5 112t271.5 -112t108.5 -273q0 -160 -108.5 -272.5t-271.5 -112.5zM477 363q-1 -106 -63 -106q-20 0 -32 11t-13 29h-96q0 -53 41 -88t101 -35q69 0 116.5 50.5t47.5 148.5q0 103 -45.5 152.5
t-118.5 49.5q-63 0 -104.5 -34t-41.5 -95q0 -63 36.5 -95.5t86.5 -32.5q58 0 85 45zM415 494q20 0 33.5 -13.5t13.5 -34.5t-13.5 -34t-33.5 -13q-21 0 -34.5 13t-13.5 34t14 34.5t34 13.5z" />
    <glyph glyph-name="uni2793" unicode="&#x2793;" horiz-adv-x="830" 
d="M415 -10q-163 0 -271.5 112.5t-108.5 272.5q0 161 108.5 273t271.5 112t271.5 -112t108.5 -273q0 -160 -108.5 -272.5t-271.5 -112.5zM528 175q71 0 113.5 50t42.5 150q0 99 -42.5 150t-113.5 51t-114.5 -51t-43.5 -150t43 -149.5t115 -50.5zM231 563q0 -32 -13 -45.5
t-43 -13.5h-19v-82h72v-242h110v389h-107v-6zM528 268q-54 0 -54 107q0 111 54 111q52 0 52 -111q0 -107 -52 -107z" />
    <glyph glyph-name="uni2913" unicode="&#x2913;" horiz-adv-x="730" 
d="M595 375l-230 -252l-230 252h113l71 -90v357h92v-357l71 90h113zM140 0v86h450v-86h-450z" />
    <glyph glyph-name="uni29B6" unicode="&#x29b6;" horiz-adv-x="830" 
d="M415 -10q-143 0 -236.5 94t-93.5 236t93.5 236t236.5 94t236.5 -94t93.5 -236t-93.5 -236t-236.5 -94zM650 320q0 102 -52 166.5t-139 78.5v-490q87 14 139 78.5t52 166.5zM180 320q0 -102 52 -166.5t139 -78.5v490q-87 -14 -139 -78.5t-52 -166.5z" />
    <glyph glyph-name="uni29B8" unicode="&#x29b8;" horiz-adv-x="830" 
d="M415 -10q-143 0 -236.5 94t-93.5 236t93.5 236t236.5 94t236.5 -94t93.5 -236t-93.5 -236t-236.5 -94zM415 568q-81 0 -142 -42l344 -344q33 60 33 138q0 115 -65.5 181.5t-169.5 66.5zM180 320q0 -115 65.5 -181.5t169.5 -66.5q82 0 142 43l-344 344q-33 -60 -33 -139z
" />
    <glyph glyph-name="uni29BF" unicode="&#x29bf;" horiz-adv-x="830" 
d="M415 -10q-143 0 -236.5 94t-93.5 236t93.5 236t236.5 94t236.5 -94t93.5 -236t-93.5 -236t-236.5 -94zM415 568q-104 0 -169.5 -66.5t-65.5 -181.5t65.5 -181.5t169.5 -66.5t169.5 66.5t65.5 181.5t-65.5 181.5t-169.5 66.5zM415 193q-55 0 -91 36t-36 91t36 91t91 36
t91 -36t36 -91t-36 -91t-91 -36z" />
    <glyph glyph-name="uni2B12" unicode="&#x2b12;" horiz-adv-x="830" 
d="M94 642h642v-642h-642v642zM182 321v-239h466v239h-466z" />
    <glyph glyph-name="uni2B13" unicode="&#x2b13;" horiz-adv-x="830" 
d="M94 0v642h642v-642h-642zM182 321h466v239h-466v-239z" />
    <glyph glyph-name="uni2B14" unicode="&#x2b14;" horiz-adv-x="830" 
d="M94 0v642h642v-642h-642zM201 560l447 -447v447h-447z" />
    <glyph glyph-name="uni2B15" unicode="&#x2b15;" horiz-adv-x="830" 
d="M736 642v-642h-642v642h642zM182 529v-447h447z" />
    <glyph glyph-name="uni2B16" unicode="&#x2b16;" horiz-adv-x="830" 
d="M10 321l405 405l405 -405l-405 -405zM712 321l-287 290v-580z" />
    <glyph glyph-name="uni2B17" unicode="&#x2b17;" horiz-adv-x="830" 
d="M820 321l-405 -405l-405 405l405 405zM118 321l287 -290v580z" />
    <glyph glyph-name="uni2B18" unicode="&#x2b18;" horiz-adv-x="830" 
d="M415 726l405 -405l-405 -405l-405 405zM415 24l290 287h-580z" />
    <glyph glyph-name="uni2B19" unicode="&#x2b19;" horiz-adv-x="830" 
d="M415 -84l-405 405l405 405l405 -405zM415 618l-290 -287h580z" />
    <glyph glyph-name="uni0414.bgr" horiz-adv-x="606" 
d="M9 -135v263h67l117 622h220l118 -622h66v-263h-131v135h-327v-135h-130zM216 128h175l-88 511z" />
    <glyph glyph-name="uni0416.bgr" horiz-adv-x="740" 
d="M443 750v-361l142 361h151l-161 -358l165 -392h-158l-139 363v-363h-142v363l-139 -363h-162l165 392l-161 358h155l142 -361v361h142z" />
    <glyph glyph-name="uni041A.bgr" horiz-adv-x="523" 
d="M204 750v-360l156 360h154l-172 -354l181 -396h-165l-154 362v-362h-144v750h144z" />
    <glyph glyph-name="uni041B.bgr" horiz-adv-x="510" 
d="M144 750h222l136 -750h-142l-105 640l-105 -640h-142z" />
    <glyph glyph-name="uni0061.alt" horiz-adv-x="615" 
d="M262 510q91 0 150 -73v63h143v-500h-143v63q-59 -73 -150 -73q-102 0 -167 72t-65 188t65 188t167 72zM291 381q-52 0 -85.5 -36t-33.5 -95t33.5 -95t85.5 -36t85.5 36t33.5 95t-33.5 95t-85.5 36z" />
    <glyph glyph-name="uni0067.alt" horiz-adv-x="540" 
d="M260 144q-42 0 -81 14q-15 -4 -24.5 -15t-9.5 -27q0 -46 63 -46h108q213 0 213 -165q0 -75 -60 -120t-180 -45h-35q-115 0 -174 37t-59 98q0 65 76 100q-66 35 -66 102q0 40 24 69.5t68 43.5q-67 52 -67 137q0 79 59 131t145 52q90 0 149 -56l20 30q10 15 20 20.5t30 5.5
h51v-131h-74q8 -26 8 -52q0 -80 -59.5 -131.5t-144.5 -51.5zM260 252q33 0 54.5 21t21.5 54q0 34 -21 54.5t-55 20.5t-55 -20.5t-21 -54.5q0 -33 21.5 -54t54.5 -21zM266 -150h20q114 0 114 56q0 49 -100 49h-52q-99 0 -99 -49q0 -56 117 -56z" />
    <glyph glyph-name="uni00E0.alt" horiz-adv-x="615" 
d="M242 600l-93 150h150l57 -150h-114zM262 510q91 0 150 -73v63h143v-500h-143v63q-59 -73 -150 -73q-102 0 -167 72t-65 188t65 188t167 72zM291 381q-52 0 -85.5 -36t-33.5 -95t33.5 -95t85.5 -36t85.5 36t33.5 95t-33.5 95t-85.5 36z" />
    <glyph glyph-name="uni00E1.alt" horiz-adv-x="615" 
d="M346 600h-114l57 150h150zM262 510q91 0 150 -73v63h143v-500h-143v63q-59 -73 -150 -73q-102 0 -167 72t-65 188t65 188t167 72zM291 381q-52 0 -85.5 -36t-33.5 -95t33.5 -95t85.5 -36t85.5 36t33.5 95t-33.5 95t-85.5 36z" />
    <glyph glyph-name="uni00E2.alt" horiz-adv-x="615" 
d="M232 600h-113l97 150h156l97 -150h-113l-62 73zM262 510q91 0 150 -73v63h143v-500h-143v63q-59 -73 -150 -73q-102 0 -167 72t-65 188t65 188t167 72zM291 381q-52 0 -85.5 -36t-33.5 -95t33.5 -95t85.5 -36t85.5 36t33.5 95t-33.5 95t-85.5 36z" />
    <glyph glyph-name="uni00E3.alt" horiz-adv-x="615" 
d="M122 600v48q0 102 88 102q34 0 80.5 -25.5t61.5 -25.5q30 0 30 34v17h84v-48q0 -102 -88 -102q-34 0 -80.5 25.5t-61.5 25.5q-30 0 -30 -34v-17h-84zM262 510q91 0 150 -73v63h143v-500h-143v63q-59 -73 -150 -73q-102 0 -167 72t-65 188t65 188t167 72zM291 381
q-52 0 -85.5 -36t-33.5 -95t33.5 -95t85.5 -36t85.5 36t33.5 95t-33.5 95t-85.5 36z" />
    <glyph glyph-name="uni00E4.alt" horiz-adv-x="615" 
d="M192 605q-28 0 -49 20.5t-21 49.5t20.5 49.5t49.5 20.5t49.5 -20.5t20.5 -49.5t-20.5 -49.5t-49.5 -20.5zM396 605q-29 0 -49.5 20.5t-20.5 49.5t21 49.5t49 20.5q30 0 50 -20.5t20 -49.5t-20 -49.5t-50 -20.5zM262 510q91 0 150 -73v63h143v-500h-143v63
q-59 -73 -150 -73q-102 0 -167 72t-65 188t65 188t167 72zM291 381q-52 0 -85.5 -36t-33.5 -95t33.5 -95t85.5 -36t85.5 36t33.5 95t-33.5 95t-85.5 36z" />
    <glyph glyph-name="uni0101.alt" horiz-adv-x="615" 
d="M440 700v-92h-285v92h285zM262 510q91 0 150 -73v63h143v-500h-143v63q-59 -73 -150 -73q-102 0 -167 72t-65 188t65 188t167 72zM291 381q-52 0 -85.5 -36t-33.5 -95t33.5 -95t85.5 -36t85.5 36t33.5 95t-33.5 95t-85.5 36z" />
    <glyph glyph-name="uni0103.alt" horiz-adv-x="615" 
d="M351 750h103q0 -71 -43 -111.5t-117 -40.5q-73 0 -115.5 40t-42.5 112h102q0 -30 16 -45t40 -15q57 0 57 60zM262 510q91 0 150 -73v63h143v-500h-143v63q-59 -73 -150 -73q-102 0 -167 72t-65 188t65 188t167 72zM291 381q-52 0 -85.5 -36t-33.5 -95t33.5 -95t85.5 -36
t85.5 36t33.5 95t-33.5 95t-85.5 36z" />
    <glyph glyph-name="uni00E5.alt" horiz-adv-x="615" 
d="M294 570q-49 0 -80 27t-31 68q0 40 31 67.5t80 27.5t80.5 -27.5t31.5 -67.5q0 -41 -31 -68t-81 -27zM294 632q15 0 24.5 9.5t9.5 23.5t-9.5 23.5t-24.5 9.5q-14 0 -24 -9.5t-10 -23.5t10 -23.5t24 -9.5zM262 510q91 0 150 -73v63h143v-500h-143v63q-59 -73 -150 -73
q-102 0 -167 72t-65 188t65 188t167 72zM291 381q-52 0 -85.5 -36t-33.5 -95t33.5 -95t85.5 -36t85.5 36t33.5 95t-33.5 95t-85.5 36z" />
    <glyph glyph-name="uni01FB.alt" horiz-adv-x="615" 
d="M354 820h-114l57 150h150zM294 570q-49 0 -80 27t-31 68q0 40 31 67.5t80 27.5t80.5 -27.5t31.5 -67.5q0 -41 -31 -68t-81 -27zM294 632q15 0 24.5 9.5t9.5 23.5t-9.5 23.5t-24.5 9.5q-14 0 -24 -9.5t-10 -23.5t10 -23.5t24 -9.5zM262 510q91 0 150 -73v63h143v-500h-143
v63q-59 -73 -150 -73q-102 0 -167 72t-65 188t65 188t167 72zM291 381q-52 0 -85.5 -36t-33.5 -95t33.5 -95t85.5 -36t85.5 36t33.5 95t-33.5 95t-85.5 36z" />
    <glyph glyph-name="uni0105.alt" horiz-adv-x="615" 
d="M451 -254q-55 0 -88 25t-33 67q0 13 4 27.5t9 25.5t16.5 28t17.5 25t22 28.5t22 27.5h-9v63q-59 -73 -150 -73q-102 0 -167 72t-65 188t65 188t167 72q91 0 150 -73v63h143v-500h-59q-76 -105 -76 -150q0 -33 33 -33q30 0 35 32h91q0 -46 -35 -74.5t-93 -28.5zM291 381
q-52 0 -85.5 -36.5t-33.5 -94.5t33.5 -94.5t85.5 -36.5t85.5 36.5t33.5 94.5t-33.5 94.5t-85.5 36.5z" />
    <glyph glyph-name="uni00E6.alt" horiz-adv-x="955" 
d="M262 510q91 0 150 -73v63h132v-47q55 57 135 57q108 0 177 -73t69 -187q0 -14 -2 -40h-365q17 -102 118 -102q69 0 90 50h147q-23 -82 -84 -125t-152 -43q-79 0 -133 56v-46h-132v63q-59 -73 -150 -73q-102 0 -167 72t-65 188t65 188t167 72zM672 391q-95 0 -113 -96h227
q-20 96 -114 96zM291 381q-52 0 -85.5 -36.5t-33.5 -94.5t33.5 -94.5t85.5 -36.5t85.5 36.5t33.5 94.5t-33.5 94.5t-85.5 36.5z" />
    <glyph glyph-name="uni01FD.alt" horiz-adv-x="955" 
d="M529 600h-114l57 150h150zM262 510q91 0 150 -73v63h132v-47q55 57 135 57q108 0 177 -73t69 -187q0 -14 -2 -40h-365q17 -102 118 -102q69 0 90 50h147q-23 -82 -84 -125t-152 -43q-79 0 -133 56v-46h-132v63q-59 -73 -150 -73q-102 0 -167 72t-65 188t65 188t167 72z
M672 391q-95 0 -113 -96h227q-20 96 -114 96zM291 381q-52 0 -85.5 -36.5t-33.5 -94.5t33.5 -94.5t85.5 -36.5t85.5 36.5t33.5 94.5t-33.5 94.5t-85.5 36.5z" />
    <glyph glyph-name="uni011D.alt" horiz-adv-x="540" 
d="M198 600h-113l97 150h156l97 -150h-113l-62 73zM260 144q-42 0 -81 14q-15 -4 -24.5 -15t-9.5 -27q0 -46 63 -46h108q213 0 213 -165q0 -75 -60 -120t-180 -45h-35q-115 0 -174 37t-59 98q0 65 76 100q-66 35 -66 102q0 40 24 69.5t68 43.5q-67 52 -67 137q0 79 59 131
t145 52q90 0 149 -56l20 30q10 15 20 20.5t30 5.5h51v-131h-74q8 -26 8 -52q0 -80 -59.5 -131.5t-144.5 -51.5zM260 252q33 0 54.5 21t21.5 54q0 34 -21 54.5t-55 20.5t-55 -20.5t-21 -54.5q0 -33 21.5 -54t54.5 -21zM266 -150h20q114 0 114 56q0 49 -100 49h-52
q-99 0 -99 -49q0 -56 117 -56z" />
    <glyph glyph-name="uni011F.alt" horiz-adv-x="540" 
d="M317 750h103q0 -71 -43 -111.5t-117 -40.5q-73 0 -115.5 40t-42.5 112h102q0 -30 16 -45t40 -15q57 0 57 60zM260 144q-42 0 -81 14q-15 -4 -24.5 -15t-9.5 -27q0 -46 63 -46h108q213 0 213 -165q0 -75 -60 -120t-180 -45h-35q-115 0 -174 37t-59 98q0 65 76 100
q-66 35 -66 102q0 40 24 69.5t68 43.5q-67 52 -67 137q0 79 59 131t145 52q90 0 149 -56l20 30q10 15 20 20.5t30 5.5h51v-131h-74q8 -26 8 -52q0 -80 -59.5 -131.5t-144.5 -51.5zM260 252q33 0 54.5 21t21.5 54q0 34 -21 54.5t-55 20.5t-55 -20.5t-21 -54.5q0 -33 21.5 -54
t54.5 -21zM266 -150h20q114 0 114 56q0 49 -100 49h-52q-99 0 -99 -49q0 -56 117 -56z" />
    <glyph glyph-name="uni0121.alt" horiz-adv-x="540" 
d="M260 598q-33 0 -55 22.5t-22 54.5q0 34 22 55.5t55 21.5q34 0 56 -21.5t22 -55.5q0 -33 -22 -55t-56 -22zM260 144q-42 0 -81 14q-15 -4 -24.5 -15t-9.5 -27q0 -46 63 -46h108q213 0 213 -165q0 -75 -60 -120t-180 -45h-35q-115 0 -174 37t-59 98q0 65 76 100
q-66 35 -66 102q0 40 24 69.5t68 43.5q-67 52 -67 137q0 79 59 131t145 52q90 0 149 -56l20 30q10 15 20 20.5t30 5.5h51v-131h-74q8 -26 8 -52q0 -80 -59.5 -131.5t-144.5 -51.5zM260 252q33 0 54.5 21t21.5 54q0 34 -21 54.5t-55 20.5t-55 -20.5t-21 -54.5q0 -33 21.5 -54
t54.5 -21zM266 -150h20q114 0 114 56q0 49 -100 49h-52q-99 0 -99 -49q0 -56 117 -56z" />
    <glyph glyph-name="uni0123.alt" horiz-adv-x="540" 
d="M269 780h95l-25 -150h-143zM260 144q-42 0 -81 14q-15 -4 -24.5 -15t-9.5 -27q0 -46 63 -46h108q213 0 213 -165q0 -75 -60 -120t-180 -45h-35q-115 0 -174 37t-59 98q0 65 76 100q-66 35 -66 102q0 40 24 69.5t68 43.5q-67 52 -67 137q0 79 59 131t145 52q90 0 149 -56
l20 30q10 15 20 20.5t30 5.5h51v-131h-74q8 -26 8 -52q0 -80 -59.5 -131.5t-144.5 -51.5zM260 252q33 0 54.5 21t21.5 54q0 34 -21 54.5t-55 20.5t-55 -20.5t-21 -54.5q0 -33 21.5 -54t54.5 -21zM266 -150h20q114 0 114 56q0 49 -100 49h-52q-99 0 -99 -49q0 -56 117 -56z
" />
    <glyph glyph-name="idotaccent" horiz-adv-x="265" 
d="M132 598q-33 0 -55 22.5t-22 54.5q0 34 22 55.5t55 21.5q34 0 56 -21.5t22 -55.5q0 -33 -22 -55t-56 -22zM205 0h-145v500h145v-500z" />
    <glyph glyph-name="uni0430.alt" horiz-adv-x="615" 
d="M262 510q91 0 150 -73v63h143v-500h-143v63q-59 -73 -150 -73q-102 0 -167 72t-65 188t65 188t167 72zM291 381q-52 0 -85.5 -36t-33.5 -95t33.5 -95t85.5 -36t85.5 36t33.5 95t-33.5 95t-85.5 36z" />
    <glyph glyph-name="uni0432.bgr" horiz-adv-x="552" 
d="M45 219v324q0 99 61.5 158t169.5 59q109 0 170.5 -55.5t61.5 -145.5q0 -55 -24.5 -97.5t-66.5 -66.5q103 -51 103 -175q0 -102 -62 -166t-176 -64q-110 0 -173.5 62t-63.5 167zM276 640q-41 0 -66 -24.5t-25 -69.5v-104h72q111 0 111 109q0 42 -24.5 65.5t-67.5 23.5z
M185 221q0 -49 25 -76t72 -27q48 0 73 27t25 76q0 52 -32.5 80.5t-91.5 28.5h-71v-109z" />
    <glyph glyph-name="uni0433.bgr" horiz-adv-x="504" 
d="M32 140q0 43 16 74t42 47t57 26t62 15.5t57 11.5t42 17.5t16 30.5q0 22 -18 34t-48 12q-32 0 -53.5 -19t-21.5 -48h-141q0 72 62 120.5t155 48.5q88 0 146 -41t58 -107q0 -49 -21.5 -81.5t-53.5 -45.5t-69 -23t-69 -15t-53.5 -19t-21.5 -38q0 -48 70 -48q38 0 61.5 18.5
t23.5 54.5h142q0 -81 -64 -128t-164 -47q-92 0 -152 41t-60 109z" />
    <glyph glyph-name="uni0434.bgr" horiz-adv-x="616" 
d="M263 -10q-102 0 -167 72t-65 188t65 188t167 72q91 0 150 -73v63h143v-505q0 -113 -74 -184t-183 -71q-104 0 -174 60t-84 160h141q7 -45 38 -72.5t76 -27.5q54 0 84.5 36.5t30.5 96.5v67q-59 -70 -148 -70zM292 119q52 0 85.5 36t33.5 95t-33.5 95t-85.5 36t-85.5 -36
t-33.5 -95t33.5 -95t85.5 -36z" />
    <glyph glyph-name="uni0436.bgr" horiz-adv-x="828" 
d="M487 750v-464l149 214h173l-175 -225l187 -275h-167l-167 261v-261h-143v260l-166 -260h-170l189 274l-180 226h178l149 -213v463h143z" />
    <glyph glyph-name="uni0437.bgr" horiz-adv-x="536" 
d="M271 -260q-111 0 -176 64.5t-66 185.5h143q2 -130 98 -130q47 0 70.5 31t23.5 82q0 111 -111 111h-72v120h76q45 0 72 24.5t27 71.5q0 46 -22.5 70.5t-64.5 24.5q-41 0 -65.5 -25.5t-25.5 -74.5h-143q1 97 63.5 158.5t172.5 61.5q107 0 165.5 -57t58.5 -145
q0 -114 -95 -162q104 -47 104 -180q0 -104 -60 -167.5t-173 -63.5z" />
    <glyph glyph-name="uni0438.bgr" horiz-adv-x="580" 
d="M200 224q0 -56 23 -85t65 -29t64.5 29t22.5 85v276h145v-500h-142v71q-47 -81 -143 -81q-80 0 -130 52t-50 149v309h145v-276z" />
    <glyph glyph-name="uni0439.bgr" horiz-adv-x="580" 
d="M343 750h103q0 -71 -43 -111.5t-117 -40.5q-73 0 -115.5 40t-42.5 112h102q0 -30 16 -45t40 -15q57 0 57 60zM200 224q0 -56 23 -85t65 -29t64.5 29t22.5 85v276h145v-500h-142v71q-47 -81 -143 -81q-80 0 -130 52t-50 149v309h145v-276z" />
    <glyph glyph-name="uni043A.bgr" horiz-adv-x="565" 
d="M205 750v-466l165 216h176l-192 -226l204 -274h-172l-181 262v-262h-145v750h145z" />
    <glyph glyph-name="uni043B.bgr" horiz-adv-x="500" 
d="M143 500h214l135 -500h-145l-97 401l-97 -401h-145z" />
    <glyph glyph-name="uni043D.bgr" horiz-adv-x="590" 
d="M205 0h-145v500h145v-190h180v190h145v-500h-145v191h-180v-191z" />
    <glyph glyph-name="uni043F.bgr" horiz-adv-x="585" 
d="M385 276q0 56 -23.5 85t-66.5 29t-66.5 -29t-23.5 -85v-276h-145v500h142v-73q47 83 146 83q81 0 131.5 -52t50.5 -149v-309h-145v276z" />
    <glyph glyph-name="uni0442.bgr" horiz-adv-x="875" 
d="M368 284q0 106 -82 106q-39 0 -60 -27t-21 -79v-284h-145v500h142v-67q45 77 137 77q111 0 153 -92q22 44 62 68t92 24q78 0 126 -50t48 -144v-316h-145v284q0 52 -21 79t-60 27q-82 0 -82 -106v-284h-144v284z" />
    <glyph glyph-name="uni0446.bgr" horiz-adv-x="609" 
d="M200 224q0 -56 23 -85t65 -29t64.5 29t22.5 85v276h145v-380h69v-255h-129v135h-82v71q-47 -81 -143 -81q-80 0 -130 52t-50 149v309h145v-276z" />
    <glyph glyph-name="uni0447.bgr" horiz-adv-x="555" 
d="M350 292v208h145v-500h-145v174q-39 -9 -94 -9q-117 0 -169 50t-52 163v122h145v-121q0 -51 24 -72.5t74 -21.5q42 0 72 7z" />
    <glyph glyph-name="uni0448.bgr" horiz-adv-x="875" 
d="M200 216q0 -52 21 -79t60 -27q82 0 82 106v284h144v-284q0 -106 82 -106q39 0 60 27t21 79v284h145v-500h-142v67q-45 -77 -137 -77q-111 0 -153 92q-22 -44 -62 -68t-92 -24q-78 0 -126 50t-48 144v316h145v-284z" />
    <glyph glyph-name="uni0449.bgr" horiz-adv-x="904" 
d="M200 216q0 -52 21 -79t60 -27q82 0 82 106v284h144v-284q0 -106 82 -106q39 0 60 27t21 79v284h145v-380h69v-255h-129v135h-82v67q-45 -77 -137 -77q-111 0 -153 92q-22 -44 -62 -68t-92 -24q-78 0 -126 50t-48 144v316h145v-284z" />
    <glyph glyph-name="uni044A.bgr" horiz-adv-x="628" 
d="M15 380v120h267v-126q43 5 95 5q107 0 166 -51t59 -140q0 -87 -61.5 -142.5t-170.5 -55.5q-110 0 -171.5 57t-61.5 156v177h-122zM282 204q0 -46 23 -71t65 -25q88 0 88 78q0 76 -91 76q-47 0 -85 -5v-53z" />
    <glyph glyph-name="uni044C.bgr" horiz-adv-x="542" 
d="M516 188q0 -87 -61.5 -142.5t-170.5 -55.5q-110 0 -171.5 57t-61.5 156v297h145v-126q43 5 95 5q107 0 166 -51t59 -140zM196 204q0 -46 23 -71t65 -25q88 0 88 78q0 76 -91 76q-47 0 -85 -5v-53z" />
    <glyph glyph-name="uni044E.bgr" horiz-adv-x="795" 
d="M205 0h-145v750h145v-440h56q18 91 86 145.5t163 54.5q110 0 182.5 -72.5t72.5 -187.5t-72.5 -187.5t-182.5 -72.5q-94 0 -162.5 55t-86.5 146h-56v-191zM510 119q50 0 82 36.5t32 94.5t-32 94.5t-82 36.5q-49 0 -81.5 -36.5t-32.5 -94.5t32.5 -94.5t81.5 -36.5z" />
    <glyph glyph-name="uni0431.locl" horiz-adv-x="580" 
d="M290 -10q-113 0 -186.5 72.5t-73.5 187.5q0 135 106 198q-80 41 -80 127q0 74 49 113t144 39h111q34 0 34 23h138q0 -81 -33.5 -114t-122.5 -33h-114q-68 0 -68 -39q0 -25 17.5 -35.5t73.5 -16.5q124 -14 194.5 -79.5t70.5 -182.5q0 -115 -73.5 -187.5t-186.5 -72.5z
M290 119q52 0 85.5 36.5t33.5 94.5t-33.5 94.5t-85.5 36.5t-85.5 -36.5t-33.5 -94.5t33.5 -94.5t85.5 -36.5z" />
    <glyph glyph-name="uni0433.locl" horiz-adv-x="428" 
d="M202 0h-142v500h351v-120h-209v-380z" />
    <glyph glyph-name="uni0434.locl" horiz-adv-x="610" 
d="M16 120h50q11 24 18 53t13 112t6 215h419v-380h67v-255h-129v135h-315v-135h-129v255zM222 207q-7 -55 -21 -87h176v260h-144q-3 -121 -11 -173z" />
    <glyph glyph-name="uni043F.locl" horiz-adv-x="578" 
d="M205 0h-145v500h458v-500h-146v380h-167v-380z" />
    <glyph glyph-name="uni0442.locl" horiz-adv-x="465" 
d="M305 0h-145v380h-145v120h435v-120h-145v-380z" />
    <glyph glyph-name="uni0061.superior" horiz-adv-x="358" 
d="M122 256q-42 0 -73 24t-31 69q0 37 21 59.5t50.5 29.5t59.5 11t51 12t21 25q0 15 -12 24t-31 9q-47 0 -47 -45h-103q0 61 44.5 90.5t109.5 29.5q64 0 106 -27t42 -84v-221h-104v53q-28 -59 -104 -59zM125 358q0 -13 10.5 -21t26.5 -8q26 0 43.5 15.5t17.5 43.5v19
q-14 -7 -41 -12.5t-42 -13t-15 -23.5z" />
    <glyph glyph-name="uni0062.superior" horiz-adv-x="400" 
d="M237 594q65 0 105.5 -46t40.5 -123q0 -76 -40.5 -122.5t-105.5 -46.5q-60 0 -97 48v-42h-106v488h109v-200q36 44 94 44zM210 499q-30 0 -48.5 -20t-18.5 -54q0 -33 18.5 -53t48.5 -20t49 20t19 53t-19 53.5t-49 20.5z" />
    <glyph glyph-name="uni0063.superior" horiz-adv-x="372" 
d="M246 452q-3 23 -19.5 35t-40.5 12q-29 0 -46.5 -20t-17.5 -54t17.5 -53.5t46.5 -19.5q55 0 61 53h108q-4 -67 -50 -108t-119 -41t-121 47.5t-48 121.5t48 121.5t121 47.5q70 0 116 -39t52 -103h-108z" />
    <glyph glyph-name="uni0064.superior" horiz-adv-x="400" 
d="M163 594q58 0 94 -44v200h109v-488h-106v42q-37 -48 -97 -48q-65 0 -105.5 46.5t-40.5 122.5q0 77 40.5 123t105.5 46zM190 499q-30 0 -48.5 -20t-18.5 -54q0 -33 18.5 -53t48.5 -20t48.5 20t18.5 53q0 34 -18.5 54t-48.5 20z" />
    <glyph glyph-name="uni0065.superior" horiz-adv-x="368" 
d="M350 399h-231q11 -58 67 -58q41 0 53 29h105q-32 -114 -160 -114q-73 0 -120 47.5t-47 121.5q0 75 46.5 122t120.5 47t120.5 -47t46.5 -122q0 -17 -1 -26zM184 509q-54 0 -64 -54h128q-12 54 -64 54z" />
    <glyph glyph-name="uni0066.superior" horiz-adv-x="247" 
d="M162 627v-39h75v-84h-75v-242h-110v242h-42v84h42v42q0 63 37 94.5t98 31.5q35 0 53 -6v-86q-17 5 -36 5q-42 0 -42 -42z" />
    <glyph glyph-name="uni0067.superior" horiz-adv-x="400" 
d="M163 256q-65 0 -105.5 46.5t-40.5 122.5t40.5 122.5t105.5 46.5q60 0 97 -48v42h106v-332q0 -73 -48.5 -118t-122.5 -45q-71 0 -117 39t-55 104h104q4 -27 21 -42.5t44 -15.5q31 0 48 20.5t17 55.5v46q-36 -44 -94 -44zM190 351q30 0 48.5 20t18.5 54q0 33 -18.5 54
t-48.5 21t-48.5 -21t-18.5 -54q0 -34 18.5 -54t48.5 -20z" />
    <glyph glyph-name="uni0068.superior" horiz-adv-x="380" 
d="M241 442q0 65 -49 65t-49 -65v-180h-109v488h109v-203q31 47 91 47q52 0 84 -32.5t32 -92.5v-207h-109v180z" />
    <glyph glyph-name="uni006A.superior" horiz-adv-x="175" 
d="M88 636q-27 0 -45 17t-18 43q0 25 18 42t45 17t44.5 -17t17.5 -42q0 -26 -17.5 -43t-44.5 -17zM34 222v366h109v-369q0 -123 -124 -123q-8 0 -48 4v86q8 -2 25 -2q38 0 38 38z" />
    <glyph glyph-name="uni006B.superior" horiz-adv-x="367" 
d="M143 750v-301l96 139h125l-115 -147l123 -179h-127l-102 168v-168h-109v488h109z" />
    <glyph glyph-name="uni006C.superior" horiz-adv-x="175" 
d="M143 262h-109v488h109v-488z" />
    <glyph glyph-name="uni006D.superior" horiz-adv-x="569" 
d="M232 446q0 61 -45 61q-44 0 -44 -61v-184h-109v326h106v-44q30 50 90 50q70 0 99 -59q29 59 99 59q50 0 81 -31.5t31 -90.5v-210h-110v184q0 61 -44 61q-45 0 -45 -61v-184h-109v184z" />
    <glyph glyph-name="uni006F.superior" horiz-adv-x="377" 
d="M189 256q-75 0 -123.5 47t-48.5 122t48.5 122t123.5 47q74 0 122.5 -47t48.5 -122t-48.5 -122t-122.5 -47zM189 352q29 0 48 20t19 53t-18.5 53.5t-48.5 20.5t-49 -20.5t-19 -53.5t19 -53t49 -20z" />
    </font>
</defs>
</svg>
