<svg width="19" height="18" viewBox="0 0 19 18" fill="none" xmlns="http://www.w3.org/2000/svg">
<path d="M9.52 0C4.5487 0 0.519531 4.02917 0.519531 8.99953C0.519408 10.1815 0.752128 11.352 1.2044 12.444C1.65667 13.5361 2.31964 14.5283 3.15543 15.3641C3.99123 16.1999 4.98348 16.8629 6.07552 17.3151C7.16757 17.7674 8.33801 18.0001 9.52 18C14.4894 18 18.5195 13.9708 18.5195 8.99953C18.5195 4.02917 14.4894 0 9.52 0ZM10.36 3.24921C11.2374 3.24921 11.4952 3.75824 11.4952 4.3404C11.4952 5.06692 10.914 5.73908 9.92123 5.73908C9.09065 5.73908 8.69504 5.32191 8.71942 4.63101C8.71942 4.04885 9.20595 3.24921 10.36 3.24921ZM8.11195 14.3899C7.51198 14.3899 7.07419 14.0252 7.49323 12.4269L8.18038 9.59106C8.29944 9.13734 8.31913 8.95547 8.18038 8.95547C8.00133 8.95547 7.22231 9.26858 6.76296 9.57794L6.46391 9.08765C7.92165 7.8699 9.59781 7.15556 10.315 7.15556C10.9149 7.15556 11.0143 7.86428 10.7153 8.95547L9.92779 11.9366C9.78811 12.4634 9.84811 12.6453 9.98779 12.6453C10.1678 12.6453 10.7565 12.4278 11.3358 11.9713L11.6752 12.4269C10.2568 13.8443 8.71098 14.3899 8.11195 14.3899Z" fill="black" fill-opacity="0.3"/>
</svg>
