<svg width="20" height="16" viewBox="0 0 20 16" fill="none" xmlns="http://www.w3.org/2000/svg">
<path d="M2.86953 9.5V11.4C2.87713 12.7357 3.50793 12.5281 3.97533 12.1272L6.66953 9.69475V10.925C6.66953 12.0793 6.93553 12.35 8.09453 12.35H12.3695C12.3695 12.35 14.8438 15.2594 14.8633 15.2399C15.2195 15.675 16.1843 15.5268 16.1695 14.725V12.35H17.5945C18.7583 12.35 19.0195 12.0607 19.0195 10.925V3.8C19.0195 2.66 18.7393 2.375 17.5945 2.375H12.8445V1.425C12.8445 0.25175 12.626 0 11.4195 0H1.44453C0.323531 0 0.0195312 0.24225 0.0195312 1.425V7.6C0.0195312 8.75853 0.280781 9.5 1.44453 9.5H2.86953ZM14.7445 10.925V13.1675L12.8445 10.925H8.56953C8.21328 10.925 8.09453 10.7968 8.09453 10.45V4.275C8.09453 3.95675 8.24178 3.8 8.56953 3.8H17.1195C17.4468 3.8 17.5945 3.97575 17.5945 4.2465V10.45C17.5945 10.7925 17.424 10.925 17.1195 10.925H14.7445Z" fill="black" fill-opacity="0.3"/>
</svg>
