<svg xmlns="http://www.w3.org/2000/svg" width="88" height="24" fill="none" viewBox="0 0 88 24">
  <path fill="#000" fill-rule="evenodd" d="M40 22V2c0-.5-.2-1-.7-1.4-.4-.4-1-.6-1.5-.6H2.2C1.6 0 1.1.2.7.6.2 1 0 1.5 0 2v20c0 .5.2 1 .7 1.4.4.4 1 .6 1.5.6h35.6c.6 0 1.1-.2 1.5-.6.5-.4.7-.9.7-1.4zm48 0V2c0-.5-.2-1-.7-1.4-.4-.4-1-.6-1.5-.6H50.2c-.6 0-1.1.2-1.5.6-.5.4-.7.9-.7 1.4v20c0 .5.2 1 .7 1.4.4.4 1 .6 1.5.6h35.6c.6 0 1.1-.2 1.5-.6.5-.4.7-.9.7-1.4zM61.8 3c1.8 0 3.4.5 5 1.5a9.8 9.8 0 0 0 0 15 8.5 8.5 0 0 1-8.4.8A9 9 0 0 1 53 12a9.1 9.1 0 0 1 2.6-6.4A8.9 8.9 0 0 1 61.8 3zM65 9.3a8.8 8.8 0 0 1 3-4.4A9.1 9.1 0 0 1 68 19a9.1 9.1 0 0 1-3-9.7zm4.3-4.8a9.8 9.8 0 0 1 0 15 8.5 8.5 0 0 0 8.3.8A9 9 0 0 0 83 12a9.1 9.1 0 0 0-2.6-6.4A8.9 8.9 0 0 0 74.2 3c-1.8 0-3.4.5-5 1.5zM24.3 6c1 0 1.9.2 2.7.5L26.6 9l-.3-.1a5 5 0 0 0-2.2-.5c-.6 0-1 .1-1.3.3-.3.2-.4.5-.4.7 0 .3 0 .5.4.7l1.2.8c1.7.8 2.6 1.8 2.6 3.1 0 1.2-.5 2.2-1.5 3a6 6 0 0 1-3.8 1 8 8 0 0 1-3.3-.6l.4-2.6.4.2c.9.4 1.8.6 2.8.6.5 0 1-.1 1.3-.3.3-.2.5-.5.5-.9a1 1 0 0 0-.3-.7 5 5 0 0 0-1.2-.7c-1.8-.9-2.7-2-2.7-3.2 0-1 .5-2 1.5-2.7 1-.7 2.1-1.1 3.6-1.1zm7.3.5h2.1l2.3 11h-2.6l-.3-1.6h-3.6l-.6 1.6H26l4.1-10c.3-.7.8-1 1.5-1zm1 7.1h-2.3l.4-1c.4-1 .8-2 1-3l1 4zm-15.5 4H14l2-11h3l-2 11zM7.9 7.4l1 5C8 9.5 5.6 7.7 2 6.8v-.3h4.6c.8 0 1.2.3 1.3 1zm4-1l-2.7 7.6-.3-1.6a6.7 6.7 0 0 0-3.7-3.7l2.3 8.7h3l4.5-11h-3z" clip-rule="evenodd"/>
</svg>
