<svg width="59" height="24" viewBox="0 0 59 24" fill="none" xmlns="http://www.w3.org/2000/svg">
<path d="M47.8084 23.9259V21.7913C47.9824 21.8155 48.4046 21.8406 48.6284 21.8406C49.8586 21.8406 50.5547 21.3227 50.9774 19.9898L51.226 19.1999L46.5156 6.24411H49.4235L52.7049 16.7567H52.767L56.0479 6.24411H58.8817L53.9972 19.854C52.8789 22.9756 51.598 24 48.8894 24C48.6781 24 47.9944 23.9753 47.8084 23.9259V23.9259ZM11.7632 4.66576C10.162 4.57129 8.8008 5.56767 8.03628 5.56767C7.27129 5.56767 6.10084 4.7137 4.8343 4.73649C3.18621 4.7607 1.6567 5.68587 0.82046 7.15742C-0.899824 10.101 0.366243 14.4677 2.03919 16.8654C2.85152 18.0516 3.83072 19.3575 5.12069 19.3105C6.3399 19.263 6.81755 18.5268 8.29925 18.5268C9.77999 18.5268 10.2103 19.3105 11.5003 19.2868C12.8385 19.263 13.6753 18.1 14.4876 16.9128C15.4194 15.5604 15.801 14.255 15.8249 14.1834C15.801 14.1596 13.2449 13.186 13.221 10.2667C13.1971 7.82246 15.2277 6.65947 15.3233 6.58731C14.1768 4.90358 12.3843 4.7137 11.7632 4.66576V4.66576ZM37.4767 10.0692H34.966C35.0406 7.7617 37.228 6.08414 40.1862 6.08414C43.3676 6.08414 45.4431 7.73749 45.4431 10.3037V19.1629H42.8704V17.0287H42.8082C42.0752 18.4228 40.4592 19.2986 38.7069 19.2986C36.1217 19.2986 34.3201 17.7687 34.3201 15.474C34.3201 13.1908 36.0724 11.883 39.3036 11.686L42.7709 11.4757V10.4888C42.7709 9.04527 41.8142 8.25539 40.1116 8.25539C38.7069 8.25539 37.6875 8.97122 37.4767 10.0692V10.0692ZM23.7866 19.1629H21.0025V1.3581H27.7263C31.2061 1.3581 33.6292 3.73916 33.6292 7.20679C33.6292 10.6863 31.1564 13.0802 27.6393 13.0802H23.7866V19.1629ZM42.7709 14.3262V13.3265L39.6765 13.524C37.9366 13.6351 37.0291 14.2769 37.0291 15.3995C37.0291 16.4856 37.9739 17.1891 39.4527 17.1891C41.3418 17.1891 42.7709 15.9919 42.7709 14.3262ZM26.9929 3.69026H23.7866V10.7603H26.9804C29.404 10.7603 30.7834 9.4649 30.7834 7.21913C30.7834 4.97336 29.404 3.69026 26.9929 3.69026V3.69026ZM10.7697 3.095C11.4405 2.26191 11.8957 1.14354 11.7757 0C10.7936 0.0488934 9.59544 0.643684 8.9012 1.47724C8.27821 2.19118 7.72694 3.35655 7.87085 4.45215C8.9734 4.54708 10.0745 3.90482 10.7697 3.095V3.095Z" fill="black"/>
</svg>
