<svg xmlns="http://www.w3.org/2000/svg" width="24" height="24" fill="none" viewBox="0 0 24 24">
  <path fill="#FFCC3A" d="M5.61 18.09c.98-.33 3.19-1.03 3.19-1.03V5.9L5.6 6.96V18.1zm-.54 1.85a.3.3 0 01-.12.05L4.8 20a.78.78 0 01-.58-.23.78.78 0 01-.23-.58V6.4a.8.8 0 01.56-.77C6 5.16 7.46 4.5 8.95 4.23a3.76 3.76 0 011.32 0c1.28.22 2.45.9 3.73 1.16a2 2 0 00.8 0c1.4-.27 2.78-.9 4.13-1.35A1 1 0 0119.2 4c.23 0 .42.08.58.23.15.16.23.35.23.56v12.8c0 .18-.05.34-.16.49a.77.77 0 01-.4.29c-1.43.47-2.9 1.14-4.39 1.4a3.76 3.76 0 01-1.32 0c-.14-.02-.6-.15-.59-.15l-2.79-.93a2.11 2.11 0 00-.75-.12c-.14 0-.27.01-.4.03-.08.01-.36.1-.35.09l-3.78 1.25zm13.32-2.92V5.92L15.2 6.93V18.1l3.19-1.07zm-4.8 1.07V6.94l-3.18-1.03v11.15l3.18 1.03z"/>
</svg>
