<svg xmlns="http://www.w3.org/2000/svg" width="24" height="24" fill="none" viewBox="0 0 24 24">
  <path fill="#FFCC3A" d="M18.1 13.42a8.35 8.35 0 01-1.9-.43c-.4-.14-.8-.17-1.22-.07-.41.1-.78.3-1.11.59l-.52.51c-.66-.44-1.28-.94-1.85-1.5a9.88 9.88 0 01-1.5-1.87l.51-.52c.29-.28.48-.64.57-1.08.1-.43.08-.85-.06-1.25a6.93 6.93 0 01-.44-1.9c-.07-.55-.32-1-.74-1.36C9.42 4.18 8.94 4 8.4 4H5.97a2.38 2.38 0 00-1.46.8 2 2 0 00-.39.75c-.08.28-.12.57-.12.87.06.58.15 1.16.27 1.74a15.95 15.95 0 003.02 6.22 14.1 14.1 0 002.33 2.33 15.54 15.54 0 004.51 2.54 15.5 15.5 0 003.47.75h.2c.3 0 .59-.05.86-.16.28-.11.5-.27.69-.5.18-.2.34-.44.46-.7.13-.26.19-.54.19-.83v-2.2c0-.54-.18-1.03-.54-1.44a2.15 2.15 0 00-1.36-.75zm.44 2.2v2.19c0 .11-.01.2-.05.29a.62.62 0 01-.17.22.6.6 0 01-.23.17.97.97 0 01-.35.05 12.2 12.2 0 01-3.1-.7c-.5-.18-1-.39-1.5-.62-.47-.23-.94-.5-1.4-.8a12.14 12.14 0 01-3.29-2.95 15.65 15.65 0 01-1.66-2.62 12.8 12.8 0 01-1.08-3.01c-.11-.52-.2-1.04-.25-1.58 0-.1.01-.2.05-.27l.1-.24c.07-.07.15-.14.26-.2.1-.06.2-.1.32-.1h2.2c.18 0 .34.07.47.2a1 1 0 01.26.47 6.75 6.75 0 00.58 2.2.99.99 0 01-.15.8l-.94.88a.68.68 0 00-.22.4c-.02.16 0 .32.06.47.28.5.59.96.93 1.4a11.4 11.4 0 002.35 2.37c.44.33.9.63 1.4.9.15.09.3.12.47.1.17-.02.3-.1.4-.23l.96-.96c.12-.1.24-.17.38-.2a.58.58 0 01.43.06c.36.14.73.25 1.1.34l1.1.25c.14.03.27.11.4.24.11.13.17.3.17.47z"/>
</svg>
