<svg width="22" height="22" viewBox="0 0 22 22" fill="none" xmlns="http://www.w3.org/2000/svg">
<path d="M6.0383 15.9617C7.41135 17.3036 9.06524 17.9745 11 17.9745C12.9348 17.9745 14.5808 17.2958 15.9383 15.9383C17.2958 14.5808 17.9745 12.9348 17.9745 11C17.9745 9.06524 17.2958 7.41916 15.9383 6.0617C14.5808 4.70425 12.9348 4.02553 11 4.02553C9.06524 4.02553 7.41916 4.70425 6.0617 6.0617C4.70425 7.41916 4.02553 9.06524 4.02553 11C4.02553 12.9348 4.69645 14.5886 6.0383 15.9617ZM19.9404 10.017H22V11.983H19.9404C19.722 14.0738 18.8638 15.8681 17.366 17.366C15.8681 18.8638 14.0738 19.722 11.983 19.9404V22H10.017V19.9404C7.92623 19.722 6.13192 18.8638 4.63404 17.366C3.13616 15.8681 2.27802 14.0738 2.05957 11.983H0V10.017H2.05957C2.27802 7.92623 3.13616 6.13192 4.63404 4.63404C6.13192 3.13616 7.92623 2.27802 10.017 2.05957V0H11.983V2.05957C14.0738 2.27802 15.8681 3.13616 17.366 4.63404C18.8638 6.13192 19.722 7.92623 19.9404 10.017ZM8.19149 8.19149C8.97163 7.41134 9.9078 7.02128 11 7.02128C12.0922 7.02128 13.0284 7.41134 13.8085 8.19149C14.5887 8.97163 14.9787 9.9078 14.9787 11C14.9787 12.0922 14.5887 13.0284 13.8085 13.8085C13.0284 14.5887 12.0922 14.9787 11 14.9787C9.9078 14.9787 8.97163 14.5887 8.19149 13.8085C7.41134 13.0284 7.02128 12.0922 7.02128 11C7.02128 9.9078 7.41134 8.97163 8.19149 8.19149Z" fill="black"/>
</svg>
