<svg width="22" height="18" viewBox="0 0 22 18" fill="none" xmlns="http://www.w3.org/2000/svg">
<path d="M12.5195 0C10.1326 0 7.8434 0.948211 6.15557 2.63604C4.46774 4.32387 3.51953 6.61305 3.51953 9H0.519531L4.40953 12.89L4.47953 13.03L8.51953 9H5.51953C5.51953 5.13 8.64953 2 12.5195 2C16.3895 2 19.5195 5.13 19.5195 9C19.5195 12.87 16.3895 16 12.5195 16C10.5895 16 8.83953 15.21 7.57953 13.94L6.15953 15.36C6.99295 16.198 7.98402 16.8627 9.07559 17.3158C10.1672 17.769 11.3377 18.0015 12.5195 18C14.9065 18 17.1957 17.0518 18.8835 15.364C20.5713 13.6761 21.5195 11.3869 21.5195 9C21.5195 6.61305 20.5713 4.32387 18.8835 2.63604C17.1957 0.948211 14.9065 3.55683e-08 12.5195 0ZM11.5195 5V10L15.7995 12.54L16.5195 11.33L13.0195 9.25V5H11.5195Z" fill="#ACACAC"/>
</svg>
