<svg version="1.1" xmlns="http://www.w3.org/2000/svg" xmlns:xlink="http://www.w3.org/1999/xlink" width="62" height="88"  xml:space="preserve" id="poi_selectedCanvas">
    <circle id="poi_selectedCanvas-dot" stroke="none" fill="rgb(255, 255, 255)" cx="0" cy="-0" r="2.5"  transform="translate(30.93, 85.48)" />
    <path id="poi_selectedCanvas-body" fill-rule="evenodd" stroke="none" fill="rgb(255, 255, 255)" d="M 0.02,-79.23 C -17,-79.23 -30.83,-65.39 -30.83,-48.37 -30.83,-37.99 -24.82,-29.3 -17.82,-23.23 -15.61,-21.33 -11.76,-18.29 -8.31,-13.82 -4.51,-8.83 -1.06,-3.48 0.02,0.12 1.1,-3.48 4.54,-8.83 8.35,-13.82 11.79,-18.29 15.65,-21.33 17.86,-23.23 24.86,-29.3 30.87,-37.99 30.87,-48.37 30.87,-65.39 17.04,-79.23 0.02,-79.23 Z M 0.02,-79.23" transform="translate(30.91, 79.58)"  />
    <path id="poi_selectedCanvas-logo" stroke="none" fill="rgb(0, 0, 0)" d="M -15.65,-31.6 L -15.65,-0.03 15.91,-0.03 15.91,-0.68 15.91,-31.6 -15.65,-31.6 Z M 14.59,-10.77 C 13.63,-10.7 12.74,-10.41 11.92,-9.98 10.42,-9.2 9.17,-7.92 8.31,-6.28 8.28,-6.24 8.28,-6.2 8.24,-6.13 L 8.24,-8.2 C 8.24,-10.66 9.06,-12.87 10.31,-14.48 10.95,-15.26 11.7,-15.9 12.52,-16.33 13.16,-16.69 13.88,-16.9 14.59,-16.97 L 14.59,-10.77 Z M -6.81,-15.98 C -6.81,-18.44 -5.99,-20.65 -4.74,-22.25 -4.1,-23.04 -3.35,-23.68 -2.53,-24.11 -1.89,-24.43 -1.24,-24.64 -0.53,-24.75 L -0.53,-18.33 C -1.46,-18.26 -2.35,-17.97 -3.13,-17.55 -4.63,-16.76 -5.88,-15.48 -6.74,-13.84 -6.77,-13.8 -6.77,-13.76 -6.81,-13.69 L -6.81,-15.98 Z M 6.89,-13.69 C 6.57,-14.26 6.21,-14.83 5.82,-15.3 5.07,-16.23 4.18,-16.97 3.18,-17.51 2.43,-17.9 1.61,-18.19 0.72,-18.29 L 0.72,-24.71 C 1.36,-24.61 1.97,-24.43 2.54,-24.11 3.79,-23.47 4.86,-22.36 5.6,-20.93 6.35,-19.54 6.82,-17.79 6.82,-15.98 L 6.82,-13.69 6.89,-13.69 Z M -6.81,-8.24 C -6.81,-10.7 -5.99,-12.91 -4.74,-14.51 -4.1,-15.3 -3.35,-15.94 -2.53,-16.37 -1.89,-16.69 -1.24,-16.9 -0.53,-17.01 L -0.53,-10.8 C -1.46,-10.73 -2.35,-10.45 -3.13,-10.02 -4.63,-9.24 -5.88,-7.95 -6.74,-6.31 -6.77,-6.28 -6.77,-6.24 -6.81,-6.17 L -6.81,-8.24 Z M 0.79,-16.97 C 1.43,-16.87 2.04,-16.69 2.61,-16.37 3.86,-15.73 4.93,-14.62 5.68,-13.19 6.42,-11.8 6.89,-10.06 6.89,-8.24 L 6.89,-6.2 C 6.57,-6.77 6.21,-7.35 5.82,-7.81 5.07,-8.74 4.18,-9.49 3.18,-10.02 2.43,-10.41 1.61,-10.7 0.72,-10.8 L 0.72,-16.97 0.79,-16.97 Z M 14.59,-18.29 C 13.63,-18.22 12.74,-17.94 11.92,-17.51 10.42,-16.72 9.17,-15.44 8.31,-13.8 8.28,-13.76 8.28,-13.73 8.24,-13.66 L 8.24,-15.94 C 8.24,-18.4 9.06,-20.61 10.31,-22.22 10.95,-23 11.7,-23.64 12.52,-24.07 13.16,-24.43 13.88,-24.64 14.59,-24.71 L 14.59,-18.29 Z M 5.85,-23.07 C 5.1,-24 4.21,-24.75 3.21,-25.28 2.47,-25.68 1.65,-25.96 0.75,-26.07 L 0.75,-30.28 6.89,-30.28 6.89,-21.43 C 6.6,-22.04 6.25,-22.57 5.85,-23.07 Z M -0.53,-26.03 C -1.46,-25.96 -2.35,-25.68 -3.13,-25.25 -4.63,-24.46 -5.88,-23.18 -6.74,-21.54 -6.77,-21.5 -6.77,-21.47 -6.81,-21.4 L -6.81,-30.28 -0.53,-30.28 -0.53,-26.03 Z M -8.13,-13.69 C -8.45,-14.26 -8.8,-14.83 -9.2,-15.3 -9.95,-16.23 -10.84,-16.97 -11.84,-17.51 -12.62,-17.94 -13.48,-18.19 -14.37,-18.29 L -14.37,-24.71 C -13.65,-24.61 -13.05,-24.43 -12.44,-24.11 -11.19,-23.47 -10.12,-22.36 -9.37,-20.93 -8.63,-19.54 -8.16,-17.79 -8.16,-15.98 L -8.16,-13.69 -8.13,-13.69 Z M -12.44,-16.37 C -11.19,-15.73 -10.12,-14.62 -9.37,-13.19 -8.63,-11.8 -8.16,-10.06 -8.16,-8.24 L -8.16,-6.2 C -8.48,-6.77 -8.84,-7.35 -9.23,-7.81 -9.98,-8.74 -10.87,-9.49 -11.87,-10.02 -12.66,-10.45 -13.51,-10.7 -14.4,-10.8 L -14.4,-16.97 C -13.65,-16.87 -13.05,-16.65 -12.44,-16.37 Z M -4.74,-6.99 C -4.1,-7.77 -3.35,-8.42 -2.53,-8.84 -1.89,-9.16 -1.24,-9.38 -0.53,-9.49 L -0.53,-1.39 -6.81,-1.39 C -6.66,-3.56 -5.92,-5.53 -4.74,-6.99 Z M 0.79,-9.45 C 1.43,-9.34 2.04,-9.16 2.61,-8.84 3.86,-8.2 4.93,-7.1 5.68,-5.67 6.35,-4.42 6.78,-2.96 6.89,-1.35 L 0.79,-1.35 0.79,-9.45 Z M 10.31,-6.99 C 10.95,-7.77 11.7,-8.42 12.52,-8.84 13.16,-9.2 13.88,-9.41 14.59,-9.49 L 14.59,-1.39 8.24,-1.39 C 8.39,-3.56 9.13,-5.53 10.31,-6.99 Z M 14.59,-26.07 C 13.63,-26 12.74,-25.71 11.92,-25.28 10.42,-24.5 9.17,-23.22 8.31,-21.58 8.28,-21.54 8.28,-21.5 8.24,-21.43 L 8.24,-30.28 14.59,-30.28 14.59,-26.07 Z M -8.13,-30.28 L -8.13,-21.43 C -8.45,-22 -8.8,-22.57 -9.2,-23.04 -9.95,-23.96 -10.84,-24.71 -11.84,-25.25 -12.62,-25.68 -13.48,-25.93 -14.37,-26.03 L -14.37,-30.28 -8.13,-30.28 Z M -14.33,-9.45 C -13.65,-9.34 -13.01,-9.16 -12.44,-8.84 -11.19,-8.2 -10.12,-7.1 -9.37,-5.67 -8.7,-4.42 -8.27,-2.96 -8.16,-1.35 L -14.33,-1.35 -14.33,-9.45 Z M -14.33,-9.45" transform="translate(30.8, 46.2)"  />
</svg>
