<svg xmlns="http://www.w3.org/2000/svg" width="35" height="46" fill="none" viewBox="0 0 35 46">
  <path fill="#000" fill-rule="evenodd" d="M17.58.84C8.1.84.4 8.54.4 18.02c0 5.78 3.35 10.62 7.24 14 1.24 1.05 3.38 2.74 5.3 5.23 2.12 2.78 4.04 5.76 4.64 7.76.6-2 2.52-4.98 4.63-7.76 1.92-2.49 4.07-4.18 5.3-5.23 3.9-3.38 7.24-8.22 7.24-14 0-9.48-7.7-17.18-17.17-17.18z" clip-rule="evenodd"/>
  <path fill="#fff" d="M8.8 8.77v17.57h17.56V8.77H8.8zm16.83 11.6c-.54.03-1.03.2-1.5.43a4.8 4.8 0 0 0-2 2.07l-.04.08v-1.16c0-1.37.46-2.6 1.16-3.49.35-.44.77-.8 1.23-1.03a3 3 0 0 1 1.15-.36v3.45zm-11.91-2.9c0-1.37.45-2.6 1.15-3.5a3.64 3.64 0 0 1 2.34-1.39v3.58c-.52.04-1.01.2-1.45.43a4.8 4.8 0 0 0-2 2.07l-.04.08v-1.27zm7.62 1.27a5.83 5.83 0 0 0-.6-.9 4.82 4.82 0 0 0-1.47-1.23 3.96 3.96 0 0 0-1.37-.43V12.6c.36.06.7.16 1.02.34.7.36 1.29.97 1.7 1.77.42.77.68 1.74.68 2.76v1.27h.04zm-7.62 3.03c0-1.37.45-2.6 1.15-3.49a3.64 3.64 0 0 1 2.34-1.39v3.46c-.52.03-1.01.2-1.45.43a4.8 4.8 0 0 0-2 2.07l-.04.08v-1.16zm4.22-4.86c.36.06.7.16 1.02.34.7.36 1.29.97 1.7 1.76.42.78.68 1.75.68 2.76v1.14a5.83 5.83 0 0 0-.6-.9 4.82 4.82 0 0 0-1.47-1.23 3.96 3.96 0 0 0-1.37-.43V16.9h.04zm7.69-.73c-.54.04-1.03.2-1.5.43a4.8 4.8 0 0 0-2 2.07l-.04.08v-1.27c0-1.37.46-2.6 1.16-3.5.35-.43.77-.8 1.23-1.03a3 3 0 0 1 1.15-.36v3.58zm-4.87-2.66a4.82 4.82 0 0 0-1.47-1.24 3.96 3.96 0 0 0-1.37-.43V9.5h3.42v4.93a4.75 4.75 0 0 0-.58-.91zm-3.55-1.65c-.52.04-1.01.2-1.45.43a4.8 4.8 0 0 0-2 2.07l-.04.08V9.5h3.49v2.37zm-4.23 6.87a5.82 5.82 0 0 0-.6-.9 4.82 4.82 0 0 0-1.46-1.23 3.9 3.9 0 0 0-1.41-.43V12.6c.4.06.73.16 1.07.34.7.36 1.29.97 1.7 1.77.42.77.68 1.74.68 2.76v1.27h.02zm-2.4-1.5c.7.37 1.29.98 1.7 1.77.42.78.68 1.75.68 2.76v1.14a5.83 5.83 0 0 0-.6-.9 4.82 4.82 0 0 0-1.46-1.23 3.9 3.9 0 0 0-1.41-.43V16.9c.41.06.75.18 1.09.34zm4.29 5.23a3.64 3.64 0 0 1 2.34-1.39v4.5h-3.5c.09-1.2.5-2.3 1.16-3.11zm3.07-1.37c.36.06.7.16 1.02.34.7.35 1.29.97 1.7 1.76.38.7.62 1.51.68 2.4h-3.4v-4.5zm5.3 1.37c.36-.44.78-.8 1.24-1.03a3 3 0 0 1 1.15-.36v4.5h-3.54c.08-1.2.5-2.3 1.16-3.11zm2.39-10.62c-.54.04-1.03.2-1.5.43a4.8 4.8 0 0 0-2 2.07l-.04.08V9.5h3.54v2.35zM12.98 9.5v4.93a5.82 5.82 0 0 0-.6-.9 4.82 4.82 0 0 0-1.46-1.23 3.89 3.89 0 0 0-1.41-.43V9.5h3.47zM9.53 21.1c.37.06.73.16 1.05.34.7.35 1.29.97 1.7 1.76.38.7.62 1.51.68 2.4H9.53v-4.5z"/>
</svg>
