<svg width="142" height="144" viewBox="0 0 142 144" fill="none" xmlns="http://www.w3.org/2000/svg">
<path d="M45.0015 3.18311H39.957C24.9581 3.18311 17.4586 3.18311 12.2013 7.00277C10.5034 8.23636 9.01028 9.72951 7.77669 11.4274C3.95703 16.6847 3.95703 24.1842 3.95703 39.1831V44.2276" stroke="#FFCC3A" stroke-width="6" stroke-linecap="round" stroke-linejoin="round"/>
<path d="M138.302 44.2276L138.302 39.1831C138.302 24.1842 138.302 16.6847 134.483 11.4274C133.249 9.72951 131.756 8.23636 130.058 7.00277C124.801 3.1831 117.301 3.1831 102.302 3.1831L97.2578 3.1831" stroke="#FFCC3A" stroke-width="6" stroke-linecap="round" stroke-linejoin="round"/>
<path d="M97.2578 140.556L102.302 140.556C117.301 140.556 124.801 140.556 130.058 136.736C131.756 135.503 133.249 134.01 134.483 132.312C138.302 127.055 138.302 119.555 138.302 104.556L138.302 99.5117" stroke="#FFCC3A" stroke-width="6" stroke-linecap="round" stroke-linejoin="round"/>
<path d="M3.95704 99.5117L3.95704 104.556C3.95703 119.555 3.95703 127.055 7.77669 132.312C9.01028 134.01 10.5034 135.503 12.2013 136.736C17.4586 140.556 24.9581 140.556 39.957 140.556L45.0015 140.556" stroke="#FFCC3A" stroke-width="6" stroke-linecap="round" stroke-linejoin="round"/>
</svg>
