<svg width="90" height="90" viewBox="0 0 90 90" fill="none" xmlns="http://www.w3.org/2000/svg">
<path d="M0 0V32.7273H8.18182V40.9091H16.3636V32.7273H32.7273V0H0ZM32.7273 32.7273V40.9091H40.9091V49.0909H24.5455V57.2727H0V90H32.7273V57.2727H57.2727V49.0909H49.0909V40.9091H65.4545V32.7273H73.6364V40.9091H81.8182V32.7273H90V0H57.2727V32.7273H32.7273ZM81.8182 40.9091V49.0909H90V40.9091H81.8182ZM81.8182 49.0909H73.6364V57.2727H81.8182V49.0909ZM81.8182 57.2727V65.4545H90V57.2727H81.8182ZM81.8182 65.4545H73.6364V57.2727H65.4545V65.4545H45V90H53.1818V73.6364H69.5455V81.8182H77.7273V73.6364H81.8182V65.4545ZM69.5455 81.8182H61.3636V90H69.5455V81.8182ZM73.6364 49.0909V40.9091H65.4545V49.0909H73.6364ZM24.5455 49.0909V40.9091H16.3636V49.0909H24.5455ZM8.18182 40.9091H0V49.0909H8.18182V40.9091ZM40.9091 0V16.3636H36.8182V24.5455H40.9091V28.6364H49.0909V16.3636H53.1818V8.18182H49.0909V0H40.9091ZM8.18182 8.18182H24.5455V24.5455H8.18182V8.18182ZM65.4545 8.18182H81.8182V24.5455H65.4545V8.18182ZM12.2727 12.2727V20.4545H20.4545V12.2727H12.2727ZM69.5455 12.2727V20.4545H77.7273V12.2727H69.5455ZM8.18182 65.4545H24.5455V81.8182H8.18182V65.4545ZM12.2727 69.5455V77.7273H20.4545V69.5455H12.2727ZM81.8182 81.8182V90H90V81.8182H81.8182Z" fill="#E0E0E0"/>
</svg>
