<svg width="244" height="246" viewBox="0 0 244 246" fill="none" xmlns="http://www.w3.org/2000/svg">
<path d="M44.088 3.13086H39.0434C24.0445 3.13086 16.5451 3.13086 11.2878 6.95052C9.58986 8.18411 8.09671 9.67726 6.86312 11.3752C3.04346 16.6325 3.04346 24.1319 3.04346 39.1308V44.1754" stroke="#FFCC3A" stroke-width="6" stroke-linecap="round" stroke-linejoin="round"/>
<path d="M240.553 44.1754L240.553 39.1309C240.553 24.1319 240.553 16.6325 236.733 11.3752C235.499 9.67726 234.006 8.18411 232.308 6.95052C227.051 3.13086 219.552 3.13086 204.553 3.13086L199.508 3.13086" stroke="#FFCC3A" stroke-width="6" stroke-linecap="round" stroke-linejoin="round"/>
<path d="M199.508 242.858L204.553 242.858C219.552 242.858 227.051 242.858 232.308 239.039C234.006 237.805 235.499 236.312 236.733 234.614C240.553 229.357 240.553 221.857 240.553 206.858L240.553 201.814" stroke="#FFCC3A" stroke-width="6" stroke-linecap="round" stroke-linejoin="round"/>
<path d="M3.04346 201.814L3.04346 206.858C3.04346 221.857 3.04346 229.357 6.86312 234.614C8.09671 236.312 9.58986 237.805 11.2878 239.039C16.5451 242.858 24.0445 242.858 39.0434 242.858L44.088 242.858" stroke="#FFCC3A" stroke-width="6" stroke-linecap="round" stroke-linejoin="round"/>
</svg>
