<svg width="20" height="20" viewBox="0 0 20 20" fill="none" xmlns="http://www.w3.org/2000/svg">
<path d="M19.2163 17.9671L13.2503 12.0011C14.1761 10.8042 14.6769 9.34089 14.6769 7.80172C14.6769 5.95931 13.9579 4.23176 12.6576 2.92921C11.3574 1.62666 9.62523 0.909912 7.78512 0.909912C5.945 0.909912 4.21286 1.62896 2.91261 2.92921C1.61006 4.22946 0.893311 5.95931 0.893311 7.80172C0.893311 9.64183 1.61236 11.374 2.91261 12.6742C4.21286 13.9768 5.94271 14.6935 7.78512 14.6935C9.32428 14.6935 10.7853 14.1927 11.9822 13.2692L17.9482 19.2329C17.9657 19.2504 17.9865 19.2643 18.0094 19.2738C18.0322 19.2833 18.0567 19.2881 18.0815 19.2881C18.1062 19.2881 18.1307 19.2833 18.1536 19.2738C18.1764 19.2643 18.1972 19.2504 18.2147 19.2329L19.2163 18.2336C19.2338 18.2161 19.2477 18.1953 19.2572 18.1725C19.2667 18.1496 19.2715 18.1251 19.2715 18.1004C19.2715 18.0756 19.2667 18.0511 19.2572 18.0283C19.2477 18.0054 19.2338 17.9846 19.2163 17.9671ZM11.424 11.4406C10.4499 12.4123 9.15888 12.9476 7.78512 12.9476C6.41135 12.9476 5.12028 12.4123 4.14624 11.4406C3.1745 10.4665 2.63923 9.17548 2.63923 7.80172C2.63923 6.42795 3.1745 5.13459 4.14624 4.16284C5.12028 3.1911 6.41135 2.65584 7.78512 2.65584C9.15888 2.65584 10.4522 3.1888 11.424 4.16284C12.3957 5.13689 12.931 6.42795 12.931 7.80172C12.931 9.17548 12.3957 10.4688 11.424 11.4406Z" fill="black"/>
</svg>
