<svg width="296" height="171" viewBox="0 0 296 171" fill="none" xmlns="http://www.w3.org/2000/svg">
<g clip-path="url(#clip0)">
<path d="M268.526 60.3198H266.887C266.887 54.4602 263.135 49.7208 258.52 49.7208V48.0835C264.041 48.0835 268.526 53.5985 268.526 60.3198Z" fill="#D1D1D1"/>
<path d="M268.526 60.3198H266.887C266.887 53.5554 271.373 48.0835 276.893 48.0835V49.7208C272.278 49.7208 268.526 54.5033 268.526 60.3198Z" fill="#D1D1D1"/>
<path d="M276.064 -0.0195007L275.629 170.298L277.268 170.302L277.703 -0.0153219L276.064 -0.0195007Z" fill="#D1D1D1"/>
<path d="M266.867 -0.0299988L266.432 170.287L268.071 170.292L268.506 -0.02582L266.867 -0.0299988Z" fill="#D1D1D1"/>
<path d="M285.06 0.00587463L284.625 170.323L286.264 170.328L286.699 0.0100534L285.06 0.00587463Z" fill="#D1D1D1"/>
<path d="M268.526 51.2289H266.887C266.887 45.3692 263.135 40.6298 258.52 40.6298V38.9926C264.041 38.9926 268.526 44.5075 268.526 51.2289Z" fill="#D1D1D1"/>
<path d="M268.526 51.2289H266.887C266.887 44.4644 271.373 38.9926 276.893 38.9926V40.6298C272.278 40.6729 268.526 45.4123 268.526 51.2289Z" fill="#D1D1D1"/>
<path d="M268.526 41.8791H266.887C266.887 36.0195 263.135 31.2801 258.52 31.2801V29.6428C264.041 29.6428 268.526 35.1578 268.526 41.8791Z" fill="#D1D1D1"/>
<path d="M268.526 41.8791H266.887C266.887 35.1147 271.373 29.6428 276.893 29.6428V31.2801C272.278 31.2801 268.526 36.0626 268.526 41.8791Z" fill="#D1D1D1"/>
<path d="M286.727 60.3198H285.088C285.088 54.4602 281.336 49.7208 276.721 49.7208V48.0835C282.241 48.0835 286.727 53.5985 286.727 60.3198Z" fill="#D1D1D1"/>
<path d="M286.727 60.3198H285.088C285.088 53.5554 289.573 48.0835 295.094 48.0835V49.7208C290.479 49.7208 286.727 54.5033 286.727 60.3198Z" fill="#D1D1D1"/>
<path d="M286.727 51.2289H285.088C285.088 45.3692 281.336 40.6298 276.721 40.6298V38.9926C282.241 38.9926 286.727 44.5075 286.727 51.2289Z" fill="#D1D1D1"/>
<path d="M286.727 51.2289H285.088C285.088 44.4644 289.573 38.9926 295.094 38.9926V40.6298C290.479 40.6729 286.727 45.4123 286.727 51.2289Z" fill="#D1D1D1"/>
<path d="M286.727 41.8791H285.088C285.088 36.0195 281.336 31.2801 276.721 31.2801V29.6428C282.241 29.6428 286.727 35.1578 286.727 41.8791Z" fill="#D1D1D1"/>
<path d="M286.727 41.8791H285.088C285.088 35.1147 289.573 29.6428 295.094 29.6428V31.2801C290.479 31.2801 286.727 36.0626 286.727 41.8791Z" fill="#D1D1D1"/>
<path d="M268.526 32.8313H266.887C266.887 26.9716 263.135 22.2322 258.52 22.2322V20.595C264.041 20.595 268.526 26.1099 268.526 32.8313Z" fill="#D1D1D1"/>
<path d="M268.526 32.8313H266.887C266.887 26.0668 271.373 20.595 276.893 20.595V22.2322C272.278 22.2322 268.526 27.0147 268.526 32.8313Z" fill="#D1D1D1"/>
<path d="M286.727 32.8313H285.088C285.088 26.9716 281.336 22.2322 276.721 22.2322V20.595C282.241 20.595 286.727 26.1099 286.727 32.8313Z" fill="#D1D1D1"/>
<path d="M286.727 32.8313H285.088C285.088 26.0668 289.573 20.595 295.094 20.595V22.2322C290.479 22.2322 286.727 27.0147 286.727 32.8313Z" fill="#D1D1D1"/>
<path d="M295.181 59.5012H258.606V61.1385H295.181V59.5012Z" fill="#D1D1D1"/>
<path d="M294.347 -0.0237427L293.912 170.294L295.551 170.298L295.986 -0.0195639L294.347 -0.0237427Z" fill="#D1D1D1"/>
<path d="M257.781 -0.0150146L257.346 170.302L258.985 170.307L259.42 -0.0108359L257.781 -0.0150146Z" fill="#D1D1D1"/>
<path d="M223.326 48.7297H224.189C224.275 49.0744 224.534 49.6776 225.138 49.6776C225.741 49.6776 226.043 49.1175 226.173 48.7297H226.949C226.949 49.7207 226.13 50.5824 225.138 50.5824C224.016 50.5824 223.326 49.7638 223.326 48.7297Z" fill="#D1D1D1"/>
<path d="M118.305 51.4443H125.249V52.9092H120.03V55.322H124.559V56.7439H120.03V59.4152H125.249V60.9232H118.305V51.4443Z" fill="#D1D1D1"/>
<path d="M69.396 55.8389L66.8514 51.4011H68.6197L70.3018 54.6325L71.9838 51.4011H73.6659L71.1644 55.882L74.0972 60.923H72.2426L70.2155 57.2177L68.2747 60.923H66.5063L69.396 55.8389Z" fill="#D1D1D1"/>
<path d="M90.7021 60.88L90.8747 59.372C91.0472 59.4581 91.2197 59.4581 91.4354 59.4581C92.643 59.4581 93.2468 58.2087 93.2468 54.1155V51.4011H99.4144V60.88H97.8186V52.866H94.7995V54.3309C94.7995 58.9411 93.98 60.9661 91.8235 60.9661C91.4354 61.0092 90.9609 60.9661 90.7021 60.88Z" fill="#D1D1D1"/>
<path d="M144.011 51.4443H149.876V52.8662H145.477V55.322H147.418C149.143 55.322 150.437 56.1407 150.437 58.1226C150.437 60.0614 149.143 60.9232 147.418 60.9232H144.011V51.4443ZM147.245 59.5013C148.281 59.5013 148.971 59.0705 148.971 58.1226C148.971 57.2178 148.324 56.7439 147.245 56.7439H145.477V59.5444H147.245V59.5013Z" fill="#D1D1D1"/>
<path d="M168.81 51.4443H170.276V55.279H174.115V51.4443H175.581V60.9232H174.115V56.7008H170.276V60.9232H168.81V51.4443Z" fill="#D1D1D1"/>
<path d="M194.688 51.4443H196.154V55.1928H197.362C199.13 55.1928 200.467 56.0545 200.467 58.0364C200.467 60.0184 199.13 60.9232 197.405 60.9232H194.688V51.4443ZM197.233 59.5013C198.268 59.5013 198.958 59.0705 198.958 58.0795C198.958 57.1316 198.311 56.6146 197.233 56.6146H196.111V59.5013H197.233ZM201.589 51.4443H203.055V60.9232H201.589V51.4443Z" fill="#D1D1D1"/>
<path d="M221.73 51.4443H223.197V58.3811H223.24L227.079 51.4443H228.674V60.9232H227.208V54.0295H227.165L223.326 60.9232H221.73V51.4443Z" fill="#D1D1D1"/>
<path d="M11.1707 60.3198H9.53174C9.53174 54.4602 5.77944 49.7208 1.16455 49.7208V48.0835C6.68517 48.0835 11.1707 53.5985 11.1707 60.3198Z" fill="#D1D1D1"/>
<path d="M11.1707 60.3198H9.53174C9.53174 53.5554 14.0172 48.0835 19.5379 48.0835V49.7208C14.923 49.7208 11.1707 54.5033 11.1707 60.3198Z" fill="#D1D1D1"/>
<path d="M18.7027 -0.0243683L18.2676 170.293L19.9065 170.297L20.3417 -0.0201895L18.7027 -0.0243683Z" fill="#D1D1D1"/>
<path d="M9.50546 0.0083313L9.07031 170.326L10.7092 170.33L11.1444 0.0125101L9.50546 0.0083313Z" fill="#D1D1D1"/>
<path d="M27.6993 0.00111389L27.2642 170.319L28.9031 170.323L29.3382 0.00529268L27.6993 0.00111389Z" fill="#D1D1D1"/>
<path d="M11.1707 51.2289H9.53174C9.53174 45.3692 5.77944 40.6298 1.16455 40.6298V38.9926C6.68517 38.9926 11.1707 44.5075 11.1707 51.2289Z" fill="#D1D1D1"/>
<path d="M11.1707 51.2289H9.53174C9.53174 44.4644 14.0172 38.9926 19.5379 38.9926V40.6298C14.923 40.6729 11.1707 45.4123 11.1707 51.2289Z" fill="#D1D1D1"/>
<path d="M11.1707 41.8791H9.53174C9.53174 36.0195 5.77944 31.2801 1.16455 31.2801V29.6428C6.68517 29.6428 11.1707 35.1578 11.1707 41.8791Z" fill="#D1D1D1"/>
<path d="M11.1707 41.8791H9.53174C9.53174 35.1147 14.0172 29.6428 19.5379 29.6428V31.2801C14.923 31.2801 11.1707 36.0626 11.1707 41.8791Z" fill="#D1D1D1"/>
<path d="M29.3713 60.3198H27.7324C27.7324 54.4602 23.9801 49.7208 19.3652 49.7208V48.0835C24.8859 48.0835 29.3713 53.5985 29.3713 60.3198Z" fill="#D1D1D1"/>
<path d="M29.3714 60.3198H27.7324C27.7324 53.5554 32.2179 48.0835 37.7385 48.0835V49.7208C33.1236 49.7208 29.3714 54.5033 29.3714 60.3198Z" fill="#D1D1D1"/>
<path d="M29.3713 51.2289H27.7324C27.7324 45.3692 23.9801 40.6298 19.3652 40.6298V38.9926C24.8859 38.9926 29.3713 44.5075 29.3713 51.2289Z" fill="#D1D1D1"/>
<path d="M29.3714 51.2289H27.7324C27.7324 44.4644 32.2179 38.9926 37.7385 38.9926V40.6298C33.1236 40.6729 29.3714 45.4123 29.3714 51.2289Z" fill="#D1D1D1"/>
<path d="M29.3713 41.8791H27.7324C27.7324 36.0195 23.9801 31.2801 19.3652 31.2801V29.6428C24.8859 29.6428 29.3713 35.1578 29.3713 41.8791Z" fill="#D1D1D1"/>
<path d="M29.3714 41.8791H27.7324C27.7324 35.1147 32.2179 29.6428 37.7385 29.6428V31.2801C33.1236 31.2801 29.3714 36.0626 29.3714 41.8791Z" fill="#D1D1D1"/>
<path d="M11.1707 32.8312H9.53174C9.53174 26.9715 5.77944 22.2321 1.16455 22.2321V20.5948C6.68517 20.5948 11.1707 26.1098 11.1707 32.8312Z" fill="#D1D1D1"/>
<path d="M11.1707 32.8312H9.53174C9.53174 26.0667 14.0172 20.5948 19.5379 20.5948V22.2321C14.923 22.2321 11.1707 27.0146 11.1707 32.8312Z" fill="#D1D1D1"/>
<path d="M29.3713 32.8312H27.7324C27.7324 26.9715 23.9801 22.2321 19.3652 22.2321V20.5948C24.8859 20.5948 29.3713 26.1098 29.3713 32.8312Z" fill="#D1D1D1"/>
<path d="M29.3714 32.8312H27.7324C27.7324 26.0667 32.2179 20.5948 37.7385 20.5948V22.2321C33.1236 22.2321 29.3714 27.0146 29.3714 32.8312Z" fill="#D1D1D1"/>
<path d="M37.8251 59.5012H1.25098V61.1385H37.8251V59.5012Z" fill="#D1D1D1"/>
<path d="M36.9859 -0.0283966L36.5508 170.289L38.1897 170.293L38.6249 -0.0242178L36.9859 -0.0283966Z" fill="#D1D1D1"/>
<path d="M0.420013 -0.0201569L-0.0151367 170.297L1.6238 170.302L2.05895 -0.0159781L0.420013 -0.0201569Z" fill="#D1D1D1"/>
</g>
<defs>
<clipPath id="clip0">
<rect width="296" height="170.317" fill="white"/>
</clipPath>
</defs>
</svg>
