<svg width="19" height="18" viewBox="0 0 19 18" fill="none" xmlns="http://www.w3.org/2000/svg">
<g clip-path="url(#clip0)">
<path d="M18.5195 16.9024C18.5195 17.0429 18.4404 17.1717 18.2822 17.2887C18.124 17.4058 17.8809 17.5024 17.5527 17.5785C17.2246 17.6546 16.8877 17.7248 16.542 17.7892C16.1963 17.8536 15.7539 17.9034 15.2148 17.9385C14.6758 17.9736 14.207 18 13.8086 18.0175C13.4102 18.0351 12.8975 18.0497 12.2705 18.0614C11.6436 18.0731 11.1689 18.079 10.8467 18.079H8.19238L6.76855 18.0614L5.23047 18.0175L3.82422 17.9385L2.49707 17.7892L1.48633 17.5785L0.756836 17.2887L0.519531 16.9024C0.542969 15.8722 1.1875 14.9619 2.45312 14.1717C3.71875 13.3814 5.32422 12.8575 7.26953 12.6V12.0205C6.66016 11.7512 6.13281 11.3707 5.6875 10.879C5.24219 10.3873 4.89062 9.81069 4.63281 9.14923C4.375 8.48777 4.1875 7.77947 4.07031 7.02435C3.95312 6.26923 3.89453 5.45264 3.89453 4.57459C3.89453 3.82532 4.04102 3.15801 4.33398 2.57264C4.62695 1.98727 5.03125 1.51605 5.54688 1.15898C6.0625 0.801907 6.6543 0.532638 7.32227 0.351175C7.99023 0.169711 8.72266 0.0789795 9.51953 0.0789795C10.3164 0.0789795 11.0488 0.169711 11.7168 0.351175C12.3848 0.532638 12.9766 0.801907 13.4922 1.15898C14.0078 1.51605 14.4121 1.98727 14.7051 2.57264C14.998 3.15801 15.1445 3.82532 15.1445 4.57459C15.1445 8.67216 14.0195 11.1658 11.7695 12.0556V12.6C13.7148 12.8575 15.3203 13.3814 16.5859 14.1717C17.8516 14.9619 18.4961 15.8722 18.5195 16.9024Z" fill="black" fill-opacity="0.3"/>
</g>
<defs>
<clipPath id="clip0">
<rect width="18" height="18" fill="white" transform="translate(0.519531)"/>
</clipPath>
</defs>
</svg>
