<svg width="19" height="18" viewBox="0 0 19 18" fill="none" xmlns="http://www.w3.org/2000/svg">
<g clip-path="url(#clip0)">
<path d="M9.51953 0C4.54897 0 0.519531 4.02943 0.519531 9C0.519531 13.9706 4.54897 18 9.51953 18C14.4901 18 18.5195 13.9706 18.5195 9C18.5195 4.02943 14.4901 0 9.51953 0ZM9.51953 3.0487C11.9973 3.0487 14.0063 5.05776 14.0063 7.53552C14.0063 8.28607 13.8007 9.27689 13.3779 9.83714L9.51953 14.9513L5.66113 9.83716C5.19569 9.22032 5.0327 8.36418 5.0327 7.53555C5.03272 5.05776 7.04176 3.0487 9.51953 3.0487ZM9.51953 5.64807C8.47699 5.64807 7.63208 6.49298 7.63208 7.53552C7.63208 8.57806 8.47699 9.42297 9.51953 9.42297C10.5621 9.42297 11.407 8.57806 11.407 7.53552C11.407 6.49298 10.5621 5.64807 9.51953 5.64807Z" fill="black" fill-opacity="0.3"/>
</g>
<defs>
<clipPath id="clip0">
<rect width="18" height="18" fill="white" transform="translate(0.519531)"/>
</clipPath>
</defs>
</svg>
